<svg xmlns="http://www.w3.org/2000/svg" width="42" height="48.017" viewBox="0 0 42 48.017">
  <g id="Protection" transform="translate(-3 0.019)">
    <path id="Trazado_1383751" data-name="Trazado 1383751" d="M43.23,8.56C22.74-.66,24.17-.18,23.59.09L4.77,8.56A3,3,0,0,0,3,11.29v4.78A35,35,0,0,0,23.59,47.91a1,1,0,0,0,.82,0A35,35,0,0,0,45,16.07V11.29a3,3,0,0,0-1.77-2.73ZM43,16.07A33,33,0,0,1,24,45.9,33,33,0,0,1,5,16.07c0-5-.19-5.34.59-5.69L24,2.1l18.41,8.28c.79.36.59.69.59,5.69Z" fill="#727997"/>
    <path id="Trazado_1383752" data-name="Trazado 1383752" d="M40.45,12.11c-17.32-8.66-16.26-8.32-16.9-8C6.34,12.71,7,12.12,7,13v4.54A27.72,27.72,0,0,0,23.6,42.92a1,1,0,0,0,.8,0A27.72,27.72,0,0,0,41,17.54c0-4.75.18-5.06-.55-5.43ZM39,17.54A25.682,25.682,0,0,1,23.994,40.9,25.68,25.68,0,0,1,9,17.54V13.62l15-7.5,15,7.5Z" fill="#727997"/>
    <path id="Trazado_1383753" data-name="Trazado 1383753" d="M20.21,21.79A3.13,3.13,0,0,0,14.88,24c0,1.72.84,2.13,5,6.29a3,3,0,0,0,4.24,0c8.68-8.67,9-8.56,9-10.29a3.13,3.13,0,0,0-5.33-2.21L22,23.59Zm9-2.58a1.12,1.12,0,0,1,1.91.79c0,.65.39.08-8.41,8.88a1,1,0,0,1-1.42,0l-4.08-4.09a1.12,1.12,0,0,1,1.58-1.58l2.5,2.5a1,1,0,0,0,1.42,0Z" fill="#727997"/>
  </g>
</svg>
