<svg xmlns="http://www.w3.org/2000/svg" width="53.888" height="48.926" viewBox="0 0 53.888 48.926">
  <g id="Grupo_1212913" data-name="Grupo 1212913" transform="translate(-32 -52.625)">
    <path id="Trazado_1383730" data-name="Trazado 1383730" d="M273.121,435.579a1.082,1.082,0,1,0,.826.068A1.082,1.082,0,0,0,273.121,435.579Z" transform="translate(-211.456 -336.845)" fill="#727997"/>
    <path id="Trazado_1383731" data-name="Trazado 1383731" d="M299.759,427.041a1.082,1.082,0,1,0,1.361.7A1.082,1.082,0,0,0,299.759,427.041Z" transform="translate(-234.89 -329.334)" fill="#727997"/>
    <path id="Trazado_1383732" data-name="Trazado 1383732" d="M58.43,99.388a22.466,22.466,0,1,1,20.029-26.6.962.962,0,0,0,1.891-.36A24.392,24.392,0,1,0,58.6,101.305a.962.962,0,0,0-.172-1.917Z" transform="translate(0)" fill="#727997"/>
    <path id="Trazado_1383733" data-name="Trazado 1383733" d="M325.975,249.968h-1.331V245.7a2.77,2.77,0,0,0-2.767-2.767h-.64a2.89,2.89,0,0,0-2.887,2.887v4.152H314.6V245.7a2.77,2.77,0,0,0-2.767-2.767h-.64a2.89,2.89,0,0,0-2.887,2.887v4.152h-1.331a.962.962,0,0,0-.962.962v4.012a.962.962,0,0,0,.962.962H308.3v7.014a2.649,2.649,0,0,0,2.646,2.646h2.159V268a.962.962,0,0,0,.962.962h4.806a.962.962,0,0,0,.962-.962v-2.437H322a2.649,2.649,0,0,0,2.646-2.646V255.9h1.331a.962.962,0,0,0,.962-.962V250.93A.962.962,0,0,0,325.975,249.968Zm-5.7-4.152a.963.963,0,0,1,.962-.962h.64a.843.843,0,0,1,.842.842v4.272h-2.444Zm-10.048,0a.963.963,0,0,1,.962-.962h.64a.843.843,0,0,1,.842.842v4.272h-2.444Zm7.687,21.224h-2.881v-1.475h2.881Zm4.806-4.121a.723.723,0,0,1-.722.722H310.949a.723.723,0,0,1-.722-.722V255.9h12.492Zm2.294-8.939H307.933v-2.088h17.079Z" transform="translate(-241.05 -167.413)" fill="#727997"/>
    <path id="Trazado_1383734" data-name="Trazado 1383734" d="M149.186,157.689a.962.962,0,0,0,1.2-.213l15.347-17.8a.963.963,0,0,0-.671-1.589L158,137.663l3.538-9.465a.963.963,0,0,0-.9-1.3h-9.153a.962.962,0,0,0-.9.623l-5.81,15.425a.963.963,0,0,0,.809,1.3l6.793.648-3.641,11.669a.962.962,0,0,0,.451,1.128Zm5.38-13.355a.963.963,0,0,0-.827-1.245l-6.721-.642,5.132-13.624h7.1l-3.508,9.386a.963.963,0,0,0,.844,1.3l6.416.384-11.048,12.815Z" transform="translate(-99.154 -65.34)" fill="#727997"/>
  </g>
</svg>
