<svg xmlns="http://www.w3.org/2000/svg" width="52.31" height="52.31" viewBox="0 0 52.31 52.31">
  <path id="Trazado_1383728" data-name="Trazado 1383728" d="M51.3,20.907l-5.2-.927a20.762,20.762,0,0,0-1.475-3.558l3.026-4.337a1.226,1.226,0,0,0-.139-1.568L41.792,4.8a1.226,1.226,0,0,0-1.568-.139L35.886,7.692a20.771,20.771,0,0,0-3.557-1.475L31.4,1.011A1.226,1.226,0,0,0,30.195,0h-8.08a1.226,1.226,0,0,0-1.207,1.011L19.98,6.217a20.759,20.759,0,0,0-3.557,1.475L12.086,4.665a1.226,1.226,0,0,0-1.568.139L4.8,10.517a1.226,1.226,0,0,0-.139,1.569l3.026,4.337a20.776,20.776,0,0,0-1.475,3.557l-5.2.926A1.226,1.226,0,0,0,0,22.115v8.08A1.226,1.226,0,0,0,1.011,31.4l5.2.927a20.779,20.779,0,0,0,1.475,3.558L4.665,40.224A1.226,1.226,0,0,0,4.8,41.792l5.714,5.713a1.226,1.226,0,0,0,1.568.139l4.338-3.027a20.754,20.754,0,0,0,3.557,1.475l.927,5.205a1.226,1.226,0,0,0,1.207,1.011h8.08A1.226,1.226,0,0,0,31.4,51.3l.927-5.2a20.762,20.762,0,0,0,3.558-1.475l4.337,3.026a1.226,1.226,0,0,0,1.568-.139l5.713-5.714a1.226,1.226,0,0,0,.139-1.568l-3.026-4.338a20.757,20.757,0,0,0,1.475-3.557L51.3,31.4a1.226,1.226,0,0,0,1.011-1.207v-8.08A1.226,1.226,0,0,0,51.3,20.907Zm-1.441,8.26-4.945.881a1.226,1.226,0,0,0-.969.889,18.311,18.311,0,0,1-1.829,4.41,1.226,1.226,0,0,0,.056,1.315l2.875,4.121-4.26,4.261L36.664,42.17a1.226,1.226,0,0,0-1.315-.056,18.312,18.312,0,0,1-4.411,1.829,1.226,1.226,0,0,0-.889.969l-.881,4.945H23.142l-.881-4.945a1.226,1.226,0,0,0-.889-.969,18.311,18.311,0,0,1-4.41-1.829,1.226,1.226,0,0,0-1.315.056l-4.122,2.875L7.264,40.784l2.875-4.121a1.226,1.226,0,0,0,.056-1.315,18.307,18.307,0,0,1-1.829-4.411,1.226,1.226,0,0,0-.969-.889l-4.945-.881V23.142l4.945-.88a1.226,1.226,0,0,0,.969-.889,18.313,18.313,0,0,1,1.829-4.411,1.226,1.226,0,0,0-.056-1.315L7.264,11.525l4.261-4.261,4.121,2.875a1.226,1.226,0,0,0,1.315.056,18.313,18.313,0,0,1,4.41-1.829,1.226,1.226,0,0,0,.889-.969l.881-4.946h6.026L30.048,7.4a1.226,1.226,0,0,0,.889.969,18.307,18.307,0,0,1,4.41,1.829,1.226,1.226,0,0,0,1.315-.056l4.122-2.875,4.261,4.261L42.17,15.646a1.226,1.226,0,0,0-.056,1.315,18.306,18.306,0,0,1,1.829,4.411,1.226,1.226,0,0,0,.969.889l4.945.881Zm-23.7-17.075A14.062,14.062,0,1,0,40.216,26.155,14.077,14.077,0,0,0,26.155,12.093Zm0,25.671a11.61,11.61,0,1,1,11.61-11.61A11.61,11.61,0,0,1,26.155,37.764Zm8.224-11.61a1.226,1.226,0,0,1-1.226,1.226H27.381v5.772a1.226,1.226,0,1,1-2.452,0V27.381H19.156a1.226,1.226,0,1,1,0-2.452h5.772V19.156a1.226,1.226,0,1,1,2.452,0v5.772h5.772A1.226,1.226,0,0,1,34.379,26.155Z" fill="#727997"/>
</svg>
