<svg xmlns="http://www.w3.org/2000/svg" width="48.421" height="49.535" viewBox="0 0 48.421 49.535">
  <g id="Grupo_1212932" data-name="Grupo 1212932" transform="translate(-0.72)">
    <g id="Grupo_1212925" data-name="Grupo 1212925" transform="translate(0.72 0)">
      <g id="Grupo_1212915" data-name="Grupo 1212915">
        <path id="Trazado_1383737" data-name="Trazado 1383737" d="M45.472,49.535H4.4A3.68,3.68,0,0,1,.72,45.866V3.684A3.693,3.693,0,0,1,4.4,0H45.472a3.685,3.685,0,0,1,3.669,3.684V45.859A3.678,3.678,0,0,1,45.472,49.535ZM4.4,1.5A2.185,2.185,0,0,0,2.222,3.684V45.859A2.177,2.177,0,0,0,4.4,48.026H45.472a2.169,2.169,0,0,0,2.167-2.167V3.684A2.177,2.177,0,0,0,45.472,1.5Z" transform="translate(-0.72 0)" fill="#727997"/>
      </g>
      <g id="Grupo_1212916" data-name="Grupo 1212916" transform="translate(36.919 18.39)">
        <path id="Trazado_1383738" data-name="Trazado 1383738" d="M51.826,30.571a3.406,3.406,0,1,1,3.406-3.406A3.406,3.406,0,0,1,51.826,30.571Zm0-5.31a1.9,1.9,0,1,0,1.9,1.9A1.9,1.9,0,0,0,51.826,25.262Z" transform="translate(-48.42 -23.76)" fill="#727997"/>
      </g>
      <g id="Grupo_1212918" data-name="Grupo 1212918" transform="translate(3.769 25.34)">
        <g id="Grupo_1212917" data-name="Grupo 1212917">
          <path id="Trazado_1383739" data-name="Trazado 1383739" d="M9,39.551A3.406,3.406,0,1,1,12.4,36.146,3.406,3.406,0,0,1,9,39.551Zm0-5.31a1.9,1.9,0,1,0,1.9,1.9A1.9,1.9,0,0,0,9,34.242Z" transform="translate(-5.59 -32.74)" fill="#727997"/>
        </g>
      </g>
      <g id="Grupo_1212920" data-name="Grupo 1212920" transform="translate(10.472 31.261)">
        <g id="Grupo_1212919" data-name="Grupo 1212919">
          <path id="Trazado_1383740" data-name="Trazado 1383740" d="M17.656,47.2A3.406,3.406,0,1,1,21.061,43.8,3.406,3.406,0,0,1,17.656,47.2Zm0-5.31a1.9,1.9,0,1,0,1.9,1.9,1.9,1.9,0,0,0-1.9-1.9Z" transform="translate(-14.25 -40.39)" fill="#727997"/>
        </g>
      </g>
      <g id="Grupo_1212921" data-name="Grupo 1212921" transform="translate(17.461 5.217)">
        <path id="Trazado_1383741" data-name="Trazado 1383741" d="M26.593,13.365a3.313,3.313,0,1,1,3.313-3.313,3.316,3.316,0,0,1-3.313,3.313Zm0-5.124A1.811,1.811,0,1,0,28.4,10.053,1.813,1.813,0,0,0,26.593,8.242Z" transform="translate(-23.28 -6.74)" fill="#727997"/>
      </g>
      <g id="Grupo_1212922" data-name="Grupo 1212922" transform="translate(23.978 38.684)">
        <path id="Trazado_1383742" data-name="Trazado 1383742" d="M34.873,56.327a3.173,3.173,0,1,1,3.173-3.173A3.178,3.178,0,0,1,34.873,56.327Zm0-4.845a1.672,1.672,0,1,0,1.672,1.672A1.675,1.675,0,0,0,34.873,51.482Z" transform="translate(-31.7 -49.98)" fill="#727997"/>
      </g>
      <g id="Grupo_1212923" data-name="Grupo 1212923" transform="translate(36.919 31.656)">
        <path id="Trazado_1383743" data-name="Trazado 1383743" d="M51.826,47.711a3.406,3.406,0,1,1,3.406-3.406A3.406,3.406,0,0,1,51.826,47.711Zm0-5.31a1.9,1.9,0,1,0,1.9,1.9A1.9,1.9,0,0,0,51.826,42.4Z" transform="translate(-48.42 -40.9)" fill="#727997"/>
      </g>
      <g id="Grupo_1212924" data-name="Grupo 1212924" transform="translate(23.746 16.223)">
        <path id="Trazado_1383744" data-name="Trazado 1383744" d="M34.806,27.771a3.406,3.406,0,1,1,3.406-3.406A3.406,3.406,0,0,1,34.806,27.771Zm0-5.31a1.9,1.9,0,1,0,1.9,1.9,1.9,1.9,0,0,0-1.9-1.9Z" transform="translate(-31.4 -20.96)" fill="#727997"/>
      </g>
    </g>
    <g id="Grupo_1212926" data-name="Grupo 1212926" transform="translate(7.144 0)">
      <path id="Trazado_1383745" data-name="Trazado 1383745" d="M9.771,26.842a.747.747,0,0,1-.751-.751V.751a.751.751,0,0,1,1.5,0v25.34A.747.747,0,0,1,9.771,26.842Z" transform="translate(-9.02 0)" fill="#727997"/>
    </g>
    <g id="Grupo_1212927" data-name="Grupo 1212927" transform="translate(13.855 0)">
      <path id="Trazado_1383746" data-name="Trazado 1383746" d="M18.441,32.763a.747.747,0,0,1-.751-.751V.751a.751.751,0,1,1,1.5,0V32.012A.751.751,0,0,1,18.441,32.763Z" transform="translate(-17.69 0)" fill="#727997"/>
    </g>
    <g id="Grupo_1212928" data-name="Grupo 1212928" transform="translate(0.72 10.34)">
      <path id="Trazado_1383747" data-name="Trazado 1383747" d="M19.412,45.991H1.471a.751.751,0,0,1,0-1.5H19.412a1.331,1.331,0,0,0,1.331-1.331V14.111a.751.751,0,1,1,1.5,0V43.166a2.833,2.833,0,0,1-2.833,2.825Z" transform="translate(-0.72 -13.36)" fill="#727997"/>
    </g>
    <g id="Grupo_1212929" data-name="Grupo 1212929" transform="translate(29.536 41.106)">
      <path id="Trazado_1383748" data-name="Trazado 1383748" d="M49.451,61.539a.747.747,0,0,1-.751-.751V56.639a2.03,2.03,0,0,0-2.028-2.028H38.7a.751.751,0,0,1,0-1.5h7.972A3.533,3.533,0,0,1,50.2,56.639v4.149A.747.747,0,0,1,49.451,61.539Z" transform="translate(-37.95 -53.11)" fill="#727997"/>
    </g>
    <g id="Grupo_1212930" data-name="Grupo 1212930" transform="translate(27.121 21.532)">
      <path id="Trazado_1383749" data-name="Trazado 1383749" d="M46.1,42.038h-8.2a3.069,3.069,0,0,1-3.065-3.073V28.571a.751.751,0,0,1,1.5,0V38.965A1.572,1.572,0,0,0,37.9,40.537h8.2a.747.747,0,0,1,.751.751A.758.758,0,0,1,46.1,42.038Z" transform="translate(-34.83 -27.82)" fill="#727997"/>
    </g>
    <g id="Grupo_1212931" data-name="Grupo 1212931" transform="translate(40.294 0)">
      <path id="Trazado_1383750" data-name="Trazado 1383750" d="M52.6,19.891a.747.747,0,0,1-.751-.751V.751a.751.751,0,0,1,1.5,0v18.39A.756.756,0,0,1,52.6,19.891Z" transform="translate(-51.85 0)" fill="#727997"/>
    </g>
  </g>
</svg>
