<svg xmlns="http://www.w3.org/2000/svg" xmlns:xlink="http://www.w3.org/1999/xlink" width="500" height="385" viewBox="0 0 500 385">
  <defs>
    <clipPath id="clip-path">
      <rect id="Rectángulo_739097" data-name="Rectángulo 739097" width="76.065" height="82.527" transform="translate(0 0)" fill="none"/>
    </clipPath>
  </defs>
  <g id="Grupo_1211247" data-name="Grupo 1211247" transform="translate(-549.711 -1132)">
    <circle id="Elipse_13807" data-name="Elipse 13807" cx="114" cy="114" r="114" transform="translate(685.711 1261)" fill="#ffe9d9"/>
    <circle id="Elipse_13808" data-name="Elipse 13808" cx="83" cy="83" r="83" transform="translate(716.711 1132)" fill="#e6edf1"/>
    <circle id="Elipse_13809" data-name="Elipse 13809" cx="83" cy="83" r="83" transform="translate(883.711 1351)" fill="#e5effb"/>
    <circle id="Elipse_13810" data-name="Elipse 13810" cx="83" cy="83" r="83" transform="translate(549.711 1351)" fill="#bafbfb"/>
    <path id="Trazado_1383700" data-name="Trazado 1383700" d="M16.4,26H6.324V9.2h9.691v3.082H10.109v3.738h5.5v3.07h-5.5V22.93H16.4Zm1.607-.316v-3a7.884,7.884,0,0,0,1.822.82,6.042,6.042,0,0,0,1.717.27A3.682,3.682,0,0,0,23.1,23.5a.871.871,0,0,0,.568-.82.759.759,0,0,0-.258-.586,2.4,2.4,0,0,0-.662-.41,7.514,7.514,0,0,0-.885-.316q-.48-.141-.926-.316a8.87,8.87,0,0,1-1.26-.58,3.641,3.641,0,0,1-.914-.721A2.833,2.833,0,0,1,18.2,18.8a3.788,3.788,0,0,1-.193-1.277,3.288,3.288,0,0,1,.439-1.734A3.59,3.59,0,0,1,19.62,14.6a5.355,5.355,0,0,1,1.676-.68,8.738,8.738,0,0,1,1.963-.217,10.891,10.891,0,0,1,1.617.123,12.07,12.07,0,0,1,1.617.357v2.859a5.844,5.844,0,0,0-1.506-.615,6.352,6.352,0,0,0-1.576-.205,3.492,3.492,0,0,0-.686.064,2.258,2.258,0,0,0-.568.188,1.044,1.044,0,0,0-.387.316.728.728,0,0,0-.141.439.812.812,0,0,0,.211.563,1.832,1.832,0,0,0,.551.4,5.437,5.437,0,0,0,.756.3q.416.135.826.275a10.741,10.741,0,0,1,1.336.563,4.272,4.272,0,0,1,1.025.715,2.807,2.807,0,0,1,.656.961,3.845,3.845,0,0,1-.234,3.135,3.706,3.706,0,0,1-1.23,1.23,5.58,5.58,0,0,1-1.77.691,9.81,9.81,0,0,1-2.08.217A10.723,10.723,0,0,1,18.009,25.684Zm18.658.176a5.474,5.474,0,0,1-2.473.434q-3.914,0-3.914-4.066v-5.5H28.334V14H30.28V11.41l3.691-1.055V14h2.7v2.73h-2.7v4.852q0,1.875,1.488,1.875a2.509,2.509,0,0,0,1.207-.34Zm9.974-8.52a3.212,3.212,0,0,0-1.559-.363,2.245,2.245,0,0,0-1.887.885,3.86,3.86,0,0,0-.68,2.408V26h-3.7V14h3.7v2.227h.047a3.2,3.2,0,0,1,3.164-2.437,2.385,2.385,0,0,1,.914.141ZM59.9,26H56.2V24.172h-.059a4.188,4.188,0,0,1-3.668,2.121q-4.172,0-4.172-5.051V14H52v6.914q0,2.543,2.016,2.543a1.994,1.994,0,0,0,1.594-.7,2.812,2.812,0,0,0,.6-1.893V14H59.9Zm12.271-.434a7.322,7.322,0,0,1-3.621.727,6.124,6.124,0,0,1-4.477-1.676,5.788,5.788,0,0,1-1.711-4.324,6.376,6.376,0,0,1,1.834-4.822,6.778,6.778,0,0,1,4.9-1.764,6.293,6.293,0,0,1,3.07.563V17.41a4.221,4.221,0,0,0-2.59-.867,3.412,3.412,0,0,0-2.525.932,3.476,3.476,0,0,0-.932,2.572,3.42,3.42,0,0,0,.891,2.5,3.273,3.273,0,0,0,2.449.908,4.888,4.888,0,0,0,2.707-.867Zm9.74.293a5.474,5.474,0,0,1-2.473.434q-3.914,0-3.914-4.066v-5.5H73.574V14H75.52V11.41l3.691-1.055V14h2.7v2.73h-2.7v4.852q0,1.875,1.488,1.875a2.509,2.509,0,0,0,1.207-.34ZM95.455,26H91.763V24.172H91.7a4.188,4.188,0,0,1-3.668,2.121q-4.172,0-4.172-5.051V14h3.691v6.914q0,2.543,2.016,2.543a1.994,1.994,0,0,0,1.594-.7,2.812,2.812,0,0,0,.6-1.893V14h3.691Zm11.005-8.66a3.212,3.212,0,0,0-1.559-.363,2.245,2.245,0,0,0-1.887.885,3.86,3.86,0,0,0-.68,2.408V26h-3.7V14h3.7v2.227h.047a3.2,3.2,0,0,1,3.164-2.437,2.385,2.385,0,0,1,.914.141ZM118.227,26h-3.5V24.277h-.047a3.911,3.911,0,0,1-3.574,2.016,3.739,3.739,0,0,1-2.748-.99,3.548,3.548,0,0,1-1-2.643q0-3.492,4.137-4.031l3.258-.434q0-1.969-2.133-1.969a7.28,7.28,0,0,0-4.078,1.277V14.715a9.175,9.175,0,0,1,2.115-.7,11.119,11.119,0,0,1,2.443-.3q5.133,0,5.133,5.121Zm-3.48-4.875v-.809l-2.18.281q-1.8.234-1.8,1.629a1.346,1.346,0,0,0,.439,1.037,1.689,1.689,0,0,0,1.189.4,2.192,2.192,0,0,0,1.7-.721A2.6,2.6,0,0,0,114.747,21.125ZM17.674,50h-3.7V48.348h-.047a4.152,4.152,0,0,1-3.715,1.945,4.55,4.55,0,0,1-3.621-1.588A6.573,6.573,0,0,1,5.217,44.27,7.154,7.154,0,0,1,6.729,39.5a4.931,4.931,0,0,1,3.961-1.793,3.369,3.369,0,0,1,3.234,1.664h.047V32.234h3.7Zm-3.633-5.836v-.9a2.839,2.839,0,0,0-.68-1.945,2.245,2.245,0,0,0-1.77-.773,2.231,2.231,0,0,0-1.922.967,4.49,4.49,0,0,0-.691,2.654A3.885,3.885,0,0,0,9.647,46.6a2.218,2.218,0,0,0,1.852.855,2.227,2.227,0,0,0,1.834-.9A3.761,3.761,0,0,0,14.041,44.164Zm17.591.891H23.8q.188,2.613,3.293,2.613a6.429,6.429,0,0,0,3.48-.937V49.4a9.143,9.143,0,0,1-4.324.891,6.087,6.087,0,0,1-4.512-1.611,6.088,6.088,0,0,1-1.605-4.494,6.422,6.422,0,0,1,1.734-4.734,5.778,5.778,0,0,1,4.266-1.746A5.244,5.244,0,0,1,30.2,39.266a6,6,0,0,1,1.436,4.23ZM28.2,42.781q0-2.578-2.086-2.578a1.992,1.992,0,0,0-1.541.738,3.351,3.351,0,0,0-.791,1.84ZM37.6,50H33.9V32.234h3.7Zm19.843,0h-3.5V48.277h-.047a3.911,3.911,0,0,1-3.574,2.016,3.739,3.739,0,0,1-2.748-.99,3.548,3.548,0,0,1-1-2.643q0-3.492,4.137-4.031l3.258-.434q0-1.969-2.133-1.969A7.28,7.28,0,0,0,47.75,41.5V38.715a9.175,9.175,0,0,1,2.115-.7,11.119,11.119,0,0,1,2.443-.3q5.133,0,5.133,5.121Zm-3.48-4.875v-.809l-2.18.281q-1.8.234-1.8,1.629a1.346,1.346,0,0,0,.439,1.037,1.689,1.689,0,0,0,1.189.4,2.192,2.192,0,0,0,1.7-.721A2.6,2.6,0,0,0,53.961,45.125ZM56.34,32.316,52.672,36.1H50l3.047-3.785ZM67.685,49.859a5.474,5.474,0,0,1-2.473.434q-3.914,0-3.914-4.066v-5.5H59.353V38H61.3V35.41l3.691-1.055V38h2.7v2.73h-2.7v4.852q0,1.875,1.488,1.875a2.509,2.509,0,0,0,1.207-.34Zm7.771.434a6.451,6.451,0,0,1-4.717-1.682,6.1,6.1,0,0,1-1.717-4.564A6.1,6.1,0,0,1,70.8,39.389a6.73,6.73,0,0,1,4.816-1.682,6.373,6.373,0,0,1,4.688,1.682,5.978,5.978,0,0,1,1.7,4.447,6.345,6.345,0,0,1-1.752,4.723A6.522,6.522,0,0,1,75.456,50.293Zm.094-9.75a2.47,2.47,0,0,0-2.039.9A3.979,3.979,0,0,0,72.784,44q0,3.457,2.789,3.457,2.66,0,2.66-3.551Q78.233,40.543,75.55,40.543ZM103.524,50H99.832V43.156q0-2.613-1.922-2.613a1.766,1.766,0,0,0-1.488.785,3.227,3.227,0,0,0-.574,1.957V50h-3.7V43.086q0-2.543-1.887-2.543a1.809,1.809,0,0,0-1.518.75,3.3,3.3,0,0,0-.568,2.039V50h-3.7V38h3.7v1.875h.047A4.547,4.547,0,0,1,92.1,37.707a3.455,3.455,0,0,1,3.48,2.238,4.439,4.439,0,0,1,4.031-2.238q3.914,0,3.914,4.828Zm8.708.293a6.451,6.451,0,0,1-4.717-1.682,6.1,6.1,0,0,1-1.717-4.564,6.1,6.1,0,0,1,1.781-4.658,6.73,6.73,0,0,1,4.816-1.682,6.373,6.373,0,0,1,4.688,1.682,5.978,5.978,0,0,1,1.7,4.447,6.345,6.345,0,0,1-1.752,4.723A6.522,6.522,0,0,1,112.232,50.293Zm.094-9.75a2.47,2.47,0,0,0-2.039.9A3.979,3.979,0,0,0,109.56,44q0,3.457,2.789,3.457,2.66,0,2.66-3.551Q115.01,40.543,112.326,40.543Z" transform="translate(738 1320)" fill="#12263f"/>
    <path id="Trazado_1383701" data-name="Trazado 1383701" d="M21.474,17H19.865L14.1,8.07a3.731,3.731,0,0,1-.359-.7h-.047a11.534,11.534,0,0,1,.063,1.539V17H12.443V5.8h1.7l5.609,8.789q.352.547.453.75h.031a11.853,11.853,0,0,1-.078-1.648V5.8h1.313Zm9.235-3.68H25.061a2.992,2.992,0,0,0,.719,2.063,2.478,2.478,0,0,0,1.891.727,3.931,3.931,0,0,0,2.484-.891v1.2a4.643,4.643,0,0,1-2.789.766A3.381,3.381,0,0,1,24.7,16.1a4.461,4.461,0,0,1-.969-3.066,4.375,4.375,0,0,1,1.059-3.043,3.394,3.394,0,0,1,2.629-1.176,3.008,3.008,0,0,1,2.43,1.016,4.234,4.234,0,0,1,.859,2.82ZM29.4,12.234a2.607,2.607,0,0,0-.535-1.727A1.823,1.823,0,0,0,27.4,9.891a2.07,2.07,0,0,0-1.539.648,2.943,2.943,0,0,0-.781,1.7ZM39.156,17H37.875V15.734h-.031a2.631,2.631,0,0,1-2.469,1.453q-2.859,0-2.859-3.406V9h1.273v4.578q0,2.531,1.938,2.531a1.96,1.96,0,0,0,1.543-.691,2.645,2.645,0,0,0,.605-1.809V9h1.281Zm6.337-.078a2.47,2.47,0,0,1-1.2.25q-2.1,0-2.1-2.344V10.094H40.821V9H42.2V7.047l1.281-.414V9h2.016v1.094H43.477V14.6a1.869,1.869,0,0,0,.273,1.148,1.091,1.091,0,0,0,.906.344,1.347,1.347,0,0,0,.836-.266ZM51.416,10.3a1.567,1.567,0,0,0-.969-.258,1.635,1.635,0,0,0-1.371.773,3.576,3.576,0,0,0-.551,2.109V17H47.244V9h1.281v1.648h.031a2.794,2.794,0,0,1,.836-1.316,1.906,1.906,0,0,1,1.258-.473,2.092,2.092,0,0,1,.766.109Zm4.774,6.891a3.711,3.711,0,0,1-2.832-1.121A4.153,4.153,0,0,1,52.3,13.094a4.326,4.326,0,0,1,1.1-3.148,3.96,3.96,0,0,1,2.977-1.133,3.588,3.588,0,0,1,2.793,1.1,4.368,4.368,0,0,1,1,3.055,4.3,4.3,0,0,1-1.082,3.066A3.791,3.791,0,0,1,56.19,17.188Zm.094-7.3a2.437,2.437,0,0,0-1.953.84,3.449,3.449,0,0,0-.719,2.316,3.262,3.262,0,0,0,.727,2.242,2.469,2.469,0,0,0,1.945.82,2.342,2.342,0,0,0,1.91-.8,3.492,3.492,0,0,0,.668-2.289,3.552,3.552,0,0,0-.668-2.312A2.332,2.332,0,0,0,56.284,9.891ZM68.9,17H67.621V12.438q0-2.547-1.859-2.547a2.017,2.017,0,0,0-1.59.723,2.679,2.679,0,0,0-.629,1.824V17H62.261V9h1.281v1.328h.031A2.887,2.887,0,0,1,66.2,8.813a2.448,2.448,0,0,1,2.008.848,3.776,3.776,0,0,1,.7,2.449Zm8.884-3.68H72.137a2.992,2.992,0,0,0,.719,2.063,2.478,2.478,0,0,0,1.891.727,3.931,3.931,0,0,0,2.484-.891v1.2a4.643,4.643,0,0,1-2.789.766,3.381,3.381,0,0,1-2.664-1.09,4.461,4.461,0,0,1-.969-3.066,4.375,4.375,0,0,1,1.059-3.043A3.394,3.394,0,0,1,74.5,8.813a3.008,3.008,0,0,1,2.43,1.016,4.234,4.234,0,0,1,.859,2.82Zm-1.312-1.086a2.607,2.607,0,0,0-.535-1.727,1.823,1.823,0,0,0-1.465-.617,2.07,2.07,0,0,0-1.539.648,2.943,2.943,0,0,0-.781,1.7Zm2.806,4.477V15.336a3.792,3.792,0,0,0,2.3.773q1.688,0,1.688-1.125a.976.976,0,0,0-.145-.543,1.44,1.44,0,0,0-.391-.395,3.007,3.007,0,0,0-.578-.309q-.332-.137-.715-.285a9.207,9.207,0,0,1-.934-.426,2.82,2.82,0,0,1-.672-.484,1.8,1.8,0,0,1-.406-.613,2.17,2.17,0,0,1-.137-.8,1.912,1.912,0,0,1,.258-1A2.286,2.286,0,0,1,80.24,9.4a3.206,3.206,0,0,1,.98-.441,4.349,4.349,0,0,1,1.137-.148,4.59,4.59,0,0,1,1.859.359v1.3a3.624,3.624,0,0,0-2.031-.578,2.374,2.374,0,0,0-.648.082,1.587,1.587,0,0,0-.5.23,1.065,1.065,0,0,0-.32.355.936.936,0,0,0-.113.457,1.1,1.1,0,0,0,.113.523,1.152,1.152,0,0,0,.332.375,2.538,2.538,0,0,0,.531.3q.313.133.711.289a9.9,9.9,0,0,1,.953.418,3.269,3.269,0,0,1,.719.484,1.893,1.893,0,0,1,.457.621,2,2,0,0,1,.16.836,1.971,1.971,0,0,1-.262,1.031,2.243,2.243,0,0,1-.7.727,3.2,3.2,0,0,1-1.008.43,4.976,4.976,0,0,1-1.2.141A4.539,4.539,0,0,1,79.279,16.711Zm8.485-1.492-1.25,3.844H85.6l.914-3.844Zm6.275,1.492V15.336a3.792,3.792,0,0,0,2.3.773q1.688,0,1.688-1.125a.976.976,0,0,0-.145-.543,1.44,1.44,0,0,0-.391-.395,3.007,3.007,0,0,0-.578-.309q-.332-.137-.715-.285a9.207,9.207,0,0,1-.934-.426,2.82,2.82,0,0,1-.672-.484,1.8,1.8,0,0,1-.406-.613,2.17,2.17,0,0,1-.137-.8,1.912,1.912,0,0,1,.258-1A2.286,2.286,0,0,1,95,9.4a3.206,3.206,0,0,1,.98-.441,4.349,4.349,0,0,1,1.137-.148,4.59,4.59,0,0,1,1.859.359v1.3a3.624,3.624,0,0,0-2.031-.578,2.374,2.374,0,0,0-.648.082,1.587,1.587,0,0,0-.5.23,1.065,1.065,0,0,0-.32.355.936.936,0,0,0-.113.457,1.1,1.1,0,0,0,.113.523,1.152,1.152,0,0,0,.332.375,2.538,2.538,0,0,0,.531.3q.313.133.711.289a9.9,9.9,0,0,1,.953.418,3.269,3.269,0,0,1,.719.484,1.893,1.893,0,0,1,.457.621,2,2,0,0,1,.16.836,1.971,1.971,0,0,1-.262,1.031,2.243,2.243,0,0,1-.7.727,3.2,3.2,0,0,1-1.008.43,4.976,4.976,0,0,1-1.2.141A4.539,4.539,0,0,1,94.039,16.711Zm7.97-9.742a.812.812,0,0,1-.586-.234.791.791,0,0,1-.242-.594.821.821,0,0,1,.828-.836.827.827,0,0,1,.6.238.835.835,0,0,1,0,1.184A.82.82,0,0,1,102.009,6.969ZM102.634,17h-1.281V9h1.281Zm9.274,0h-1.281V12.438q0-2.547-1.859-2.547a2.017,2.017,0,0,0-1.59.723,2.679,2.679,0,0,0-.629,1.824V17h-1.281V9h1.281v1.328h.031a2.887,2.887,0,0,1,2.625-1.516,2.448,2.448,0,0,1,2.008.848,3.776,3.776,0,0,1,.7,2.449ZM16,40.633a4.163,4.163,0,0,1-2.188.555,3.622,3.622,0,0,1-2.762-1.113A4.035,4.035,0,0,1,10,37.188a4.435,4.435,0,0,1,1.133-3.176,3.963,3.963,0,0,1,3.023-1.2,4.209,4.209,0,0,1,1.859.391v1.313a3.258,3.258,0,0,0-1.906-.625,2.576,2.576,0,0,0-2.012.879,3.335,3.335,0,0,0-.785,2.309,3.176,3.176,0,0,0,.738,2.219,2.545,2.545,0,0,0,1.98.813,3.211,3.211,0,0,0,1.969-.7ZM23.7,41H22.424V39.75h-.031a2.682,2.682,0,0,1-2.461,1.438,2.63,2.63,0,0,1-1.871-.633,2.192,2.192,0,0,1-.676-1.68q0-2.242,2.641-2.609l2.4-.336q0-2.039-1.648-2.039a3.938,3.938,0,0,0-2.609.984V33.563a4.958,4.958,0,0,1,2.719-.75q2.82,0,2.82,2.984Zm-1.281-4.047-1.93.266a3.133,3.133,0,0,0-1.344.441,1.273,1.273,0,0,0-.453,1.121,1.221,1.221,0,0,0,.418.957,1.615,1.615,0,0,0,1.113.371,2.056,2.056,0,0,0,1.574-.668,2.387,2.387,0,0,0,.621-1.691ZM30.331,34.3a1.567,1.567,0,0,0-.969-.258,1.635,1.635,0,0,0-1.371.773,3.576,3.576,0,0,0-.551,2.109V41H26.159V33H27.44v1.648h.031a2.793,2.793,0,0,1,.836-1.316,1.906,1.906,0,0,1,1.258-.473,2.092,2.092,0,0,1,.766.109Zm8.259,6.063q0,4.406-4.219,4.406a5.664,5.664,0,0,1-2.594-.562V42.922a5.327,5.327,0,0,0,2.578.75q2.953,0,2.953-3.141v-.875h-.031a3.237,3.237,0,0,1-5.152.465,4.263,4.263,0,0,1-.91-2.863,4.981,4.981,0,0,1,.98-3.242,3.275,3.275,0,0,1,2.684-1.2,2.608,2.608,0,0,1,2.4,1.3h.031V33H38.59Zm-1.281-2.977V36.2a2.289,2.289,0,0,0-.645-1.633,2.122,2.122,0,0,0-1.605-.68,2.225,2.225,0,0,0-1.859.863,3.853,3.853,0,0,0-.672,2.418,3.308,3.308,0,0,0,.645,2.137,2.082,2.082,0,0,0,1.707.8,2.23,2.23,0,0,0,1.754-.766A2.854,2.854,0,0,0,37.308,37.383ZM46.95,41H45.669V39.75h-.031a2.682,2.682,0,0,1-2.461,1.438,2.63,2.63,0,0,1-1.871-.633,2.192,2.192,0,0,1-.676-1.68q0-2.242,2.641-2.609l2.4-.336q0-2.039-1.648-2.039a3.938,3.938,0,0,0-2.609.984V33.563a4.958,4.958,0,0,1,2.719-.75q2.82,0,2.82,2.984Zm-1.281-4.047-1.93.266a3.133,3.133,0,0,0-1.344.441,1.273,1.273,0,0,0-.453,1.121,1.221,1.221,0,0,0,.418.957,1.615,1.615,0,0,0,1.113.371,2.056,2.056,0,0,0,1.574-.668,2.387,2.387,0,0,0,.621-1.691Zm14.588.367H54.608a2.992,2.992,0,0,0,.719,2.063,2.478,2.478,0,0,0,1.891.727,3.931,3.931,0,0,0,2.484-.891v1.2a4.643,4.643,0,0,1-2.789.766,3.381,3.381,0,0,1-2.664-1.09,4.461,4.461,0,0,1-.969-3.066,4.375,4.375,0,0,1,1.059-3.043,3.394,3.394,0,0,1,2.629-1.176,3.008,3.008,0,0,1,2.43,1.016,4.234,4.234,0,0,1,.859,2.82Zm-1.312-1.086a2.607,2.607,0,0,0-.535-1.727,1.823,1.823,0,0,0-1.465-.617,2.07,2.07,0,0,0-1.539.648,2.943,2.943,0,0,0-.781,1.7ZM63.515,41H62.234V29.156h1.281Zm9.063-3.68H66.93a2.992,2.992,0,0,0,.719,2.063,2.478,2.478,0,0,0,1.891.727,3.931,3.931,0,0,0,2.484-.891v1.2a4.643,4.643,0,0,1-2.789.766,3.381,3.381,0,0,1-2.664-1.09,4.461,4.461,0,0,1-.969-3.066,4.375,4.375,0,0,1,1.059-3.043,3.394,3.394,0,0,1,2.629-1.176,3.008,3.008,0,0,1,2.43,1.016,4.234,4.234,0,0,1,.859,2.82Zm-1.312-1.086a2.607,2.607,0,0,0-.535-1.727,1.823,1.823,0,0,0-1.465-.617,2.07,2.07,0,0,0-1.539.648,2.943,2.943,0,0,0-.781,1.7Zm-.2-7.312-2.047,2.563h-.992l1.742-2.562Zm8.946,11.711a4.163,4.163,0,0,1-2.187.555,3.622,3.622,0,0,1-2.762-1.113,4.035,4.035,0,0,1-1.051-2.887,4.435,4.435,0,0,1,1.133-3.176,3.963,3.963,0,0,1,3.023-1.2,4.209,4.209,0,0,1,1.859.391v1.313a3.258,3.258,0,0,0-1.906-.625,2.576,2.576,0,0,0-2.012.879,3.335,3.335,0,0,0-.785,2.309A3.176,3.176,0,0,0,76.06,39.3a2.545,2.545,0,0,0,1.98.813,3.211,3.211,0,0,0,1.969-.7Zm5.688.289a2.47,2.47,0,0,1-1.2.25q-2.1,0-2.1-2.344V34.094H81.026V33H82.4V31.047l1.281-.414V33H85.7v1.094H83.682V38.6a1.869,1.869,0,0,0,.273,1.148,1.091,1.091,0,0,0,.906.344,1.347,1.347,0,0,0,.836-.266ZM91.62,34.3a1.567,1.567,0,0,0-.969-.258,1.635,1.635,0,0,0-1.371.773,3.576,3.576,0,0,0-.551,2.109V41H87.449V33H88.73v1.648h.031a2.793,2.793,0,0,1,.836-1.316,1.906,1.906,0,0,1,1.258-.473,2.092,2.092,0,0,1,.766.109Zm2.087-3.328a.812.812,0,0,1-.586-.234.791.791,0,0,1-.242-.594.821.821,0,0,1,.828-.836.827.827,0,0,1,.6.238.835.835,0,0,1,0,1.184A.82.82,0,0,1,93.707,30.969ZM94.332,41H93.051V33h1.281Zm8.087-.367a4.163,4.163,0,0,1-2.187.555,3.622,3.622,0,0,1-2.762-1.113,4.035,4.035,0,0,1-1.051-2.887,4.435,4.435,0,0,1,1.133-3.176,3.963,3.963,0,0,1,3.023-1.2,4.209,4.209,0,0,1,1.859.391v1.313a3.258,3.258,0,0,0-1.906-.625,2.576,2.576,0,0,0-2.012.879,3.335,3.335,0,0,0-.785,2.309A3.176,3.176,0,0,0,98.47,39.3a2.545,2.545,0,0,0,1.98.813,3.211,3.211,0,0,0,1.969-.7Zm7.7.367h-1.281V39.75h-.031a2.682,2.682,0,0,1-2.461,1.438,2.63,2.63,0,0,1-1.871-.633,2.192,2.192,0,0,1-.676-1.68q0-2.242,2.641-2.609l2.4-.336q0-2.039-1.648-2.039a3.938,3.938,0,0,0-2.609.984V33.563a4.958,4.958,0,0,1,2.719-.75q2.82,0,2.82,2.984Zm-1.281-4.047-1.93.266a3.133,3.133,0,0,0-1.344.441,1.273,1.273,0,0,0-.453,1.121,1.221,1.221,0,0,0,.418.957,1.615,1.615,0,0,0,1.113.371,2.056,2.056,0,0,0,1.574-.668,2.387,2.387,0,0,0,.621-1.691Zm4.181,4.219a.829.829,0,0,1-.613-.258.849.849,0,0,1-.254-.617.862.862,0,0,1,.254-.621.823.823,0,0,1,.613-.262.845.845,0,0,1,.625.262.855.855,0,0,1,.258.621.842.842,0,0,1-.258.617A.851.851,0,0,1,113.023,41.172Z" transform="translate(737.711 1193)" fill="#12263f"/>
    <path id="Trazado_1383702" data-name="Trazado 1383702" d="M26.142,17H20.2V5.8h5.688V6.984H21.517v3.727h4.047v1.18H21.517v3.922h4.625Zm3.306,0H28.166V5.156h1.281Zm9.063-3.68H32.862a2.992,2.992,0,0,0,.719,2.063,2.478,2.478,0,0,0,1.891.727,3.931,3.931,0,0,0,2.484-.891v1.2a4.643,4.643,0,0,1-2.789.766A3.381,3.381,0,0,1,32.5,16.1a4.461,4.461,0,0,1-.969-3.066,4.375,4.375,0,0,1,1.059-3.043,3.394,3.394,0,0,1,2.629-1.176,3.008,3.008,0,0,1,2.43,1.016,4.234,4.234,0,0,1,.859,2.82ZM37.2,12.234a2.607,2.607,0,0,0-.535-1.727A1.823,1.823,0,0,0,35.2,9.891a2.07,2.07,0,0,0-1.539.648,2.943,2.943,0,0,0-.781,1.7Zm8.743,4.4a4.163,4.163,0,0,1-2.187.555,3.622,3.622,0,0,1-2.762-1.113,4.035,4.035,0,0,1-1.051-2.887,4.435,4.435,0,0,1,1.133-3.176,3.963,3.963,0,0,1,3.023-1.2,4.209,4.209,0,0,1,1.859.391v1.313a3.258,3.258,0,0,0-1.906-.625,2.576,2.576,0,0,0-2.012.879,3.335,3.335,0,0,0-.785,2.309,3.176,3.176,0,0,0,.738,2.219,2.545,2.545,0,0,0,1.98.813,3.211,3.211,0,0,0,1.969-.7Zm5.688.289a2.47,2.47,0,0,1-1.2.25q-2.1,0-2.1-2.344V10.094H46.958V9h1.375V7.047l1.281-.414V9H51.63v1.094H49.614V14.6a1.869,1.869,0,0,0,.273,1.148,1.091,1.091,0,0,0,.906.344,1.347,1.347,0,0,0,.836-.266ZM57.553,10.3a1.567,1.567,0,0,0-.969-.258,1.635,1.635,0,0,0-1.371.773,3.576,3.576,0,0,0-.551,2.109V17H53.381V9h1.281v1.648h.031a2.794,2.794,0,0,1,.836-1.316,1.906,1.906,0,0,1,1.258-.473,2.092,2.092,0,0,1,.766.109Zm4.774,6.891A3.711,3.711,0,0,1,59.5,16.066a4.153,4.153,0,0,1-1.059-2.973,4.326,4.326,0,0,1,1.1-3.148,3.96,3.96,0,0,1,2.977-1.133,3.588,3.588,0,0,1,2.793,1.1,4.368,4.368,0,0,1,1,3.055,4.3,4.3,0,0,1-1.082,3.066A3.791,3.791,0,0,1,62.327,17.188Zm.094-7.3a2.437,2.437,0,0,0-1.953.84,3.449,3.449,0,0,0-.719,2.316,3.262,3.262,0,0,0,.727,2.242,2.469,2.469,0,0,0,1.945.82,2.342,2.342,0,0,0,1.91-.8A3.492,3.492,0,0,0,65,13.016a3.552,3.552,0,0,0-.668-2.312A2.332,2.332,0,0,0,62.421,9.891ZM75.039,17H73.758V12.438q0-2.547-1.859-2.547a2.017,2.017,0,0,0-1.59.723,2.679,2.679,0,0,0-.629,1.824V17H68.4V9H69.68v1.328h.031a2.887,2.887,0,0,1,2.625-1.516,2.448,2.448,0,0,1,2.008.848,3.776,3.776,0,0,1,.7,2.449Zm8.884-3.68H78.274a2.992,2.992,0,0,0,.719,2.063,2.478,2.478,0,0,0,1.891.727,3.931,3.931,0,0,0,2.484-.891v1.2a4.643,4.643,0,0,1-2.789.766,3.381,3.381,0,0,1-2.664-1.09,4.461,4.461,0,0,1-.969-3.066A4.375,4.375,0,0,1,78,9.988a3.394,3.394,0,0,1,2.629-1.176,3.008,3.008,0,0,1,2.43,1.016,4.234,4.234,0,0,1,.859,2.82ZM82.61,12.234a2.607,2.607,0,0,0-.535-1.727,1.823,1.823,0,0,0-1.465-.617,2.07,2.07,0,0,0-1.539.648,2.943,2.943,0,0,0-.781,1.7Zm2.806,4.477V15.336a3.792,3.792,0,0,0,2.3.773q1.688,0,1.688-1.125a.976.976,0,0,0-.145-.543,1.44,1.44,0,0,0-.391-.395,3.007,3.007,0,0,0-.578-.309q-.332-.137-.715-.285a9.207,9.207,0,0,1-.934-.426,2.82,2.82,0,0,1-.672-.484,1.8,1.8,0,0,1-.406-.613,2.17,2.17,0,0,1-.137-.8,1.912,1.912,0,0,1,.258-1,2.286,2.286,0,0,1,.688-.727,3.206,3.206,0,0,1,.98-.441,4.349,4.349,0,0,1,1.137-.148,4.59,4.59,0,0,1,1.859.359v1.3a3.624,3.624,0,0,0-2.031-.578,2.374,2.374,0,0,0-.648.082,1.587,1.587,0,0,0-.5.23,1.065,1.065,0,0,0-.32.355.936.936,0,0,0-.113.457,1.1,1.1,0,0,0,.113.523,1.152,1.152,0,0,0,.332.375,2.538,2.538,0,0,0,.531.3q.313.133.711.289a9.9,9.9,0,0,1,.953.418,3.269,3.269,0,0,1,.719.484,1.893,1.893,0,0,1,.457.621,2,2,0,0,1,.16.836,1.971,1.971,0,0,1-.262,1.031,2.243,2.243,0,0,1-.7.727,3.2,3.2,0,0,1-1.008.43,4.976,4.976,0,0,1-1.2.141A4.539,4.539,0,0,1,85.416,16.711ZM93.9,15.219l-1.25,3.844h-.914l.914-3.844Zm12.213,1.414a4.163,4.163,0,0,1-2.187.555,3.622,3.622,0,0,1-2.762-1.113,4.035,4.035,0,0,1-1.051-2.887,4.435,4.435,0,0,1,1.133-3.176,3.963,3.963,0,0,1,3.023-1.2,4.209,4.209,0,0,1,1.859.391v1.313a3.258,3.258,0,0,0-1.906-.625,2.576,2.576,0,0,0-2.012.879,3.335,3.335,0,0,0-.785,2.309,3.176,3.176,0,0,0,.738,2.219,2.545,2.545,0,0,0,1.98.813,3.211,3.211,0,0,0,1.969-.7Zm5.321.555a3.711,3.711,0,0,1-2.832-1.121,4.153,4.153,0,0,1-1.059-2.973,4.326,4.326,0,0,1,1.1-3.148,3.96,3.96,0,0,1,2.977-1.133,3.588,3.588,0,0,1,2.793,1.1,4.368,4.368,0,0,1,1,3.055,4.3,4.3,0,0,1-1.082,3.066A3.791,3.791,0,0,1,111.435,17.188Zm.094-7.3a2.437,2.437,0,0,0-1.953.84,3.449,3.449,0,0,0-.719,2.316,3.262,3.262,0,0,0,.727,2.242,2.469,2.469,0,0,0,1.945.82,2.342,2.342,0,0,0,1.91-.8,3.492,3.492,0,0,0,.668-2.289,3.552,3.552,0,0,0-.668-2.312A2.332,2.332,0,0,0,111.529,9.891ZM124.147,17h-1.281V12.438q0-2.547-1.859-2.547a2.017,2.017,0,0,0-1.59.723,2.679,2.679,0,0,0-.629,1.824V17h-1.281V9h1.281v1.328h.031a2.887,2.887,0,0,1,2.625-1.516,2.448,2.448,0,0,1,2.008.848,3.776,3.776,0,0,1,.7,2.449ZM9.48,40.633a4.163,4.163,0,0,1-2.187.555,3.622,3.622,0,0,1-2.762-1.113A4.035,4.035,0,0,1,3.48,37.188a4.435,4.435,0,0,1,1.133-3.176,3.963,3.963,0,0,1,3.023-1.2A4.209,4.209,0,0,1,9.5,33.2v1.313a3.258,3.258,0,0,0-1.906-.625,2.576,2.576,0,0,0-2.012.879,3.335,3.335,0,0,0-.785,2.309A3.176,3.176,0,0,0,5.531,39.3a2.545,2.545,0,0,0,1.98.813,3.211,3.211,0,0,0,1.969-.7Zm7.7.367H15.9V39.75h-.031a2.682,2.682,0,0,1-2.461,1.438,2.63,2.63,0,0,1-1.871-.633,2.192,2.192,0,0,1-.676-1.68q0-2.242,2.641-2.609l2.4-.336q0-2.039-1.648-2.039a3.938,3.938,0,0,0-2.609.984V33.563a4.958,4.958,0,0,1,2.719-.75q2.82,0,2.82,2.984ZM15.9,36.953l-1.93.266a3.133,3.133,0,0,0-1.344.441,1.273,1.273,0,0,0-.453,1.121,1.221,1.221,0,0,0,.418.957,1.615,1.615,0,0,0,1.113.371,2.056,2.056,0,0,0,1.574-.668A2.387,2.387,0,0,0,15.9,37.75ZM23.81,34.3a1.567,1.567,0,0,0-.969-.258,1.635,1.635,0,0,0-1.371.773,3.576,3.576,0,0,0-.551,2.109V41H19.638V33h1.281v1.648h.031a2.793,2.793,0,0,1,.836-1.316,1.906,1.906,0,0,1,1.258-.473,2.092,2.092,0,0,1,.766.109Zm8.259,6.063q0,4.406-4.219,4.406a5.664,5.664,0,0,1-2.594-.562V42.922a5.327,5.327,0,0,0,2.578.75q2.953,0,2.953-3.141v-.875h-.031a3.237,3.237,0,0,1-5.152.465,4.263,4.263,0,0,1-.91-2.863,4.981,4.981,0,0,1,.98-3.242,3.275,3.275,0,0,1,2.684-1.2,2.608,2.608,0,0,1,2.4,1.3h.031V33h1.281Zm-1.281-2.977V36.2a2.289,2.289,0,0,0-.645-1.633,2.122,2.122,0,0,0-1.605-.68,2.225,2.225,0,0,0-1.859.863,3.853,3.853,0,0,0-.672,2.418,3.308,3.308,0,0,0,.645,2.137,2.082,2.082,0,0,0,1.707.8,2.23,2.23,0,0,0,1.754-.766A2.854,2.854,0,0,0,30.787,37.383ZM40.429,41H39.148V39.75h-.031a2.682,2.682,0,0,1-2.461,1.438,2.63,2.63,0,0,1-1.871-.633,2.192,2.192,0,0,1-.676-1.68q0-2.242,2.641-2.609l2.4-.336q0-2.039-1.648-2.039a3.938,3.938,0,0,0-2.609.984V33.563a4.958,4.958,0,0,1,2.719-.75q2.82,0,2.82,2.984Zm-1.281-4.047-1.93.266a3.133,3.133,0,0,0-1.344.441,1.273,1.273,0,0,0-.453,1.121,1.221,1.221,0,0,0,.418.957,1.615,1.615,0,0,0,1.113.371,2.056,2.056,0,0,0,1.574-.668,2.387,2.387,0,0,0,.621-1.691ZM53.946,41H52.665V36.438q0-2.547-1.859-2.547a2.017,2.017,0,0,0-1.59.723,2.679,2.679,0,0,0-.629,1.824V41H47.306V33h1.281v1.328h.031a2.887,2.887,0,0,1,2.625-1.516,2.448,2.448,0,0,1,2.008.848,3.776,3.776,0,0,1,.7,2.449Zm8.884-3.68H57.182a2.992,2.992,0,0,0,.719,2.063,2.478,2.478,0,0,0,1.891.727,3.931,3.931,0,0,0,2.484-.891v1.2a4.643,4.643,0,0,1-2.789.766,3.381,3.381,0,0,1-2.664-1.09,4.461,4.461,0,0,1-.969-3.066,4.375,4.375,0,0,1,1.059-3.043,3.394,3.394,0,0,1,2.629-1.176,3.008,3.008,0,0,1,2.43,1.016,4.234,4.234,0,0,1,.859,2.82Zm-1.312-1.086a2.607,2.607,0,0,0-.535-1.727,1.823,1.823,0,0,0-1.465-.617,2.07,2.07,0,0,0-1.539.648,2.943,2.943,0,0,0-.781,1.7Zm10.118,4.125q0,4.406-4.219,4.406a5.664,5.664,0,0,1-2.594-.562V42.922a5.327,5.327,0,0,0,2.578.75q2.953,0,2.953-3.141v-.875h-.031a3.237,3.237,0,0,1-5.152.465,4.263,4.263,0,0,1-.91-2.863,4.981,4.981,0,0,1,.98-3.242,3.275,3.275,0,0,1,2.684-1.2,2.608,2.608,0,0,1,2.4,1.3h.031V33h1.281Zm-1.281-2.977V36.2a2.289,2.289,0,0,0-.645-1.633,2.122,2.122,0,0,0-1.605-.68,2.225,2.225,0,0,0-1.859.863,3.853,3.853,0,0,0-.672,2.418,3.308,3.308,0,0,0,.645,2.137,2.082,2.082,0,0,0,1.707.8,2.23,2.23,0,0,0,1.754-.766A2.854,2.854,0,0,0,70.355,37.383ZM80,41H78.715V39.75h-.031a2.682,2.682,0,0,1-2.461,1.438,2.63,2.63,0,0,1-1.871-.633,2.192,2.192,0,0,1-.676-1.68q0-2.242,2.641-2.609l2.4-.336q0-2.039-1.648-2.039a3.938,3.938,0,0,0-2.609.984V33.563a4.958,4.958,0,0,1,2.719-.75Q80,32.813,80,35.8Zm-1.281-4.047-1.93.266a3.133,3.133,0,0,0-1.344.441,1.273,1.273,0,0,0-.453,1.121,1.221,1.221,0,0,0,.418.957,1.615,1.615,0,0,0,1.113.371,2.056,2.056,0,0,0,1.574-.668,2.387,2.387,0,0,0,.621-1.691Zm7.446,3.969a2.47,2.47,0,0,1-1.2.25q-2.1,0-2.1-2.344V34.094H81.489V33h1.375V31.047l1.281-.414V33h2.016v1.094H84.145V38.6a1.869,1.869,0,0,0,.273,1.148,1.091,1.091,0,0,0,.906.344,1.347,1.347,0,0,0,.836-.266Zm2.407-9.953a.812.812,0,0,1-.586-.234.791.791,0,0,1-.242-.594.821.821,0,0,1,.828-.836.827.827,0,0,1,.6.238.835.835,0,0,1,0,1.184A.82.82,0,0,1,88.568,30.969ZM89.193,41H87.912V33h1.281Zm8.923-8-3.187,8H93.671L90.64,33h1.406l2.031,5.813a5.217,5.217,0,0,1,.281,1.117h.031a5.283,5.283,0,0,1,.25-1.086L96.765,33Zm7.142,8h-1.281V39.75h-.031a2.682,2.682,0,0,1-2.461,1.438,2.63,2.63,0,0,1-1.871-.633,2.192,2.192,0,0,1-.676-1.68q0-2.242,2.641-2.609l2.4-.336q0-2.039-1.648-2.039a3.938,3.938,0,0,0-2.609.984V33.563a4.958,4.958,0,0,1,2.719-.75q2.82,0,2.82,2.984Zm-1.281-4.047-1.93.266a3.133,3.133,0,0,0-1.344.441,1.273,1.273,0,0,0-.453,1.121,1.221,1.221,0,0,0,.418.957,1.615,1.615,0,0,0,1.113.371,2.056,2.056,0,0,0,1.574-.668,2.387,2.387,0,0,0,.621-1.691Zm4.907,2.266-1.25,3.844h-.914l.914-3.844Zm13.588,5.461H121.19V39.625h-.031a2.867,2.867,0,0,1-2.734,1.563,3.011,3.011,0,0,1-2.418-1.074,4.381,4.381,0,0,1-.91-2.926,4.791,4.791,0,0,1,1-3.184,3.328,3.328,0,0,1,2.688-1.191,2.523,2.523,0,0,1,2.375,1.3h.031V33h1.281ZM121.19,37.4V36.234a2.328,2.328,0,0,0-.645-1.664,2.158,2.158,0,0,0-1.637-.68,2.2,2.2,0,0,0-1.828.855,3.819,3.819,0,0,0-.672,2.41,3.308,3.308,0,0,0,.648,2.168,2.069,2.069,0,0,0,1.672.785,2.254,2.254,0,0,0,1.793-.77A2.855,2.855,0,0,0,121.19,37.4ZM131.574,41h-1.281V39.734h-.031a2.631,2.631,0,0,1-2.469,1.453q-2.859,0-2.859-3.406V33h1.273v4.578q0,2.531,1.938,2.531a1.96,1.96,0,0,0,1.543-.691,2.645,2.645,0,0,0,.605-1.809V33h1.281Zm9.056-3.68h-5.648a2.992,2.992,0,0,0,.719,2.063,2.478,2.478,0,0,0,1.891.727,3.931,3.931,0,0,0,2.484-.891v1.2a4.643,4.643,0,0,1-2.789.766,3.381,3.381,0,0,1-2.664-1.09,4.461,4.461,0,0,1-.969-3.066,4.374,4.374,0,0,1,1.059-3.043,3.394,3.394,0,0,1,2.629-1.176,3.008,3.008,0,0,1,2.43,1.016,4.234,4.234,0,0,1,.859,2.82Zm-1.312-1.086a2.607,2.607,0,0,0-.535-1.727,1.823,1.823,0,0,0-1.465-.617,2.07,2.07,0,0,0-1.539.648,2.943,2.943,0,0,0-.781,1.7ZM14.664,65.188a3.711,3.711,0,0,1-2.832-1.121,4.153,4.153,0,0,1-1.059-2.973,4.326,4.326,0,0,1,1.1-3.148,3.96,3.96,0,0,1,2.977-1.133,3.588,3.588,0,0,1,2.793,1.1,4.368,4.368,0,0,1,1,3.055,4.3,4.3,0,0,1-1.082,3.066A3.791,3.791,0,0,1,14.664,65.188Zm.094-7.3a2.437,2.437,0,0,0-1.953.84,3.449,3.449,0,0,0-.719,2.316,3.262,3.262,0,0,0,.727,2.242,2.469,2.469,0,0,0,1.945.82,2.342,2.342,0,0,0,1.91-.8,3.492,3.492,0,0,0,.668-2.289,3.552,3.552,0,0,0-.668-2.312A2.332,2.332,0,0,0,14.758,57.891Zm10.149.406a1.567,1.567,0,0,0-.969-.258,1.635,1.635,0,0,0-1.371.773,3.576,3.576,0,0,0-.551,2.109V65H20.736V57h1.281v1.648h.031a2.793,2.793,0,0,1,.836-1.316,1.906,1.906,0,0,1,1.258-.473,2.092,2.092,0,0,1,.766.109Zm2.743,5.547h-.031V65H26.338V53.156h1.281v5.25h.031a3.03,3.03,0,0,1,2.766-1.594,2.932,2.932,0,0,1,2.41,1.074,4.436,4.436,0,0,1,.871,2.879,4.959,4.959,0,0,1-.977,3.215,3.251,3.251,0,0,1-2.672,1.207A2.631,2.631,0,0,1,27.651,63.844Zm-.031-3.227v1.117a2.379,2.379,0,0,0,.645,1.684,2.3,2.3,0,0,0,3.461-.2,4.086,4.086,0,0,0,.66-2.477,3.225,3.225,0,0,0-.617-2.094,2.043,2.043,0,0,0-1.672-.758,2.27,2.27,0,0,0-1.8.777A2.854,2.854,0,0,0,27.619,60.617Zm8.821-5.648a.812.812,0,0,1-.586-.234.791.791,0,0,1-.242-.594.821.821,0,0,1,.828-.836.827.827,0,0,1,.6.238.835.835,0,0,1,0,1.184A.82.82,0,0,1,36.441,54.969ZM37.066,65H35.784V57h1.281Zm6.345-.078a2.47,2.47,0,0,1-1.2.25q-2.1,0-2.1-2.344V58.094H38.738V57h1.375V55.047l1.281-.414V57H43.41v1.094H41.395V62.6a1.869,1.869,0,0,0,.273,1.148,1.091,1.091,0,0,0,.906.344,1.347,1.347,0,0,0,.836-.266ZM50.888,65H49.607V63.75h-.031a2.682,2.682,0,0,1-2.461,1.438,2.63,2.63,0,0,1-1.871-.633,2.192,2.192,0,0,1-.676-1.68q0-2.242,2.641-2.609l2.4-.336q0-2.039-1.648-2.039a3.938,3.938,0,0,0-2.609.984V57.563a4.958,4.958,0,0,1,2.719-.75q2.82,0,2.82,2.984Zm-1.281-4.047-1.93.266a3.133,3.133,0,0,0-1.344.441,1.273,1.273,0,0,0-.453,1.121,1.221,1.221,0,0,0,.418.957,1.615,1.615,0,0,0,1.113.371,2.056,2.056,0,0,0,1.574-.668,2.387,2.387,0,0,0,.621-1.691ZM59.983,65H58.7V60.438q0-2.547-1.859-2.547a2.017,2.017,0,0,0-1.59.723,2.679,2.679,0,0,0-.629,1.824V65H53.342V57h1.281v1.328h.031a2.887,2.887,0,0,1,2.625-1.516,2.448,2.448,0,0,1,2.008.848,3.776,3.776,0,0,1,.7,2.449Zm12.6,0H71.3V63.75h-.031a2.682,2.682,0,0,1-2.461,1.438,2.63,2.63,0,0,1-1.871-.633,2.192,2.192,0,0,1-.676-1.68q0-2.242,2.641-2.609l2.4-.336q0-2.039-1.648-2.039a3.938,3.938,0,0,0-2.609.984V57.563a4.958,4.958,0,0,1,2.719-.75q2.82,0,2.82,2.984ZM71.3,60.953l-1.93.266a3.133,3.133,0,0,0-1.344.441,1.273,1.273,0,0,0-.453,1.121,1.221,1.221,0,0,0,.418.957,1.615,1.615,0,0,0,1.113.371,2.056,2.056,0,0,0,1.574-.668A2.387,2.387,0,0,0,71.3,61.75ZM76.321,65H75.04V53.156h1.281Zm6.806-6.7a1.567,1.567,0,0,0-.969-.258,1.635,1.635,0,0,0-1.371.773,3.576,3.576,0,0,0-.551,2.109V65H78.955V57h1.281v1.648h.031a2.793,2.793,0,0,1,.836-1.316,1.906,1.906,0,0,1,1.258-.473,2.092,2.092,0,0,1,.766.109Zm7.86,3.023H85.339a2.992,2.992,0,0,0,.719,2.063,2.478,2.478,0,0,0,1.891.727,3.931,3.931,0,0,0,2.484-.891v1.2a4.643,4.643,0,0,1-2.789.766,3.381,3.381,0,0,1-2.664-1.09,4.461,4.461,0,0,1-.969-3.066,4.375,4.375,0,0,1,1.059-3.043A3.394,3.394,0,0,1,87.7,56.813a3.008,3.008,0,0,1,2.43,1.016,4.234,4.234,0,0,1,.859,2.82Zm-1.312-1.086a2.607,2.607,0,0,0-.535-1.727,1.823,1.823,0,0,0-1.465-.617,2.07,2.07,0,0,0-1.539.648,2.943,2.943,0,0,0-.781,1.7ZM99.793,65H98.512V63.641H98.48a2.958,2.958,0,0,1-2.75,1.547,2.988,2.988,0,0,1-2.41-1.074,4.407,4.407,0,0,1-.9-2.926,4.794,4.794,0,0,1,1-3.18,3.3,3.3,0,0,1,2.664-1.2,2.564,2.564,0,0,1,2.4,1.3h.031V53.156h1.281Zm-1.281-3.617V60.2a2.289,2.289,0,0,0-.641-1.641,2.149,2.149,0,0,0-1.625-.672,2.212,2.212,0,0,0-1.844.859,3.766,3.766,0,0,0-.672,2.375,3.387,3.387,0,0,0,.645,2.184,2.107,2.107,0,0,0,1.73.8,2.188,2.188,0,0,0,1.738-.773A2.882,2.882,0,0,0,98.512,61.383Zm10.345-.062h-5.648a2.992,2.992,0,0,0,.719,2.063,2.478,2.478,0,0,0,1.891.727,3.931,3.931,0,0,0,2.484-.891v1.2a4.643,4.643,0,0,1-2.789.766,3.381,3.381,0,0,1-2.664-1.09,4.461,4.461,0,0,1-.969-3.066,4.375,4.375,0,0,1,1.059-3.043,3.394,3.394,0,0,1,2.629-1.176A3.008,3.008,0,0,1,108,57.828a4.234,4.234,0,0,1,.859,2.82Zm-1.312-1.086a2.607,2.607,0,0,0-.535-1.727,1.823,1.823,0,0,0-1.465-.617,2.07,2.07,0,0,0-1.539.648,2.943,2.943,0,0,0-.781,1.7ZM117.662,65h-1.281V63.641h-.031a2.958,2.958,0,0,1-2.75,1.547,2.988,2.988,0,0,1-2.41-1.074,4.407,4.407,0,0,1-.9-2.926,4.794,4.794,0,0,1,1-3.18,3.3,3.3,0,0,1,2.664-1.2,2.564,2.564,0,0,1,2.4,1.3h.031V53.156h1.281Zm-1.281-3.617V60.2a2.289,2.289,0,0,0-.641-1.641,2.149,2.149,0,0,0-1.625-.672,2.212,2.212,0,0,0-1.844.859,3.766,3.766,0,0,0-.672,2.375,3.387,3.387,0,0,0,.645,2.184,2.107,2.107,0,0,0,1.73.8,2.188,2.188,0,0,0,1.738-.773A2.882,2.882,0,0,0,116.381,61.383Zm7.259,3.8a3.711,3.711,0,0,1-2.832-1.121,4.153,4.153,0,0,1-1.059-2.973,4.326,4.326,0,0,1,1.1-3.148,3.96,3.96,0,0,1,2.977-1.133,3.588,3.588,0,0,1,2.793,1.1,4.368,4.368,0,0,1,1,3.055,4.3,4.3,0,0,1-1.082,3.066A3.791,3.791,0,0,1,123.639,65.188Zm.094-7.3a2.437,2.437,0,0,0-1.953.84,3.449,3.449,0,0,0-.719,2.316,3.262,3.262,0,0,0,.727,2.242,2.469,2.469,0,0,0,1.945.82,2.342,2.342,0,0,0,1.91-.8,3.492,3.492,0,0,0,.668-2.289,3.552,3.552,0,0,0-.668-2.312A2.332,2.332,0,0,0,123.733,57.891Zm10.149.406a1.567,1.567,0,0,0-.969-.258,1.635,1.635,0,0,0-1.371.773,3.576,3.576,0,0,0-.551,2.109V65h-1.281V57h1.281v1.648h.031a2.794,2.794,0,0,1,.836-1.316,1.906,1.906,0,0,1,1.258-.473,2.092,2.092,0,0,1,.766.109ZM41.609,89H40.327V87.641H40.3a2.958,2.958,0,0,1-2.75,1.547,2.988,2.988,0,0,1-2.41-1.074,4.407,4.407,0,0,1-.9-2.926,4.794,4.794,0,0,1,1-3.18,3.3,3.3,0,0,1,2.664-1.2,2.564,2.564,0,0,1,2.4,1.3h.031V77.156h1.281Zm-1.281-3.617V84.2a2.289,2.289,0,0,0-.641-1.641,2.149,2.149,0,0,0-1.625-.672,2.212,2.212,0,0,0-1.844.859,3.766,3.766,0,0,0-.672,2.375,3.387,3.387,0,0,0,.645,2.184,2.107,2.107,0,0,0,1.73.8,2.188,2.188,0,0,0,1.738-.773A2.882,2.882,0,0,0,40.327,85.383Zm10.345-.062H45.024a2.992,2.992,0,0,0,.719,2.063,2.478,2.478,0,0,0,1.891.727,3.931,3.931,0,0,0,2.484-.891v1.2a4.643,4.643,0,0,1-2.789.766,3.381,3.381,0,0,1-2.664-1.09,4.461,4.461,0,0,1-.969-3.066,4.375,4.375,0,0,1,1.059-3.043,3.394,3.394,0,0,1,2.629-1.176,3.008,3.008,0,0,1,2.43,1.016,4.234,4.234,0,0,1,.859,2.82ZM49.36,84.234a2.607,2.607,0,0,0-.535-1.727,1.823,1.823,0,0,0-1.465-.617,2.07,2.07,0,0,0-1.539.648,2.943,2.943,0,0,0-.781,1.7ZM53.931,89H52.65V77.156h1.281Zm13.7,0H66.347V84.438q0-2.547-1.859-2.547a2.017,2.017,0,0,0-1.59.723,2.679,2.679,0,0,0-.629,1.824V89H60.987V81h1.281v1.328H62.3a2.887,2.887,0,0,1,2.625-1.516,2.448,2.448,0,0,1,2.008.848,3.776,3.776,0,0,1,.7,2.449Zm8.923,0H75.27V87.734h-.031a2.631,2.631,0,0,1-2.469,1.453q-2.859,0-2.859-3.406V81h1.273v4.578q0,2.531,1.938,2.531a1.96,1.96,0,0,0,1.543-.691,2.645,2.645,0,0,0,.605-1.809V81h1.281Zm-1.2-12.078L73.3,79.484h-.992l1.742-2.562ZM84.63,88.633a4.163,4.163,0,0,1-2.187.555,3.622,3.622,0,0,1-2.762-1.113,4.035,4.035,0,0,1-1.051-2.887,4.435,4.435,0,0,1,1.133-3.176,3.963,3.963,0,0,1,3.023-1.2,4.209,4.209,0,0,1,1.859.391v1.313a3.258,3.258,0,0,0-1.906-.625,2.576,2.576,0,0,0-2.012.879,3.335,3.335,0,0,0-.785,2.309,3.176,3.176,0,0,0,.738,2.219,2.545,2.545,0,0,0,1.98.813,3.211,3.211,0,0,0,1.969-.7ZM87.889,89H86.607V77.156h1.281Zm9.063-3.68H91.3a2.992,2.992,0,0,0,.719,2.063,2.478,2.478,0,0,0,1.891.727,3.931,3.931,0,0,0,2.484-.891v1.2a4.643,4.643,0,0,1-2.789.766,3.381,3.381,0,0,1-2.664-1.09,4.461,4.461,0,0,1-.969-3.066,4.375,4.375,0,0,1,1.059-3.043,3.394,3.394,0,0,1,2.629-1.176,3.008,3.008,0,0,1,2.43,1.016,4.234,4.234,0,0,1,.859,2.82ZM95.64,84.234a2.607,2.607,0,0,0-.535-1.727,1.823,1.823,0,0,0-1.465-.617,2.07,2.07,0,0,0-1.539.648,2.943,2.943,0,0,0-.781,1.7Zm6.634,4.953a3.711,3.711,0,0,1-2.832-1.121,4.153,4.153,0,0,1-1.059-2.973,4.326,4.326,0,0,1,1.1-3.148,3.96,3.96,0,0,1,2.977-1.133,3.588,3.588,0,0,1,2.793,1.1,4.368,4.368,0,0,1,1,3.055,4.3,4.3,0,0,1-1.082,3.066A3.791,3.791,0,0,1,102.273,89.188Zm.094-7.3a2.437,2.437,0,0,0-1.953.84,3.449,3.449,0,0,0-.719,2.316,3.262,3.262,0,0,0,.727,2.242,2.469,2.469,0,0,0,1.945.82,2.342,2.342,0,0,0,1.91-.8,3.492,3.492,0,0,0,.668-2.289,3.552,3.552,0,0,0-.668-2.312A2.332,2.332,0,0,0,102.367,81.891Zm6.423,7.281a.829.829,0,0,1-.613-.258.849.849,0,0,1-.254-.617.862.862,0,0,1,.254-.621.823.823,0,0,1,.613-.262.845.845,0,0,1,.625.262.855.855,0,0,1,.258.621.842.842,0,0,1-.258.617A.851.851,0,0,1,108.79,89.172Z" transform="translate(894.711 1388)" fill="#12263f"/>
    <path id="Trazado_1383699" data-name="Trazado 1383699" d="M16.252,12.766V17H14.94V5.8h3.078a4.063,4.063,0,0,1,2.785.875,3.124,3.124,0,0,1,.988,2.469,3.4,3.4,0,0,1-1.1,2.609,4.194,4.194,0,0,1-2.965,1.016Zm0-5.781v4.594h1.375a3.074,3.074,0,0,0,2.074-.621A2.2,2.2,0,0,0,20.416,9.2q0-2.219-2.625-2.219ZM27.941,10.3a1.567,1.567,0,0,0-.969-.258,1.635,1.635,0,0,0-1.371.773,3.576,3.576,0,0,0-.551,2.109V17H23.769V9H25.05v1.648h.031a2.793,2.793,0,0,1,.836-1.316,1.906,1.906,0,0,1,1.258-.473,2.092,2.092,0,0,1,.766.109Zm4.774,6.891a3.711,3.711,0,0,1-2.832-1.121,4.153,4.153,0,0,1-1.059-2.973,4.326,4.326,0,0,1,1.1-3.148A3.96,3.96,0,0,1,32.9,8.813a3.588,3.588,0,0,1,2.793,1.1,4.368,4.368,0,0,1,1,3.055,4.3,4.3,0,0,1-1.082,3.066A3.791,3.791,0,0,1,32.715,17.188Zm.094-7.3a2.437,2.437,0,0,0-1.953.84,3.449,3.449,0,0,0-.719,2.316,3.262,3.262,0,0,0,.727,2.242,2.469,2.469,0,0,0,1.945.82,2.342,2.342,0,0,0,1.91-.8,3.492,3.492,0,0,0,.668-2.289,3.552,3.552,0,0,0-.668-2.312A2.332,2.332,0,0,0,32.809,9.891ZM42.5,16.922a2.47,2.47,0,0,1-1.2.25q-2.1,0-2.1-2.344V10.094H37.825V9H39.2V7.047l1.281-.414V9H42.5v1.094H40.482V14.6a1.869,1.869,0,0,0,.273,1.148,1.091,1.091,0,0,0,.906.344,1.347,1.347,0,0,0,.836-.266Zm5.095.266a3.711,3.711,0,0,1-2.832-1.121A4.153,4.153,0,0,1,43.7,13.094a4.326,4.326,0,0,1,1.1-3.148,3.96,3.96,0,0,1,2.977-1.133,3.588,3.588,0,0,1,2.793,1.1,4.368,4.368,0,0,1,1,3.055,4.3,4.3,0,0,1-1.082,3.066A3.791,3.791,0,0,1,47.592,17.188Zm.094-7.3a2.437,2.437,0,0,0-1.953.84,3.449,3.449,0,0,0-.719,2.316,3.262,3.262,0,0,0,.727,2.242,2.469,2.469,0,0,0,1.945.82,2.342,2.342,0,0,0,1.91-.8,3.492,3.492,0,0,0,.668-2.289A3.552,3.552,0,0,0,49.6,10.7,2.332,2.332,0,0,0,47.686,9.891ZM60.3,17H59.022V12.438q0-2.547-1.859-2.547a2.017,2.017,0,0,0-1.59.723,2.679,2.679,0,0,0-.629,1.824V17H53.663V9h1.281v1.328h.031A2.887,2.887,0,0,1,57.6,8.813a2.448,2.448,0,0,1,2.008.848,3.776,3.776,0,0,1,.7,2.449Zm8.884-3.68H63.539a2.992,2.992,0,0,0,.719,2.063,2.478,2.478,0,0,0,1.891.727,3.931,3.931,0,0,0,2.484-.891v1.2a4.643,4.643,0,0,1-2.789.766A3.381,3.381,0,0,1,63.18,16.1a4.461,4.461,0,0,1-.969-3.066A4.375,4.375,0,0,1,63.27,9.988,3.394,3.394,0,0,1,65.9,8.813a3.008,3.008,0,0,1,2.43,1.016,4.234,4.234,0,0,1,.859,2.82Zm-1.312-1.086a2.607,2.607,0,0,0-.535-1.727,1.823,1.823,0,0,0-1.465-.617,2.07,2.07,0,0,0-1.539.648,2.943,2.943,0,0,0-.781,1.7Zm2.806,4.477V15.336a3.792,3.792,0,0,0,2.3.773q1.688,0,1.688-1.125a.976.976,0,0,0-.145-.543,1.44,1.44,0,0,0-.391-.395,3.007,3.007,0,0,0-.578-.309q-.332-.137-.715-.285a9.207,9.207,0,0,1-.934-.426,2.82,2.82,0,0,1-.672-.484,1.8,1.8,0,0,1-.406-.613,2.17,2.17,0,0,1-.137-.8,1.912,1.912,0,0,1,.258-1,2.286,2.286,0,0,1,.688-.727,3.206,3.206,0,0,1,.98-.441,4.349,4.349,0,0,1,1.137-.148,4.59,4.59,0,0,1,1.859.359v1.3a3.624,3.624,0,0,0-2.031-.578,2.374,2.374,0,0,0-.648.082,1.587,1.587,0,0,0-.5.23,1.065,1.065,0,0,0-.32.355.936.936,0,0,0-.113.457,1.1,1.1,0,0,0,.113.523,1.152,1.152,0,0,0,.332.375,2.538,2.538,0,0,0,.531.3q.313.133.711.289a9.9,9.9,0,0,1,.953.418,3.269,3.269,0,0,1,.719.484,1.893,1.893,0,0,1,.457.621,2,2,0,0,1,.16.836,1.971,1.971,0,0,1-.262,1.031,2.243,2.243,0,0,1-.7.727,3.2,3.2,0,0,1-1.008.43,4.976,4.976,0,0,1-1.2.141A4.539,4.539,0,0,1,70.681,16.711Zm8.485-1.492-1.25,3.844H77l.914-3.844Zm12.213,1.414a4.163,4.163,0,0,1-2.187.555,3.622,3.622,0,0,1-2.762-1.113,4.035,4.035,0,0,1-1.051-2.887,4.435,4.435,0,0,1,1.133-3.176,3.963,3.963,0,0,1,3.023-1.2,4.209,4.209,0,0,1,1.859.391v1.313a3.258,3.258,0,0,0-1.906-.625,2.576,2.576,0,0,0-2.012.879,3.335,3.335,0,0,0-.785,2.309A3.176,3.176,0,0,0,87.43,15.3a2.545,2.545,0,0,0,1.98.813,3.211,3.211,0,0,0,1.969-.7Zm5.321.555a3.711,3.711,0,0,1-2.832-1.121,4.153,4.153,0,0,1-1.059-2.973,4.326,4.326,0,0,1,1.1-3.148,3.96,3.96,0,0,1,2.977-1.133,3.588,3.588,0,0,1,2.793,1.1,4.368,4.368,0,0,1,1,3.055A4.3,4.3,0,0,1,99.6,16.035,3.791,3.791,0,0,1,96.7,17.188Zm.094-7.3a2.437,2.437,0,0,0-1.953.84,3.449,3.449,0,0,0-.719,2.316,3.262,3.262,0,0,0,.727,2.242,2.469,2.469,0,0,0,1.945.82,2.342,2.342,0,0,0,1.91-.8,3.492,3.492,0,0,0,.668-2.289A3.552,3.552,0,0,0,98.7,10.7,2.332,2.332,0,0,0,96.794,9.891ZM109.412,17h-1.281V12.438q0-2.547-1.859-2.547a2.017,2.017,0,0,0-1.59.723,2.679,2.679,0,0,0-.629,1.824V17h-1.281V9h1.281v1.328h.031a2.887,2.887,0,0,1,2.625-1.516,2.448,2.448,0,0,1,2.008.848,3.776,3.776,0,0,1,.7,2.449ZM17.943,40.633a4.163,4.163,0,0,1-2.187.555,3.622,3.622,0,0,1-2.762-1.113,4.035,4.035,0,0,1-1.051-2.887,4.435,4.435,0,0,1,1.133-3.176,3.963,3.963,0,0,1,3.023-1.2,4.209,4.209,0,0,1,1.859.391v1.313a3.258,3.258,0,0,0-1.906-.625,2.576,2.576,0,0,0-2.012.879,3.335,3.335,0,0,0-.785,2.309,3.176,3.176,0,0,0,.738,2.219,2.545,2.545,0,0,0,1.98.813,3.211,3.211,0,0,0,1.969-.7Zm7.7.367H24.365V39.75h-.031a2.682,2.682,0,0,1-2.461,1.438A2.63,2.63,0,0,1,20,40.555a2.192,2.192,0,0,1-.676-1.68q0-2.242,2.641-2.609l2.4-.336q0-2.039-1.648-2.039a3.938,3.938,0,0,0-2.609.984V33.563a4.958,4.958,0,0,1,2.719-.75q2.82,0,2.82,2.984Zm-1.281-4.047-1.93.266a3.133,3.133,0,0,0-1.344.441,1.273,1.273,0,0,0-.453,1.121,1.221,1.221,0,0,0,.418.957,1.615,1.615,0,0,0,1.113.371,2.056,2.056,0,0,0,1.574-.668,2.387,2.387,0,0,0,.621-1.691ZM32.273,34.3a1.567,1.567,0,0,0-.969-.258,1.635,1.635,0,0,0-1.371.773,3.576,3.576,0,0,0-.551,2.109V41H28.1V33h1.281v1.648h.031a2.793,2.793,0,0,1,.836-1.316,1.906,1.906,0,0,1,1.258-.473,2.092,2.092,0,0,1,.766.109Zm8.259,6.063q0,4.406-4.219,4.406a5.664,5.664,0,0,1-2.594-.562V42.922a5.327,5.327,0,0,0,2.578.75q2.953,0,2.953-3.141v-.875h-.031a3.237,3.237,0,0,1-5.152.465,4.263,4.263,0,0,1-.91-2.863,4.981,4.981,0,0,1,.98-3.242,3.275,3.275,0,0,1,2.684-1.2,2.608,2.608,0,0,1,2.4,1.3h.031V33h1.281ZM39.25,37.383V36.2a2.289,2.289,0,0,0-.645-1.633A2.122,2.122,0,0,0,37,33.891a2.225,2.225,0,0,0-1.859.863,3.853,3.853,0,0,0-.672,2.418,3.308,3.308,0,0,0,.645,2.137,2.082,2.082,0,0,0,1.707.8,2.23,2.23,0,0,0,1.754-.766A2.854,2.854,0,0,0,39.25,37.383ZM48.892,41H47.61V39.75h-.031a2.682,2.682,0,0,1-2.461,1.438,2.63,2.63,0,0,1-1.871-.633,2.192,2.192,0,0,1-.676-1.68q0-2.242,2.641-2.609l2.4-.336q0-2.039-1.648-2.039a3.938,3.938,0,0,0-2.609.984V33.563a4.958,4.958,0,0,1,2.719-.75q2.82,0,2.82,2.984ZM47.61,36.953l-1.93.266a3.133,3.133,0,0,0-1.344.441,1.273,1.273,0,0,0-.453,1.121,1.221,1.221,0,0,0,.418.957,1.615,1.615,0,0,0,1.113.371,2.056,2.056,0,0,0,1.574-.668,2.387,2.387,0,0,0,.621-1.691Zm9.471,2.891H57.05V44.68H55.769V33H57.05v1.406h.031a3.03,3.03,0,0,1,2.766-1.594,2.93,2.93,0,0,1,2.414,1.074,4.449,4.449,0,0,1,.867,2.879,4.959,4.959,0,0,1-.977,3.215,3.251,3.251,0,0,1-2.672,1.207A2.676,2.676,0,0,1,57.081,39.844Zm-.031-3.227v1.117a2.379,2.379,0,0,0,.645,1.684,2.3,2.3,0,0,0,3.461-.2,4.086,4.086,0,0,0,.66-2.477,3.225,3.225,0,0,0-.617-2.094,2.043,2.043,0,0,0-1.672-.758,2.27,2.27,0,0,0-1.8.777A2.854,2.854,0,0,0,57.05,36.617Zm11.509,4.57a3.711,3.711,0,0,1-2.832-1.121,4.153,4.153,0,0,1-1.059-2.973,4.326,4.326,0,0,1,1.1-3.148,3.96,3.96,0,0,1,2.977-1.133,3.588,3.588,0,0,1,2.793,1.1,4.368,4.368,0,0,1,1,3.055,4.3,4.3,0,0,1-1.082,3.066A3.791,3.791,0,0,1,68.559,41.188Zm.094-7.3a2.437,2.437,0,0,0-1.953.84,3.449,3.449,0,0,0-.719,2.316,3.262,3.262,0,0,0,.727,2.242,2.469,2.469,0,0,0,1.945.82,2.342,2.342,0,0,0,1.91-.8,3.492,3.492,0,0,0,.668-2.289,3.552,3.552,0,0,0-.668-2.312A2.332,2.332,0,0,0,68.652,33.891Zm5.493,6.82V39.336a3.792,3.792,0,0,0,2.3.773q1.688,0,1.688-1.125a.976.976,0,0,0-.145-.543,1.44,1.44,0,0,0-.391-.395,3.007,3.007,0,0,0-.578-.309q-.332-.137-.715-.285a9.206,9.206,0,0,1-.934-.426,2.82,2.82,0,0,1-.672-.484,1.8,1.8,0,0,1-.406-.613,2.17,2.17,0,0,1-.137-.8,1.912,1.912,0,0,1,.258-1,2.286,2.286,0,0,1,.688-.727,3.206,3.206,0,0,1,.98-.441,4.349,4.349,0,0,1,1.137-.148,4.59,4.59,0,0,1,1.859.359v1.3a3.624,3.624,0,0,0-2.031-.578,2.374,2.374,0,0,0-.648.082,1.587,1.587,0,0,0-.5.23,1.065,1.065,0,0,0-.32.355.936.936,0,0,0-.113.457,1.1,1.1,0,0,0,.113.523,1.152,1.152,0,0,0,.332.375,2.538,2.538,0,0,0,.531.3q.313.133.711.289a9.9,9.9,0,0,1,.953.418,3.269,3.269,0,0,1,.719.484,1.893,1.893,0,0,1,.457.621,2,2,0,0,1,.16.836,1.971,1.971,0,0,1-.262,1.031,2.243,2.243,0,0,1-.7.727,3.2,3.2,0,0,1-1.008.43,4.976,4.976,0,0,1-1.2.141A4.539,4.539,0,0,1,74.145,40.711Zm7.97-9.742a.812.812,0,0,1-.586-.234.791.791,0,0,1-.242-.594.821.821,0,0,1,.828-.836.827.827,0,0,1,.6.238.835.835,0,0,1,0,1.184A.82.82,0,0,1,82.115,30.969ZM82.74,41H81.459V33H82.74Zm6.345-.078a2.47,2.47,0,0,1-1.2.25q-2.1,0-2.1-2.344V34.094H84.413V33h1.375V31.047l1.281-.414V33h2.016v1.094H87.069V38.6a1.869,1.869,0,0,0,.273,1.148,1.091,1.091,0,0,0,.906.344,1.347,1.347,0,0,0,.836-.266Zm2.407-9.953a.812.812,0,0,1-.586-.234.791.791,0,0,1-.242-.594.821.821,0,0,1,.828-.836.827.827,0,0,1,.6.238.835.835,0,0,1,0,1.184A.82.82,0,0,1,91.492,30.969ZM92.117,41H90.836V33h1.281Zm8.923-8-3.188,8H96.595l-3.031-8H94.97L97,38.813a5.217,5.217,0,0,1,.281,1.117h.031a5.283,5.283,0,0,1,.25-1.086L99.688,33Zm7.142,8H106.9V39.75h-.031a2.682,2.682,0,0,1-2.461,1.438,2.63,2.63,0,0,1-1.871-.633,2.192,2.192,0,0,1-.676-1.68q0-2.242,2.641-2.609l2.4-.336q0-2.039-1.648-2.039a3.938,3.938,0,0,0-2.609.984V33.563a4.958,4.958,0,0,1,2.719-.75q2.82,0,2.82,2.984ZM106.9,36.953l-1.93.266a3.133,3.133,0,0,0-1.344.441,1.273,1.273,0,0,0-.453,1.121,1.221,1.221,0,0,0,.418.957,1.615,1.615,0,0,0,1.113.371,2.056,2.056,0,0,0,1.574-.668,2.387,2.387,0,0,0,.621-1.691Zm4.181,4.219a.829.829,0,0,1-.613-.258.849.849,0,0,1-.254-.617.862.862,0,0,1,.254-.621.823.823,0,0,1,.613-.262.845.845,0,0,1,.625.262.855.855,0,0,1,.258.621.842.842,0,0,1-.258.617A.851.851,0,0,1,111.081,41.172Z" transform="translate(570.711 1412)" fill="#12263f"/>
    <g id="Grupo_1211109" data-name="Grupo 1211109" transform="translate(761.711 1387.469)">
      <g id="Grupo_1211108" data-name="Grupo 1211108" transform="translate(0 0.002)" clip-path="url(#clip-path)">
        <path id="Trazado_1370505" data-name="Trazado 1370505" d="M1178.819,1870.587a.15.15,0,0,1-.046-.132l.148-.973a.151.151,0,0,0-.221-.155l-.862.474a.151.151,0,0,1-.14,0l-.879-.441a.15.15,0,0,0-.215.163l.184.966a.15.15,0,0,1-.041.134l-.692.7a.151.151,0,0,0,.088.255l.976.123a.15.15,0,0,1,.115.08l.452.874a.15.15,0,0,0,.27-.005l.419-.89a.15.15,0,0,1,.112-.084l.971-.16a.151.151,0,0,0,.079-.258Z" transform="translate(-1127.209 -1791.734)" fill="#fda942"/>
        <path id="Trazado_1370506" data-name="Trazado 1370506" d="M1283.141,1726.14l-.647-.177a.1.1,0,0,1-.07-.065l-.221-.633a.1.1,0,0,0-.183-.023l-.368.56a.1.1,0,0,1-.083.046l-.67.014a.1.1,0,0,0-.078.167l.419.523a.1.1,0,0,1,.018.094l-.193.642a.1.1,0,0,0,.134.126l.627-.237a.1.1,0,0,1,.095.012l.551.382a.1.1,0,0,0,.161-.089l-.031-.67a.1.1,0,0,1,.041-.086l.534-.406a.1.1,0,0,0-.035-.181" transform="translate(-1227.647 -1653.602)" fill="#fda942"/>
        <path id="Trazado_1370507" data-name="Trazado 1370507" d="M478.872,3.781l1.531.775a.4.4,0,0,1,.213.3l.23,1.7a.4.4,0,0,0,.672.226l1.21-1.217a.4.4,0,0,1,.351-.11l1.688.307a.4.4,0,0,0,.422-.569l-.783-1.527a.4.4,0,0,1,0-.368l.814-1.511a.4.4,0,0,0-.411-.577l-1.694.273a.4.4,0,0,1-.349-.117L481.585.125a.4.4,0,0,0-.676.212l-.264,1.7a.4.4,0,0,1-.219.3l-1.546.744a.4.4,0,0,0-.007.709" transform="translate(-458.792 -0.002)" fill="#fda942"/>
        <path id="Trazado_1370508" data-name="Trazado 1370508" d="M499.221,264.426l.533-.407a.1.1,0,0,0-.035-.181l-.647-.175a.1.1,0,0,1-.07-.065l-.223-.632a.1.1,0,0,0-.183-.022l-.367.561a.1.1,0,0,1-.083.046l-.67.016a.1.1,0,0,0-.077.167l.421.522a.1.1,0,0,1,.018.094l-.192.642a.1.1,0,0,0,.135.125l.627-.239a.1.1,0,0,1,.095.011l.552.381a.1.1,0,0,0,.161-.09l-.033-.67a.1.1,0,0,1,.04-.087" transform="translate(-476.735 -251.987)" fill="#fda942"/>
        <path id="Trazado_1370509" data-name="Trazado 1370509" d="M353.2,163.917a.1.1,0,0,1,.018.094l-.192.642a.1.1,0,0,0,.135.125l.627-.239a.1.1,0,0,1,.095.011l.552.381a.1.1,0,0,0,.161-.089l-.033-.67a.1.1,0,0,1,.04-.087l.533-.407a.1.1,0,0,0-.035-.181l-.647-.175a.1.1,0,0,1-.07-.065l-.223-.632a.1.1,0,0,0-.183-.022l-.366.561a.1.1,0,0,1-.083.046l-.67.016a.1.1,0,0,0-.077.167Z" transform="translate(-338.114 -155.812)" fill="#fda942"/>
        <path id="Trazado_1370510" data-name="Trazado 1370510" d="M102.994,101.871c-2.476,3.57-7.164,4.8-13.558,3.567a39.926,39.926,0,0,1-5.653-1.569,81.086,81.086,0,0,0,2.347-15.745,100.958,100.958,0,0,0,9.245-8.005A54.824,54.824,0,0,1,99.1,84.376a5.67,5.67,0,0,1,1.286-.9,56.438,56.438,0,0,0-3.914-4.472,47.712,47.712,0,0,0,6.445-8.1c4.735-7.739,3.354-12.788,1.362-15.661s-6.237-5.936-15.145-4.213a41.271,41.271,0,0,0-5.787,1.6q-.139-.459-.285-.9a5.385,5.385,0,0,1-1.413.573q.137.422.267.856a82.631,82.631,0,0,0-11.9,5.829,82.632,82.632,0,0,0-11.9-5.829A37.024,37.024,0,0,1,59.68,48.9c2.551-5.783,6.127-8.84,10.344-8.84a9.087,9.087,0,0,1,6.618,3.023A5.43,5.43,0,0,1,77.91,42.2a10.594,10.594,0,0,0-7.886-3.659c-3.393,0-8.183,1.691-11.737,9.748A38.308,38.308,0,0,0,56.7,52.632a41.275,41.275,0,0,0-5.786-1.6C42,49.31,37.758,52.373,35.766,55.245s-3.373,7.921,1.362,15.661a47.712,47.712,0,0,0,6.445,8.1q-1.391,1.438-2.587,2.844a5.583,5.583,0,0,1,1.316.871q1.1-1.285,2.371-2.6a100.955,100.955,0,0,0,9.245,8.005,81.084,81.084,0,0,0,2.347,15.745,39.926,39.926,0,0,1-5.654,1.569c-6.394,1.236-11.082,0-13.558-3.567-1.843-2.657-2.044-6.009-.624-9.841l-.023-.01L36.371,92l-.029-.013-.032-.014-.03-.014-.031-.014-.031-.015-.029-.014-.032-.016-.027-.013-.033-.016-.027-.014-.032-.016-.026-.014-.031-.017-.029-.016-.026-.014-.032-.018-.028-.016-.029-.017-.03-.017-.028-.016-.028-.017-.029-.017-.029-.018-.026-.016-.031-.019L35.61,91.6l-.029-.019-.027-.018-.027-.018-.028-.019-.028-.019-.025-.017-.03-.021-.024-.017-.029-.021-.024-.018-.029-.021-.024-.017-.03-.022-.023-.017-.029-.022-.025-.02-.027-.021-.024-.019-.028-.023-.022-.018-.014-.012c-2.127,5.469-.913,9.232.7,11.562a10.8,10.8,0,0,0,7.266,4.453,21.441,21.441,0,0,0,7.879-.24,41.264,41.264,0,0,0,5.786-1.6,38.315,38.315,0,0,0,1.591,4.343c3.553,8.057,8.344,9.748,11.737,9.748s8.183-1.691,11.737-9.748a38.31,38.31,0,0,0,1.591-4.343,41.26,41.26,0,0,0,5.786,1.6,21.441,21.441,0,0,0,7.879.24,10.8,10.8,0,0,0,7.266-4.453,11.043,11.043,0,0,0,1.424-9.3,5.62,5.62,0,0,1-1.483.571,9.516,9.516,0,0,1-1.229,7.836m-20.644,1.47a79.519,79.519,0,0,1-10.778-5.232q3.877-2.335,8.068-5.241,2.561-1.776,4.882-3.519a77.237,77.237,0,0,1-2.172,13.992M55.172,79.005q0-4.363.221-8.275,2.77-2.121,5.91-4.3,4.552-3.157,8.721-5.628,4.167,2.47,8.721,5.628,3.14,2.177,5.911,4.3.22,3.911.221,8.275t-.221,8.275q-2.77,2.121-5.91,4.3-4.552,3.157-8.721,5.628-4.167-2.47-8.721-5.628-3.139-2.177-5.91-4.3-.221-3.911-.221-8.275m31.071-7.041a96.309,96.309,0,0,1,8.032,7.041,96.308,96.308,0,0,1-8.032,7.041q.156-3.365.156-7.041t-.156-7.041m3.193-19.392a20,20,0,0,1,7.292-.23,9.305,9.305,0,0,1,6.266,3.8c2.476,3.57,1.988,8.393-1.411,13.948a46.108,46.108,0,0,1-6.209,7.8,100.978,100.978,0,0,0-9.245-8.005,81.085,81.085,0,0,0-2.347-15.745,39.923,39.923,0,0,1,5.654-1.569m-7.086,2.1a77.245,77.245,0,0,1,2.172,13.992q-2.321-1.742-4.882-3.519Q75.45,62.237,71.571,59.9a79.508,79.508,0,0,1,10.778-5.232M68.477,59.9q-3.877,2.335-8.068,5.241-2.561,1.776-4.882,3.519A77.237,77.237,0,0,1,57.7,54.669,79.505,79.505,0,0,1,68.477,59.9M37.055,56.139a9.305,9.305,0,0,1,6.266-3.8,20,20,0,0,1,7.292.23,39.92,39.92,0,0,1,5.654,1.569,81.083,81.083,0,0,0-2.347,15.745,100.965,100.965,0,0,0-9.245,8.005,46.108,46.108,0,0,1-6.209-7.8c-3.4-5.555-3.886-10.378-1.411-13.948m8.719,22.866a96.3,96.3,0,0,1,8.032-7.041q-.156,3.365-.156,7.041t.156,7.041a96.3,96.3,0,0,1-8.032-7.041M55.527,89.35q2.321,1.742,4.882,3.519,4.189,2.905,8.068,5.241A79.518,79.518,0,0,1,57.7,103.341,77.238,77.238,0,0,1,55.527,89.35m24.841,19.757c-2.551,5.783-6.127,8.84-10.344,8.84s-7.793-3.057-10.344-8.84a37.022,37.022,0,0,1-1.553-4.253,82.632,82.632,0,0,0,11.9-5.829,82.633,82.633,0,0,0,11.9,5.829,37.021,37.021,0,0,1-1.553,4.252" transform="translate(-32.516 -36.942)" fill="#fdcba7"/>
        <path id="Trazado_1370511" data-name="Trazado 1370511" d="M649.711,746.823a11.551,11.551,0,1,1-11.55-11.551,11.551,11.551,0,0,1,11.55,11.551" transform="translate(-600.606 -704.759)" fill="#f17a33"/>
        <path id="Trazado_1370512" data-name="Trazado 1370512" d="M655.869,763.235a9.3,9.3,0,1,1-9.3-9.3,9.3,9.3,0,0,1,9.3,9.3" transform="translate(-610.831 -722.651)" fill="#f69656"/>
        <path id="Trazado_1370513" data-name="Trazado 1370513" d="M1032.5,117.836a5.435,5.435,0,1,1-5.435-5.435,5.435,5.435,0,0,1,5.435,5.435" transform="translate(-979.233 -107.737)" fill="#004569"/>
        <path id="Trazado_1370514" data-name="Trazado 1370514" d="M1035.4,125.559a4.374,4.374,0,1,1-4.374-4.374,4.374,4.374,0,0,1,4.374,4.374" transform="translate(-984.043 -116.156)" fill="#296584"/>
        <path id="Trazado_1370515" data-name="Trazado 1370515" d="M1556.842,1111.8a5.977,5.977,0,1,1-5.977-5.977,5.977,5.977,0,0,1,5.977,5.977" transform="translate(-1480.778 -1059.934)" fill="#004e9b"/>
        <path id="Trazado_1370516" data-name="Trazado 1370516" d="M1560.028,1120.294a4.81,4.81,0,1,1-4.81-4.81,4.81,4.81,0,0,1,4.81,4.81" transform="translate(-1486.068 -1069.193)" fill="#3e68af"/>
        <path id="Trazado_1370517" data-name="Trazado 1370517" d="M11.953,1063.9a5.977,5.977,0,1,1-5.977-5.977,5.977,5.977,0,0,1,5.977,5.977" transform="translate(0 -1014.021)" fill="#f17a33"/>
        <path id="Trazado_1370518" data-name="Trazado 1370518" d="M15.139,1072.393a4.81,4.81,0,1,1-4.81-4.81,4.81,4.81,0,0,1,4.81,4.81" transform="translate(-5.29 -1023.279)" fill="#f69656"/>
      </g>
    </g>
  </g>
</svg>
