<svg xmlns="http://www.w3.org/2000/svg" xmlns:xlink="http://www.w3.org/1999/xlink" width="54.272" height="53.563" viewBox="0 0 54.272 53.563">
  <defs>
    <clipPath id="clip-path">
      <rect id="Rectángulo_739961" data-name="Rectángulo 739961" width="54.272" height="53.563" fill="#17c1c1"/>
    </clipPath>
  </defs>
  <g id="Grupo_1212642" data-name="Grupo 1212642" transform="translate(0 0)">
    <g id="Grupo_1212641" data-name="Grupo 1212641" transform="translate(0 0)" clip-path="url(#clip-path)">
      <path id="Trazado_1383410" data-name="Trazado 1383410" d="M53.119,51.284H34.23c9.045-32.348,8.691-31.033,8.691-31.121a1.165,1.165,0,0,0-.178-.789l-.089-.088a1.854,1.854,0,0,0-.531-.351c-.179-.088.8,0-15.609,0,6.563-18.41,6.3-17.533,6.3-17.621A1.1,1.1,0,0,0,31.748,0H18.09a1.222,1.222,0,0,0-1.153.877S11.174,30.42,11.261,29.894a1.465,1.465,0,0,0,.089.614l.177.351a1.035,1.035,0,0,0,.887.351H29.353V51.284H1.152a1.14,1.14,0,1,0,0,2.279H53.119a1.14,1.14,0,1,0,0-2.279m-21.46,0V30.069a1.167,1.167,0,0,0-1.152-1.14H15.164l2.571-2.542a1.1,1.1,0,0,0,0-1.578,1.132,1.132,0,0,0-1.6,0l-1.863,1.929L19.066,2.192h7.8L24.387,3.419a1.151,1.151,0,0,0-.531,1.49,1.176,1.176,0,0,0,1.507.526l4.257-2.1L23.766,19.725a1.116,1.116,0,0,0,1.064,1.49H38.576l-3.1,2.455a1.187,1.187,0,0,0-.178,1.578,1.132,1.132,0,0,0,1.6.175l2.926-2.279L31.925,51.371h-.267Z" transform="translate(0 0)" fill="#17c1c1"/>
    </g>
  </g>
</svg>
