<svg xmlns="http://www.w3.org/2000/svg" xmlns:xlink="http://www.w3.org/1999/xlink" width="58.897" height="58.7" viewBox="0 0 58.897 58.7">
  <defs>
    <clipPath id="clip-path">
      <rect id="Rectángulo_714177" data-name="Rectángulo 714177" width="58.897" height="58.7" fill="#17c1c1"/>
    </clipPath>
  </defs>
  <g id="Grupo_1210743" data-name="Grupo 1210743" clip-path="url(#clip-path)">
    <path id="Trazado_1355525" data-name="Trazado 1355525" d="M49.473,23.853c-1.472-.294-3.141-.588-4.809-.884,1.079-1.373,1.963-2.748,2.847-4.024,3.436-5.3,4.319-8.736,2.65-10.4s-5.1-.786-10.4,2.65a44.188,44.188,0,0,0-4.025,2.847,32.346,32.346,0,0,0-.883-4.809C33.473,3.044,31.706,0,29.35,0s-4.22,3.044-5.5,9.228c-.294,1.472-.588,3.141-.884,4.809-1.374-1.079-2.748-1.963-4.024-2.847-5.3-3.436-8.736-4.319-10.4-2.65s-.786,5.1,2.65,10.4a43.912,43.912,0,0,0,2.847,4.024,34.865,34.865,0,0,0-4.809.884C3.043,25.228,0,27,0,29.351s3.043,4.221,9.228,5.5c1.472.294,3.141.588,4.809.884-1.08,1.374-1.963,2.749-2.847,4.024-3.436,5.3-4.32,8.736-2.65,10.4a2.9,2.9,0,0,0,2.257.785c1.865,0,4.614-1.178,8.246-3.435a43.99,43.99,0,0,0,4.024-2.847,34.907,34.907,0,0,0,.884,4.81c1.373,6.184,3.141,9.227,5.5,9.227s4.221-3.043,5.5-9.227c.293-1.473.588-3.142.883-4.81,1.374,1.08,2.748,1.963,4.024,2.847,3.534,2.257,6.283,3.435,8.246,3.435a3.31,3.31,0,0,0,2.257-.785c1.669-1.669.785-5.1-2.651-10.4a43.8,43.8,0,0,0-2.847-4.024,34.907,34.907,0,0,0,4.81-.884c6.184-1.374,9.228-3.142,9.228-5.5-.2-2.356-3.24-4.221-9.424-5.5m-8.54-10.6c3.926-2.552,5.988-3.043,6.871-3.043a2,2,0,0,1,.491.1c.2.2.393,2.16-2.945,7.363-.981,1.57-2.257,3.239-3.533,5.006-1.767-.2-3.534-.294-5.4-.392-.1-1.866-.293-3.73-.392-5.4a36.932,36.932,0,0,1,4.908-3.631M34.16,31.413c-.981.98-1.865,1.963-2.847,2.847H27.289a18.393,18.393,0,0,0-1.473-1.374,19.282,19.282,0,0,1-1.374-1.472V27.387c.982-.981,1.866-1.963,2.848-2.847h4.024c.981.981,1.964,1.865,2.847,2.847ZM32.3,21.988,31.117,20.81c.884-.785,1.766-1.571,2.651-2.257.1,1.079.2,2.257.293,3.435a10.639,10.639,0,0,1-1.766,0m-6.086,0H24.541c.1-1.178.2-2.356.294-3.435.884.686,1.766,1.472,2.65,2.257-.491.491-.884.786-1.276,1.178m-4.319,4.319-1.178,1.178c-.786-.883-1.571-1.766-2.258-2.65,1.079-.1,2.258-.2,3.436-.294a10.639,10.639,0,0,1,0,1.766m0,6.086v1.669c-1.178-.1-2.357-.2-3.436-.294.687-.883,1.472-1.766,2.258-2.65.491.491.785.884,1.178,1.276m4.319,4.32,1.178,1.178c-.884.785-1.766,1.57-2.65,2.258-.1-1.08-.2-2.258-.3-3.436a10.546,10.546,0,0,1,1.767,0m6.086,0h1.669c-.1,1.178-.2,2.356-.294,3.436-.884-.688-1.767-1.473-2.651-2.258.492-.491.884-.785,1.277-1.178m4.32-4.32,1.178-1.178c.784.884,1.57,1.767,2.257,2.651-1.079.1-2.257.2-3.435.294a10.546,10.546,0,0,1,0-1.767m0-6.086V24.638c1.178.1,2.356.2,3.435.3-.687.883-1.473,1.766-2.257,2.65-.492-.491-.786-.884-1.178-1.277M26.111,9.621c1.276-6.086,2.847-7.265,3.141-7.265s1.865,1.277,3.141,7.265c.393,1.864.687,3.828.981,6.085q-2.06,1.62-4.122,3.534-2.062-1.913-4.122-3.534c.294-2.159.588-4.221.981-6.085M13.153,17.67c-3.337-5.2-3.141-7.166-2.944-7.363s2.159-.392,7.362,2.945c1.571.981,3.239,2.257,5.007,3.534-.2,1.767-.3,3.534-.393,5.4-1.865.1-3.73.294-5.4.392a37.088,37.088,0,0,1-3.632-4.907M9.522,32.492c-6.086-1.277-7.264-2.847-7.264-3.141s1.276-1.866,7.264-3.142c1.865-.393,3.828-.687,6.086-.981q1.619,2.062,3.534,4.123-1.915,2.06-3.534,4.122c-2.16-.294-4.221-.588-6.086-.981m8.049,12.957c-5.2,3.337-7.165,3.142-7.362,2.945s-.393-2.159,2.944-7.363c.982-1.571,2.258-3.239,3.534-5.006,1.767.2,3.535.294,5.4.393.1,1.865.3,3.73.393,5.4a36.931,36.931,0,0,1-4.908,3.631m14.822,3.632c-1.276,6.085-2.847,7.264-3.141,7.264s-1.865-1.277-3.141-7.264c-.393-1.865-.687-3.829-.981-6.086q2.06-1.62,4.122-3.535Q31.314,41.375,33.374,43c-.294,2.159-.588,4.221-.981,6.086m12.957-8.05c3.338,5.2,3.142,7.166,2.945,7.363s-2.159.392-7.362-2.945c-1.571-.981-3.239-2.258-5.006-3.534.2-1.766.293-3.534.392-5.4,1.865-.1,3.73-.294,5.4-.393a36.932,36.932,0,0,1,3.631,4.908m3.632-8.54c-1.865.393-3.828.687-6.086.981q-1.619-2.062-3.534-4.122,1.915-2.063,3.534-4.123c2.159.294,4.221.588,6.086.981,6.086,1.276,7.264,2.847,7.264,3.142s-1.276,1.864-7.264,3.141" transform="translate(0 0)" fill="#17c1c1"/>
  </g>
</svg>
