<svg xmlns="http://www.w3.org/2000/svg" width="192.525" height="234.992" viewBox="0 0 192.525 234.992">
  <g id="Grupo_1211016" data-name="Grupo 1211016" transform="translate(-703.78 -2720.203)">
    <g id="Grupo_1211015" data-name="Grupo 1211015" transform="translate(0 32)">
      <g id="Elipse_13771" data-name="Elipse 13771" transform="translate(722.711 2721)" fill="none" stroke="#707070" stroke-width="1.5">
        <circle cx="76.5" cy="76.5" r="76.5" stroke="none"/>
        <circle cx="76.5" cy="76.5" r="75.75" fill="none"/>
      </g>
      <g id="Elipse_13772" data-name="Elipse 13772" transform="translate(734.711 2733)" fill="none" stroke="#707070" stroke-width="1.5">
        <circle cx="64.5" cy="64.5" r="64.5" stroke="none"/>
        <circle cx="64.5" cy="64.5" r="63.75" fill="none"/>
      </g>
      <g id="Elipse_13773" data-name="Elipse 13773" transform="translate(748.711 2747)" fill="none" stroke="#707070" stroke-width="1.5">
        <circle cx="50.5" cy="50.5" r="50.5" stroke="none"/>
        <circle cx="50.5" cy="50.5" r="49.75" fill="none"/>
      </g>
      <g id="Elipse_13774" data-name="Elipse 13774" transform="translate(759.711 2758)" fill="none" stroke="#707070" stroke-width="1.5">
        <circle cx="39.5" cy="39.5" r="39.5" stroke="none"/>
        <circle cx="39.5" cy="39.5" r="38.75" fill="none"/>
      </g>
      <circle id="Elipse_13776" data-name="Elipse 13776" cx="22" cy="22" r="22" transform="translate(777.711 2775)" fill="#fe9341"/>
      <circle id="Elipse_13777" data-name="Elipse 13777" cx="4.5" cy="4.5" r="4.5" transform="translate(764.711 2817)" fill="#1df2f2"/>
      <circle id="Elipse_13781" data-name="Elipse 13781" cx="4.5" cy="4.5" r="4.5" transform="translate(826.711 2771)" fill="#1df2f2"/>
      <circle id="Elipse_13778" data-name="Elipse 13778" cx="4.5" cy="4.5" r="4.5" transform="translate(769.711 2750)" fill="#1df2f2"/>
      <ellipse id="Elipse_13783" data-name="Elipse 13783" cx="4.5" cy="4" rx="4.5" ry="4" transform="translate(745.711 2804)" fill="#1df2f2"/>
      <circle id="Elipse_13784" data-name="Elipse 13784" cx="4.5" cy="4.5" r="4.5" transform="translate(764.711 2833)" fill="#1df2f2"/>
      <circle id="Elipse_13785" data-name="Elipse 13785" cx="4.5" cy="4.5" r="4.5" transform="translate(795.711 2843)" fill="#1df2f2"/>
      <circle id="Elipse_13786" data-name="Elipse 13786" cx="4.5" cy="4.5" r="4.5" transform="translate(823.711 2833)" fill="#1df2f2"/>
      <ellipse id="Elipse_13779" data-name="Elipse 13779" cx="4.5" cy="4" rx="4.5" ry="4" transform="translate(812.711 2747)" fill="#1df2f2"/>
      <ellipse id="Elipse_13782" data-name="Elipse 13782" cx="4.5" cy="4" rx="4.5" ry="4" transform="translate(842.711 2778)" fill="#1df2f2"/>
      <circle id="Elipse_13788" data-name="Elipse 13788" cx="4.5" cy="4.5" r="4.5" transform="translate(750.711 2769)" fill="#1df2f2"/>
      <ellipse id="Elipse_13787" data-name="Elipse 13787" cx="4" cy="4.5" rx="4" ry="4.5" transform="translate(841.711 2811)" fill="#1df2f2"/>
      <circle id="Elipse_13780" data-name="Elipse 13780" cx="4.5" cy="4.5" r="4.5" transform="translate(796.711 2729)" fill="#1df2f2"/>
      <circle id="Elipse_13806" data-name="Elipse 13806" cx="5.5" cy="5.5" r="5.5" transform="translate(810.711 2718)" fill="#0460d9"/>
      <ellipse id="Elipse_13789" data-name="Elipse 13789" cx="4" cy="4.5" rx="4" ry="4.5" transform="translate(773.711 2733)" fill="#1df2f2"/>
      <ellipse id="Elipse_13790" data-name="Elipse 13790" cx="4" cy="4.5" rx="4" ry="4.5" transform="translate(752.711 2745)" fill="#1df2f2"/>
      <circle id="Elipse_13791" data-name="Elipse 13791" cx="4.5" cy="4.5" r="4.5" transform="translate(739.711 2760)" fill="#1df2f2"/>
      <ellipse id="Elipse_13792" data-name="Elipse 13792" cx="4.5" cy="4" rx="4.5" ry="4" transform="translate(732.711 2805)" fill="#1df2f2"/>
      <ellipse id="Elipse_13805" data-name="Elipse 13805" cx="4.5" cy="4" rx="4.5" ry="4" transform="translate(732.711 2784)" fill="#1df2f2"/>
      <ellipse id="Elipse_13793" data-name="Elipse 13793" cx="4" cy="4.5" rx="4" ry="4.5" transform="translate(737.711 2822)" fill="#1df2f2"/>
      <circle id="Elipse_13794" data-name="Elipse 13794" cx="4.5" cy="4.5" r="4.5" transform="translate(753.711 2842)" fill="#1df2f2"/>
      <circle id="Elipse_13795" data-name="Elipse 13795" cx="4.5" cy="4.5" r="4.5" transform="translate(774.711 2853)" fill="#1df2f2"/>
      <ellipse id="Elipse_13796" data-name="Elipse 13796" cx="4.5" cy="4" rx="4.5" ry="4" transform="translate(801.711 2856)" fill="#1df2f2"/>
      <circle id="Elipse_13797" data-name="Elipse 13797" cx="4.5" cy="4.5" r="4.5" transform="translate(826.711 2848)" fill="#1df2f2"/>
      <ellipse id="Elipse_13798" data-name="Elipse 13798" cx="4" cy="4.5" rx="4" ry="4.5" transform="translate(851.711 2822)" fill="#1df2f2"/>
      <ellipse id="Elipse_13804" data-name="Elipse 13804" cx="4.5" cy="4" rx="4.5" ry="4" transform="translate(842.711 2836)" fill="#1df2f2"/>
      <ellipse id="Elipse_13799" data-name="Elipse 13799" cx="4.5" cy="4" rx="4.5" ry="4" transform="translate(858.711 2804)" fill="#1df2f2"/>
      <ellipse id="Elipse_13800" data-name="Elipse 13800" cx="4.5" cy="4" rx="4.5" ry="4" transform="translate(858.711 2783)" fill="#1df2f2"/>
      <circle id="Elipse_13801" data-name="Elipse 13801" cx="4" cy="4" r="4" transform="translate(851.711 2762)" fill="#1df2f2"/>
      <ellipse id="Elipse_13802" data-name="Elipse 13802" cx="4.5" cy="4" rx="4.5" ry="4" transform="translate(838.711 2747)" fill="#1df2f2"/>
      <ellipse id="Elipse_13803" data-name="Elipse 13803" cx="4" cy="4.5" rx="4" ry="4.5" transform="translate(820.711 2734)" fill="#1df2f2"/>
    </g>
    <g id="Grupo_1212877" data-name="Grupo 1212877">
      <path id="Trazado_1383704" data-name="Trazado 1383704" d="M-92.056,0h-1.281V-9.68a2.966,2.966,0,0,1-.434.34,7.068,7.068,0,0,1-.641.379q-.355.188-.75.352a5.451,5.451,0,0,1-.77.258v-1.3a7.448,7.448,0,0,0,.895-.316q.473-.2.93-.445t.863-.516a6.853,6.853,0,0,0,.7-.527h.484Zm14.838,0h-5.937V-11.2h5.688v1.188h-4.375v3.727H-77.8v1.18h-4.047v3.922h4.625Zm3.306,0h-1.281V-11.844h1.281Zm9.063-3.68H-70.5a2.992,2.992,0,0,0,.719,2.063,2.478,2.478,0,0,0,1.891.727A3.931,3.931,0,0,0-65.4-1.781v1.2a4.643,4.643,0,0,1-2.789.766A3.381,3.381,0,0,1-70.857-.9a4.461,4.461,0,0,1-.969-3.066,4.375,4.375,0,0,1,1.059-3.043,3.394,3.394,0,0,1,2.629-1.176,3.008,3.008,0,0,1,2.43,1.016,4.234,4.234,0,0,1,.859,2.82Zm-1.312-1.086A2.607,2.607,0,0,0-66.7-6.492a1.823,1.823,0,0,0-1.465-.617,2.07,2.07,0,0,0-1.539.648,2.943,2.943,0,0,0-.781,1.7Zm8.743,4.4a4.163,4.163,0,0,1-2.187.555A3.622,3.622,0,0,1-62.367-.926a4.035,4.035,0,0,1-1.051-2.887,4.435,4.435,0,0,1,1.133-3.176,3.963,3.963,0,0,1,3.023-1.2A4.209,4.209,0,0,1-57.4-7.8v1.313a3.258,3.258,0,0,0-1.906-.625,2.576,2.576,0,0,0-2.012.879,3.335,3.335,0,0,0-.785,2.309A3.176,3.176,0,0,0-61.367-1.7a2.545,2.545,0,0,0,1.98.813,3.211,3.211,0,0,0,1.969-.7Zm5.688.289a2.47,2.47,0,0,1-1.2.25q-2.1,0-2.1-2.344V-6.906H-56.4V-8h1.375V-9.953l1.281-.414V-8h2.016v1.094h-2.016V-2.4a1.869,1.869,0,0,0,.273,1.148,1.091,1.091,0,0,0,.906.344,1.347,1.347,0,0,0,.836-.266ZM-45.807-6.7a1.567,1.567,0,0,0-.969-.258,1.635,1.635,0,0,0-1.371.773A3.576,3.576,0,0,0-48.7-4.078V0h-1.281V-8H-48.7v1.648h.031a2.794,2.794,0,0,1,.836-1.316,1.906,1.906,0,0,1,1.258-.473,2.092,2.092,0,0,1,.766.109ZM-41.032.188A3.711,3.711,0,0,1-43.865-.934a4.153,4.153,0,0,1-1.059-2.973,4.326,4.326,0,0,1,1.1-3.148,3.96,3.96,0,0,1,2.977-1.133,3.588,3.588,0,0,1,2.793,1.1,4.368,4.368,0,0,1,1,3.055A4.3,4.3,0,0,1-38.13-.965,3.791,3.791,0,0,1-41.032.188Zm.094-7.3a2.437,2.437,0,0,0-1.953.84,3.449,3.449,0,0,0-.719,2.316,3.262,3.262,0,0,0,.727,2.242,2.469,2.469,0,0,0,1.945.82,2.342,2.342,0,0,0,1.91-.8,3.492,3.492,0,0,0,.668-2.289A3.552,3.552,0,0,0-39.029-6.3,2.332,2.332,0,0,0-40.939-7.109Zm1.875-4.969-2.047,2.563H-42.1l1.742-2.562ZM-28.321,0H-29.6V-4.562q0-2.547-1.859-2.547a2.017,2.017,0,0,0-1.59.723,2.679,2.679,0,0,0-.629,1.824V0h-1.281V-8h1.281v1.328h.031a2.887,2.887,0,0,1,2.625-1.516,2.448,2.448,0,0,1,2.008.848,3.776,3.776,0,0,1,.7,2.449Zm13.307-3.68h-5.648a2.992,2.992,0,0,0,.719,2.063,2.478,2.478,0,0,0,1.891.727,3.931,3.931,0,0,0,2.484-.891v1.2a4.643,4.643,0,0,1-2.789.766A3.381,3.381,0,0,1-21.022-.9a4.461,4.461,0,0,1-.969-3.066,4.375,4.375,0,0,1,1.059-3.043A3.394,3.394,0,0,1-18.3-8.187a3.008,3.008,0,0,1,2.43,1.016,4.234,4.234,0,0,1,.859,2.82Zm-1.312-1.086a2.607,2.607,0,0,0-.535-1.727,1.823,1.823,0,0,0-1.465-.617,2.07,2.07,0,0,0-1.539.648,2.943,2.943,0,0,0-.781,1.7ZM-6.4,0H-7.677V-4.562q0-2.547-1.859-2.547a2.017,2.017,0,0,0-1.59.723,2.679,2.679,0,0,0-.629,1.824V0h-1.281V-8h1.281v1.328h.031A2.887,2.887,0,0,1-9.1-8.187a2.448,2.448,0,0,1,2.008.848,3.776,3.776,0,0,1,.7,2.449ZM1.762,0H.481V-11.844H1.762Zm8.36,0H8.841V-1.25H8.81A2.682,2.682,0,0,1,6.349.188,2.63,2.63,0,0,1,4.478-.445,2.192,2.192,0,0,1,3.8-2.125q0-2.242,2.641-2.609l2.4-.336q0-2.039-1.648-2.039a3.938,3.938,0,0,0-2.609.984V-7.437A4.958,4.958,0,0,1,7.3-8.187q2.82,0,2.82,2.984ZM8.841-4.047l-1.93.266a3.133,3.133,0,0,0-1.344.441,1.273,1.273,0,0,0-.453,1.121,1.221,1.221,0,0,0,.418.957,1.615,1.615,0,0,0,1.113.371A2.056,2.056,0,0,0,8.22-1.559,2.387,2.387,0,0,0,8.841-3.25ZM23.468,0H22.187V-1.266h-.031A2.631,2.631,0,0,1,19.687.188q-2.859,0-2.859-3.406V-8H18.1v4.578q0,2.531,1.938,2.531a1.96,1.96,0,0,0,1.543-.691,2.645,2.645,0,0,0,.605-1.809V-8h1.281Zm-1.2-12.078L20.218-9.516h-.992l1.742-2.562ZM27.375,0H26.094V-11.844h1.281ZM33.72-.078a2.47,2.47,0,0,1-1.2.25q-2.1,0-2.1-2.344V-6.906H29.048V-8h1.375V-9.953l1.281-.414V-8H33.72v1.094H31.7V-2.4a1.869,1.869,0,0,0,.273,1.148,1.091,1.091,0,0,0,.906.344,1.347,1.347,0,0,0,.836-.266Zm2.407-9.953a.812.812,0,0,1-.586-.234.791.791,0,0,1-.242-.594.8.8,0,0,1,.242-.6.8.8,0,0,1,.586-.238.827.827,0,0,1,.6.238.8.8,0,0,1,.246.6.792.792,0,0,1-.246.586A.82.82,0,0,1,36.127-10.031ZM36.752,0H35.471V-8h1.281ZM50.745,0H49.464V-4.594a3.466,3.466,0,0,0-.41-1.922,1.555,1.555,0,0,0-1.379-.594,1.708,1.708,0,0,0-1.395.75,2.869,2.869,0,0,0-.574,1.8V0H44.425V-4.75q0-2.359-1.82-2.359a1.686,1.686,0,0,0-1.391.707,2.923,2.923,0,0,0-.547,1.84V0H39.386V-8h1.281v1.266H40.7a2.718,2.718,0,0,1,2.484-1.453,2.316,2.316,0,0,1,1.43.457,2.3,2.3,0,0,1,.836,1.2A2.855,2.855,0,0,1,48.1-8.187q2.641,0,2.641,3.258Zm8.188,0H57.653V-1.25h-.031A2.682,2.682,0,0,1,55.16.188a2.63,2.63,0,0,1-1.871-.633,2.192,2.192,0,0,1-.676-1.68q0-2.242,2.641-2.609l2.4-.336q0-2.039-1.648-2.039a3.938,3.938,0,0,0-2.609.984V-7.437a4.958,4.958,0,0,1,2.719-.75q2.82,0,2.82,2.984ZM57.653-4.047l-1.93.266a3.133,3.133,0,0,0-1.344.441,1.273,1.273,0,0,0-.453,1.121,1.221,1.221,0,0,0,.418.957,1.615,1.615,0,0,0,1.113.371,2.056,2.056,0,0,0,1.574-.668,2.387,2.387,0,0,0,.621-1.691ZM71.264-.367a4.163,4.163,0,0,1-2.187.555A3.622,3.622,0,0,1,66.315-.926a4.035,4.035,0,0,1-1.051-2.887A4.435,4.435,0,0,1,66.4-6.988a3.963,3.963,0,0,1,3.023-1.2,4.209,4.209,0,0,1,1.859.391v1.313a3.258,3.258,0,0,0-1.906-.625,2.576,2.576,0,0,0-2.012.879,3.335,3.335,0,0,0-.785,2.309A3.176,3.176,0,0,0,67.315-1.7a2.545,2.545,0,0,0,1.98.813,3.211,3.211,0,0,0,1.969-.7Zm7.7.367H77.687V-1.25h-.031A2.682,2.682,0,0,1,75.194.188a2.63,2.63,0,0,1-1.871-.633,2.192,2.192,0,0,1-.676-1.68q0-2.242,2.641-2.609l2.4-.336q0-2.039-1.648-2.039a3.938,3.938,0,0,0-2.609.984V-7.437a4.958,4.958,0,0,1,2.719-.75q2.82,0,2.82,2.984ZM77.687-4.047l-1.93.266a3.133,3.133,0,0,0-1.344.441,1.273,1.273,0,0,0-.453,1.121,1.221,1.221,0,0,0,.418.957,1.615,1.615,0,0,0,1.113.371,2.056,2.056,0,0,0,1.574-.668,2.387,2.387,0,0,0,.621-1.691Zm5.048,2.891H82.7V3.68H81.422V-8H82.7v1.406h.031A3.03,3.03,0,0,1,85.5-8.187a2.93,2.93,0,0,1,2.414,1.074,4.449,4.449,0,0,1,.867,2.879A4.959,4.959,0,0,1,87.8-1.02,3.251,3.251,0,0,1,85.133.188,2.676,2.676,0,0,1,82.734-1.156ZM82.7-4.383v1.117a2.379,2.379,0,0,0,.645,1.684,2.14,2.14,0,0,0,1.637.691,2.145,2.145,0,0,0,1.824-.891,4.086,4.086,0,0,0,.66-2.477,3.225,3.225,0,0,0-.617-2.094,2.043,2.043,0,0,0-1.672-.758,2.27,2.27,0,0,0-1.8.777A2.854,2.854,0,0,0,82.7-4.383ZM96.595,0H95.313V-1.25h-.031A2.682,2.682,0,0,1,92.821.188,2.63,2.63,0,0,1,90.95-.445a2.192,2.192,0,0,1-.676-1.68q0-2.242,2.641-2.609l2.4-.336q0-2.039-1.648-2.039a3.938,3.938,0,0,0-2.609.984V-7.437a4.958,4.958,0,0,1,2.719-.75q2.82,0,2.82,2.984ZM95.313-4.047l-1.93.266a3.133,3.133,0,0,0-1.344.441,1.273,1.273,0,0,0-.453,1.121A1.221,1.221,0,0,0,92-1.262a1.615,1.615,0,0,0,1.113.371,2.056,2.056,0,0,0,1.574-.668,2.387,2.387,0,0,0,.621-1.691ZM-30.359,23.6a7.388,7.388,0,0,1-3.2.594,5.4,5.4,0,0,1-4.055-1.516,5.54,5.54,0,0,1-1.477-4.039,5.919,5.919,0,0,1,1.66-4.359,5.807,5.807,0,0,1,4.309-1.672,8.058,8.058,0,0,1,2.766.414v2.43a4.9,4.9,0,0,0-2.562-.672,3.4,3.4,0,0,0-2.547.992,3.682,3.682,0,0,0-.969,2.688,3.611,3.611,0,0,0,.914,2.59,3.229,3.229,0,0,0,2.461.965,5.249,5.249,0,0,0,2.7-.719Zm5.563.594a4.3,4.3,0,0,1-3.145-1.121,4.064,4.064,0,0,1-1.145-3.043A4.065,4.065,0,0,1-27.9,16.926,4.487,4.487,0,0,1-24.686,15.8a4.249,4.249,0,0,1,3.125,1.121,3.985,3.985,0,0,1,1.133,2.965A4.23,4.23,0,0,1-21.6,23.039,4.348,4.348,0,0,1-24.8,24.2Zm.063-6.5a1.647,1.647,0,0,0-1.359.6,2.653,2.653,0,0,0-.484,1.7q0,2.3,1.859,2.3,1.773,0,1.773-2.367Q-22.944,17.7-24.733,17.7ZM-11.06,24h-2.461V19.555q0-1.859-1.328-1.859a1.318,1.318,0,0,0-1.055.492,1.875,1.875,0,0,0-.414,1.25V24h-2.469V16h2.469v1.266h.031a2.829,2.829,0,0,1,2.57-1.461q2.656,0,2.656,3.3Zm9.821,0H-3.708V22.9h-.031a2.768,2.768,0,0,1-2.477,1.3A3.033,3.033,0,0,1-8.63,23.137a4.382,4.382,0,0,1-.914-2.957A4.77,4.77,0,0,1-8.536,17,3.287,3.287,0,0,1-5.9,15.8a2.246,2.246,0,0,1,2.156,1.109h.031V12.156h2.469Zm-2.422-3.891v-.6a1.893,1.893,0,0,0-.453-1.3,1.5,1.5,0,0,0-1.18-.516,1.487,1.487,0,0,0-1.281.645,2.993,2.993,0,0,0-.461,1.77,2.59,2.59,0,0,0,.445,1.625,1.479,1.479,0,0,0,1.234.57,1.485,1.485,0,0,0,1.223-.6A2.507,2.507,0,0,0-3.661,20.109ZM8.48,24H6.02V22.781H5.98A2.792,2.792,0,0,1,3.535,24.2Q.754,24.2.754,20.828V16H3.215v4.609q0,1.7,1.344,1.7a1.329,1.329,0,0,0,1.063-.465,1.874,1.874,0,0,0,.4-1.262V16H8.48Zm8.181-.289a4.881,4.881,0,0,1-2.414.484,4.083,4.083,0,0,1-2.984-1.117A3.859,3.859,0,0,1,10.122,20.2a4.251,4.251,0,0,1,1.223-3.215,4.518,4.518,0,0,1,3.27-1.176,4.2,4.2,0,0,1,2.047.375v2.094a2.814,2.814,0,0,0-1.727-.578,2.275,2.275,0,0,0-1.684.621,2.317,2.317,0,0,0-.621,1.715,2.28,2.28,0,0,0,.594,1.668,2.182,2.182,0,0,0,1.633.605,3.258,3.258,0,0,0,1.8-.578Zm6.493.2a3.649,3.649,0,0,1-1.648.289q-2.609,0-2.609-2.711V17.82H17.6V16h1.3V14.273l2.461-.7V16h1.8v1.82h-1.8v3.234q0,1.25.992,1.25a1.673,1.673,0,0,0,.8-.227Zm5.181.289a4.3,4.3,0,0,1-3.145-1.121,4.064,4.064,0,0,1-1.145-3.043,4.065,4.065,0,0,1,1.188-3.105A4.487,4.487,0,0,1,28.444,15.8a4.249,4.249,0,0,1,3.125,1.121A3.985,3.985,0,0,1,32.7,19.891a4.23,4.23,0,0,1-1.168,3.148A4.348,4.348,0,0,1,28.335,24.2Zm.063-6.5a1.647,1.647,0,0,0-1.359.6,2.653,2.653,0,0,0-.484,1.7q0,2.3,1.859,2.3,1.773,0,1.773-2.367Q30.186,17.7,28.4,17.7Zm11.165.531a2.141,2.141,0,0,0-1.039-.242,1.5,1.5,0,0,0-1.258.59,2.573,2.573,0,0,0-.453,1.605V24H34.344V16h2.469v1.484h.031a2.136,2.136,0,0,1,2.109-1.625,1.59,1.59,0,0,1,.609.094Z" transform="translate(799.711 2931)" fill="#12263f"/>
      <path id="Trazado_1383705" data-name="Trazado 1383705" d="M-65.442,0H-66.9l-1.187-3.141h-4.75L-73.95,0h-1.461l4.3-11.2h1.359Zm-3.07-4.32L-70.27-9.094a4.571,4.571,0,0,1-.172-.75h-.031a4.185,4.185,0,0,1-.18.75L-72.4-4.32Zm-.3-10.477-2.047,2.563h-.992l1.742-2.562ZM-60.215-.078a2.47,2.47,0,0,1-1.2.25q-2.1,0-2.1-2.344V-6.906h-1.375V-8h1.375V-9.953l1.281-.414V-8h2.016v1.094H-62.23V-2.4a1.869,1.869,0,0,0,.273,1.148,1.091,1.091,0,0,0,.906.344,1.347,1.347,0,0,0,.836-.266Zm5.095.266A3.711,3.711,0,0,1-57.952-.934,4.153,4.153,0,0,1-59.01-3.906a4.326,4.326,0,0,1,1.1-3.148,3.96,3.96,0,0,1,2.977-1.133,3.588,3.588,0,0,1,2.793,1.1,4.368,4.368,0,0,1,1,3.055A4.3,4.3,0,0,1-52.217-.965,3.791,3.791,0,0,1-55.12.188Zm.094-7.3a2.437,2.437,0,0,0-1.953.84A3.449,3.449,0,0,0-57.7-3.953a3.262,3.262,0,0,0,.727,2.242,2.469,2.469,0,0,0,1.945.82,2.342,2.342,0,0,0,1.91-.8,3.492,3.492,0,0,0,.668-2.289A3.552,3.552,0,0,0-53.116-6.3,2.332,2.332,0,0,0-55.026-7.109ZM-37.689,0H-38.97V-4.594a3.466,3.466,0,0,0-.41-1.922,1.555,1.555,0,0,0-1.379-.594,1.708,1.708,0,0,0-1.395.75,2.869,2.869,0,0,0-.574,1.8V0H-44.01V-4.75q0-2.359-1.82-2.359A1.686,1.686,0,0,0-47.22-6.4a2.923,2.923,0,0,0-.547,1.84V0h-1.281V-8h1.281v1.266h.031a2.718,2.718,0,0,1,2.484-1.453,2.316,2.316,0,0,1,1.43.457,2.3,2.3,0,0,1,.836,1.2A2.855,2.855,0,0,1-40.33-8.187q2.641,0,2.641,3.258Zm5.806.188A3.711,3.711,0,0,1-34.716-.934a4.153,4.153,0,0,1-1.059-2.973,4.326,4.326,0,0,1,1.1-3.148A3.96,3.96,0,0,1-31.7-8.187a3.588,3.588,0,0,1,2.793,1.1,4.368,4.368,0,0,1,1,3.055A4.3,4.3,0,0,1-28.981-.965,3.791,3.791,0,0,1-31.884.188Zm.094-7.3a2.437,2.437,0,0,0-1.953.84,3.449,3.449,0,0,0-.719,2.316,3.262,3.262,0,0,0,.727,2.242,2.469,2.469,0,0,0,1.945.82,2.342,2.342,0,0,0,1.91-.8,3.492,3.492,0,0,0,.668-2.289A3.552,3.552,0,0,0-29.88-6.3,2.332,2.332,0,0,0-31.79-7.109ZM-14.561,0h-1.281V-1.359h-.031A2.958,2.958,0,0,1-18.624.188a2.988,2.988,0,0,1-2.41-1.074,4.407,4.407,0,0,1-.9-2.926,4.794,4.794,0,0,1,1-3.18,3.3,3.3,0,0,1,2.664-1.2,2.564,2.564,0,0,1,2.4,1.3h.031v-4.953h1.281Zm-1.281-3.617V-4.8a2.289,2.289,0,0,0-.641-1.641,2.149,2.149,0,0,0-1.625-.672,2.212,2.212,0,0,0-1.844.859,3.766,3.766,0,0,0-.672,2.375,3.387,3.387,0,0,0,.645,2.184,2.107,2.107,0,0,0,1.73.8,2.188,2.188,0,0,0,1.738-.773A2.882,2.882,0,0,0-15.843-3.617ZM-5.5-3.68h-5.648a2.992,2.992,0,0,0,.719,2.063,2.478,2.478,0,0,0,1.891.727,3.931,3.931,0,0,0,2.484-.891v1.2A4.643,4.643,0,0,1-8.842.188,3.381,3.381,0,0,1-11.506-.9a4.461,4.461,0,0,1-.969-3.066,4.375,4.375,0,0,1,1.059-3.043A3.394,3.394,0,0,1-8.787-8.187a3.008,3.008,0,0,1,2.43,1.016A4.234,4.234,0,0,1-5.5-4.352ZM-6.81-4.766a2.607,2.607,0,0,0-.535-1.727A1.823,1.823,0,0,0-8.81-7.109a2.07,2.07,0,0,0-1.539.648,2.943,2.943,0,0,0-.781,1.7ZM8.7-.469A6.571,6.571,0,0,1,5.605.188,4.989,4.989,0,0,1,1.777-1.352,5.679,5.679,0,0,1,.34-5.391,5.952,5.952,0,0,1,1.957-9.734a5.489,5.489,0,0,1,4.1-1.656A6.576,6.576,0,0,1,8.7-10.93v1.4A5.355,5.355,0,0,0,6.043-10.2,4.076,4.076,0,0,0,2.914-8.914a4.856,4.856,0,0,0-1.2,3.445A4.621,4.621,0,0,0,2.836-2.207,3.815,3.815,0,0,0,5.777-.992,5.518,5.518,0,0,0,8.7-1.742Zm5.493.656A3.711,3.711,0,0,1,11.36-.934,4.153,4.153,0,0,1,10.3-3.906a4.326,4.326,0,0,1,1.1-3.148A3.96,3.96,0,0,1,14.38-8.187a3.588,3.588,0,0,1,2.793,1.1,4.368,4.368,0,0,1,1,3.055A4.3,4.3,0,0,1,17.095-.965,3.791,3.791,0,0,1,14.192.188Zm.094-7.3a2.437,2.437,0,0,0-1.953.84,3.449,3.449,0,0,0-.719,2.316,3.262,3.262,0,0,0,.727,2.242,2.469,2.469,0,0,0,1.945.82,2.342,2.342,0,0,0,1.91-.8,3.492,3.492,0,0,0,.668-2.289A3.552,3.552,0,0,0,16.2-6.3,2.332,2.332,0,0,0,14.286-7.109Zm7.29,5.953h-.031V0H20.264V-11.844h1.281v5.25h.031a3.03,3.03,0,0,1,2.766-1.594,2.932,2.932,0,0,1,2.41,1.074,4.436,4.436,0,0,1,.871,2.879,4.959,4.959,0,0,1-.977,3.215A3.251,3.251,0,0,1,23.975.188,2.631,2.631,0,0,1,21.576-1.156Zm-.031-3.227v1.117a2.379,2.379,0,0,0,.645,1.684,2.14,2.14,0,0,0,1.637.691,2.145,2.145,0,0,0,1.824-.891,4.086,4.086,0,0,0,.66-2.477,3.225,3.225,0,0,0-.617-2.094,2.043,2.043,0,0,0-1.672-.758,2.27,2.27,0,0,0-1.8.777A2.854,2.854,0,0,0,21.545-4.383ZM33.882-6.7a1.567,1.567,0,0,0-.969-.258,1.635,1.635,0,0,0-1.371.773,3.576,3.576,0,0,0-.551,2.109V0H29.71V-8h1.281v1.648h.031a2.793,2.793,0,0,1,.836-1.316,1.906,1.906,0,0,1,1.258-.473,2.092,2.092,0,0,1,.766.109Zm7.86,3.023H36.094a2.992,2.992,0,0,0,.719,2.063A2.478,2.478,0,0,0,38.7-.891a3.931,3.931,0,0,0,2.484-.891v1.2A4.643,4.643,0,0,1,38.4.188,3.381,3.381,0,0,1,35.734-.9a4.461,4.461,0,0,1-.969-3.066,4.375,4.375,0,0,1,1.059-3.043,3.394,3.394,0,0,1,2.629-1.176,3.008,3.008,0,0,1,2.43,1.016,4.234,4.234,0,0,1,.859,2.82ZM40.43-4.766a2.607,2.607,0,0,0-.535-1.727,1.823,1.823,0,0,0-1.465-.617,2.07,2.07,0,0,0-1.539.648,2.943,2.943,0,0,0-.781,1.7ZM51.5,2.547H50.361a9.984,9.984,0,0,1-2.422-6.82,10.362,10.362,0,0,1,2.422-6.93h1.156a10.529,10.529,0,0,0-2.453,6.914A10.345,10.345,0,0,0,51.5,2.547ZM60.807-.469a6.571,6.571,0,0,1-3.094.656,4.989,4.989,0,0,1-3.828-1.539,5.679,5.679,0,0,1-1.437-4.039,5.952,5.952,0,0,1,1.617-4.344,5.489,5.489,0,0,1,4.1-1.656,6.576,6.576,0,0,1,2.641.461v1.4a5.355,5.355,0,0,0-2.656-.672,4.076,4.076,0,0,0-3.129,1.289,4.856,4.856,0,0,0-1.2,3.445,4.621,4.621,0,0,0,1.121,3.262A3.815,3.815,0,0,0,57.885-.992a5.518,5.518,0,0,0,2.922-.75ZM69.425,0H68.144V-1.266h-.031A2.631,2.631,0,0,1,65.644.188q-2.859,0-2.859-3.406V-8h1.273v4.578Q64.058-.891,66-.891a1.96,1.96,0,0,0,1.543-.691,2.645,2.645,0,0,0,.605-1.809V-8h1.281Zm2.657,2.547H70.942A10.345,10.345,0,0,0,73.38-4.289,10.529,10.529,0,0,0,70.926-11.2h1.156a10.321,10.321,0,0,1,2.438,6.93A9.945,9.945,0,0,1,72.083,2.547Z" transform="translate(799.711 2735)" fill="#12263f"/>
      <path id="Trazado_1383706" data-name="Trazado 1383706" d="M-2.287-7.232a2.027,2.027,0,0,0-.14-.786,1.557,1.557,0,0,0-.383-.557,1.568,1.568,0,0,0-.571-.332,2.235,2.235,0,0,0-.711-.109,2.352,2.352,0,0,0-.643.089,3.124,3.124,0,0,0-.612.246,3.764,3.764,0,0,0-.574.376,4.148,4.148,0,0,0-.516.485v-1.2a3.352,3.352,0,0,1,1.056-.7,3.719,3.719,0,0,1,1.425-.243,3.441,3.441,0,0,1,1.114.174,2.555,2.555,0,0,1,.889.509,2.354,2.354,0,0,1,.591.827,2.79,2.79,0,0,1,.215,1.128,3.868,3.868,0,0,1-.133,1.053,3.256,3.256,0,0,1-.4.889,4.288,4.288,0,0,1-.68.8,9.635,9.635,0,0,1-.964.779q-.69.492-1.138.841a5.031,5.031,0,0,0-.711.653,1.894,1.894,0,0,0-.369.608A2.127,2.127,0,0,0-5.65-1H-.769V0h-6.05V-.485a4.045,4.045,0,0,1,.137-1.107A2.876,2.876,0,0,1-6.231-2.5a5.046,5.046,0,0,1,.824-.861q.509-.431,1.248-.971a7.887,7.887,0,0,0,.892-.731,3.8,3.8,0,0,0,.578-.7,2.5,2.5,0,0,0,.311-.708A3.051,3.051,0,0,0-2.287-7.232ZM6.881-5.489a9.764,9.764,0,0,1-.267,2.4,5.345,5.345,0,0,1-.779,1.777A3.45,3.45,0,0,1,4.584-.208,3.627,3.627,0,0,1,2.9.171,4.028,4.028,0,0,1,1.193-.171V-1.244A3.484,3.484,0,0,0,2.93-.786,2.521,2.521,0,0,0,4.116-1.06,2.456,2.456,0,0,0,5-1.856a3.91,3.91,0,0,0,.554-1.289A7.276,7.276,0,0,0,5.746-4.9H5.719A2.239,2.239,0,0,1,3.531-3.637a2.941,2.941,0,0,1-1.155-.222,2.647,2.647,0,0,1-.909-.629,2.878,2.878,0,0,1-.595-.967A3.474,3.474,0,0,1,.66-6.692,3.6,3.6,0,0,1,.9-8.019a3.091,3.091,0,0,1,.656-1.036,2.936,2.936,0,0,1,1-.673,3.264,3.264,0,0,1,1.261-.239,2.792,2.792,0,0,1,1.309.3,2.624,2.624,0,0,1,.96.868,4.29,4.29,0,0,1,.595,1.4A8.021,8.021,0,0,1,6.881-5.489Zm-1.21-1a3.413,3.413,0,0,0-.147-1.032,2.5,2.5,0,0,0-.407-.8A1.825,1.825,0,0,0,4.5-8.835a1.712,1.712,0,0,0-.783-.181,1.775,1.775,0,0,0-.752.161,1.808,1.808,0,0,0-.6.451,2.154,2.154,0,0,0-.4.69,2.508,2.508,0,0,0-.147.872,2.867,2.867,0,0,0,.14.93,1.942,1.942,0,0,0,.4.694,1.727,1.727,0,0,0,.625.434,2.111,2.111,0,0,0,.81.15,1.856,1.856,0,0,0,.735-.147,1.946,1.946,0,0,0,.6-.4,1.827,1.827,0,0,0,.4-.588A1.807,1.807,0,0,0,5.671-6.494ZM3.223,10.377H.461v2.755H-.448V10.377H-3.2V9.461H-.448V6.706H.461V9.461H3.223Z" transform="translate(799.711 2828)" fill="#12263f"/>
    </g>
  </g>
</svg>
