<svg xmlns="http://www.w3.org/2000/svg" xmlns:xlink="http://www.w3.org/1999/xlink" width="294.318" height="202.452" viewBox="0 0 294.318 202.452">
  <defs>
    <clipPath id="clip-path">
      <rect id="Rectángulo_739059" data-name="Rectángulo 739059" width="294.318" height="202.452" fill="#fe9341"/>
    </clipPath>
  </defs>
  <g id="Grupo_1211060" data-name="Grupo 1211060" transform="translate(-183.682 -6494.284)">
    <g id="Grupo_1211057" data-name="Grupo 1211057" transform="translate(183.682 6494.284)">
      <g id="Grupo_1211056" data-name="Grupo 1211056" clip-path="url(#clip-path)">
        <path id="Trazado_1370425" data-name="Trazado 1370425" d="M116.606,93.763a76.709,76.709,0,0,0,1.97-17.363c0-33.321-21.089-60.432-47.011-60.432v.962c25.3,0,45.889,26.677,45.889,59.469A75.775,75.775,0,0,1,115.5,93.575Z" transform="translate(75.594 3.167)" fill="#fe9341"/>
        <path id="Trazado_1370426" data-name="Trazado 1370426" d="M107.129,93.763l1.1-.188A75.881,75.881,0,0,1,106.283,76.4c0-32.791,20.585-59.468,45.889-59.468v-.962c-25.922,0-47.013,27.11-47.013,60.43a76.741,76.741,0,0,0,1.97,17.364" transform="translate(-5.013 3.167)" fill="#fe9341"/>
        <path id="Trazado_1370427" data-name="Trazado 1370427" d="M117.69,96.919a108.285,108.285,0,0,0,2.155-21.63C119.845,33.775,96.763,0,68.389,0V.962c27.754,0,50.333,33.342,50.333,74.327a107.607,107.607,0,0,1-2.138,21.466Z" transform="translate(78.77 0)" fill="#fe9341"/>
        <path id="Trazado_1370428" data-name="Trazado 1370428" d="M107.313,96.919l1.106-.164a107.458,107.458,0,0,1-2.137-21.466C106.282,34.3,128.86.962,156.615.962V0c-28.374,0-51.457,33.774-51.457,75.288a108.261,108.261,0,0,0,2.155,21.63" transform="translate(-9.455 0)" fill="#fe9341"/>
        <path id="Trazado_1370429" data-name="Trazado 1370429" d="M116.168,90.554a60.648,60.648,0,0,0,.676-8.957c0-27.353-18.368-49.607-40.944-49.607v.962c21.957,0,39.821,21.823,39.821,48.645a59.57,59.57,0,0,1-.669,8.835Z" transform="translate(71.261 6.344)" fill="#fe9341"/>
        <path id="Trazado_1370430" data-name="Trazado 1370430" d="M105.836,90.554l1.115-.122a59.384,59.384,0,0,1-.67-8.835c0-26.822,17.865-48.645,39.823-48.645v-.962c-22.578,0-40.945,22.254-40.945,49.607a60.462,60.462,0,0,0,.677,8.957" transform="translate(1.055 6.344)" fill="#fe9341"/>
        <path id="Trazado_1370431" data-name="Trazado 1370431" d="M110.391,33.223a39.519,39.519,0,0,1-10.56-5.031l2.126,5.031-2.126,5.031a39.482,39.482,0,0,1,10.56-5.031" transform="translate(44.224 5.591)" fill="#fe9341"/>
        <path id="Trazado_1370432" data-name="Trazado 1370432" d="M114.954,87.288l.008-.306c.006-.18.01-.359.01-.542,0-21.093-15.424-38.251-34.383-38.251v.962c18.34,0,33.261,16.726,33.261,37.288,0,.174-.006.346-.011.518l-.007.314Z" transform="translate(66.57 9.557)" fill="#fe9341"/>
        <path id="Trazado_1370433" data-name="Trazado 1370433" d="M105.179,87.288l1.122-.016-.008-.319c-.006-.17-.01-.342-.01-.513,0-20.562,14.92-37.288,33.261-37.288V48.19c-18.96,0-34.385,17.158-34.385,38.251,0,.18.006.36.011.538Z" transform="translate(7.616 9.557)" fill="#fe9341"/>
        <path id="Trazado_1370434" data-name="Trazado 1370434" d="M110.391,49.423a39.446,39.446,0,0,1-10.56-5.031l2.126,5.031-2.126,5.032a39.485,39.485,0,0,1,10.56-5.032" transform="translate(44.224 8.804)" fill="#fe9341"/>
        <path id="Trazado_1370435" data-name="Trazado 1370435" d="M112.568,84.291l.007-.164c0-.1.007-.194.007-.292,0-11.318-11.668-20.528-26.009-20.528v.962c13.722,0,24.885,8.778,24.885,19.566l-.014.436Z" transform="translate(60.586 12.555)" fill="#fe9341"/>
        <path id="Trazado_1370436" data-name="Trazado 1370436" d="M105.173,84.291l1.122-.02-.014-.436c0-10.789,11.164-19.566,24.887-19.566v-.962c-14.342,0-26.011,9.21-26.011,20.528,0,.1,0,.2.008.292Z" transform="translate(15.992 12.555)" fill="#fe9341"/>
        <path id="Trazado_1370437" data-name="Trazado 1370437" d="M110.391,64.541a39.485,39.485,0,0,1-10.56-5.032l2.126,5.032-2.126,5.031a39.483,39.483,0,0,1,10.56-5.031" transform="translate(44.224 11.802)" fill="#fe9341"/>
        <path id="Trazado_1370438" data-name="Trazado 1370438" d="M111.068,82.862c.007-.1.013-.151.013-.2,0-4.73-9.117-8.435-20.753-8.435v.962c10.64,0,19.629,3.421,19.629,7.473l-.011.155Z" transform="translate(56.833 14.721)" fill="#fe9341"/>
        <path id="Trazado_1370439" data-name="Trazado 1370439" d="M106.293,82.817l-.006-.079c-.006-4.126,8.984-7.548,19.625-7.548v-.962c-11.637,0-20.753,3.705-20.753,8.435,0,.049,0,.1.007.146Z" transform="translate(21.247 14.721)" fill="#fe9341"/>
        <path id="Trazado_1370440" data-name="Trazado 1370440" d="M110.391,75.462a39.521,39.521,0,0,1-10.56-5.032l2.126,5.032-2.126,5.031a39.483,39.483,0,0,1,10.56-5.031" transform="translate(44.224 13.968)" fill="#fe9341"/>
        <path id="Trazado_1370441" data-name="Trazado 1370441" d="M71.565,165.852c25.922,0,47.011-27.11,47.011-60.433a76.714,76.714,0,0,0-1.97-17.361l-1.1.188a75.773,75.773,0,0,1,1.949,17.173c0,32.793-20.587,59.47-45.889,59.47Z" transform="translate(75.594 17.464)" fill="#fe9341"/>
        <path id="Trazado_1370442" data-name="Trazado 1370442" d="M152.172,165.852v-.962c-25.3,0-45.889-26.677-45.889-59.47a75.876,75.876,0,0,1,1.948-17.173l-1.1-.188a76.736,76.736,0,0,0-1.97,17.361c0,33.323,21.09,60.433,47.013,60.433" transform="translate(-5.013 17.464)" fill="#fe9341"/>
        <path id="Trazado_1370443" data-name="Trazado 1370443" d="M68.389,184.986c28.373,0,51.456-33.775,51.456-75.29a108.273,108.273,0,0,0-2.155-21.629l-1.107.164a107.476,107.476,0,0,1,2.14,21.464c0,40.985-22.579,74.328-50.333,74.328Z" transform="translate(78.77 17.466)" fill="#fe9341"/>
        <path id="Trazado_1370444" data-name="Trazado 1370444" d="M156.616,184.986v-.961c-27.756,0-50.334-33.343-50.334-74.328a107.438,107.438,0,0,1,2.138-21.464l-1.107-.164a108.23,108.23,0,0,0-2.155,21.629c0,41.515,23.084,75.29,51.457,75.29" transform="translate(-9.457 17.466)" fill="#fe9341"/>
        <path id="Trazado_1370445" data-name="Trazado 1370445" d="M75.9,146.65c22.576,0,40.945-22.254,40.945-49.608a60.421,60.421,0,0,0-.677-8.956l-1.114.122a59.728,59.728,0,0,1,.668,8.834c0,26.823-17.863,48.646-39.821,48.646Z" transform="translate(71.259 17.47)" fill="#fe9341"/>
        <path id="Trazado_1370446" data-name="Trazado 1370446" d="M146.105,146.65v-.962c-21.958,0-39.823-21.823-39.823-48.646a59.543,59.543,0,0,1,.669-8.834l-1.114-.122a60.424,60.424,0,0,0-.679,8.956c0,27.354,18.368,49.608,40.946,49.608" transform="translate(1.054 17.47)" fill="#fe9341"/>
        <path id="Trazado_1370447" data-name="Trazado 1370447" d="M80.589,127.228c18.959,0,34.383-17.158,34.383-38.251,0-.182-.006-.362-.011-.542l-.007-.306-1.124.016.008.314c.006.171.011.344.011.518,0,20.562-14.92,37.288-33.261,37.288Z" transform="translate(66.57 17.478)" fill="#fe9341"/>
        <path id="Trazado_1370448" data-name="Trazado 1370448" d="M139.544,127.228v-.962c-18.34,0-33.262-16.726-33.262-37.288,0-.171.006-.343.01-.513l.01-.319-1.122-.016-.008.309c-.006.179-.011.358-.011.538,0,21.093,15.424,38.251,34.385,38.251" transform="translate(7.616 17.478)" fill="#fe9341"/>
        <path id="Trazado_1370449" data-name="Trazado 1370449" d="M110.391,121.189a39.521,39.521,0,0,1-10.56-5.032l2.126,5.032-2.126,5.029a39.444,39.444,0,0,1,10.56-5.029" transform="translate(44.224 23.037)" fill="#fe9341"/>
        <path id="Trazado_1370450" data-name="Trazado 1370450" d="M86.574,109.112c14.341,0,26.008-9.209,26.008-20.53,0-.1,0-.194-.007-.29l-.006-.164-1.124.02.014.434c0,10.789-11.163,19.567-24.885,19.567Z" transform="translate(60.585 17.478)" fill="#fe9341"/>
        <path id="Trazado_1370451" data-name="Trazado 1370451" d="M131.168,109.112v-.962c-13.722,0-24.885-8.779-24.885-19.567l.013-.434-1.122-.02-.006.164c-.006.1-.008.194-.008.29,0,11.321,11.667,20.53,26.009,20.53" transform="translate(15.991 17.478)" fill="#fe9341"/>
        <path id="Trazado_1370452" data-name="Trazado 1370452" d="M110.391,106.071a39.485,39.485,0,0,1-10.56-5.032l2.126,5.032L99.831,111.1a39.444,39.444,0,0,1,10.56-5.029" transform="translate(44.224 20.039)" fill="#fe9341"/>
        <path id="Trazado_1370453" data-name="Trazado 1370453" d="M90.329,96.139c11.637,0,20.753-3.7,20.753-8.434,0-.049,0-.1-.008-.146l-1.125-.008.01.155c0,4.05-8.99,7.472-19.629,7.472Z" transform="translate(56.83 17.364)" fill="#fe9341"/>
        <path id="Trazado_1370454" data-name="Trazado 1370454" d="M125.912,96.147v-.962c-10.641,0-19.631-3.421-19.631-7.472l.011-.155-1.122-.046.561.024-.565.03c0,.048-.007.1-.007.146,0,4.73,9.116,8.434,20.753,8.434" transform="translate(21.247 17.356)" fill="#fe9341"/>
        <path id="Trazado_1370455" data-name="Trazado 1370455" d="M110.391,95.15a39.485,39.485,0,0,1-10.56-5.032l2.126,5.032-2.126,5.031a39.446,39.446,0,0,1,10.56-5.031" transform="translate(44.224 17.873)" fill="#fe9341"/>
        <rect id="Rectángulo_739055" data-name="Rectángulo 739055" width="20.191" height="0.962" transform="translate(147.159 100.738)" fill="#fe9341"/>
        <rect id="Rectángulo_739056" data-name="Rectángulo 739056" width="20.192" height="0.962" transform="translate(126.967 100.738)" fill="#fe9341"/>
        <path id="Trazado_1370456" data-name="Trazado 1370456" d="M109.915,85.225a35.872,35.872,0,0,1-9.6-4.574l1.933,4.574L100.315,89.8a35.9,35.9,0,0,1,9.6-4.572" transform="translate(44.023 15.995)" fill="#fe9341"/>
        <path id="Trazado_1370457" data-name="Trazado 1370457" d="M140.888,77.794c20.444,0,23.972-.04,26.306-.065,2.781-.031,3.721-.043,30.788.065l.006-.961c-27.08-.109-28.02-.1-30.809-.066-2.331.026-5.854.066-26.29.066Z" transform="translate(-100.827 15.22)" fill="#fe9341"/>
        <path id="Trazado_1370458" data-name="Trazado 1370458" d="M179.472,78.052a39.505,39.505,0,0,1,10.56,5.032l-2.126-5.032,2.126-5.031a39.5,39.5,0,0,1-10.56,5.031" transform="translate(-146.866 14.482)" fill="#fe9341"/>
        <rect id="Rectángulo_739057" data-name="Rectángulo 739057" width="40.061" height="0.961" transform="translate(0 92.053)" fill="#fe9341"/>
        <path id="Trazado_1370459" data-name="Trazado 1370459" d="M164.8,33.21c.68-7.8,3.836-16.017,9.38-24.421l-.978-.473c-5.626,8.53-8.829,16.881-9.523,24.822Z" transform="translate(-108.916 1.649)" fill="#fe9341"/>
        <path id="Trazado_1370460" data-name="Trazado 1370460" d="M183.118,75.793l.4-.9C150.575,64.08,140.468,44.15,142,29.108l-1.118-.083c-1.059,10.429,2.972,20.491,11.661,29.1,7.428,7.359,18.289,13.633,30.577,17.668" transform="translate(-86.116 5.756)" fill="#fe9341"/>
        <path id="Trazado_1370461" data-name="Trazado 1370461" d="M173.309,24.235a29.283,29.283,0,0,1-6.152,7.792l5.487-1.251L177.8,32.82a27.179,27.179,0,0,1-4.489-8.585" transform="translate(-117.399 4.806)" fill="#fe9341"/>
        <path id="Trazado_1370462" data-name="Trazado 1370462" d="M206.277,65.034l.747-.718c-12.18-9.309-18.1-22.727-18.1-41.022H187.8c0,18.586,6.043,32.237,18.476,41.74" transform="translate(-175.514 4.62)" fill="#fe9341"/>
        <path id="Trazado_1370463" data-name="Trazado 1370463" d="M207.152,76.612l.091-.957c-23.839-1.645-48.272-4.979-65.5-18.127l-.747.718c17.476,13.337,42.122,16.709,66.155,18.367" transform="translate(-110.235 11.409)" fill="#fe9341"/>
        <path id="Trazado_1370464" data-name="Trazado 1370464" d="M184.024,54.6a26.372,26.372,0,0,1,3.612,8.883l2.112-4.515,5-2.312A38.848,38.848,0,0,1,184.024,54.6" transform="translate(-157.948 10.829)" fill="#fe9341"/>
        <path id="Trazado_1370465" data-name="Trazado 1370465" d="M140.874,132.9l1.118-.08a31.448,31.448,0,0,1,1.8-13.959c5.106-13.9,19.951-25.794,39.708-31.83l-.378-.9c-20.087,6.137-35.189,18.265-40.4,32.446a32.259,32.259,0,0,0-1.85,14.328" transform="translate(-86.11 17.081)" fill="#fe9341"/>
        <path id="Trazado_1370466" data-name="Trazado 1370466" d="M187.8,137.8h1.122c0-18.295,5.921-31.714,18.1-41.023l-.747-.717c-12.434,9.5-18.476,23.154-18.476,41.74" transform="translate(-175.517 19.051)" fill="#fe9341"/>
        <path id="Trazado_1370467" data-name="Trazado 1370467" d="M141.6,99.821c17.481-13.176,41.9-16.506,65.695-18.14l-.09-.959C166.624,83.512,151.335,91.2,140.858,99.1Z" transform="translate(-110.094 16.009)" fill="#fe9341"/>
        <path id="Trazado_1370468" data-name="Trazado 1370468" d="M184.033,101.026a38.859,38.859,0,0,1,10.735-2l-4.979-2.34-2.078-4.525a26.456,26.456,0,0,1-3.678,8.863" transform="translate(-157.985 18.278)" fill="#fe9341"/>
        <path id="Trazado_1370469" data-name="Trazado 1370469" d="M85.726,77.793v-.961c-20.435,0-23.959-.04-26.29-.066-2.788-.031-3.729-.042-30.808.066l0,.961c27.073-.108,28.009-.1,30.79-.065,2.334.025,5.861.065,26.3.065" transform="translate(168.53 15.22)" fill="#fe9341"/>
        <path id="Trazado_1370470" data-name="Trazado 1370470" d="M33.858,78.052A39.476,39.476,0,0,1,23.3,73.02l2.124,5.032L23.3,83.082a39.473,39.473,0,0,1,10.558-5.031" transform="translate(227.854 14.482)" fill="#fe9341"/>
        <rect id="Rectángulo_739058" data-name="Rectángulo 739058" width="40.062" height="0.961" transform="translate(254.256 92.053)" fill="#fe9341"/>
        <path id="Trazado_1370471" data-name="Trazado 1370471" d="M48.516,33.21l1.12-.072c-.694-7.942-3.9-16.292-9.523-24.822l-.978.473c5.544,8.4,8.7,16.621,9.382,24.421" transform="translate(189.919 1.649)" fill="#fe9341"/>
        <path id="Trazado_1370472" data-name="Trazado 1370472" d="M39.419,75.793C51.706,71.758,62.567,65.484,70,58.125c8.689-8.609,12.721-18.671,11.66-29.1l-1.117.083C82.067,44.15,71.962,64.08,39.016,74.894Z" transform="translate(157.897 5.756)" fill="#fe9341"/>
        <path id="Trazado_1370473" data-name="Trazado 1370473" d="M40.046,24.235a27.208,27.208,0,0,1-4.489,8.585l5.154-2.044L46.2,32.027a29.255,29.255,0,0,1-6.152-7.792" transform="translate(198.362 4.806)" fill="#fe9341"/>
        <path id="Trazado_1370474" data-name="Trazado 1370474" d="M9.528,65.034C21.96,55.531,28,41.88,28,23.294H26.882c0,18.295-5.921,31.714-18.1,41.022Z" transform="translate(254.029 4.62)" fill="#fe9341"/>
        <path id="Trazado_1370475" data-name="Trazado 1370475" d="M22.073,76.612c24.033-1.657,48.681-5.029,66.155-18.367l-.746-.718C70.254,70.675,45.82,74.009,21.983,75.654Z" transform="translate(175.328 11.409)" fill="#fe9341"/>
        <path id="Trazado_1370476" data-name="Trazado 1370476" d="M29.353,54.6a38.855,38.855,0,0,1-10.719,2.055l5,2.313,2.11,4.515A26.363,26.363,0,0,1,29.353,54.6" transform="translate(238.889 10.829)" fill="#fe9341"/>
        <path id="Trazado_1370477" data-name="Trazado 1370477" d="M81.654,132.9A32.253,32.253,0,0,0,79.8,118.572c-5.211-14.181-20.314-26.309-40.4-32.446l-.376.9c19.757,6.036,34.6,17.934,39.706,31.83a31.439,31.439,0,0,1,1.8,13.959Z" transform="translate(157.9 17.081)" fill="#fe9341"/>
        <path id="Trazado_1370478" data-name="Trazado 1370478" d="M26.881,137.8H28c0-18.586-6.044-32.239-18.478-41.74l-.749.717c12.182,9.31,18.1,22.729,18.1,41.023" transform="translate(254.03 19.051)" fill="#fe9341"/>
        <path id="Trazado_1370479" data-name="Trazado 1370479" d="M87.681,99.821l.742-.721C70.7,85.739,46.059,82.371,22.074,80.722l-.09.959c40.256,2.768,55.367,10.354,65.7,18.14" transform="translate(175.131 16.009)" fill="#fe9341"/>
        <path id="Trazado_1370480" data-name="Trazado 1370480" d="M29.348,101.026a26.5,26.5,0,0,1-3.676-8.864l-2.08,4.526-4.978,2.339a38.8,38.8,0,0,1,10.733,2" transform="translate(238.92 18.278)" fill="#fe9341"/>
      </g>
    </g>
    <g id="Grupo_1211058" data-name="Grupo 1211058" transform="translate(347.711 6571.252)">
      <ellipse id="Elipse_13814" data-name="Elipse 13814" cx="18.5" cy="19" rx="18.5" ry="19" fill="#1df2f2"/>
      <path id="Trazado_1383711" data-name="Trazado 1383711" d="M3.773-5.961H-3.705V-8.982H3.773Z" transform="translate(19 29)" fill="#12263f"/>
    </g>
    <g id="Grupo_1211059" data-name="Grupo 1211059" transform="translate(273.711 6570.025)">
      <circle id="Elipse_13813" data-name="Elipse 13813" cx="19" cy="19" r="19" fill="#0460d9"/>
      <path id="Trazado_1383710" data-name="Trazado 1383710" d="M6.434-6.394H1.358v5.076H-1.305V-6.394h-5.1V-9.07h5.1v-5.1H1.358v5.1H6.434Z" transform="translate(18 28)" fill="#fff"/>
    </g>
  </g>
</svg>
