<svg xmlns="http://www.w3.org/2000/svg" xmlns:xlink="http://www.w3.org/1999/xlink" width="601.5" height="411.266" viewBox="0 0 601.5 411.266">
  <defs>
    <clipPath id="clip-path">
      <rect id="Rectángulo_739137" data-name="Rectángulo 739137" width="601.5" height="321.466" fill="none"/>
    </clipPath>
    <clipPath id="clip-path-3">
      <rect id="Rectángulo_739128" data-name="Rectángulo 739128" width="8.715" height="8.715" fill="none"/>
    </clipPath>
  </defs>
  <g id="Grupo_1211176" data-name="Grupo 1211176" transform="translate(-188.5 -4159.922)">
    <g id="Grupo_1211171" data-name="Grupo 1211171" transform="translate(188.5 4216.267)" clip-path="url(#clip-path)">
      <g id="Grupo_1211170" data-name="Grupo 1211170">
        <g id="Grupo_1211169" data-name="Grupo 1211169" clip-path="url(#clip-path)">
          <circle id="Elipse_13829" data-name="Elipse 13829" cx="73.59" cy="73.59" r="73.59" transform="translate(19.867 0.726)" fill="none" stroke="#707070" stroke-width="1.5"/>
          <circle id="Elipse_13830" data-name="Elipse 13830" cx="61.971" cy="61.971" r="61.971" transform="translate(31.487 12.346)" fill="none" stroke="#707070" stroke-width="1.5"/>
          <circle id="Elipse_13831" data-name="Elipse 13831" cx="48.415" cy="48.415" r="48.415" transform="translate(45.043 25.902)" fill="none" stroke="#707070" stroke-width="1.5"/>
          <circle id="Elipse_13832" data-name="Elipse 13832" cx="37.763" cy="37.763" r="37.763" transform="translate(55.694 36.553)" fill="none" stroke="#707070" stroke-width="1.5"/>
          <path id="Trazado_1370555" data-name="Trazado 1370555" d="M96.32,54.25a21.3,21.3,0,1,1-21.3,21.3,21.3,21.3,0,0,1,21.3-21.3" transform="translate(-2.379 -1.72)" fill="#fe9341"/>
          <path id="Trazado_1370556" data-name="Trazado 1370556" d="M98.375,8.25a4.357,4.357,0,1,1-4.357,4.357A4.358,4.358,0,0,1,98.375,8.25" transform="translate(-2.981 -0.262)" fill="#1df2f2"/>
          <path id="Trazado_1370557" data-name="Trazado 1370557" d="M48.175,28.75a4.357,4.357,0,1,1-4.357,4.357,4.358,4.358,0,0,1,4.357-4.357" transform="translate(-1.389 -0.912)" fill="#1df2f2"/>
          <path id="Trazado_1370558" data-name="Trazado 1370558" d="M158.693,56.9a4.357,4.357,0,1,1-4.357,4.357,4.358,4.358,0,0,1,4.357-4.357" transform="translate(-4.894 -1.804)" fill="#1df2f2"/>
          <path id="Trazado_1370559" data-name="Trazado 1370559" d="M148.875,110.25a4.357,4.357,0,1,1-4.357,4.357,4.358,4.358,0,0,1,4.357-4.357" transform="translate(-4.583 -3.496)" fill="#1df2f2"/>
          <path id="Trazado_1370560" data-name="Trazado 1370560" d="M98.375,136.75a4.357,4.357,0,1,1-4.357,4.357,4.358,4.358,0,0,1,4.357-4.357" transform="translate(-2.981 -4.336)" fill="#1df2f2"/>
          <path id="Trazado_1370561" data-name="Trazado 1370561" d="M52.675,117.75a4.357,4.357,0,1,1-4.357,4.357,4.358,4.358,0,0,1,4.357-4.357" transform="translate(-1.532 -3.734)" fill="#1df2f2"/>
          <path id="Trazado_1370562" data-name="Trazado 1370562" d="M32.375,72.25a4.357,4.357,0,1,1-4.357,4.357,4.358,4.358,0,0,1,4.357-4.357" transform="translate(-0.888 -2.291)" fill="#1df2f2"/>
          <path id="Trazado_1370563" data-name="Trazado 1370563" d="M141.159,28.922a4.357,4.357,0,1,1-2.969,5.4,4.358,4.358,0,0,1,2.969-5.4" transform="translate(-4.376 -0.912)" fill="#1df2f2"/>
          <path id="Trazado_1370564" data-name="Trazado 1370564" d="M67.845.924a4.357,4.357,0,1,1-2.969,5.4,4.358,4.358,0,0,1,2.969-5.4" transform="translate(-2.052 -0.024)" fill="#1df2f2"/>
          <path id="Trazado_1370565" data-name="Trazado 1370565" d="M135.375,65.9a4.357,4.357,0,1,1-4.357,4.357,4.358,4.358,0,0,1,4.357-4.357" transform="translate(-4.155 -2.09)" fill="#1df2f2"/>
          <path id="Trazado_1370566" data-name="Trazado 1370566" d="M196.819,74.437a4.357,4.357,0,1,1-4.357,4.357,4.358,4.358,0,0,1,4.357-4.357" transform="translate(-6.103 -2.36)" fill="#1df2f2"/>
          <path id="Trazado_1370567" data-name="Trazado 1370567" d="M404.973,73.937a4.357,4.357,0,1,1-4.357,4.357,4.358,4.358,0,0,1,4.357-4.357" transform="translate(-12.703 -2.345)" fill="#1df2f2"/>
          <path id="Trazado_1370568" data-name="Trazado 1370568" d="M64.56,93.75A4.357,4.357,0,1,1,60.2,98.107,4.358,4.358,0,0,1,64.56,93.75" transform="translate(-1.909 -2.973)" fill="#1df2f2"/>
          <path id="Trazado_1370569" data-name="Trazado 1370569" d="M50.375,93.75a4.357,4.357,0,1,1-4.357,4.357,4.358,4.358,0,0,1,4.357-4.357" transform="translate(-1.459 -2.973)" fill="#1df2f2"/>
          <path id="Trazado_1370570" data-name="Trazado 1370570" d="M82.375,120.12a4.357,4.357,0,1,1-4.357,4.357,4.358,4.358,0,0,1,4.357-4.357" transform="translate(-2.474 -3.809)" fill="#1df2f2"/>
          <path id="Trazado_1370571" data-name="Trazado 1370571" d="M124.638,114.75a4.357,4.357,0,1,1-4.357,4.357,4.358,4.358,0,0,1,4.357-4.357" transform="translate(-3.814 -3.639)" fill="#1df2f2"/>
          <path id="Trazado_1370572" data-name="Trazado 1370572" d="M50.375,52.4a4.357,4.357,0,1,1-4.357,4.357A4.358,4.358,0,0,1,50.375,52.4" transform="translate(-1.459 -1.662)" fill="#1df2f2"/>
          <path id="Trazado_1370573" data-name="Trazado 1370573" d="M125.93,31.361a4.357,4.357,0,1,1-4.357,4.357,4.358,4.358,0,0,1,4.357-4.357" transform="translate(-3.855 -0.994)" fill="#1df2f2"/>
          <path id="Trazado_1370574" data-name="Trazado 1370574" d="M144.375,84.75a4.357,4.357,0,1,1-4.357,4.357,4.358,4.358,0,0,1,4.357-4.357" transform="translate(-4.44 -2.687)" fill="#1df2f2"/>
          <path id="Trazado_1370575" data-name="Trazado 1370575" d="M72,28.75a4.357,4.357,0,1,1-4.357,4.357A4.358,4.358,0,0,1,72,28.75" transform="translate(-2.145 -0.912)" fill="#1df2f2"/>
          <path id="Trazado_1370576" data-name="Trazado 1370576" d="M20.018,141.862s49.448,9.786,77.838,9.786,56.363-25.012,82.615-48.9" transform="translate(-0.635 -3.258)" fill="none" stroke="#000" stroke-linecap="round" stroke-miterlimit="10" stroke-width="1.5"/>
          <path id="Trazado_1370577" data-name="Trazado 1370577" d="M117.659,146.109a4.357,4.357,0,1,1-2.969,5.4,4.358,4.358,0,0,1,2.969-5.4" transform="translate(-3.631 -4.628)" fill="#1df2f2"/>
          <path id="Trazado_1370578" data-name="Trazado 1370578" d="M190.734,97.434l-5.639,10.295-4.718-4.938Z" transform="translate(-5.72 -3.09)"/>
          <circle id="Elipse_13833" data-name="Elipse 13833" cx="73.59" cy="73.59" r="73.59" transform="translate(214.386 2.36)" fill="none" stroke="#707070" stroke-width="1.5"/>
          <circle id="Elipse_13834" data-name="Elipse 13834" cx="61.971" cy="61.971" r="61.971" transform="translate(226.005 13.98)" fill="none" stroke="#707070" stroke-width="1.5"/>
          <circle id="Elipse_13835" data-name="Elipse 13835" cx="48.415" cy="48.415" r="48.415" transform="translate(239.561 27.536)" fill="none" stroke="#707070" stroke-width="1.5"/>
          <circle id="Elipse_13836" data-name="Elipse 13836" cx="37.763" cy="37.763" r="37.763" transform="translate(250.213 38.187)" fill="none" stroke="#707070" stroke-width="1.5"/>
          <path id="Trazado_1370579" data-name="Trazado 1370579" d="M275.907,78.239a21.3,21.3,0,1,1,21.3,21.3,21.3,21.3,0,0,1-21.3-21.3" transform="translate(-8.749 -1.805)" fill="#fe9341"/>
          <path id="Trazado_1370580" data-name="Trazado 1370580" d="M294.907,142.294a4.357,4.357,0,1,1,4.357,4.357,4.358,4.358,0,0,1-4.357-4.357" transform="translate(-9.351 -4.374)" fill="#1df2f2"/>
          <path id="Trazado_1370581" data-name="Trazado 1370581" d="M244.707,121.794a4.357,4.357,0,1,1,4.357,4.357,4.358,4.358,0,0,1-4.357-4.357" transform="translate(-7.76 -3.724)" fill="#1df2f2"/>
          <path id="Trazado_1370582" data-name="Trazado 1370582" d="M355.225,93.646A4.357,4.357,0,1,1,359.582,98a4.358,4.358,0,0,1-4.357-4.357" transform="translate(-11.264 -2.831)" fill="#1df2f2"/>
          <path id="Trazado_1370583" data-name="Trazado 1370583" d="M345.407,40.294a4.357,4.357,0,1,1,4.357,4.357,4.358,4.358,0,0,1-4.357-4.357" transform="translate(-10.953 -1.14)" fill="#1df2f2"/>
          <path id="Trazado_1370584" data-name="Trazado 1370584" d="M294.907,13.794a4.357,4.357,0,1,1,4.357,4.357,4.358,4.358,0,0,1-4.357-4.357" transform="translate(-9.351 -0.299)" fill="#1df2f2"/>
          <path id="Trazado_1370585" data-name="Trazado 1370585" d="M249.207,32.794a4.357,4.357,0,1,1,4.357,4.357,4.358,4.358,0,0,1-4.357-4.357" transform="translate(-7.902 -0.902)" fill="#1df2f2"/>
          <path id="Trazado_1370586" data-name="Trazado 1370586" d="M228.907,78.294a4.357,4.357,0,1,1,4.357,4.357,4.358,4.358,0,0,1-4.357-4.357" transform="translate(-7.259 -2.345)" fill="#1df2f2"/>
          <path id="Trazado_1370587" data-name="Trazado 1370587" d="M339.079,120.579a4.357,4.357,0,1,1,2.969,5.4,4.357,4.357,0,0,1-2.969-5.4" transform="translate(-10.747 -3.724)" fill="#1df2f2"/>
          <path id="Trazado_1370588" data-name="Trazado 1370588" d="M265.764,148.578a4.357,4.357,0,1,1,2.969,5.4,4.357,4.357,0,0,1-2.969-5.4" transform="translate(-8.422 -4.612)" fill="#1df2f2"/>
          <path id="Trazado_1370589" data-name="Trazado 1370589" d="M331.907,84.646A4.357,4.357,0,1,1,336.264,89a4.358,4.358,0,0,1-4.357-4.357" transform="translate(-10.525 -2.546)" fill="#1df2f2"/>
          <path id="Trazado_1370590" data-name="Trazado 1370590" d="M261.092,56.794a4.357,4.357,0,1,1,4.357,4.357,4.358,4.358,0,0,1-4.357-4.357" transform="translate(-8.279 -1.663)" fill="#1df2f2"/>
          <path id="Trazado_1370591" data-name="Trazado 1370591" d="M246.907,56.794a4.357,4.357,0,1,1,4.357,4.357,4.358,4.358,0,0,1-4.357-4.357" transform="translate(-7.829 -1.663)" fill="#1df2f2"/>
          <path id="Trazado_1370592" data-name="Trazado 1370592" d="M278.907,30.424a4.357,4.357,0,1,1,4.357,4.357,4.358,4.358,0,0,1-4.357-4.357" transform="translate(-8.844 -0.827)" fill="#1df2f2"/>
          <path id="Trazado_1370593" data-name="Trazado 1370593" d="M321.17,35.794a4.357,4.357,0,1,1,4.357,4.357,4.358,4.358,0,0,1-4.357-4.357" transform="translate(-10.184 -0.997)" fill="#1df2f2"/>
          <path id="Trazado_1370594" data-name="Trazado 1370594" d="M246.907,98.146a4.357,4.357,0,1,1,4.357,4.357,4.358,4.358,0,0,1-4.357-4.357" transform="translate(-7.829 -2.974)" fill="#1df2f2"/>
          <path id="Trazado_1370595" data-name="Trazado 1370595" d="M322.462,119.183a4.357,4.357,0,1,1,4.357,4.357,4.358,4.358,0,0,1-4.357-4.357" transform="translate(-10.225 -3.641)" fill="#1df2f2"/>
          <path id="Trazado_1370596" data-name="Trazado 1370596" d="M340.907,65.8a4.357,4.357,0,1,1,4.357,4.357,4.358,4.358,0,0,1-4.357-4.357" transform="translate(-10.81 -1.948)" fill="#1df2f2"/>
          <path id="Trazado_1370597" data-name="Trazado 1370597" d="M268.536,121.794a4.357,4.357,0,1,1,4.357,4.357,4.358,4.358,0,0,1-4.357-4.357" transform="translate(-8.515 -3.724)" fill="#1df2f2"/>
          <path id="Trazado_1370598" data-name="Trazado 1370598" d="M208.9,50.8S232.63,1.937,298.364,1.937c28.39,0,56.363,25.013,82.615,48.9" transform="translate(-6.624 -0.061)" fill="none" stroke="#000" stroke-linecap="round" stroke-miterlimit="10" stroke-width="1.5"/>
          <path id="Trazado_1370599" data-name="Trazado 1370599" d="M315.579,3.393a4.357,4.357,0,1,1,2.969,5.4,4.357,4.357,0,0,1-2.969-5.4" transform="translate(-10.001 -0.008)" fill="#1df2f2"/>
          <path id="Trazado_1370600" data-name="Trazado 1370600" d="M391.623,57.416l-5.639-10.295-4.719,4.938Z" transform="translate(-12.09 -1.494)"/>
          <circle id="Elipse_13837" data-name="Elipse 13837" cx="73.59" cy="73.59" r="73.59" transform="translate(390.03 74.316) rotate(-45)" fill="none" stroke="#707070" stroke-width="1.5"/>
          <circle id="Elipse_13838" data-name="Elipse 13838" cx="61.971" cy="61.971" r="61.971" transform="translate(406.463 74.316) rotate(-45)" fill="none" stroke="#707070" stroke-width="1.5"/>
          <circle id="Elipse_13839" data-name="Elipse 13839" cx="48.415" cy="48.415" r="48.415" transform="matrix(0.16, -0.987, 0.987, 0.16, 438.558, 114.35)" fill="none" stroke="#707070" stroke-width="1.5"/>
          <circle id="Elipse_13840" data-name="Elipse 13840" cx="37.763" cy="37.763" r="37.763" transform="matrix(0.16, -0.987, 0.987, 0.16, 450.778, 105.543)" fill="none" stroke="#707070" stroke-width="1.5"/>
          <path id="Trazado_1370601" data-name="Trazado 1370601" d="M510.085,54.25a21.3,21.3,0,1,1-21.3,21.3,21.3,21.3,0,0,1,21.3-21.3" transform="translate(-15.499 -1.72)" fill="#fe9341"/>
          <path id="Trazado_1370602" data-name="Trazado 1370602" d="M512.14,8.25a4.357,4.357,0,1,1-4.357,4.357A4.358,4.358,0,0,1,512.14,8.25" transform="translate(-16.102 -0.262)" fill="#1df2f2"/>
          <path id="Trazado_1370603" data-name="Trazado 1370603" d="M461.94,28.75a4.357,4.357,0,1,1-4.357,4.357,4.358,4.358,0,0,1,4.357-4.357" transform="translate(-14.51 -0.912)" fill="#1df2f2"/>
          <path id="Trazado_1370604" data-name="Trazado 1370604" d="M572.459,56.9a4.357,4.357,0,1,1-4.357,4.357,4.358,4.358,0,0,1,4.357-4.357" transform="translate(-18.014 -1.804)" fill="#1df2f2"/>
          <path id="Trazado_1370605" data-name="Trazado 1370605" d="M562.64,110.25a4.357,4.357,0,1,1-4.357,4.357,4.358,4.358,0,0,1,4.357-4.357" transform="translate(-17.703 -3.496)" fill="#1df2f2"/>
          <path id="Trazado_1370606" data-name="Trazado 1370606" d="M512.14,136.75a4.357,4.357,0,1,1-4.357,4.357,4.358,4.358,0,0,1,4.357-4.357" transform="translate(-16.102 -4.336)" fill="#1df2f2"/>
          <path id="Trazado_1370607" data-name="Trazado 1370607" d="M466.44,117.75a4.357,4.357,0,1,1-4.357,4.357,4.358,4.358,0,0,1,4.357-4.357" transform="translate(-14.653 -3.734)" fill="#1df2f2"/>
          <path id="Trazado_1370608" data-name="Trazado 1370608" d="M446.14,72.25a4.357,4.357,0,1,1-4.357,4.357,4.358,4.358,0,0,1,4.357-4.357" transform="translate(-14.009 -2.291)" fill="#1df2f2"/>
          <path id="Trazado_1370609" data-name="Trazado 1370609" d="M554.925,28.922a4.357,4.357,0,1,1-2.969,5.4,4.358,4.358,0,0,1,2.969-5.4" transform="translate(-17.497 -0.912)" fill="#1df2f2"/>
          <path id="Trazado_1370610" data-name="Trazado 1370610" d="M481.61.924a4.357,4.357,0,1,1-2.969,5.4,4.358,4.358,0,0,1,2.969-5.4" transform="translate(-15.172 -0.024)" fill="#1df2f2"/>
          <path id="Trazado_1370611" data-name="Trazado 1370611" d="M549.14,65.9a4.357,4.357,0,1,1-4.357,4.357A4.358,4.358,0,0,1,549.14,65.9" transform="translate(-17.275 -2.09)" fill="#1df2f2"/>
          <path id="Trazado_1370612" data-name="Trazado 1370612" d="M478.326,93.75a4.357,4.357,0,1,1-4.357,4.357,4.358,4.358,0,0,1,4.357-4.357" transform="translate(-15.029 -2.973)" fill="#1df2f2"/>
          <path id="Trazado_1370613" data-name="Trazado 1370613" d="M464.14,93.75a4.357,4.357,0,1,1-4.357,4.357,4.358,4.358,0,0,1,4.357-4.357" transform="translate(-14.58 -2.973)" fill="#1df2f2"/>
          <path id="Trazado_1370614" data-name="Trazado 1370614" d="M496.14,120.12a4.357,4.357,0,1,1-4.357,4.357,4.358,4.358,0,0,1,4.357-4.357" transform="translate(-15.594 -3.809)" fill="#1df2f2"/>
          <path id="Trazado_1370615" data-name="Trazado 1370615" d="M538.4,114.75a4.357,4.357,0,1,1-4.357,4.357,4.358,4.358,0,0,1,4.357-4.357" transform="translate(-16.934 -3.639)" fill="#1df2f2"/>
          <path id="Trazado_1370616" data-name="Trazado 1370616" d="M464.14,52.4a4.357,4.357,0,1,1-4.357,4.357A4.358,4.358,0,0,1,464.14,52.4" transform="translate(-14.58 -1.662)" fill="#1df2f2"/>
          <path id="Trazado_1370617" data-name="Trazado 1370617" d="M539.7,31.361a4.357,4.357,0,1,1-4.357,4.357,4.358,4.358,0,0,1,4.357-4.357" transform="translate(-16.975 -0.994)" fill="#1df2f2"/>
          <path id="Trazado_1370618" data-name="Trazado 1370618" d="M558.14,84.75a4.357,4.357,0,1,1-4.357,4.357,4.358,4.358,0,0,1,4.357-4.357" transform="translate(-17.56 -2.687)" fill="#1df2f2"/>
          <path id="Trazado_1370619" data-name="Trazado 1370619" d="M485.77,28.75a4.357,4.357,0,1,1-4.357,4.357,4.358,4.358,0,0,1,4.357-4.357" transform="translate(-15.265 -0.912)" fill="#1df2f2"/>
          <path id="Trazado_1370620" data-name="Trazado 1370620" d="M421.779,102.788s23.727,48.861,89.461,48.861c28.39,0,56.363-25.013,82.615-48.9" transform="translate(-13.374 -3.258)" fill="none" stroke="#000" stroke-linecap="round" stroke-miterlimit="10" stroke-width="1.5"/>
          <path id="Trazado_1370621" data-name="Trazado 1370621" d="M531.425,146.109a4.357,4.357,0,1,1-2.969,5.4,4.358,4.358,0,0,1,2.969-5.4" transform="translate(-16.752 -4.628)" fill="#1df2f2"/>
          <path id="Trazado_1370622" data-name="Trazado 1370622" d="M604.5,97.434l-5.639,10.295-4.718-4.938Z" transform="translate(-18.84 -3.09)"/>
          <circle id="Elipse_13841" data-name="Elipse 13841" cx="73.59" cy="73.59" r="73.59" transform="translate(19.867 173.559)" fill="none" stroke="#707070" stroke-width="1.5"/>
          <circle id="Elipse_13842" data-name="Elipse 13842" cx="61.971" cy="61.971" r="61.971" transform="translate(31.487 185.179)" fill="none" stroke="#707070" stroke-width="1.5"/>
          <circle id="Elipse_13843" data-name="Elipse 13843" cx="48.415" cy="48.415" r="48.415" transform="translate(45.043 198.735)" fill="none" stroke="#707070" stroke-width="1.5"/>
          <circle id="Elipse_13844" data-name="Elipse 13844" cx="37.763" cy="37.763" r="37.763" transform="translate(55.694 209.386)" fill="none" stroke="#707070" stroke-width="1.5"/>
          <path id="Trazado_1370623" data-name="Trazado 1370623" d="M75.018,255.045a21.3,21.3,0,1,1,21.3,21.3,21.3,21.3,0,0,1-21.3-21.3" transform="translate(-2.379 -7.412)" fill="#fe9341"/>
          <path id="Trazado_1370624" data-name="Trazado 1370624" d="M94.018,319.1a4.357,4.357,0,1,1,4.357,4.357,4.358,4.358,0,0,1-4.357-4.357" transform="translate(-2.981 -9.98)" fill="#1df2f2"/>
          <path id="Trazado_1370625" data-name="Trazado 1370625" d="M43.818,298.6a4.357,4.357,0,1,1,4.357,4.357,4.358,4.358,0,0,1-4.357-4.357" transform="translate(-1.389 -9.33)" fill="#1df2f2"/>
          <path id="Trazado_1370626" data-name="Trazado 1370626" d="M154.336,270.452a4.357,4.357,0,1,1,4.357,4.357,4.358,4.358,0,0,1-4.357-4.357" transform="translate(-4.894 -8.438)" fill="#1df2f2"/>
          <path id="Trazado_1370627" data-name="Trazado 1370627" d="M144.518,217.1a4.357,4.357,0,1,1,4.357,4.357,4.358,4.358,0,0,1-4.357-4.357" transform="translate(-4.583 -6.746)" fill="#1df2f2"/>
          <path id="Trazado_1370628" data-name="Trazado 1370628" d="M94.018,190.6a4.357,4.357,0,1,1,4.357,4.357,4.358,4.358,0,0,1-4.357-4.357" transform="translate(-2.981 -5.906)" fill="#1df2f2"/>
          <path id="Trazado_1370629" data-name="Trazado 1370629" d="M48.318,209.6a4.357,4.357,0,1,1,4.357,4.357,4.358,4.358,0,0,1-4.357-4.357" transform="translate(-1.532 -6.508)" fill="#1df2f2"/>
          <path id="Trazado_1370630" data-name="Trazado 1370630" d="M28.018,255.1a4.357,4.357,0,1,1,4.357,4.357,4.358,4.358,0,0,1-4.357-4.357" transform="translate(-0.888 -7.951)" fill="#1df2f2"/>
          <path id="Trazado_1370631" data-name="Trazado 1370631" d="M138.19,297.385a4.357,4.357,0,1,1,2.969,5.4,4.357,4.357,0,0,1-2.969-5.4" transform="translate(-4.376 -9.33)" fill="#1df2f2"/>
          <path id="Trazado_1370632" data-name="Trazado 1370632" d="M64.876,325.384a4.357,4.357,0,1,1,2.968,5.4,4.356,4.356,0,0,1-2.968-5.4" transform="translate(-2.052 -10.218)" fill="#1df2f2"/>
          <path id="Trazado_1370633" data-name="Trazado 1370633" d="M131.018,261.452a4.357,4.357,0,1,1,4.357,4.357,4.358,4.358,0,0,1-4.357-4.357" transform="translate(-4.155 -8.152)" fill="#1df2f2"/>
          <path id="Trazado_1370634" data-name="Trazado 1370634" d="M192.462,252.913a4.357,4.357,0,1,1,4.357,4.357,4.358,4.358,0,0,1-4.357-4.357" transform="translate(-6.103 -7.882)" fill="#1df2f2"/>
          <g id="Grupo_1211147" data-name="Grupo 1211147" transform="translate(184.423 235.763)" opacity="0.25">
            <g id="Grupo_1211146" data-name="Grupo 1211146">
              <g id="Grupo_1211145" data-name="Grupo 1211145" clip-path="url(#clip-path-3)">
                <path id="Trazado_1370635" data-name="Trazado 1370635" d="M190.462,247.841a4.357,4.357,0,1,1,4.357,4.357,4.358,4.358,0,0,1-4.357-4.357" transform="translate(-190.462 -243.484)" fill="#1df2f2"/>
              </g>
            </g>
          </g>
          <g id="Grupo_1211150" data-name="Grupo 1211150" transform="translate(184.722 76.218)" opacity="0.25">
            <g id="Grupo_1211149" data-name="Grupo 1211149">
              <g id="Grupo_1211148" data-name="Grupo 1211148" clip-path="url(#clip-path-3)">
                <path id="Trazado_1370636" data-name="Trazado 1370636" d="M190.771,83.071a4.357,4.357,0,1,1,4.357,4.357,4.358,4.358,0,0,1-4.357-4.357" transform="translate(-190.771 -78.714)" fill="#1df2f2"/>
              </g>
            </g>
          </g>
          <g id="Grupo_1211153" data-name="Grupo 1211153" transform="translate(0 128.98)" opacity="0.25">
            <g id="Grupo_1211152" data-name="Grupo 1211152">
              <g id="Grupo_1211151" data-name="Grupo 1211151" clip-path="url(#clip-path-3)">
                <path id="Trazado_1370637" data-name="Trazado 1370637" d="M0,137.561a4.357,4.357,0,1,1,4.357,4.357A4.358,4.358,0,0,1,0,137.561" transform="translate(0 -133.204)" fill="#1df2f2"/>
              </g>
            </g>
          </g>
          <g id="Grupo_1211156" data-name="Grupo 1211156" transform="translate(0 182.236)" opacity="0.25">
            <g id="Grupo_1211155" data-name="Grupo 1211155">
              <g id="Grupo_1211154" data-name="Grupo 1211154" clip-path="url(#clip-path-3)">
                <path id="Trazado_1370638" data-name="Trazado 1370638" d="M0,192.561a4.357,4.357,0,1,1,4.357,4.357A4.358,4.358,0,0,1,0,192.561" transform="translate(0 -188.204)" fill="#1df2f2"/>
              </g>
            </g>
          </g>
          <g id="Grupo_1211159" data-name="Grupo 1211159" transform="translate(384.309 67.235)" opacity="0.25">
            <g id="Grupo_1211158" data-name="Grupo 1211158">
              <g id="Grupo_1211157" data-name="Grupo 1211157" clip-path="url(#clip-path-3)">
                <path id="Trazado_1370639" data-name="Trazado 1370639" d="M396.894,73.794a4.357,4.357,0,1,1,4.357,4.357,4.358,4.358,0,0,1-4.357-4.357" transform="translate(-396.894 -69.437)" fill="#1df2f2"/>
              </g>
            </g>
          </g>
          <g id="Grupo_1211162" data-name="Grupo 1211162" transform="translate(384.889 245.515)" opacity="0.25">
            <g id="Grupo_1211161" data-name="Grupo 1211161">
              <g id="Grupo_1211160" data-name="Grupo 1211160" clip-path="url(#clip-path-3)">
                <path id="Trazado_1370640" data-name="Trazado 1370640" d="M397.493,257.913a4.357,4.357,0,1,1,4.357,4.357,4.358,4.358,0,0,1-4.357-4.357" transform="translate(-397.493 -253.556)" fill="#1df2f2"/>
              </g>
            </g>
          </g>
          <g id="Grupo_1211165" data-name="Grupo 1211165" transform="translate(588.428 85.63)" opacity="0.25">
            <g id="Grupo_1211164" data-name="Grupo 1211164">
              <g id="Grupo_1211163" data-name="Grupo 1211163" clip-path="url(#clip-path-3)">
                <path id="Trazado_1370641" data-name="Trazado 1370641" d="M607.7,92.791a4.357,4.357,0,1,1,4.357,4.357,4.358,4.358,0,0,1-4.357-4.357" transform="translate(-607.698 -88.434)" fill="#1df2f2"/>
              </g>
            </g>
          </g>
          <g id="Grupo_1211168" data-name="Grupo 1211168" transform="translate(588.428 228.57)" opacity="0.25">
            <g id="Grupo_1211167" data-name="Grupo 1211167">
              <g id="Grupo_1211166" data-name="Grupo 1211166" clip-path="url(#clip-path-3)">
                <path id="Trazado_1370642" data-name="Trazado 1370642" d="M607.7,240.412a4.357,4.357,0,1,1,4.357,4.357,4.358,4.358,0,0,1-4.357-4.357" transform="translate(-607.698 -236.055)" fill="#1df2f2"/>
              </g>
            </g>
          </g>
          <path id="Trazado_1370643" data-name="Trazado 1370643" d="M400.616,253.413a4.357,4.357,0,1,1,4.357,4.357,4.358,4.358,0,0,1-4.357-4.357" transform="translate(-12.703 -7.898)" fill="#1df2f2"/>
          <path id="Trazado_1370644" data-name="Trazado 1370644" d="M616.555,84.75a4.357,4.357,0,1,1-4.357,4.357,4.358,4.358,0,0,1,4.357-4.357" transform="translate(-19.413 -2.687)" fill="#1df2f2"/>
          <path id="Trazado_1370645" data-name="Trazado 1370645" d="M9.628,135.322a4.357,4.357,0,1,1-4.357,4.357,4.358,4.358,0,0,1,4.357-4.357" transform="translate(-0.167 -4.291)" fill="#1df2f2"/>
          <path id="Trazado_1370646" data-name="Trazado 1370646" d="M9.628,186.243A4.357,4.357,0,1,1,5.271,190.6a4.358,4.358,0,0,1,4.357-4.357" transform="translate(-0.167 -5.906)" fill="#1df2f2"/>
          <path id="Trazado_1370647" data-name="Trazado 1370647" d="M612.2,244.413a4.357,4.357,0,1,1,4.357,4.357,4.358,4.358,0,0,1-4.357-4.357" transform="translate(-19.413 -7.612)" fill="#1df2f2"/>
          <path id="Trazado_1370648" data-name="Trazado 1370648" d="M60.2,233.6a4.357,4.357,0,1,1,4.357,4.357A4.358,4.358,0,0,1,60.2,233.6" transform="translate(-1.909 -7.269)" fill="#1df2f2"/>
          <path id="Trazado_1370649" data-name="Trazado 1370649" d="M46.018,233.6a4.357,4.357,0,1,1,4.357,4.357,4.358,4.358,0,0,1-4.357-4.357" transform="translate(-1.459 -7.269)" fill="#1df2f2"/>
          <path id="Trazado_1370650" data-name="Trazado 1370650" d="M78.018,207.23a4.357,4.357,0,1,1,4.357,4.357,4.358,4.358,0,0,1-4.357-4.357" transform="translate(-2.474 -6.433)" fill="#1df2f2"/>
          <path id="Trazado_1370651" data-name="Trazado 1370651" d="M120.281,212.6a4.357,4.357,0,1,1,4.357,4.357,4.358,4.358,0,0,1-4.357-4.357" transform="translate(-3.814 -6.603)" fill="#1df2f2"/>
          <path id="Trazado_1370652" data-name="Trazado 1370652" d="M46.018,274.952a4.357,4.357,0,1,1,4.357,4.357,4.358,4.358,0,0,1-4.357-4.357" transform="translate(-1.459 -8.58)" fill="#1df2f2"/>
          <path id="Trazado_1370653" data-name="Trazado 1370653" d="M121.573,295.989a4.357,4.357,0,1,1,4.357,4.357,4.358,4.358,0,0,1-4.357-4.357" transform="translate(-3.855 -9.248)" fill="#1df2f2"/>
          <path id="Trazado_1370654" data-name="Trazado 1370654" d="M140.018,242.6a4.357,4.357,0,1,1,4.357,4.357,4.358,4.358,0,0,1-4.357-4.357" transform="translate(-4.44 -7.555)" fill="#1df2f2"/>
          <path id="Trazado_1370655" data-name="Trazado 1370655" d="M67.647,298.6A4.357,4.357,0,1,1,72,302.958a4.358,4.358,0,0,1-4.357-4.357" transform="translate(-2.145 -9.33)" fill="#1df2f2"/>
          <path id="Trazado_1370656" data-name="Trazado 1370656" d="M20.018,188.53s49.448-9.787,77.838-9.787,56.363,25.012,82.615,48.9" transform="translate(-0.635 -5.668)" fill="none" stroke="#000" stroke-linecap="round" stroke-miterlimit="10" stroke-width="1.5"/>
          <path id="Trazado_1370657" data-name="Trazado 1370657" d="M114.69,180.2a4.357,4.357,0,1,1,2.969,5.4,4.357,4.357,0,0,1-2.969-5.4" transform="translate(-3.631 -5.614)" fill="#1df2f2"/>
          <path id="Trazado_1370658" data-name="Trazado 1370658" d="M190.734,234.222l-5.639-10.295-4.718,4.938Z" transform="translate(-5.72 -7.101)"/>
          <circle id="Elipse_13845" data-name="Elipse 13845" cx="73.59" cy="73.59" r="73.59" transform="translate(214.386 171.925)" fill="none" stroke="#707070" stroke-width="1.5"/>
          <circle id="Elipse_13846" data-name="Elipse 13846" cx="61.971" cy="61.971" r="61.971" transform="translate(226.005 183.545)" fill="none" stroke="#707070" stroke-width="1.5"/>
          <circle id="Elipse_13847" data-name="Elipse 13847" cx="48.415" cy="48.415" r="48.415" transform="translate(239.561 197.101)" fill="none" stroke="#707070" stroke-width="1.5"/>
          <circle id="Elipse_13848" data-name="Elipse 13848" cx="37.763" cy="37.763" r="37.763" transform="translate(250.213 207.752)" fill="none" stroke="#707070" stroke-width="1.5"/>
          <path id="Trazado_1370659" data-name="Trazado 1370659" d="M297.209,231.056a21.3,21.3,0,1,1-21.3,21.3,21.3,21.3,0,0,1,21.3-21.3" transform="translate(-8.749 -7.327)" fill="#fe9341"/>
          <path id="Trazado_1370660" data-name="Trazado 1370660" d="M299.264,185.056a4.357,4.357,0,1,1-4.357,4.357,4.358,4.358,0,0,1,4.357-4.357" transform="translate(-9.351 -5.868)" fill="#1df2f2"/>
          <path id="Trazado_1370661" data-name="Trazado 1370661" d="M249.064,205.556a4.357,4.357,0,1,1-4.357,4.357,4.358,4.358,0,0,1,4.357-4.357" transform="translate(-7.76 -6.518)" fill="#1df2f2"/>
          <path id="Trazado_1370662" data-name="Trazado 1370662" d="M359.582,233.7a4.357,4.357,0,1,1-4.357,4.357,4.358,4.358,0,0,1,4.357-4.357" transform="translate(-11.264 -7.411)" fill="#1df2f2"/>
          <path id="Trazado_1370663" data-name="Trazado 1370663" d="M349.764,287.056a4.357,4.357,0,1,1-4.357,4.357,4.358,4.358,0,0,1,4.357-4.357" transform="translate(-10.953 -9.102)" fill="#1df2f2"/>
          <path id="Trazado_1370664" data-name="Trazado 1370664" d="M299.264,313.556a4.357,4.357,0,1,1-4.357,4.357,4.358,4.358,0,0,1,4.357-4.357" transform="translate(-9.351 -9.943)" fill="#1df2f2"/>
          <path id="Trazado_1370665" data-name="Trazado 1370665" d="M253.564,294.556a4.357,4.357,0,1,1-4.357,4.357,4.358,4.358,0,0,1,4.357-4.357" transform="translate(-7.902 -9.34)" fill="#1df2f2"/>
          <path id="Trazado_1370666" data-name="Trazado 1370666" d="M233.264,249.056a4.357,4.357,0,1,1-4.357,4.357,4.358,4.358,0,0,1,4.357-4.357" transform="translate(-7.259 -7.898)" fill="#1df2f2"/>
          <path id="Trazado_1370667" data-name="Trazado 1370667" d="M342.048,205.728a4.357,4.357,0,1,1-2.969,5.4,4.358,4.358,0,0,1,2.969-5.4" transform="translate(-10.747 -6.518)" fill="#1df2f2"/>
          <path id="Trazado_1370668" data-name="Trazado 1370668" d="M268.733,177.729a4.357,4.357,0,1,1-2.969,5.4,4.358,4.358,0,0,1,2.969-5.4" transform="translate(-8.422 -5.63)" fill="#1df2f2"/>
          <path id="Trazado_1370669" data-name="Trazado 1370669" d="M336.264,242.7a4.357,4.357,0,1,1-4.357,4.357,4.358,4.358,0,0,1,4.357-4.357" transform="translate(-10.525 -7.696)" fill="#1df2f2"/>
          <path id="Trazado_1370670" data-name="Trazado 1370670" d="M265.449,270.556a4.357,4.357,0,1,1-4.357,4.357,4.358,4.358,0,0,1,4.357-4.357" transform="translate(-8.279 -8.579)" fill="#1df2f2"/>
          <path id="Trazado_1370671" data-name="Trazado 1370671" d="M251.264,270.556a4.357,4.357,0,1,1-4.357,4.357,4.358,4.358,0,0,1,4.357-4.357" transform="translate(-7.829 -8.579)" fill="#1df2f2"/>
          <path id="Trazado_1370672" data-name="Trazado 1370672" d="M283.264,296.926a4.357,4.357,0,1,1-4.357,4.357,4.358,4.358,0,0,1,4.357-4.357" transform="translate(-8.844 -9.415)" fill="#1df2f2"/>
          <path id="Trazado_1370673" data-name="Trazado 1370673" d="M325.527,291.556a4.357,4.357,0,1,1-4.357,4.357,4.358,4.358,0,0,1,4.357-4.357" transform="translate(-10.184 -9.245)" fill="#1df2f2"/>
          <path id="Trazado_1370674" data-name="Trazado 1370674" d="M251.264,229.2a4.357,4.357,0,1,1-4.357,4.357,4.358,4.358,0,0,1,4.357-4.357" transform="translate(-7.829 -7.268)" fill="#1df2f2"/>
          <path id="Trazado_1370675" data-name="Trazado 1370675" d="M326.819,208.167a4.357,4.357,0,1,1-4.357,4.357,4.358,4.358,0,0,1,4.357-4.357" transform="translate(-10.225 -6.601)" fill="#1df2f2"/>
          <path id="Trazado_1370676" data-name="Trazado 1370676" d="M345.264,261.555a4.357,4.357,0,1,1-4.357,4.357,4.358,4.358,0,0,1,4.357-4.357" transform="translate(-10.81 -8.294)" fill="#1df2f2"/>
          <path id="Trazado_1370677" data-name="Trazado 1370677" d="M272.893,205.556a4.357,4.357,0,1,1-4.357,4.357,4.358,4.358,0,0,1,4.357-4.357" transform="translate(-8.515 -6.518)" fill="#1df2f2"/>
          <path id="Trazado_1370678" data-name="Trazado 1370678" d="M208.9,279.594s23.728,48.861,89.462,48.861c28.39,0,56.363-25.013,82.615-48.9" transform="translate(-6.624 -8.865)" fill="none" stroke="#000" stroke-linecap="round" stroke-miterlimit="10" stroke-width="1.5"/>
          <path id="Trazado_1370679" data-name="Trazado 1370679" d="M318.548,322.914a4.357,4.357,0,1,1-2.969,5.4,4.358,4.358,0,0,1,2.969-5.4" transform="translate(-10.001 -10.234)" fill="#1df2f2"/>
          <path id="Trazado_1370680" data-name="Trazado 1370680" d="M391.623,274.24l-5.639,10.295-4.719-4.938Z" transform="translate(-12.09 -8.696)"/>
          <circle id="Elipse_13849" data-name="Elipse 13849" cx="73.59" cy="73.59" r="73.59" transform="translate(420.512 173.559)" fill="none" stroke="#707070" stroke-width="1.5"/>
          <circle id="Elipse_13850" data-name="Elipse 13850" cx="61.971" cy="61.971" r="61.971" transform="translate(432.132 185.179)" fill="none" stroke="#707070" stroke-width="1.5"/>
          <circle id="Elipse_13851" data-name="Elipse 13851" cx="48.415" cy="48.415" r="48.415" transform="translate(445.688 198.735)" fill="none" stroke="#707070" stroke-width="1.5"/>
          <circle id="Elipse_13852" data-name="Elipse 13852" cx="37.763" cy="37.763" r="37.763" transform="translate(456.339 209.386)" fill="none" stroke="#707070" stroke-width="1.5"/>
          <path id="Trazado_1370681" data-name="Trazado 1370681" d="M488.783,255.045a21.3,21.3,0,1,1,21.3,21.3,21.3,21.3,0,0,1-21.3-21.3" transform="translate(-15.499 -7.412)" fill="#fe9341"/>
          <path id="Trazado_1370682" data-name="Trazado 1370682" d="M507.783,319.1a4.357,4.357,0,1,1,4.357,4.357,4.358,4.358,0,0,1-4.357-4.357" transform="translate(-16.102 -9.98)" fill="#1df2f2"/>
          <path id="Trazado_1370683" data-name="Trazado 1370683" d="M457.583,298.6a4.357,4.357,0,1,1,4.357,4.357,4.358,4.358,0,0,1-4.357-4.357" transform="translate(-14.51 -9.33)" fill="#1df2f2"/>
          <path id="Trazado_1370684" data-name="Trazado 1370684" d="M568.1,270.452a4.357,4.357,0,1,1,4.357,4.357,4.358,4.358,0,0,1-4.357-4.357" transform="translate(-18.014 -8.438)" fill="#1df2f2"/>
          <path id="Trazado_1370685" data-name="Trazado 1370685" d="M558.283,217.1a4.357,4.357,0,1,1,4.357,4.357,4.358,4.358,0,0,1-4.357-4.357" transform="translate(-17.703 -6.746)" fill="#1df2f2"/>
          <path id="Trazado_1370686" data-name="Trazado 1370686" d="M507.783,190.6a4.357,4.357,0,1,1,4.357,4.357,4.358,4.358,0,0,1-4.357-4.357" transform="translate(-16.102 -5.906)" fill="#1df2f2"/>
          <path id="Trazado_1370687" data-name="Trazado 1370687" d="M462.083,209.6a4.357,4.357,0,1,1,4.357,4.357,4.358,4.358,0,0,1-4.357-4.357" transform="translate(-14.653 -6.508)" fill="#1df2f2"/>
          <path id="Trazado_1370688" data-name="Trazado 1370688" d="M441.783,255.1a4.357,4.357,0,1,1,4.357,4.357,4.358,4.358,0,0,1-4.357-4.357" transform="translate(-14.009 -7.951)" fill="#1df2f2"/>
          <path id="Trazado_1370689" data-name="Trazado 1370689" d="M551.956,297.385a4.357,4.357,0,1,1,2.969,5.4,4.357,4.357,0,0,1-2.969-5.4" transform="translate(-17.497 -9.33)" fill="#1df2f2"/>
          <path id="Trazado_1370690" data-name="Trazado 1370690" d="M478.641,325.384a4.357,4.357,0,1,1,2.969,5.4,4.357,4.357,0,0,1-2.969-5.4" transform="translate(-15.172 -10.218)" fill="#1df2f2"/>
          <path id="Trazado_1370691" data-name="Trazado 1370691" d="M544.783,261.452a4.357,4.357,0,1,1,4.357,4.357,4.358,4.358,0,0,1-4.357-4.357" transform="translate(-17.275 -8.152)" fill="#1df2f2"/>
          <path id="Trazado_1370692" data-name="Trazado 1370692" d="M473.969,233.6a4.357,4.357,0,1,1,4.357,4.357,4.357,4.357,0,0,1-4.357-4.357" transform="translate(-15.029 -7.269)" fill="#1df2f2"/>
          <path id="Trazado_1370693" data-name="Trazado 1370693" d="M459.783,233.6a4.357,4.357,0,1,1,4.357,4.357,4.358,4.358,0,0,1-4.357-4.357" transform="translate(-14.58 -7.269)" fill="#1df2f2"/>
          <path id="Trazado_1370694" data-name="Trazado 1370694" d="M491.783,207.23a4.357,4.357,0,1,1,4.357,4.357,4.358,4.358,0,0,1-4.357-4.357" transform="translate(-15.594 -6.433)" fill="#1df2f2"/>
          <path id="Trazado_1370695" data-name="Trazado 1370695" d="M534.046,212.6a4.357,4.357,0,1,1,4.357,4.357,4.358,4.358,0,0,1-4.357-4.357" transform="translate(-16.934 -6.603)" fill="#1df2f2"/>
          <path id="Trazado_1370696" data-name="Trazado 1370696" d="M459.783,274.952a4.357,4.357,0,1,1,4.357,4.357,4.358,4.358,0,0,1-4.357-4.357" transform="translate(-14.58 -8.58)" fill="#1df2f2"/>
          <path id="Trazado_1370697" data-name="Trazado 1370697" d="M535.339,295.989a4.357,4.357,0,1,1,4.357,4.357,4.358,4.358,0,0,1-4.357-4.357" transform="translate(-16.975 -9.248)" fill="#1df2f2"/>
          <path id="Trazado_1370698" data-name="Trazado 1370698" d="M553.783,242.6a4.357,4.357,0,1,1,4.357,4.357,4.358,4.358,0,0,1-4.357-4.357" transform="translate(-17.56 -7.555)" fill="#1df2f2"/>
          <path id="Trazado_1370699" data-name="Trazado 1370699" d="M481.413,298.6a4.357,4.357,0,1,1,4.357,4.357,4.358,4.358,0,0,1-4.357-4.357" transform="translate(-15.265 -9.33)" fill="#1df2f2"/>
          <path id="Trazado_1370700" data-name="Trazado 1370700" d="M421.779,227.6s23.727-48.861,89.461-48.861c28.39,0,56.363,25.013,82.615,48.9" transform="translate(-13.374 -5.668)" fill="none" stroke="#000" stroke-linecap="round" stroke-miterlimit="10" stroke-width="1.5"/>
          <path id="Trazado_1370701" data-name="Trazado 1370701" d="M528.456,180.2a4.357,4.357,0,1,1,2.969,5.4,4.357,4.357,0,0,1-2.969-5.4" transform="translate(-16.752 -5.614)" fill="#1df2f2"/>
          <path id="Trazado_1370702" data-name="Trazado 1370702" d="M604.5,234.222l-5.639-10.295-4.718,4.938Z" transform="translate(-18.84 -7.101)"/>
        </g>
      </g>
    </g>
    <g id="Grupo_1212878" data-name="Grupo 1212878">
      <path id="Trazado_1383707" data-name="Trazado 1383707" d="M-31.722,0V-11.2h3.188a3.484,3.484,0,0,1,2.3.711,2.3,2.3,0,0,1,.852,1.852,2.724,2.724,0,0,1-.516,1.656,2.78,2.78,0,0,1-1.422,1v.031A2.85,2.85,0,0,1-25.5-5.1a2.631,2.631,0,0,1,.68,1.879A2.929,2.929,0,0,1-25.855-.891a3.838,3.838,0,0,1-2.6.891Zm1.313-10.016V-6.4h1.344a2.552,2.552,0,0,0,1.7-.52,1.809,1.809,0,0,0,.617-1.465q0-1.633-2.148-1.633Zm0,4.8v4.031h1.781a2.669,2.669,0,0,0,1.793-.547,1.873,1.873,0,0,0,.637-1.5q0-1.984-2.7-1.984ZM-16.955,0h-1.281V-1.25h-.031A2.682,2.682,0,0,1-20.729.188,2.63,2.63,0,0,1-22.6-.445a2.192,2.192,0,0,1-.676-1.68q0-2.242,2.641-2.609l2.4-.336q0-2.039-1.648-2.039a3.938,3.938,0,0,0-2.609.984V-7.437a4.958,4.958,0,0,1,2.719-.75q2.82,0,2.82,2.984Zm-1.281-4.047-1.93.266a3.133,3.133,0,0,0-1.344.441,1.273,1.273,0,0,0-.453,1.121,1.221,1.221,0,0,0,.418.957,1.615,1.615,0,0,0,1.113.371,2.056,2.056,0,0,0,1.574-.668,2.387,2.387,0,0,0,.621-1.691ZM-7.861,0H-9.142V-4.562q0-2.547-1.859-2.547a2.017,2.017,0,0,0-1.59.723,2.679,2.679,0,0,0-.629,1.824V0H-14.5V-8h1.281v1.328h.031a2.887,2.887,0,0,1,2.625-1.516,2.448,2.448,0,0,1,2.008.848,3.776,3.776,0,0,1,.7,2.449ZM1.421,0H.14V-1.359H.109A2.958,2.958,0,0,1-2.641.188,2.988,2.988,0,0,1-5.051-.887a4.407,4.407,0,0,1-.9-2.926,4.794,4.794,0,0,1,1-3.18,3.3,3.3,0,0,1,2.664-1.2,2.564,2.564,0,0,1,2.4,1.3H.14v-4.953H1.421ZM.14-3.617V-4.8A2.289,2.289,0,0,0-.5-6.437a2.149,2.149,0,0,0-1.625-.672,2.212,2.212,0,0,0-1.844.859,3.766,3.766,0,0,0-.672,2.375A3.387,3.387,0,0,0-4-1.691a2.107,2.107,0,0,0,1.73.8A2.188,2.188,0,0,0-.528-1.664,2.882,2.882,0,0,0,.14-3.617ZM9.782,0H8.5V-1.25H8.469A2.682,2.682,0,0,1,6.008.188,2.63,2.63,0,0,1,4.137-.445a2.192,2.192,0,0,1-.676-1.68q0-2.242,2.641-2.609L8.5-5.07q0-2.039-1.648-2.039a3.938,3.938,0,0,0-2.609.984V-7.437a4.958,4.958,0,0,1,2.719-.75q2.82,0,2.82,2.984ZM8.5-4.047l-1.93.266a3.133,3.133,0,0,0-1.344.441,1.273,1.273,0,0,0-.453,1.121,1.221,1.221,0,0,0,.418.957,1.615,1.615,0,0,0,1.113.371,2.056,2.056,0,0,0,1.574-.668A2.387,2.387,0,0,0,8.5-3.25ZM23.487,0H22.205V-1.359h-.031A2.958,2.958,0,0,1,19.424.188a2.988,2.988,0,0,1-2.41-1.074,4.407,4.407,0,0,1-.9-2.926,4.794,4.794,0,0,1,1-3.18,3.3,3.3,0,0,1,2.664-1.2,2.564,2.564,0,0,1,2.4,1.3h.031v-4.953h1.281ZM22.205-3.617V-4.8a2.289,2.289,0,0,0-.641-1.641,2.149,2.149,0,0,0-1.625-.672A2.212,2.212,0,0,0,18.1-6.25a3.766,3.766,0,0,0-.672,2.375,3.387,3.387,0,0,0,.645,2.184,2.107,2.107,0,0,0,1.73.8,2.188,2.188,0,0,0,1.738-.773A2.882,2.882,0,0,0,22.205-3.617ZM32.55-3.68H26.9a2.992,2.992,0,0,0,.719,2.063,2.478,2.478,0,0,0,1.891.727A3.931,3.931,0,0,0,32-1.781v1.2a4.643,4.643,0,0,1-2.789.766A3.381,3.381,0,0,1,26.542-.9a4.461,4.461,0,0,1-.969-3.066,4.375,4.375,0,0,1,1.059-3.043,3.394,3.394,0,0,1,2.629-1.176,3.008,3.008,0,0,1,2.43,1.016,4.234,4.234,0,0,1,.859,2.82ZM31.238-4.766A2.607,2.607,0,0,0,30.7-6.492a1.823,1.823,0,0,0-1.465-.617,2.07,2.07,0,0,0-1.539.648,2.943,2.943,0,0,0-.781,1.7Zm-65.359,23.4a4.163,4.163,0,0,1-2.187.555,3.622,3.622,0,0,1-2.762-1.113,4.035,4.035,0,0,1-1.051-2.887,4.435,4.435,0,0,1,1.133-3.176,3.963,3.963,0,0,1,3.023-1.2,4.209,4.209,0,0,1,1.859.391v1.313a3.258,3.258,0,0,0-1.906-.625,2.576,2.576,0,0,0-2.012.879,3.335,3.335,0,0,0-.785,2.309,3.176,3.176,0,0,0,.738,2.219,2.545,2.545,0,0,0,1.98.813,3.211,3.211,0,0,0,1.969-.7Zm5.321.555a3.711,3.711,0,0,1-2.832-1.121,4.153,4.153,0,0,1-1.059-2.973,4.326,4.326,0,0,1,1.1-3.148,3.96,3.96,0,0,1,2.977-1.133,3.588,3.588,0,0,1,2.793,1.1,4.368,4.368,0,0,1,1,3.055A4.3,4.3,0,0,1-25.9,18.035,3.791,3.791,0,0,1-28.8,19.188Zm.094-7.3a2.437,2.437,0,0,0-1.953.84,3.449,3.449,0,0,0-.719,2.316,3.262,3.262,0,0,0,.727,2.242,2.469,2.469,0,0,0,1.945.82,2.342,2.342,0,0,0,1.91-.8,3.492,3.492,0,0,0,.668-2.289A3.552,3.552,0,0,0-26.8,12.7,2.332,2.332,0,0,0-28.706,11.891ZM-16.088,19H-17.37V14.438q0-2.547-1.859-2.547a2.017,2.017,0,0,0-1.59.723,2.679,2.679,0,0,0-.629,1.824V19h-1.281V11h1.281v1.328h.031a2.887,2.887,0,0,1,2.625-1.516,2.448,2.448,0,0,1,2.008.848,3.776,3.776,0,0,1,.7,2.449Zm9.282,0H-8.087V17.641h-.031a2.958,2.958,0,0,1-2.75,1.547,2.988,2.988,0,0,1-2.41-1.074,4.407,4.407,0,0,1-.9-2.926,4.794,4.794,0,0,1,1-3.18,3.3,3.3,0,0,1,2.664-1.2,2.564,2.564,0,0,1,2.4,1.3h.031V7.156h1.281Zm-1.281-3.617V14.2a2.289,2.289,0,0,0-.641-1.641,2.149,2.149,0,0,0-1.625-.672,2.212,2.212,0,0,0-1.844.859,3.766,3.766,0,0,0-.672,2.375,3.387,3.387,0,0,0,.645,2.184,2.107,2.107,0,0,0,1.73.8,2.188,2.188,0,0,0,1.738-.773A2.882,2.882,0,0,0-8.087,15.383ZM2.3,19H1.015V17.734H.984a2.631,2.631,0,0,1-2.469,1.453q-2.859,0-2.859-3.406V11h1.273v4.578q0,2.531,1.937,2.531A1.96,1.96,0,0,0,.41,17.418a2.645,2.645,0,0,0,.605-1.809V11H2.3Zm8.079-.367a4.163,4.163,0,0,1-2.187.555,3.622,3.622,0,0,1-2.762-1.113,4.035,4.035,0,0,1-1.051-2.887,4.435,4.435,0,0,1,1.133-3.176,3.963,3.963,0,0,1,3.023-1.2,4.209,4.209,0,0,1,1.859.391v1.313a3.258,3.258,0,0,0-1.906-.625,2.576,2.576,0,0,0-2.012.879,3.335,3.335,0,0,0-.785,2.309A3.176,3.176,0,0,0,6.426,17.3a2.545,2.545,0,0,0,1.98.813,3.211,3.211,0,0,0,1.969-.7Zm7.431,0a4.163,4.163,0,0,1-2.187.555,3.622,3.622,0,0,1-2.762-1.113,4.035,4.035,0,0,1-1.051-2.887,4.435,4.435,0,0,1,1.133-3.176,3.963,3.963,0,0,1,3.023-1.2,4.209,4.209,0,0,1,1.859.391v1.313a3.258,3.258,0,0,0-1.906-.625,2.576,2.576,0,0,0-2.012.879,3.335,3.335,0,0,0-.785,2.309,3.176,3.176,0,0,0,.738,2.219,2.545,2.545,0,0,0,1.98.813,3.211,3.211,0,0,0,1.969-.7ZM20.44,8.969a.812.812,0,0,1-.586-.234.791.791,0,0,1-.242-.594A.821.821,0,0,1,20.44,7.3a.827.827,0,0,1,.6.238.835.835,0,0,1,0,1.184A.82.82,0,0,1,20.44,8.969ZM21.065,19H19.784V11h1.281Zm5.978.188a3.711,3.711,0,0,1-2.832-1.121,4.153,4.153,0,0,1-1.059-2.973,4.326,4.326,0,0,1,1.1-3.148,3.96,3.96,0,0,1,2.977-1.133,3.588,3.588,0,0,1,2.793,1.1,4.368,4.368,0,0,1,1,3.055,4.3,4.3,0,0,1-1.082,3.066A3.791,3.791,0,0,1,27.042,19.188Zm.094-7.3a2.437,2.437,0,0,0-1.953.84,3.449,3.449,0,0,0-.719,2.316,3.262,3.262,0,0,0,.727,2.242,2.469,2.469,0,0,0,1.945.82,2.342,2.342,0,0,0,1.91-.8,3.492,3.492,0,0,0,.668-2.289,3.552,3.552,0,0,0-.668-2.312A2.332,2.332,0,0,0,27.136,11.891Zm1.875-4.969L26.964,9.484h-.992l1.742-2.562ZM39.754,19H38.473V14.438q0-2.547-1.859-2.547a2.017,2.017,0,0,0-1.59.723,2.679,2.679,0,0,0-.629,1.824V19H33.114V11h1.281v1.328h.031a2.887,2.887,0,0,1,2.625-1.516,2.448,2.448,0,0,1,2.008.848,3.776,3.776,0,0,1,.7,2.449Z" transform="translate(283.02 4172)" fill="#12263f"/>
      <path id="Trazado_1383708" data-name="Trazado 1383708" d="M-21.3,0h-5.937V-11.2h5.688v1.188h-4.375v3.727h4.047v1.18h-4.047v3.922H-21.3ZM-18,0H-19.28V-11.844H-18Zm9.063-3.68h-5.648a2.992,2.992,0,0,0,.719,2.063,2.478,2.478,0,0,0,1.891.727A3.931,3.931,0,0,0-9.49-1.781v1.2a4.643,4.643,0,0,1-2.789.766A3.381,3.381,0,0,1-14.943-.9a4.461,4.461,0,0,1-.969-3.066,4.375,4.375,0,0,1,1.059-3.043,3.394,3.394,0,0,1,2.629-1.176,3.008,3.008,0,0,1,2.43,1.016,4.234,4.234,0,0,1,.859,2.82Zm-1.313-1.086a2.607,2.607,0,0,0-.535-1.727,1.823,1.823,0,0,0-1.465-.617,2.07,2.07,0,0,0-1.539.648,2.943,2.943,0,0,0-.781,1.7ZM-1.5-.367A4.163,4.163,0,0,1-3.692.188,3.622,3.622,0,0,1-6.454-.926,4.035,4.035,0,0,1-7.5-3.812,4.435,4.435,0,0,1-6.372-6.988a3.963,3.963,0,0,1,3.023-1.2A4.209,4.209,0,0,1-1.489-7.8v1.313A3.258,3.258,0,0,0-3.4-7.109a2.576,2.576,0,0,0-2.012.879,3.335,3.335,0,0,0-.785,2.309A3.176,3.176,0,0,0-5.454-1.7a2.545,2.545,0,0,0,1.98.813,3.211,3.211,0,0,0,1.969-.7Zm5.688.289a2.47,2.47,0,0,1-1.2.25q-2.1,0-2.1-2.344V-6.906H-.488V-8H.887V-9.953l1.281-.414V-8H4.184v1.094H2.168V-2.4A1.869,1.869,0,0,0,2.442-1.25a1.091,1.091,0,0,0,.906.344,1.347,1.347,0,0,0,.836-.266ZM10.107-6.7a1.567,1.567,0,0,0-.969-.258,1.635,1.635,0,0,0-1.371.773,3.576,3.576,0,0,0-.551,2.109V0H5.935V-8H7.216v1.648h.031a2.793,2.793,0,0,1,.836-1.316,1.906,1.906,0,0,1,1.258-.473,2.092,2.092,0,0,1,.766.109ZM14.881.188A3.711,3.711,0,0,1,12.049-.934a4.153,4.153,0,0,1-1.059-2.973,4.326,4.326,0,0,1,1.1-3.148,3.96,3.96,0,0,1,2.977-1.133,3.588,3.588,0,0,1,2.793,1.1,4.368,4.368,0,0,1,1,3.055A4.3,4.3,0,0,1,17.784-.965,3.791,3.791,0,0,1,14.881.188Zm.094-7.3a2.437,2.437,0,0,0-1.953.84A3.449,3.449,0,0,0,12.3-3.953a3.262,3.262,0,0,0,.727,2.242,2.469,2.469,0,0,0,1.945.82,2.342,2.342,0,0,0,1.91-.8,3.492,3.492,0,0,0,.668-2.289A3.552,3.552,0,0,0,16.885-6.3,2.332,2.332,0,0,0,14.975-7.109Zm1.875-4.969L14.8-9.516h-.992l1.742-2.562ZM27.593,0H26.312V-4.562q0-2.547-1.859-2.547a2.017,2.017,0,0,0-1.59.723,2.679,2.679,0,0,0-.629,1.824V0H20.953V-8h1.281v1.328h.031A2.887,2.887,0,0,1,24.89-8.187,2.448,2.448,0,0,1,26.9-7.34a3.776,3.776,0,0,1,.7,2.449ZM-13.045,19h-1.281V7.156h1.281Zm3.29-10.031a.812.812,0,0,1-.586-.234.791.791,0,0,1-.242-.594.8.8,0,0,1,.242-.6A.8.8,0,0,1-9.755,7.3a.827.827,0,0,1,.6.238.8.8,0,0,1,.246.6.792.792,0,0,1-.246.586A.82.82,0,0,1-9.755,8.969ZM-9.13,19h-1.281V11H-9.13Zm3.946-1.156h-.031V19H-6.5V7.156h1.281v5.25h.031a3.03,3.03,0,0,1,2.766-1.594,2.932,2.932,0,0,1,2.41,1.074,4.436,4.436,0,0,1,.871,2.879A4.959,4.959,0,0,1-.113,17.98a3.251,3.251,0,0,1-2.672,1.207A2.631,2.631,0,0,1-5.184,17.844Zm-.031-3.227v1.117a2.379,2.379,0,0,0,.645,1.684,2.14,2.14,0,0,0,1.637.691,2.145,2.145,0,0,0,1.824-.891,4.086,4.086,0,0,0,.66-2.477,3.225,3.225,0,0,0-.617-2.094,2.043,2.043,0,0,0-1.672-.758,2.27,2.27,0,0,0-1.8.777A2.854,2.854,0,0,0-5.215,14.617ZM7.122,12.3a1.567,1.567,0,0,0-.969-.258,1.635,1.635,0,0,0-1.371.773,3.576,3.576,0,0,0-.551,2.109V19H2.95V11H4.231v1.648h.031A2.793,2.793,0,0,1,5.1,11.332a1.906,1.906,0,0,1,1.258-.473,2.092,2.092,0,0,1,.766.109Zm7.86,3.023H9.334a2.992,2.992,0,0,0,.719,2.063,2.478,2.478,0,0,0,1.891.727,3.931,3.931,0,0,0,2.484-.891v1.2a4.643,4.643,0,0,1-2.789.766A3.381,3.381,0,0,1,8.975,18.1a4.461,4.461,0,0,1-.969-3.066,4.375,4.375,0,0,1,1.059-3.043,3.394,3.394,0,0,1,2.629-1.176,3.008,3.008,0,0,1,2.43,1.016,4.234,4.234,0,0,1,.859,2.82ZM13.67,14.234a2.607,2.607,0,0,0-.535-1.727,1.823,1.823,0,0,0-1.465-.617,2.07,2.07,0,0,0-1.539.648,2.943,2.943,0,0,0-.781,1.7Z" transform="translate(379.02 4552)" fill="#12263f"/>
      <path id="Trazado_1383709" data-name="Trazado 1383709" d="M-51.151,0V-11.2h3.094q5.922,0,5.922,5.461A5.5,5.5,0,0,1-43.78-1.574,6.1,6.1,0,0,1-48.182,0Zm1.313-10.016v8.828h1.672a4.745,4.745,0,0,0,3.43-1.18A4.422,4.422,0,0,0-43.51-5.711q0-4.3-4.578-4.3Zm10.431-.016a.812.812,0,0,1-.586-.234.791.791,0,0,1-.242-.594.8.8,0,0,1,.242-.6.8.8,0,0,1,.586-.238.827.827,0,0,1,.6.238.8.8,0,0,1,.246.6.792.792,0,0,1-.246.586A.82.82,0,0,1-39.408-10.031ZM-38.783,0h-1.281V-8h1.281Zm6.806-6.7a1.567,1.567,0,0,0-.969-.258,1.635,1.635,0,0,0-1.371.773,3.576,3.576,0,0,0-.551,2.109V0h-1.281V-8h1.281v1.648h.031A2.794,2.794,0,0,1-34-7.668a1.906,1.906,0,0,1,1.258-.473,2.092,2.092,0,0,1,.766.109Zm7.86,3.023h-5.648a2.992,2.992,0,0,0,.719,2.063,2.478,2.478,0,0,0,1.891.727,3.931,3.931,0,0,0,2.484-.891v1.2a4.643,4.643,0,0,1-2.789.766A3.381,3.381,0,0,1-30.125-.9a4.461,4.461,0,0,1-.969-3.066,4.375,4.375,0,0,1,1.059-3.043,3.394,3.394,0,0,1,2.629-1.176,3.008,3.008,0,0,1,2.43,1.016,4.234,4.234,0,0,1,.859,2.82ZM-25.43-4.766a2.607,2.607,0,0,0-.535-1.727,1.823,1.823,0,0,0-1.465-.617,2.07,2.07,0,0,0-1.539.648,2.943,2.943,0,0,0-.781,1.7Zm8.743,4.4a4.163,4.163,0,0,1-2.187.555A3.622,3.622,0,0,1-21.636-.926a4.035,4.035,0,0,1-1.051-2.887,4.435,4.435,0,0,1,1.133-3.176,3.963,3.963,0,0,1,3.023-1.2,4.209,4.209,0,0,1,1.859.391v1.313a3.258,3.258,0,0,0-1.906-.625,2.576,2.576,0,0,0-2.012.879,3.335,3.335,0,0,0-.785,2.309A3.176,3.176,0,0,0-20.636-1.7a2.545,2.545,0,0,0,1.98.813,3.211,3.211,0,0,0,1.969-.7Zm7.431,0a4.163,4.163,0,0,1-2.188.555A3.622,3.622,0,0,1-14.205-.926a4.035,4.035,0,0,1-1.051-2.887,4.435,4.435,0,0,1,1.133-3.176,3.963,3.963,0,0,1,3.023-1.2A4.209,4.209,0,0,1-9.24-7.8v1.313a3.258,3.258,0,0,0-1.906-.625,2.576,2.576,0,0,0-2.012.879,3.335,3.335,0,0,0-.785,2.309A3.176,3.176,0,0,0-13.205-1.7a2.545,2.545,0,0,0,1.98.813,3.211,3.211,0,0,0,1.969-.7Zm2.634-9.664a.812.812,0,0,1-.586-.234.791.791,0,0,1-.242-.594.8.8,0,0,1,.242-.6.8.8,0,0,1,.586-.238.827.827,0,0,1,.6.238.8.8,0,0,1,.246.6.792.792,0,0,1-.246.586A.82.82,0,0,1-6.622-10.031ZM-6,0H-7.278V-8H-6ZM-.02.188A3.711,3.711,0,0,1-2.852-.934,4.153,4.153,0,0,1-3.91-3.906a4.326,4.326,0,0,1,1.1-3.148A3.96,3.96,0,0,1,.168-8.187a3.588,3.588,0,0,1,2.793,1.1,4.368,4.368,0,0,1,1,3.055A4.3,4.3,0,0,1,2.883-.965,3.791,3.791,0,0,1-.02.188Zm.094-7.3a2.437,2.437,0,0,0-1.953.84A3.449,3.449,0,0,0-2.6-3.953a3.262,3.262,0,0,0,.727,2.242,2.469,2.469,0,0,0,1.945.82,2.342,2.342,0,0,0,1.91-.8,3.492,3.492,0,0,0,.668-2.289A3.552,3.552,0,0,0,1.984-6.3,2.332,2.332,0,0,0,.074-7.109Zm1.875-4.969L-.1-9.516H-1.09L.652-12.078ZM12.692,0H11.411V-4.562q0-2.547-1.859-2.547a2.017,2.017,0,0,0-1.59.723,2.679,2.679,0,0,0-.629,1.824V0H6.052V-8H7.333v1.328h.031A2.887,2.887,0,0,1,9.989-8.187,2.448,2.448,0,0,1,12-7.34a3.776,3.776,0,0,1,.7,2.449ZM26.4,0H25.116V-1.359h-.031A2.958,2.958,0,0,1,22.335.188a2.988,2.988,0,0,1-2.41-1.074,4.407,4.407,0,0,1-.9-2.926,4.794,4.794,0,0,1,1-3.18,3.3,3.3,0,0,1,2.664-1.2,2.564,2.564,0,0,1,2.4,1.3h.031v-4.953H26.4ZM25.116-3.617V-4.8a2.289,2.289,0,0,0-.641-1.641,2.149,2.149,0,0,0-1.625-.672,2.212,2.212,0,0,0-1.844.859,3.766,3.766,0,0,0-.672,2.375,3.387,3.387,0,0,0,.645,2.184,2.107,2.107,0,0,0,1.73.8,2.188,2.188,0,0,0,1.738-.773A2.882,2.882,0,0,0,25.116-3.617ZM35.461-3.68H29.812a2.992,2.992,0,0,0,.719,2.063,2.478,2.478,0,0,0,1.891.727,3.931,3.931,0,0,0,2.484-.891v1.2a4.643,4.643,0,0,1-2.789.766A3.381,3.381,0,0,1,29.453-.9a4.461,4.461,0,0,1-.969-3.066,4.375,4.375,0,0,1,1.059-3.043,3.394,3.394,0,0,1,2.629-1.176A3.008,3.008,0,0,1,34.6-7.172a4.234,4.234,0,0,1,.859,2.82ZM34.148-4.766a2.607,2.607,0,0,0-.535-1.727,1.823,1.823,0,0,0-1.465-.617,2.07,2.07,0,0,0-1.539.648,2.943,2.943,0,0,0-.781,1.7ZM43.142,0H41.861V-11.844h1.281ZM51.5,0H50.221V-1.25H50.19A2.682,2.682,0,0,1,47.729.188a2.63,2.63,0,0,1-1.871-.633,2.192,2.192,0,0,1-.676-1.68q0-2.242,2.641-2.609l2.4-.336q0-2.039-1.648-2.039a3.938,3.938,0,0,0-2.609.984V-7.437a4.958,4.958,0,0,1,2.719-.75q2.82,0,2.82,2.984ZM50.221-4.047l-1.93.266a3.133,3.133,0,0,0-1.344.441,1.273,1.273,0,0,0-.453,1.121,1.221,1.221,0,0,0,.418.957,1.615,1.615,0,0,0,1.113.371A2.056,2.056,0,0,0,49.6-1.559a2.387,2.387,0,0,0,.621-1.691ZM-56.485,18.633a4.163,4.163,0,0,1-2.187.555,3.622,3.622,0,0,1-2.762-1.113,4.035,4.035,0,0,1-1.051-2.887,4.435,4.435,0,0,1,1.133-3.176,3.963,3.963,0,0,1,3.023-1.2,4.209,4.209,0,0,1,1.859.391v1.313a3.258,3.258,0,0,0-1.906-.625,2.576,2.576,0,0,0-2.012.879,3.335,3.335,0,0,0-.785,2.309,3.176,3.176,0,0,0,.738,2.219,2.545,2.545,0,0,0,1.98.813,3.211,3.211,0,0,0,1.969-.7Zm5.321.555A3.711,3.711,0,0,1-54,18.066a4.153,4.153,0,0,1-1.059-2.973,4.326,4.326,0,0,1,1.1-3.148,3.96,3.96,0,0,1,2.977-1.133,3.588,3.588,0,0,1,2.793,1.1,4.368,4.368,0,0,1,1,3.055,4.3,4.3,0,0,1-1.082,3.066A3.791,3.791,0,0,1-51.164,19.188Zm.094-7.3a2.437,2.437,0,0,0-1.953.84,3.449,3.449,0,0,0-.719,2.316,3.262,3.262,0,0,0,.727,2.242,2.469,2.469,0,0,0,1.945.82,2.342,2.342,0,0,0,1.91-.8,3.492,3.492,0,0,0,.668-2.289A3.552,3.552,0,0,0-49.16,12.7,2.332,2.332,0,0,0-51.07,11.891Zm10.149.406a1.567,1.567,0,0,0-.969-.258,1.635,1.635,0,0,0-1.371.773,3.576,3.576,0,0,0-.551,2.109V19h-1.281V11h1.281v1.648h.031a2.794,2.794,0,0,1,.836-1.316,1.906,1.906,0,0,1,1.258-.473,2.092,2.092,0,0,1,.766.109Zm5.6,0a1.567,1.567,0,0,0-.969-.258,1.635,1.635,0,0,0-1.371.773,3.576,3.576,0,0,0-.551,2.109V19H-39.49V11h1.281v1.648h.031a2.794,2.794,0,0,1,.836-1.316,1.906,1.906,0,0,1,1.258-.473,2.092,2.092,0,0,1,.766.109Zm2.087-3.328a.812.812,0,0,1-.586-.234.791.791,0,0,1-.242-.594.8.8,0,0,1,.242-.6.8.8,0,0,1,.586-.238.827.827,0,0,1,.6.238.8.8,0,0,1,.246.6.792.792,0,0,1-.246.586A.82.82,0,0,1-33.231,8.969ZM-32.606,19h-1.281V11h1.281Zm9.063-3.68h-5.648a2.992,2.992,0,0,0,.719,2.063,2.478,2.478,0,0,0,1.891.727,3.931,3.931,0,0,0,2.484-.891v1.2a4.643,4.643,0,0,1-2.789.766,3.381,3.381,0,0,1-2.664-1.09,4.461,4.461,0,0,1-.969-3.066,4.375,4.375,0,0,1,1.059-3.043,3.394,3.394,0,0,1,2.629-1.176,3.008,3.008,0,0,1,2.43,1.016,4.234,4.234,0,0,1,.859,2.82Zm-1.312-1.086a2.607,2.607,0,0,0-.535-1.727,1.823,1.823,0,0,0-1.465-.617,2.07,2.07,0,0,0-1.539.648,2.943,2.943,0,0,0-.781,1.7ZM-14.925,19h-1.281V14.438q0-2.547-1.859-2.547a2.017,2.017,0,0,0-1.59.723,2.679,2.679,0,0,0-.629,1.824V19h-1.281V11h1.281v1.328h.031a2.887,2.887,0,0,1,2.625-1.516,2.448,2.448,0,0,1,2.008.848,3.776,3.776,0,0,1,.7,2.449Zm6.165-.078a2.47,2.47,0,0,1-1.2.25q-2.1,0-2.1-2.344V12.094h-1.375V11h1.375V9.047l1.281-.414V11H-8.76v1.094h-2.016V16.6A1.869,1.869,0,0,0-10.5,17.75a1.091,1.091,0,0,0,.906.344,1.347,1.347,0,0,0,.836-.266Zm8.181-3.6H-6.228a2.992,2.992,0,0,0,.719,2.063,2.478,2.478,0,0,0,1.891.727,3.931,3.931,0,0,0,2.484-.891v1.2a4.643,4.643,0,0,1-2.789.766A3.381,3.381,0,0,1-6.587,18.1a4.461,4.461,0,0,1-.969-3.066A4.375,4.375,0,0,1-6.5,11.988a3.394,3.394,0,0,1,2.629-1.176,3.008,3.008,0,0,1,2.43,1.016,4.234,4.234,0,0,1,.859,2.82Zm-1.313-1.086a2.607,2.607,0,0,0-.535-1.727,1.823,1.823,0,0,0-1.465-.617,2.07,2.07,0,0,0-1.539.648,2.943,2.943,0,0,0-.781,1.7ZM12.251,15.32H6.6a2.992,2.992,0,0,0,.719,2.063,2.478,2.478,0,0,0,1.891.727,3.931,3.931,0,0,0,2.484-.891v1.2a4.643,4.643,0,0,1-2.789.766A3.381,3.381,0,0,1,6.243,18.1a4.461,4.461,0,0,1-.969-3.066,4.375,4.375,0,0,1,1.059-3.043,3.394,3.394,0,0,1,2.629-1.176,3.008,3.008,0,0,1,2.43,1.016,4.234,4.234,0,0,1,.859,2.82Zm-1.312-1.086a2.607,2.607,0,0,0-.535-1.727,1.823,1.823,0,0,0-1.465-.617,2.07,2.07,0,0,0-1.539.648,2.943,2.943,0,0,0-.781,1.7ZM15.51,19H14.228V7.156H15.51Zm9.063-3.68H18.925a2.992,2.992,0,0,0,.719,2.063,2.478,2.478,0,0,0,1.891.727,3.931,3.931,0,0,0,2.484-.891v1.2a4.643,4.643,0,0,1-2.789.766,3.381,3.381,0,0,1-2.664-1.09,4.461,4.461,0,0,1-.969-3.066,4.375,4.375,0,0,1,1.059-3.043,3.394,3.394,0,0,1,2.629-1.176,3.008,3.008,0,0,1,2.43,1.016,4.234,4.234,0,0,1,.859,2.82Zm-1.312-1.086a2.607,2.607,0,0,0-.535-1.727,1.823,1.823,0,0,0-1.465-.617,2.07,2.07,0,0,0-1.539.648,2.943,2.943,0,0,0-.781,1.7Zm-.2-7.312L21.011,9.484h-.992l1.742-2.562ZM32,18.633a4.163,4.163,0,0,1-2.187.555,3.622,3.622,0,0,1-2.762-1.113A4.035,4.035,0,0,1,26,15.188a4.435,4.435,0,0,1,1.133-3.176,3.963,3.963,0,0,1,3.023-1.2,4.209,4.209,0,0,1,1.859.391v1.313a3.258,3.258,0,0,0-1.906-.625,2.576,2.576,0,0,0-2.012.879,3.335,3.335,0,0,0-.785,2.309,3.176,3.176,0,0,0,.738,2.219,2.545,2.545,0,0,0,1.98.813,3.211,3.211,0,0,0,1.969-.7Zm5.688.289a2.47,2.47,0,0,1-1.2.25q-2.1,0-2.1-2.344V12.094H33.02V11H34.4V9.047l1.281-.414V11h2.016v1.094H35.677V16.6a1.869,1.869,0,0,0,.273,1.148,1.091,1.091,0,0,0,.906.344,1.347,1.347,0,0,0,.836-.266ZM43.615,12.3a1.567,1.567,0,0,0-.969-.258,1.635,1.635,0,0,0-1.371.773,3.576,3.576,0,0,0-.551,2.109V19H39.443V11h1.281v1.648h.031a2.794,2.794,0,0,1,.836-1.316,1.906,1.906,0,0,1,1.258-.473,2.092,2.092,0,0,1,.766.109ZM45.7,8.969a.812.812,0,0,1-.586-.234.791.791,0,0,1-.242-.594A.821.821,0,0,1,45.7,7.3a.827.827,0,0,1,.6.238.835.835,0,0,1,0,1.184A.82.82,0,0,1,45.7,8.969ZM46.327,19H45.046V11h1.281Zm8.087-.367a4.163,4.163,0,0,1-2.187.555,3.622,3.622,0,0,1-2.762-1.113,4.035,4.035,0,0,1-1.051-2.887,4.435,4.435,0,0,1,1.133-3.176,3.963,3.963,0,0,1,3.023-1.2,4.209,4.209,0,0,1,1.859.391v1.313a3.258,3.258,0,0,0-1.906-.625,2.576,2.576,0,0,0-2.012.879,3.335,3.335,0,0,0-.785,2.309,3.176,3.176,0,0,0,.738,2.219,2.545,2.545,0,0,0,1.98.813,3.211,3.211,0,0,0,1.969-.7Zm7.7.367H60.837V17.75h-.031a2.682,2.682,0,0,1-2.461,1.438,2.63,2.63,0,0,1-1.871-.633,2.192,2.192,0,0,1-.676-1.68q0-2.242,2.641-2.609l2.4-.336q0-2.039-1.648-2.039a3.938,3.938,0,0,0-2.609.984V11.563a4.958,4.958,0,0,1,2.719-.75q2.82,0,2.82,2.984Zm-1.281-4.047-1.93.266a3.133,3.133,0,0,0-1.344.441,1.273,1.273,0,0,0-.453,1.121,1.221,1.221,0,0,0,.418.957,1.615,1.615,0,0,0,1.113.371,2.056,2.056,0,0,0,1.574-.668,2.387,2.387,0,0,0,.621-1.691Z" transform="translate(572 4172)" fill="#12263f"/>
    </g>
    <g id="Grupo_1211175" data-name="Grupo 1211175" transform="translate(11339.711 11536.246)">
      <line id="Línea_3519" data-name="Línea 3519" x2="29.684" transform="translate(-10698.5 -7360.742)" fill="none" stroke="#12263f" stroke-linecap="round" stroke-width="1.5"/>
      <path id="Polígono_16" data-name="Polígono 16" d="M2.436,0,4.871,10.96H0Z" transform="translate(-10663.117 -7363.246) rotate(90)" fill="#12263f"/>
    </g>
    <line id="Línea_3520" data-name="Línea 3520" y1="21" transform="translate(283.211 4195.5)" fill="none" stroke="#b5cbd7" stroke-linecap="round" stroke-width="1.5" stroke-dasharray="3 5"/>
    <line id="Línea_3521" data-name="Línea 3521" y1="65" transform="translate(379.02 4470.5)" fill="none" stroke="#b5cbd7" stroke-linecap="round" stroke-width="1.5" stroke-dasharray="3 6"/>
  </g>
</svg>
