<svg xmlns="http://www.w3.org/2000/svg" xmlns:xlink="http://www.w3.org/1999/xlink" width="106.952" height="123.933" viewBox="0 0 106.952 123.933">
  <defs>
    <clipPath id="clip-path">
      <rect id="Rectángulo_739125" data-name="Rectángulo 739125" width="106.453" height="123.405" fill="none"/>
    </clipPath>
  </defs>
  <g id="Grupo_1211144" data-name="Grupo 1211144" transform="translate(-1266.484 -3949.472)">
    <g id="Grupo_1211139" data-name="Grupo 1211139" transform="translate(1266.484 3950)">
      <g id="Grupo_1211138" data-name="Grupo 1211138" clip-path="url(#clip-path)">
        <path id="Trazado_1370540" data-name="Trazado 1370540" d="M36.73,32.009l6.341-3.685c-3.447-1.988-4.732-5.457-2.868-7.7L33.862,24.3c-1.861,2.248-.579,5.715,2.868,7.706" transform="translate(-28.011 36.473)" fill="#1b232b"/>
      </g>
    </g>
    <path id="Trazado_1370541" data-name="Trazado 1370541" d="M85.815,74.809l6.341-3.685L9.5,23.4,3.155,27.086Z" transform="translate(1272.047 3991.395)" fill="#1a232a"/>
    <path id="Trazado_1370545" data-name="Trazado 1370545" d="M19.216,56.045l6.341-3.685L66.613,2.676,60.272,6.359Z" transform="translate(1253.117 3954.732)" fill="#141b21"/>
    <g id="Grupo_1211143" data-name="Grupo 1211143" transform="translate(1266.484 3950)">
      <g id="Grupo_1211142" data-name="Grupo 1211142" clip-path="url(#clip-path)">
        <path id="Trazado_1370546" data-name="Trazado 1370546" d="M18.936,6.79,25.277,3.1a2.943,2.943,0,0,1,.775-.673L19.714,6.114a2.922,2.922,0,0,0-.778.676" transform="translate(27.971 4.301)" fill="#1b232b"/>
        <path id="Trazado_1370547" data-name="Trazado 1370547" d="M20.6,6.442l6.341-3.685a2.5,2.5,0,0,0-2.6-.13L18,6.309a2.5,2.5,0,0,1,2.6.133" transform="translate(29.684 4.106)" fill="#133953"/>
      </g>
    </g>
    <path id="Trazado_1370548" data-name="Trazado 1370548" d="M42.738,104.609l6.341-3.685L8.452,4.08,2.111,7.765Z" transform="translate(1318.012 3957.215)" fill="#133a54"/>
    <path id="Trazado_1370549" data-name="Trazado 1370549" d="M49.383,4.088a2.455,2.455,0,0,0-3.375.543L4.952,54.317c-1.861,2.245-.576,5.715,2.871,7.706l82.657,47.72c3.431,1.982,4.732.006,2.888-4.38L52.742,8.519a9.1,9.1,0,0,0-3.359-4.43" transform="translate(1267.38 3956.459)" fill="#ff9d26"/>
    <path id="Trazado_1370550" data-name="Trazado 1370550" d="M20.143,10.6,26.483,6.91a9.121,9.121,0,0,0-3.361-4.43L16.784,6.165a9.121,9.121,0,0,1,3.359,4.43" transform="translate(1299.982 3954.386)" fill="#133953"/>
    <path id="Trazado_1370554" data-name="Trazado 1370554" d="M16.042,9.276l9.91,30.911-9.669,5.507,22.9,33.685L28.858,51.8l9.655-3.6Z" transform="translate(1289.335 3966.406)" fill="#636363"/>
    <path id="Unión_2" data-name="Unión 2" d="M10593.894,11821.688c1.4-2.11,1.215-5.745-.5-10.051l-.57.387-40.258-97.715h0c-1.812-4.3-4.563-7.774-7.566-9.51-2.284-1.317-4.438-1.457-6.147-.466l6.341-3.686c1.706-.991,3.86-.852,6.147.466,3,1.732,5.75,5.2,7.565,9.508h0l40.629,96.845a18.455,18.455,0,0,1,1.629,6.84v.1a6.5,6.5,0,0,1-.929,3.594,3.778,3.778,0,0,1-1.249,1.2l-6.341,3.686A3.753,3.753,0,0,0,10593.894,11821.688Z" transform="translate(-9228.227 -7750)" fill="#534c4c" stroke="rgba(0,0,0,0)" stroke-miterlimit="10" stroke-width="1"/>
    <path id="Trazado_1370552" data-name="Trazado 1370552" d="M3.943,52.894c-1.9,2.32-2.176,5.85-.748,9.7a18.18,18.18,0,0,0,7.8,9.278l82.66,47.72c3.516,2.032,6.366,1.941,7.822-.257s1.2-6.019-.7-10.535L60.147,11.955c-1.816-4.3-4.566-7.775-7.567-9.508S46.832,1.013,45,3.208Zm7.066,13.235C7.562,64.138,6.28,60.672,8.14,58.423L49.2,8.74a2.45,2.45,0,0,1,3.372-.545,9.131,9.131,0,0,1,3.361,4.433l40.627,96.844c1.841,4.386.543,6.363-2.888,4.38Z" transform="translate(1264.194 3952.353)" fill="#636363"/>
  </g>
</svg>
