<svg id="Grupo_1210750" data-name="Grupo 1210750" xmlns="http://www.w3.org/2000/svg" xmlns:xlink="http://www.w3.org/1999/xlink" width="76.324" height="78.93" viewBox="0 0 76.324 78.93">
  <defs>
    <clipPath id="clip-path">
      <rect id="Rectángulo_564740" data-name="Rectángulo 564740" width="76.324" height="78.93" fill="none"/>
    </clipPath>
  </defs>
  <g id="Grupo_1207465" data-name="Grupo 1207465" transform="translate(0 0)" clip-path="url(#clip-path)">
    <path id="Trazado_1281393" data-name="Trazado 1281393" d="M20.054,2.509c-.694-.4-1.271-.072-1.275.729L18.71,29.362a2.782,2.782,0,0,0,1.269,2.187l41.17,23.777c.7.4,1.277.08,1.28-.721L62.5,28.478a2.8,2.8,0,0,0-1.266-2.2Z" transform="translate(10.606 1.325)" fill="#83cff2"/>
    <path id="Trazado_1281394" data-name="Trazado 1281394" d="M.006,36.744a.373.373,0,0,0,.011.092.578.578,0,0,0,.009.086.706.706,0,0,0,.014.083c.009.03.016.056.024.088s.02.045.034.071a.329.329,0,0,0,.041.094l.039.067a.931.931,0,0,0,.066.1c.016.022.036.041.053.063.031.044.069.081.108.127.024.019.039.038.064.06a.9.9,0,0,0,.08.067.513.513,0,0,0,.091.069.666.666,0,0,0,.092.067,1.742,1.742,0,0,0,.149.1l16.175,9.335,0-.973,3.566-2.078-5.155-3v-.384l-.337.2L8.126,37.006l.006-2.446,3.278-1.9.758.439,0-.874,1.1-.635,2.176-1.263,3.8-2.2.95.548,0-1.1,3.283-1.9.735.426v-.849l3.279-1.9,3.4,1.974,0,.751.653-.374,3.392,1.971v.747l.652-.374,3.4,1.973,0,.751.653-.376,3.4,1.976,0,.752.652-.378,3.4,1.973v.749l.647-.373,3.4,1.973v.747l.646-.374,3.4,1.976,0,.751.646-.374,3.4,1.97v.752l.642-.374,3.406,1.971-.006,2.446-1.905,1.1.813.472v-.852l3.281-1.894,3.394,1.971-.006,2.447-3.273,1.9-.738-.428,0,.854-3.276,1.893L60.81,53.6v.851l-3.287,1.9-.729-.425,0,.851-3.284,1.9-.751-.439,0,.873L49.477,61l-7.2-4.18v-.487l-.418.243L36.539,53.5v-.563l-.481.28L34.117,52.09l-.006.939L30.545,55.1l13.223,7.634a3.552,3.552,0,0,0,.414.2c.047.017.088.033.127.045.1.034.2.063.3.088s.177.05.268.069c.127.025.257.05.387.066a.61.61,0,0,0,.074.006,4.467,4.467,0,0,0,.5.031l.081,0c.165,0,.329-.013.492-.027a.351.351,0,0,1,.081-.009c.158-.019.32-.047.473-.08.031-.009.064-.014.089-.023.149-.038.293-.08.434-.13a.348.348,0,0,0,.047-.017,3.486,3.486,0,0,0,.456-.216L72.659,48.4a1.478,1.478,0,0,0,.866-1.213c0,.816,0,1.631-.009,2.444a1.475,1.475,0,0,1-.866,1.214L47.982,65.182a2.879,2.879,0,0,1-.448.213l-.008,0c-.017.008-.034.011-.052.017a2.225,2.225,0,0,1-.3.1.716.716,0,0,1-.127.031.884.884,0,0,1-.092.024c-.033.009-.06.016-.091.022a2.747,2.747,0,0,1-.295.049.577.577,0,0,1-.091.011l-.071.008-.132.014c-.1.008-.2.011-.291.013h-.078c-.024,0-.052,0-.08,0-.045,0-.1,0-.147,0a2.5,2.5,0,0,1-.327-.022l-.028,0a.61.61,0,0,1-.075-.008c-.088-.011-.185-.019-.276-.038-.034-.006-.072-.024-.1-.03a2.237,2.237,0,0,1-.265-.063c-.052-.016-.11-.02-.166-.038s-.089-.036-.136-.053-.078-.03-.121-.047a2.954,2.954,0,0,1-.421-.2L.874,40.423l-.1-.06a.314.314,0,0,0-.047-.036,1.077,1.077,0,0,1-.1-.067c-.031-.024-.06-.045-.091-.074s-.05-.041-.074-.061-.03-.02-.038-.03a.324.324,0,0,1-.03-.039c-.038-.039-.078-.085-.114-.124A.3.3,0,0,0,.257,39.9a.139.139,0,0,1-.016-.025c-.027-.038-.05-.071-.071-.1l-.031-.05L.13,39.7c-.017-.036-.028-.066-.042-.1a.444.444,0,0,0-.028-.049l0-.017c-.006-.03-.016-.063-.022-.094a.186.186,0,0,1-.013-.063l0-.013a.356.356,0,0,1-.011-.092c0-.02-.006-.044-.006-.066v-.019c0-.816.006-1.63.006-2.447" transform="translate(0 13.247)" fill="#d1dce6"/>
    <path id="Trazado_1281395" data-name="Trazado 1281395" d="M.866,36.5l24.67-14.334a4.657,4.657,0,0,1,4.224,0L72.645,46.921a1.3,1.3,0,0,1,.013,2.449L47.988,63.706a4.659,4.659,0,0,1-4.223,0L.88,38.946A1.3,1.3,0,0,1,.866,36.5" transform="translate(0.002 12.278)" fill="#fff"/>
    <path id="Trazado_1281396" data-name="Trazado 1281396" d="M19.834,26.976l-3.281,1.891,3.4,1.976,3.276-1.9Z" transform="translate(9.383 15.292)" fill="#0c2f4b"/>
    <path id="Trazado_1281397" data-name="Trazado 1281397" d="M16.5,28.006l-3.287,1.9,3.4,1.971,3.279-1.9Z" transform="translate(7.489 15.876)" fill="#0c2f4b"/>
    <path id="Trazado_1281398" data-name="Trazado 1281398" d="M14.844,26.411l-3.8,2.2L8.867,29.869l-1.1.635,5.733,3.33,3.283-1.9-1.766-1.023,3.8-2.2Z" transform="translate(4.404 14.972)" fill="#0c2f4b"/>
    <path id="Trazado_1281399" data-name="Trazado 1281399" d="M18.934,29.42l-3.281,1.9,3.4,1.976,3.283-1.9Z" transform="translate(8.873 16.677)" fill="#0c2f4b"/>
    <path id="Trazado_1281400" data-name="Trazado 1281400" d="M8.469,29.3,5.189,31.2,12.2,35.267l3.287-1.9Z" transform="translate(2.942 16.61)" fill="#0c2f4b"/>
    <path id="Trazado_1281401" data-name="Trazado 1281401" d="M13.16,32.021l-3.284,1.9L15.186,37,18.472,35.1Z" transform="translate(5.598 18.152)" fill="#0c2f4b"/>
    <path id="Trazado_1281402" data-name="Trazado 1281402" d="M19.84,32.918l-3.278,1.893,3.392,1.977,3.283-1.9Z" transform="translate(9.389 18.66)" fill="#0c2f4b"/>
    <path id="Trazado_1281403" data-name="Trazado 1281403" d="M18.735,23.368l-3.279,1.9,3.4,1.973,3.279-1.894Z" transform="translate(8.761 13.247)" fill="#0c2f4b"/>
    <path id="Trazado_1281404" data-name="Trazado 1281404" d="M21.32,24.868l-3.283,1.894,3.4,1.976,3.278-1.9Z" transform="translate(10.225 14.097)" fill="#0c2f4b"/>
    <path id="Trazado_1281405" data-name="Trazado 1281405" d="M16.175,24.849l-3.284,1.9L18.161,29.8l3.279-1.9Z" transform="translate(7.308 14.086)" fill="#0c2f4b"/>
    <path id="Trazado_1281406" data-name="Trazado 1281406" d="M23.9,26.364l-3.283,1.9,3.4,1.971,3.284-1.9Z" transform="translate(11.688 14.945)" fill="#0c2f4b"/>
    <path id="Trazado_1281407" data-name="Trazado 1281407" d="M26.487,27.862l-3.286,1.9,3.4,1.97,3.283-1.893Z" transform="translate(13.152 15.794)" fill="#0c2f4b"/>
    <path id="Trazado_1281408" data-name="Trazado 1281408" d="M22.3,28.405l-3.279,1.9,3.4,1.97L25.7,30.378Z" transform="translate(10.783 16.102)" fill="#0c2f4b"/>
    <path id="Trazado_1281409" data-name="Trazado 1281409" d="M29.064,29.362l-3.278,1.9,3.4,1.97,3.275-1.894Z" transform="translate(14.617 16.645)" fill="#0c2f4b"/>
    <path id="Trazado_1281410" data-name="Trazado 1281410" d="M24.773,29.838l-3.283,1.9,3.4,1.973,3.281-1.9Z" transform="translate(12.182 16.914)" fill="#0c2f4b"/>
    <path id="Trazado_1281411" data-name="Trazado 1281411" d="M14.988,30.1,11.706,32l3.4,1.973,3.284-1.9Z" transform="translate(6.636 17.062)" fill="#0c2f4b"/>
    <path id="Trazado_1281412" data-name="Trazado 1281412" d="M31.644,30.861l-3.278,1.9,3.4,1.971,3.283-1.9Z" transform="translate(16.08 17.494)" fill="#0c2f4b"/>
    <path id="Trazado_1281413" data-name="Trazado 1281413" d="M21.375,30.838,18.1,32.731l3.392,1.977,3.286-1.9Z" transform="translate(10.258 17.481)" fill="#0c2f4b"/>
    <path id="Trazado_1281414" data-name="Trazado 1281414" d="M27.239,31.272l-3.283,1.9,3.4,1.97,3.283-1.894Z" transform="translate(13.58 17.727)" fill="#0c2f4b"/>
    <path id="Trazado_1281415" data-name="Trazado 1281415" d="M17.427,31.517l-3.279,1.894,3.394,1.974,3.29-1.894Z" transform="translate(8.02 17.866)" fill="#0c2f4b"/>
    <path id="Trazado_1281416" data-name="Trazado 1281416" d="M23.817,32.253l-3.287,1.9,3.4,1.973,3.287-1.9Z" transform="translate(11.638 18.283)" fill="#0c2f4b"/>
    <path id="Trazado_1281417" data-name="Trazado 1281417" d="M34.229,32.358l-3.281,1.9,3.4,1.973,3.284-1.9Z" transform="translate(17.544 18.343)" fill="#0c2f4b"/>
    <path id="Trazado_1281418" data-name="Trazado 1281418" d="M29.705,32.7l-3.279,1.9,3.4,1.974,3.284-1.9Z" transform="translate(14.98 18.539)" fill="#0c2f4b"/>
    <path id="Trazado_1281419" data-name="Trazado 1281419" d="M26.249,33.67l-3.276,1.9,3.4,1.973,3.283-1.893Z" transform="translate(13.022 19.087)" fill="#0c2f4b"/>
    <path id="Trazado_1281420" data-name="Trazado 1281420" d="M36.808,33.859l-3.276,1.894,3.4,1.974,3.281-1.9Z" transform="translate(19.008 19.194)" fill="#0c2f4b"/>
    <path id="Trazado_1281421" data-name="Trazado 1281421" d="M32.177,34.139,28.9,36.031l3.4,1.97,3.276-1.888Z" transform="translate(16.381 19.352)" fill="#0c2f4b"/>
    <path id="Trazado_1281422" data-name="Trazado 1281422" d="M22.36,34.381l-3.279,1.894,3.4,1.971,3.279-1.893Z" transform="translate(10.816 19.49)" fill="#0c2f4b"/>
    <path id="Trazado_1281423" data-name="Trazado 1281423" d="M28.694,35.083l-3.281,1.9,3.394,1.971,3.286-1.893Z" transform="translate(14.406 19.888)" fill="#0c2f4b"/>
    <path id="Trazado_1281424" data-name="Trazado 1281424" d="M39.389,35.357l-3.278,1.9,3.4,1.971,3.287-1.9Z" transform="translate(20.47 20.043)" fill="#0c2f4b"/>
    <path id="Trazado_1281425" data-name="Trazado 1281425" d="M34.641,35.568l-3.278,1.9,3.4,1.973,3.284-1.894Z" transform="translate(17.779 20.163)" fill="#0c2f4b"/>
    <path id="Trazado_1281426" data-name="Trazado 1281426" d="M24.776,35.779l-3.284,1.9,3.4,1.973,3.284-1.9Z" transform="translate(12.183 20.282)" fill="#0c2f4b"/>
    <path id="Trazado_1281427" data-name="Trazado 1281427" d="M31.131,36.5l-3.279,1.9,3.4,1.973,3.283-1.9Z" transform="translate(15.788 20.691)" fill="#0c2f4b"/>
    <path id="Trazado_1281428" data-name="Trazado 1281428" d="M27.213,37.2l-3.281,1.9,3.4,1.968,3.279-1.893Z" transform="translate(13.567 21.086)" fill="#0c2f4b"/>
    <path id="Trazado_1281429" data-name="Trazado 1281429" d="M42.957,37.426l-3.281,1.893,3.4,1.976,3.272-1.9Z" transform="translate(22.491 21.216)" fill="#0c2f4b"/>
    <path id="Trazado_1281430" data-name="Trazado 1281430" d="M33.571,37.919l-3.278,1.894,3.4,1.971,3.279-1.894Z" transform="translate(17.172 21.495)" fill="#0c2f4b"/>
    <path id="Trazado_1281431" data-name="Trazado 1281431" d="M16.771,34.119l-3.284,1.893,14.931,8.666,3.278-1.9Z" transform="translate(7.645 19.341)" fill="#0c2f4b"/>
    <path id="Trazado_1281432" data-name="Trazado 1281432" d="M29.625,38.6l-3.276,1.893,3.4,1.977,3.276-1.9Z" transform="translate(14.936 21.881)" fill="#0c2f4b"/>
    <path id="Trazado_1281433" data-name="Trazado 1281433" d="M37.219,37.065l-3.276,1.9,8.369,4.857,3.278-1.894Z" transform="translate(19.241 21.011)" fill="#0c2f4b"/>
    <path id="Trazado_1281434" data-name="Trazado 1281434" d="M15.718,36.235l-4.831,2.811L23.108,46.1l4.84-2.813Z" transform="translate(6.172 20.541)" fill="#0c2f4b"/>
    <path id="Trazado_1281435" data-name="Trazado 1281435" d="M36.023,39.339l-3.283,1.9,6.23,3.613,3.286-1.9Z" transform="translate(18.56 22.3)" fill="#0c2f4b"/>
    <path id="Trazado_1281436" data-name="Trazado 1281436" d="M26.606,39.828l-3.281,1.894,5.307,3.084,3.283-1.9Z" transform="translate(13.222 22.577)" fill="#0c2f4b"/>
    <path id="Trazado_1281437" data-name="Trazado 1281437" d="M32.092,40.027l-3.278,1.9,8.369,4.854,3.283-1.894Z" transform="translate(16.334 22.69)" fill="#0c2f4b"/>
    <path id="Trazado_1281438" data-name="Trazado 1281438" d="M30.265,41.95l-3.281,1.893,7.2,4.184,3.279-1.9Z" transform="translate(15.297 23.78)" fill="#0c2f4b"/>
    <path id="Trazado_1281439" data-name="Trazado 1281439" d="M18.293.889a.522.522,0,0,0,.075-.044c.205-.116.407-.232.606-.351s.4-.23.6-.349a1.491,1.491,0,0,1,1.507.144L63.966,25.045A4.67,4.67,0,0,1,66.081,28.7L66,57.235a1.461,1.461,0,0,1-.617,1.351c-.506.3-1.006.592-1.51.882a1.479,1.479,0,0,0,.617-1.358l.083-28.525a4.667,4.667,0,0,0-2.117-3.66L19.573,1.167a1.479,1.479,0,0,0-1.5-.144c.074-.044.149-.088.224-.135" transform="translate(10.243 0)" fill="#d1dce6"/>
    <path id="Trazado_1281440" data-name="Trazado 1281440" d="M62.708,25.607a4.67,4.67,0,0,1,2.117,3.66L64.74,57.792c0,1.344-.956,1.89-2.122,1.217L19.736,34.248a4.668,4.668,0,0,1-2.115-3.662L17.7,2.06c0-1.344.959-1.883,2.128-1.21ZM19.327,30.37A2.78,2.78,0,0,0,20.6,32.559L61.766,56.335c.7.4,1.277.08,1.28-.721l.071-26.126a2.806,2.806,0,0,0-1.264-2.2L20.672,3.517c-.694-.4-1.269-.072-1.274.729Z" transform="translate(9.989 0.317)" fill="#f8f9fc"/>
    <path id="Trazado_1281441" data-name="Trazado 1281441" d="M51.609,22.318,23.251,5.948V31.434L51.609,47.8Z" transform="translate(13.18 3.371)" fill="#fff"/>
    <path id="Trazado_1281442" data-name="Trazado 1281442" d="M48.462,21.92,24.725,8.218V29.259l23.737,13.7Z" transform="translate(14.016 4.658)" fill="#fc4659"/>
    <path id="Trazado_1281443" data-name="Trazado 1281443" d="M30.362,14.661l8.507,10.586-8.507.758Z" transform="translate(17.212 8.311)" fill="#fff"/>
  </g>
</svg>
