<svg xmlns="http://www.w3.org/2000/svg" xmlns:xlink="http://www.w3.org/1999/xlink" width="115.465" height="113.126" viewBox="0 0 115.465 113.126">
  <defs>
    <clipPath id="clip-path">
      <rect id="Rectángulo_739141" data-name="Rectángulo 739141" width="62.816" height="98.399" fill="none"/>
    </clipPath>
    <clipPath id="clip-path-2">
      <rect id="Rectángulo_739140" data-name="Rectángulo 739140" width="62.817" height="98.4" fill="none"/>
    </clipPath>
    <clipPath id="clip-path-3">
      <rect id="Rectángulo_739138" data-name="Rectángulo 739138" width="17.573" height="22.171" fill="none"/>
    </clipPath>
    <clipPath id="clip-path-4">
      <rect id="Rectángulo_739139" data-name="Rectángulo 739139" width="6.846" height="7.88" fill="none"/>
    </clipPath>
    <clipPath id="clip-path-5">
      <rect id="Rectángulo_739160" data-name="Rectángulo 739160" width="73.465" height="63.927" fill="none"/>
    </clipPath>
    <clipPath id="clip-path-6">
      <rect id="Rectángulo_739148" data-name="Rectángulo 739148" width="15.905" height="16.383" fill="none"/>
    </clipPath>
    <clipPath id="clip-path-8">
      <rect id="Rectángulo_739142" data-name="Rectángulo 739142" width="10.499" height="12.781" fill="none"/>
    </clipPath>
    <clipPath id="clip-path-9">
      <rect id="Rectángulo_739143" data-name="Rectángulo 739143" width="6.702" height="6.838" fill="none"/>
    </clipPath>
    <clipPath id="clip-path-10">
      <rect id="Rectángulo_739144" data-name="Rectángulo 739144" width="14.603" height="12.721" fill="none"/>
    </clipPath>
    <clipPath id="clip-path-11">
      <rect id="Rectángulo_739145" data-name="Rectángulo 739145" width="14.608" height="15.957" fill="none"/>
    </clipPath>
    <clipPath id="clip-path-13">
      <rect id="Rectángulo_739152" data-name="Rectángulo 739152" width="36.763" height="63.926" fill="none"/>
    </clipPath>
    <clipPath id="clip-path-16">
      <rect id="Rectángulo_739150" data-name="Rectángulo 739150" width="36.673" height="21.242" fill="none"/>
    </clipPath>
    <clipPath id="clip-path-17">
      <rect id="Rectángulo_739159" data-name="Rectángulo 739159" width="14.346" height="14.785" fill="none"/>
    </clipPath>
    <clipPath id="clip-path-19">
      <rect id="Rectángulo_739153" data-name="Rectángulo 739153" width="14.311" height="8.289" fill="none"/>
    </clipPath>
    <clipPath id="clip-path-20">
      <rect id="Rectángulo_739154" data-name="Rectángulo 739154" width="2.027" height="9.354" fill="none"/>
    </clipPath>
    <clipPath id="clip-path-21">
      <rect id="Rectángulo_739155" data-name="Rectángulo 739155" width="12.354" height="10.661" fill="none"/>
    </clipPath>
    <clipPath id="clip-path-22">
      <rect id="Rectángulo_739156" data-name="Rectángulo 739156" width="14.346" height="10.661" fill="none"/>
    </clipPath>
  </defs>
  <g id="Grupo_1211243" data-name="Grupo 1211243" transform="translate(-1259.711 -6978)">
    <g id="Grupo_1211186" data-name="Grupo 1211186" transform="translate(1259.711 6978)">
      <g id="Grupo_1211185" data-name="Grupo 1211185" clip-path="url(#clip-path)">
        <path id="Trazado_1370703" data-name="Trazado 1370703" d="M22.753,48.8H12.513l.044-6.423H22.795Z" transform="translate(13.771 46.635)" fill="#081929"/>
        <g id="Grupo_1211184" data-name="Grupo 1211184" transform="translate(0 -0.001)">
          <g id="Grupo_1211183" data-name="Grupo 1211183" clip-path="url(#clip-path-2)">
            <path id="Trazado_1370704" data-name="Trazado 1370704" d="M21.327,44.927c1.958,1.178,1.89,3.056-.149,4.195a7.982,7.982,0,0,1-7.241-.074c-1.958-1.178-1.89-3.056.151-4.195a7.971,7.971,0,0,1,7.238.074" transform="translate(13.77 48.447)" fill="#081929"/>
            <path id="Trazado_1370705" data-name="Trazado 1370705" d="M32.322,40.553c5.323,3.2,5.14,8.308-.408,11.4s-14.361,3.006-19.684-.2-5.14-8.308.408-11.4,14.361-3,19.684.2" transform="translate(9.195 41.921)" fill="#134663"/>
            <path id="Trazado_1370706" data-name="Trazado 1370706" d="M12.429,52.371A11.329,11.329,0,0,1,9.974,50.43a9.439,9.439,0,0,1-.752-.91,7.526,7.526,0,0,1-.735-1.262A6.655,6.655,0,0,1,8.06,47a6.117,6.117,0,0,1-.151-1.256,6.589,6.589,0,0,1,.059-.956,6.294,6.294,0,0,1,.315-1.258,7.379,7.379,0,0,1,1.227-2.143,10.171,10.171,0,0,1,1.947-1.834,16.392,16.392,0,0,1,6.218-2.7,23.539,23.539,0,0,1,4.3-.546c.471-.017,1.225-.027,2.14.021.865.048,1.227.095,2.1.208.01,0,.924.122,2.025.391a18.953,18.953,0,0,1,1.93.571,17.168,17.168,0,0,1,1.815.763c.344.162.786.416,1.115.607a.97.97,0,0,0-.292-.111,2.394,2.394,0,0,0-1.563.372c-4.5-2.705-11.939-2.781-16.626-.168s-4.84,6.925-.344,9.631,11.939,2.781,16.626.168,4.84-6.925.344-9.631A2.394,2.394,0,0,1,32.8,38.76a.97.97,0,0,1,.292.111c.328.21.771.485,1.08.723a10.966,10.966,0,0,1,1.183,1.021,9.516,9.516,0,0,1,.815.928,7.758,7.758,0,0,1,.79,1.283,6.446,6.446,0,0,1,.632,2.258,5.722,5.722,0,0,1-.006,1.08,6,6,0,0,1-.252,1.254,6.814,6.814,0,0,1-.529,1.252,8.119,8.119,0,0,1-.664,1.019,10.145,10.145,0,0,1-1.914,1.878A14.255,14.255,0,0,1,31.216,53.3a18.721,18.721,0,0,1-3.367,1.086c-5.35,1.212-11.4.422-15.42-2.014" transform="translate(8.702 39.946)" fill="#02567d"/>
            <path id="Trazado_1370707" data-name="Trazado 1370707" d="M12.423,50.459A11.311,11.311,0,0,1,9.97,48.52a9,9,0,0,1-.75-.907,7.347,7.347,0,0,1-.737-1.262,6.581,6.581,0,0,1-.429-1.26A6.27,6.27,0,0,1,7.9,43.83a6.531,6.531,0,0,1,.061-.949,6.313,6.313,0,0,1,.313-1.256,6.947,6.947,0,0,1,.6-1.256,8.078,8.078,0,0,1,.739-1.029,10.991,10.991,0,0,1,2.126-1.9,15.156,15.156,0,0,1,2.554-1.4c.378-.16.884-.368,1.275-.494a18.554,18.554,0,0,1,2.1-.592,23.332,23.332,0,0,1,4.3-.548c.172-.006,1.088-.034,2.14.023.865.046,1.227.092,2.1.206.011,0,.924.124,2.025.391a19.455,19.455,0,0,1,1.928.571,16.807,16.807,0,0,1,1.815.763c.347.162.788.416,1.117.607a.97.97,0,0,0-.292-.111,2.373,2.373,0,0,0-1.561.372c-4.5-2.705-11.939-2.781-16.626-.168s-4.842,6.923-.344,9.629,11.939,2.783,16.626.17,4.84-6.925.344-9.631A2.373,2.373,0,0,1,32.8,36.85a.97.97,0,0,1,.292.111c.328.21.769.485,1.078.723a10.9,10.9,0,0,1,1.191,1.027,7.946,7.946,0,0,1,1.6,2.208,6.456,6.456,0,0,1,.63,2.258,5.935,5.935,0,0,1,0,1.075,6.14,6.14,0,0,1-.252,1.256,7.007,7.007,0,0,1-.534,1.254,7.964,7.964,0,0,1-.664,1.019,10.073,10.073,0,0,1-1.914,1.876,14.125,14.125,0,0,1-3.008,1.729,18.7,18.7,0,0,1-3.371,1.088c-5.35,1.212-11.4.422-15.42-2.014" transform="translate(8.696 37.846)" fill="#02567d"/>
            <path id="Trazado_1370708" data-name="Trazado 1370708" d="M12.418,48.554a11.312,11.312,0,0,1-2.453-1.939,9.56,9.56,0,0,1-.752-.907,7.465,7.465,0,0,1-.735-1.262,6.581,6.581,0,0,1-.429-1.26,6.253,6.253,0,0,1-.151-1.26,6.5,6.5,0,0,1,.059-.949,6.24,6.24,0,0,1,.315-1.254,6.976,6.976,0,0,1,.6-1.254,7.928,7.928,0,0,1,.735-1.029,10.915,10.915,0,0,1,2.122-1.9A15.076,15.076,0,0,1,14.3,34.127a19.011,19.011,0,0,1,3.369-1.088,23.516,23.516,0,0,1,4.3-.546c.473-.017,1.227-.027,2.14.023.865.046,1.227.092,2.1.206.011,0,.924.122,2.025.391a18.39,18.39,0,0,1,1.928.571,16.561,16.561,0,0,1,1.815.763c.344.162.786.416,1.117.607a.97.97,0,0,0-.292-.111,2.381,2.381,0,0,0-1.563.372c-4.5-2.708-11.937-2.783-16.624-.17s-4.842,6.925-.344,9.631,11.939,2.781,16.624.168,4.842-6.923.344-9.629a2.381,2.381,0,0,1,1.563-.372.97.97,0,0,1,.292.111c.328.208.769.483,1.075.723a10.67,10.67,0,0,1,1.2,1.036,7.939,7.939,0,0,1,1.594,2.206,6.483,6.483,0,0,1,.628,2.254,5.929,5.929,0,0,1,0,1.075,6.14,6.14,0,0,1-.252,1.256,7.275,7.275,0,0,1-1.2,2.273,10.073,10.073,0,0,1-1.914,1.876A14.126,14.126,0,0,1,31.21,49.48a18.7,18.7,0,0,1-3.371,1.088c-5.35,1.212-11.4.422-15.42-2.014" transform="translate(8.69 35.746)" fill="#02567d"/>
            <path id="Trazado_1370709" data-name="Trazado 1370709" d="M12.413,46.645A11.311,11.311,0,0,1,9.96,44.706a9.561,9.561,0,0,1-.752-.907,7.465,7.465,0,0,1-.735-1.262,6.581,6.581,0,0,1-.429-1.26,6.253,6.253,0,0,1-.151-1.26,6.454,6.454,0,0,1,.059-.947,6.227,6.227,0,0,1,.315-1.256,6.828,6.828,0,0,1,.6-1.254A7.928,7.928,0,0,1,9.6,35.529a10.915,10.915,0,0,1,2.122-1.9,15.075,15.075,0,0,1,2.567-1.407A19.01,19.01,0,0,1,17.66,31.13a23.515,23.515,0,0,1,4.3-.546c.473-.017,1.227-.027,2.14.023.865.046,1.227.092,2.1.206.008,0,.924.122,2.025.391a18.388,18.388,0,0,1,1.928.571,16.566,16.566,0,0,1,1.815.763c.344.162.786.416,1.115.607a.936.936,0,0,0-.29-.111,2.381,2.381,0,0,0-1.563.372c-4.5-2.708-11.937-2.783-16.624-.17s-4.842,6.925-.344,9.631,11.939,2.781,16.624.168,4.842-6.923.344-9.629a2.381,2.381,0,0,1,1.563-.372.936.936,0,0,1,.29.111,12.6,12.6,0,0,1,1.89,1.388,8.911,8.911,0,0,1,1.466,1.676,6.731,6.731,0,0,1,1.1,2.773,6.167,6.167,0,0,1-.342,3.092,8.129,8.129,0,0,1-1.876,2.813,10.945,10.945,0,0,1-1.1.956c-.319.248-.773.54-1.113.756a16.28,16.28,0,0,1-2.327,1.153A21.011,21.011,0,0,1,24.6,49.145a23.071,23.071,0,0,1-3.208.038,22.293,22.293,0,0,1-3.176-.389c-.567-.118-1.315-.3-1.874-.456-.3-.082-.706-.214-1-.323a16.677,16.677,0,0,1-2.932-1.37" transform="translate(8.685 33.645)" fill="#02567d"/>
            <path id="Trazado_1370710" data-name="Trazado 1370710" d="M31.913,44.952c-5.548,3.094-14.361,3-19.684-.2-2.3-1.382-3.565-3.117-3.823-4.892-.321,2.224.943,4.514,3.823,6.247,5.323,3.205,14.137,3.294,19.684.2,3.155-1.758,4.573-4.167,4.23-6.507-.271,1.888-1.685,3.733-4.23,5.153" transform="translate(9.197 43.801)" fill="#134663"/>
            <path id="Trazado_1370711" data-name="Trazado 1370711" d="M31.913,43c-5.548,3.094-14.361,3-19.684-.2-2.3-1.382-3.565-3.117-3.823-4.894-.321,2.227.943,4.516,3.823,6.249,5.323,3.205,14.137,3.294,19.684.2,3.155-1.758,4.573-4.167,4.23-6.507-.271,1.888-1.685,3.733-4.23,5.153" transform="translate(9.197 41.656)" fill="#134663"/>
            <path id="Trazado_1370712" data-name="Trazado 1370712" d="M31.913,41.132c-5.548,3.094-14.361,3-19.684-.2-2.3-1.382-3.565-3.117-3.823-4.892-.321,2.224.943,4.514,3.823,6.247,5.323,3.205,14.137,3.294,19.684.2,3.155-1.758,4.573-4.167,4.23-6.507-.271,1.888-1.685,3.733-4.23,5.153" transform="translate(9.197 39.597)" fill="#134663"/>
            <path id="Trazado_1370713" data-name="Trazado 1370713" d="M31.913,39.277c-2.716,1.514-6.218,1.941-9.707,1.939-3.638,0-7.259-.5-9.978-2.138-2.3-1.382-3.565-3.117-3.823-4.894-.321,2.227.943,4.516,3.823,6.249,5.323,3.205,14.137,3.294,19.684.2,3.155-1.758,4.573-4.167,4.23-6.507-.271,1.888-1.685,3.733-4.23,5.153" transform="translate(9.197 37.556)" fill="#134663"/>
            <path id="Trazado_1370714" data-name="Trazado 1370714" d="M32.959,32.145c5.522,3.331,5.333,8.642-.422,11.86s-14.9,3.124-20.421-.208-5.331-8.642.424-11.858,14.9-3.126,20.419.206" transform="translate(8.909 32.56)" fill="#ffbf00"/>
            <path id="Trazado_1370715" data-name="Trazado 1370715" d="M62.571,28.693C61.178,11.816,48.5,0,31.516,0h-.223C14.311,0,1.63,11.816.237,28.693c-.685,8.272-.786,15.618,12.813,31.571,2.842,3.336,3.68,6.8,4,10.732.172,2.145,10.534,3.542,14.4,3.825,3.869-.284,14.229-1.68,14.4-3.825.315-3.936,1.155-7.4,4-10.732,13.6-15.954,13.408-23.3,12.723-31.571" transform="translate(0 0.001)" fill="#ffbf00"/>
            <g id="Grupo_1211179" data-name="Grupo 1211179" transform="translate(4.541 14.095)" opacity="0.4" style="mix-blend-mode: screen;isolation: isolate">
              <g id="Grupo_1211178" data-name="Grupo 1211178">
                <g id="Grupo_1211177" data-name="Grupo 1211177" clip-path="url(#clip-path-3)">
                  <path id="Trazado_1370716" data-name="Trazado 1370716" d="M18.951,20.494c-2,5.936-7.207,9.541-11.626,8.051S.945,21.036,2.947,15.1s7.207-9.541,11.626-8.051,6.379,7.512,4.378,13.448" transform="translate(-2.161 -6.71)" fill="#fff"/>
                </g>
              </g>
            </g>
            <g id="Grupo_1211182" data-name="Grupo 1211182" transform="translate(21.262 9.92)" opacity="0.4" style="mix-blend-mode: screen;isolation: isolate">
              <g id="Grupo_1211181" data-name="Grupo 1211181">
                <g id="Grupo_1211180" data-name="Grupo 1211180" clip-path="url(#clip-path-4)">
                  <path id="Trazado_1370717" data-name="Trazado 1370717" d="M16.232,7.083c1.172,1.993.918,4.317-.565,5.188s-3.636-.038-4.808-2.029-.918-4.317.565-5.188,3.636.036,4.808,2.029" transform="translate(-10.123 -4.722)" fill="#fff"/>
                </g>
              </g>
            </g>
            <path id="Trazado_1370718" data-name="Trazado 1370718" d="M35.968,15.3l-.092.063v-.143a5.545,5.545,0,0,0-1.935,2.109,3.625,3.625,0,0,1-1.292,1.454,1.116,1.116,0,0,1-1.286.034,1.787,1.787,0,0,0-1.949.134,5.562,5.562,0,0,0-1.935,2.109A3.608,3.608,0,0,1,26.2,22.507a1.116,1.116,0,0,1-1.286.034,1.782,1.782,0,0,0-1.941.128,5.543,5.543,0,0,0-1.935,2.109,3.58,3.58,0,0,1-1.283,1.449,1.119,1.119,0,0,1-1.288.034,1.779,1.779,0,0,0-1.941.13A5.5,5.5,0,0,0,14.589,28.5a3.6,3.6,0,0,1-1.281,1.447,1.109,1.109,0,0,1-1.288.036,1.787,1.787,0,0,0-1.949.134l0,.122A1.264,1.264,0,0,0,9.921,31.5l9.394,25.568.027.059v5.291h1.046v-5.7h0a1.585,1.585,0,0,0-.092-.468L11.037,31.064a1.2,1.2,0,0,1,.323.13,1.79,1.79,0,0,0,1.949-.132,5.543,5.543,0,0,0,1.935-2.109A3.547,3.547,0,0,1,16.527,27.5a1.124,1.124,0,0,1,1.286-.034,1.779,1.779,0,0,0,1.941-.13,5.552,5.552,0,0,0,1.937-2.109,3.568,3.568,0,0,1,1.281-1.447,1.116,1.116,0,0,1,1.288-.036A1.782,1.782,0,0,0,26.2,23.62a5.539,5.539,0,0,0,1.935-2.109,3.6,3.6,0,0,1,1.283-1.449,1.135,1.135,0,0,1,1.294-.04,1.774,1.774,0,0,0,1.941-.128A5.562,5.562,0,0,0,34.6,17.781a6.49,6.49,0,0,1,.468-.7L25.944,53a2.159,2.159,0,0,0-.08.754v8.663H26.91V52.727l.011-.038L36.14,16.375c.176-.685.1-1.172-.172-1.078" transform="translate(10.815 16.749)" fill="#134663"/>
          </g>
        </g>
      </g>
    </g>
    <g id="Grupo_1211242" data-name="Grupo 1211242" transform="translate(1301.711 7027.199)">
      <g id="Grupo_1211241" data-name="Grupo 1211241" transform="translate(0 0)" clip-path="url(#clip-path-5)">
        <path id="Trazado_1370719" data-name="Trazado 1370719" d="M15.275,11.993C14.941,3.817,20.691.32,28.112,4.181s13.709,13.62,14.043,21.8S36.738,37.65,29.315,33.789s-13.709-13.62-14.04-21.8" transform="translate(20.338 3.478)" fill="#154260"/>
        <path id="Trazado_1370720" data-name="Trazado 1370720" d="M38.92,3.077c-2.2,1.458-3.471,4.325-3.31,8.293L.014,34.922c-.163-3.97,1.108-6.835,3.308-8.293,7.936-5.258,27.665-18.3,35.6-23.553" transform="translate(0 4.101)" fill="#154260"/>
        <path id="Trazado_1370721" data-name="Trazado 1370721" d="M23.575,52.461c-2.333,1.547-5.708,1.507-9.529-.481C6.624,48.12.337,38.36.006,30.184L35.6,6.631c.331,8.176,6.618,17.936,14.04,21.8,3.819,1.987,7.2,2.027,9.529.481-7.936,5.258-27.665,18.3-35.6,23.553" transform="translate(0.008 8.837)" fill="#154260"/>
        <path id="Trazado_1370722" data-name="Trazado 1370722" d="M35.671,34.095c-.453-8.388-6.961-18.482-14.535-22.548-2.648-1.421-4.507-2.288-6.161-2.214L1.425,18.3c2.333-1.544,5.708-1.507,9.529.481,7.423,3.861,13.709,13.62,14.04,21.8.161,3.968-1.11,6.835-3.308,8.293L35.26,39.884c.585-1.348.553-3.154.411-5.79" transform="translate(1.899 12.433)" fill="#d9a500"/>
        <path id="Trazado_1370723" data-name="Trazado 1370723" d="M.014,22.09c-.331-8.176,5.416-11.673,12.839-7.812s13.707,13.62,14.04,21.8-5.416,11.673-12.839,7.812S.345,30.266.014,22.09" transform="translate(0 16.933)" fill="#edc137"/>
        <path id="Trazado_1370724" data-name="Trazado 1370724" d="M18.22,23.225a23.309,23.309,0,0,1,4.054,11.288c.112,2.762-.634,4.859-2.048,5.757-1.488.945-3.856.7-6.494-.672a23.651,23.651,0,0,1-8.4-8.02A23.338,23.338,0,0,1,1.271,20.291c-.112-2.76.634-4.859,2.05-5.757,1.488-.945,3.856-.7,6.494.672a23.692,23.692,0,0,1,8.4,8.02" transform="translate(1.68 18.614)" fill="#657272"/>
        <g id="Grupo_1211207" data-name="Grupo 1211207" transform="translate(2.989 39.423)">
          <g id="Grupo_1211206" data-name="Grupo 1211206">
            <g id="Grupo_1211205" data-name="Grupo 1211205" clip-path="url(#clip-path-6)">
              <g id="Grupo_1211204" data-name="Grupo 1211204" style="isolation: isolate">
                <g id="Grupo_1211203" data-name="Grupo 1211203">
                  <g id="Grupo_1211202" data-name="Grupo 1211202" clip-path="url(#clip-path-6)">
                    <g id="Grupo_1211189" data-name="Grupo 1211189" transform="translate(5.406)">
                      <g id="Grupo_1211188" data-name="Grupo 1211188">
                        <g id="Grupo_1211187" data-name="Grupo 1211187" clip-path="url(#clip-path-8)">
                          <path id="Trazado_1370725" data-name="Trazado 1370725" d="M3.6,20.562c-.131-3.191,2.113-4.556,5.011-3.049a11.146,11.146,0,0,1,5.477,8.507c.131,3.189-2.113,4.553-5.008,3.046a11.144,11.144,0,0,1-5.479-8.5" transform="translate(-3.599 -16.901)" fill="#154260"/>
                        </g>
                      </g>
                    </g>
                    <g id="Grupo_1211192" data-name="Grupo 1211192" transform="translate(0 0.426)">
                      <g id="Grupo_1211191" data-name="Grupo 1211191">
                        <g id="Grupo_1211190" data-name="Grupo 1211190" clip-path="url(#clip-path-9)">
                          <path id="Trazado_1370726" data-name="Trazado 1370726" d="M7.984,17.083a3.5,3.5,0,0,0-1.292,3.235l-5.4,3.6a3.507,3.507,0,0,1,1.292-3.235c3.1-2.05,2.309-1.549,5.4-3.6" transform="translate(-1.281 -17.083)" fill="#154260"/>
                        </g>
                      </g>
                    </g>
                    <g id="Grupo_1211195" data-name="Grupo 1211195" transform="translate(0.005 3.662)">
                      <g id="Grupo_1211194" data-name="Grupo 1211194">
                        <g id="Grupo_1211193" data-name="Grupo 1211193" clip-path="url(#clip-path-10)">
                          <path id="Trazado_1370727" data-name="Trazado 1370727" d="M10.482,30.765a3.63,3.63,0,0,1-3.718-.187,11.148,11.148,0,0,1-5.479-8.507l5.407-3.6a11.142,11.142,0,0,0,5.477,8.5,3.636,3.636,0,0,0,3.721.189c-3.1,2.05-2.312,1.549-5.407,3.6" transform="translate(-1.284 -18.47)" fill="#154260"/>
                        </g>
                      </g>
                    </g>
                    <g id="Grupo_1211198" data-name="Grupo 1211198" transform="translate(1.297)">
                      <g id="Grupo_1211197" data-name="Grupo 1211197">
                        <g id="Grupo_1211196" data-name="Grupo 1211196" clip-path="url(#clip-path-11)">
                          <path id="Trazado_1370728" data-name="Trazado 1370728" d="M15.149,29.255l-5.407,3.6a3.5,3.5,0,0,0,1.292-3.235,11.138,11.138,0,0,0-5.479-8.5,3.631,3.631,0,0,0-3.718-.189l5.407-3.6a3.631,3.631,0,0,1,3.718.189,11.142,11.142,0,0,1,5.477,8.5,3.5,3.5,0,0,1-1.29,3.235" transform="translate(-1.838 -16.9)" fill="#424b4b"/>
                        </g>
                      </g>
                    </g>
                    <g id="Grupo_1211201" data-name="Grupo 1211201" transform="translate(0 3.602)">
                      <g id="Grupo_1211200" data-name="Grupo 1211200">
                        <g id="Grupo_1211199" data-name="Grupo 1211199" clip-path="url(#clip-path-8)">
                          <path id="Trazado_1370729" data-name="Trazado 1370729" d="M1.287,22.106C1.156,18.915,3.4,17.551,6.3,19.057a11.146,11.146,0,0,1,5.477,8.5c.131,3.191-2.113,4.556-5.008,3.049a11.144,11.144,0,0,1-5.479-8.5" transform="translate(-1.281 -18.445)" fill="#657272"/>
                        </g>
                      </g>
                    </g>
                  </g>
                </g>
              </g>
            </g>
          </g>
        </g>
        <g id="Grupo_1211219" data-name="Grupo 1211219" transform="translate(36.702 0)">
          <g id="Grupo_1211218" data-name="Grupo 1211218" transform="translate(0 0)">
            <g id="Grupo_1211217" data-name="Grupo 1211217" clip-path="url(#clip-path-13)">
              <g id="Grupo_1211216" data-name="Grupo 1211216" style="isolation: isolate">
                <g id="Grupo_1211215" data-name="Grupo 1211215">
                  <g id="Grupo_1211214" data-name="Grupo 1211214" clip-path="url(#clip-path-13)">
                    <g id="Grupo_1211210" data-name="Grupo 1211210" transform="translate(0)">
                      <g id="Grupo_1211209" data-name="Grupo 1211209">
                        <g id="Grupo_1211208" data-name="Grupo 1211208" clip-path="url(#clip-path-13)">
                          <path id="Trazado_1370730" data-name="Trazado 1370730" d="M52.406,10.567c-.007-2.638-1.7-5.276-5.1-7.325C40.29-.977,28.683-1.094,21.374,2.981c-3.76,2.1-5.65,4.894-5.64,7.693.026,9.517.063,33.166.089,42.683,0-.04.009-.077.009-.117-.042,2.678,1.642,5.363,5.095,7.441,7.012,4.22,18.619,4.339,25.928.264,3.947-2.2,5.813-5.176,5.608-8.111.009.138.033.278.035.415-.028-9.517-.063-33.166-.091-42.683" transform="translate(-15.734 0)" fill="#f25b14"/>
                        </g>
                      </g>
                    </g>
                    <path id="Trazado_1370731" data-name="Trazado 1370731" d="M20.378,24.442c7.255,4.236,19.263,4.353,26.826.264,2.643-1.43,4.39-2.505,5.237-3.926L52.406,4.53c.009,2.8-1.88,5.6-5.64,7.693-7.308,4.075-18.916,3.959-25.928-.261-3.4-2.048-5.1-4.686-5.1-7.325l.035,16.277c.8,1.229,2.328,2.2,4.609,3.527" transform="translate(-15.734 6.037)" fill="#fcc000"/>
                    <g id="Grupo_1211213" data-name="Grupo 1211213">
                      <g id="Grupo_1211212" data-name="Grupo 1211212">
                        <g id="Grupo_1211211" data-name="Grupo 1211211" clip-path="url(#clip-path-16)">
                          <path id="Trazado_1370732" data-name="Trazado 1370732" d="M47.3,3.243c7.012,4.22,6.769,10.943-.537,15.018S27.85,22.219,20.838,18s-6.769-10.945.539-15.018S40.29-.977,47.3,3.243" transform="translate(-15.733 0)" fill="#fcce3a"/>
                          <path id="Trazado_1370733" data-name="Trazado 1370733" d="M32.334,16.623A23.3,23.3,0,0,1,20.677,13.8c-2.368-1.423-3.709-3.2-3.683-4.878.03-1.763,1.537-3.6,4.136-5.053A23.644,23.644,0,0,1,32.448,1.26,23.312,23.312,0,0,1,44.107,4.083c2.368,1.425,3.709,3.2,3.681,4.878-.03,1.763-1.535,3.606-4.133,5.055a23.681,23.681,0,0,1-11.32,2.608" transform="translate(-14.055 1.679)" fill="#859595"/>
                        </g>
                      </g>
                    </g>
                  </g>
                </g>
              </g>
            </g>
          </g>
        </g>
        <g id="Grupo_1211240" data-name="Grupo 1211240" transform="translate(47.91 0.251)">
          <g id="Grupo_1211239" data-name="Grupo 1211239">
            <g id="Grupo_1211238" data-name="Grupo 1211238" clip-path="url(#clip-path-17)">
              <g id="Grupo_1211237" data-name="Grupo 1211237" style="isolation: isolate">
                <g id="Grupo_1211236" data-name="Grupo 1211236">
                  <g id="Grupo_1211235" data-name="Grupo 1211235" clip-path="url(#clip-path-17)">
                    <g id="Grupo_1211222" data-name="Grupo 1211222" transform="translate(0.035 6.496)">
                      <g id="Grupo_1211221" data-name="Grupo 1211221">
                        <g id="Grupo_1211220" data-name="Grupo 1211220" clip-path="url(#clip-path-19)">
                          <path id="Trazado_1370734" data-name="Trazado 1370734" d="M32.873,4.158c2.736,1.647,2.643,4.271-.21,5.86a11.142,11.142,0,0,1-10.117-.1c-2.736-1.645-2.643-4.269.21-5.86a11.142,11.142,0,0,1,10.117.1" transform="translate(-20.554 -2.893)" fill="#1d5a83"/>
                        </g>
                      </g>
                    </g>
                    <g id="Grupo_1211225" data-name="Grupo 1211225" transform="translate(12.319 1.266)">
                      <g id="Grupo_1211224" data-name="Grupo 1211224">
                        <g id="Grupo_1211223" data-name="Grupo 1211223" clip-path="url(#clip-path-20)">
                          <path id="Trazado_1370735" data-name="Trazado 1370735" d="M27.847,10a3.5,3.5,0,0,0-1.992-2.858L25.82.65a3.506,3.506,0,0,1,1.992,2.858c.009,3.716.023,2.783.035,6.5" transform="translate(-25.82 -0.651)" fill="#1d5a83"/>
                        </g>
                      </g>
                    </g>
                    <g id="Grupo_1211228" data-name="Grupo 1211228">
                      <g id="Grupo_1211227" data-name="Grupo 1211227">
                        <g id="Grupo_1211226" data-name="Grupo 1211226" clip-path="url(#clip-path-21)">
                          <path id="Trazado_1370736" data-name="Trazado 1370736" d="M20.539,4.274a3.634,3.634,0,0,1,2.2-3,11.142,11.142,0,0,1,10.117.1l.035,6.5a11.142,11.142,0,0,0-10.117-.1,3.634,3.634,0,0,0-2.2,3c-.009-3.714-.023-2.783-.035-6.5" transform="translate(-20.539 -0.107)" fill="#1d5a83"/>
                        </g>
                      </g>
                    </g>
                    <g id="Grupo_1211231" data-name="Grupo 1211231" transform="translate(0 4.124)">
                      <g id="Grupo_1211230" data-name="Grupo 1211230">
                        <g id="Grupo_1211229" data-name="Grupo 1211229" clip-path="url(#clip-path-22)">
                          <path id="Trazado_1370737" data-name="Trazado 1370737" d="M20.574,8.413l-.035-6.5a3.507,3.507,0,0,0,1.992,2.86,11.156,11.156,0,0,0,10.117.1,3.637,3.637,0,0,0,2.2-3l.035,6.5a3.634,3.634,0,0,1-2.2,3,11.142,11.142,0,0,1-10.117-.1,3.5,3.5,0,0,1-1.992-2.858" transform="translate(-20.539 -1.876)" fill="#626e6e"/>
                        </g>
                      </g>
                    </g>
                    <g id="Grupo_1211234" data-name="Grupo 1211234">
                      <g id="Grupo_1211233" data-name="Grupo 1211233">
                        <g id="Grupo_1211232" data-name="Grupo 1211232" clip-path="url(#clip-path-19)">
                          <path id="Trazado_1370738" data-name="Trazado 1370738" d="M32.858,1.373c2.736,1.647,2.643,4.271-.21,5.86a11.149,11.149,0,0,1-10.117-.1c-2.736-1.647-2.643-4.271.21-5.862a11.149,11.149,0,0,1,10.117.1" transform="translate(-20.539 -0.108)" fill="#859595"/>
                        </g>
                      </g>
                    </g>
                  </g>
                </g>
              </g>
            </g>
          </g>
        </g>
      </g>
    </g>
  </g>
</svg>
