<svg xmlns="http://www.w3.org/2000/svg" width="291.427" height="184.192" viewBox="0 0 291.427 184.192">
  <g id="Grupo_1211078" data-name="Grupo 1211078" transform="translate(-189.939 -6858.69)">
    <line id="Línea_3478" data-name="Línea 3478" x2="47.049" transform="matrix(0.485, 0.875, -0.875, 0.485, 269.762, 6885.186)" fill="none" stroke="#12263f" stroke-linecap="round" stroke-width="1.5"/>
    <path id="Polígono_12" data-name="Polígono 12" d="M2.537,0,5.074,9.141H0Z" transform="matrix(-0.875, 0.485, -0.485, -0.875, 297.007, 6929.204)" fill="#12263f"/>
    <line id="Línea_3478-2" data-name="Línea 3478" x2="87.779" transform="translate(201.408 6948.004) rotate(-7)" fill="none" stroke="#12263f" stroke-linecap="round" stroke-width="1.5"/>
    <path id="Polígono_12-2" data-name="Polígono 12" d="M2.537,0,5.074,9.141H0Z" transform="translate(292.853 6934.269) rotate(83)" fill="#12263f"/>
    <line id="Línea_3478-3" data-name="Línea 3478" x2="58.366" transform="matrix(0.755, -0.656, 0.656, 0.755, 245.7, 6982.746)" fill="none" stroke="#12263f" stroke-linecap="round" stroke-width="1.5"/>
    <path id="Polígono_12-3" data-name="Polígono 12" d="M2.537,0,5.074,9.141H0Z" transform="matrix(0.656, 0.755, -0.755, 0.656, 291.634, 6939.521)" fill="#12263f"/>
    <g id="Grupo_1211077" data-name="Grupo 1211077" transform="translate(270.94 6967.499)">
      <line id="Línea_3478-4" data-name="Línea 3478" x2="16.783" transform="translate(0 3.325)" fill="none" stroke="#12263f" stroke-linecap="round" stroke-width="1"/>
      <path id="Polígono_12-4" data-name="Polígono 12" d="M1.3,0,2.6,5.845H0Z" transform="translate(19.706 2.026) rotate(90)" fill="#12263f"/>
    </g>
    <g id="Grupo_1211076" data-name="Grupo 1211076" transform="translate(227.583 6916.252)">
      <line id="Línea_3478-5" data-name="Línea 3478" x2="16.783" transform="translate(0 3.325)" fill="none" stroke="#12263f" stroke-linecap="round" stroke-width="1"/>
      <path id="Polígono_12-5" data-name="Polígono 12" d="M1.3,0,2.6,5.845H0Z" transform="translate(19.706 2.026) rotate(90)" fill="#12263f"/>
    </g>
    <g id="Grupo_1211075" data-name="Grupo 1211075" transform="translate(285.109 6889.949)">
      <line id="Línea_3478-6" data-name="Línea 3478" x2="16.783" transform="translate(0 3.325)" fill="none" stroke="#12263f" stroke-linecap="round" stroke-width="1"/>
      <path id="Polígono_12-6" data-name="Polígono 12" d="M1.3,0,2.6,5.845H0Z" transform="translate(19.706 2.026) rotate(90)" fill="#12263f"/>
    </g>
    <path id="Polígono_12-7" data-name="Polígono 12" d="M1.3,0,2.6,5.845H0Z" transform="translate(481.365 6971.993) rotate(90)" fill="#17c1c1"/>
    <ellipse id="Elipse_13817" data-name="Elipse 13817" cx="7.5" cy="7" rx="7.5" ry="7" transform="translate(259.076 6873.147)" fill="#1df2f2"/>
    <circle id="Elipse_13818" data-name="Elipse 13818" cx="7" cy="7" r="7" transform="translate(190.076 6941.147)" fill="#1df2f2"/>
    <circle id="Elipse_13819" data-name="Elipse 13819" cx="7" cy="7" r="7" transform="translate(235.076 6978.147)" fill="#1df2f2"/>
    <line id="Línea_3479" data-name="Línea 3479" y1="51.595" x2="61.711" transform="translate(353.098 6877.719)" fill="none" stroke="#dee4f0" stroke-width="1"/>
    <line id="Línea_3480" data-name="Línea 3480" y1="6.07" x2="54.63" transform="translate(360.18 6877.719)" fill="none" stroke="#dee4f0" stroke-width="1"/>
    <line id="Línea_3481" data-name="Línea 3481" x2="44.513" y2="83.968" transform="translate(414.809 6877.719)" fill="none" stroke="#dee9f0" stroke-width="1"/>
    <g id="Grupo_1211066" data-name="Grupo 1211066" transform="matrix(0.891, -0.454, 0.454, 0.891, 303.141, 6931.629)">
      <line id="Línea_3478-7" data-name="Línea 3478" x2="121.139" transform="translate(0 2.489)" fill="none" stroke="#fe9341" stroke-linecap="round" stroke-width="2"/>
      <path id="Polígono_12-8" data-name="Polígono 12" d="M2.537,0,5.074,9.141H0Z" transform="translate(125.797) rotate(90)" fill="#fe9341"/>
    </g>
    <g id="Grupo_1211065" data-name="Grupo 1211065" transform="matrix(0.755, -0.656, 0.656, 0.755, 302.853, 6929.398)">
      <line id="Línea_3478-8" data-name="Línea 3478" x2="66.265" transform="translate(0 2.488)" fill="none" stroke="#fe9341" stroke-linecap="round" stroke-width="2"/>
      <path id="Polígono_12-9" data-name="Polígono 12" d="M2.537,0,5.074,9.141H0Z" transform="translate(70.924) rotate(90)" fill="#fe9341"/>
    </g>
    <g id="Grupo_1211067" data-name="Grupo 1211067" transform="matrix(0.996, -0.087, 0.087, 0.996, 304.231, 6931.868)">
      <line id="Línea_3478-9" data-name="Línea 3478" y1="1.042" x2="44.204" transform="translate(0 2.488)" fill="none" stroke="#fe9341" stroke-linecap="round" stroke-width="2"/>
      <path id="Polígono_12-10" data-name="Polígono 12" d="M2.537,0,5.074,9.141H0Z" transform="translate(48.863) rotate(90)" fill="#fe9341"/>
    </g>
    <g id="Grupo_1211069" data-name="Grupo 1211069" transform="translate(305.547 6941.345) rotate(61)">
      <line id="Línea_3478-10" data-name="Línea 3478" x2="86.9" transform="translate(0 2.488)" fill="none" stroke="#fe9341" stroke-linecap="round" stroke-width="2"/>
      <path id="Polígono_12-11" data-name="Polígono 12" d="M2.537,0,5.074,9.141H0Z" transform="translate(91.559 0) rotate(90)" fill="#fe9341"/>
    </g>
    <line id="Línea_3478-11" data-name="Línea 3478" x2="153.952" transform="matrix(0.988, 0.156, -0.156, 0.988, 304.519, 6937.53)" fill="none" stroke="#17c1c1" stroke-linecap="round" stroke-width="2"/>
    <path id="Polígono_12-12" data-name="Polígono 12" d="M2.537,0,5.074,9.141H0Z" transform="matrix(-0.156, 0.988, -0.988, -0.156, 461.566, 6959.885)" fill="#17c1c1"/>
    <line id="Línea_3478-12" data-name="Línea 3478" x2="16.783" transform="translate(346.398 6859.989)" fill="none" stroke="#fe9341" stroke-linecap="round" stroke-width="1"/>
    <path id="Polígono_12-13" data-name="Polígono 12" d="M1.3,0,2.6,5.845H0Z" transform="translate(366.103 6858.69) rotate(90)" fill="#fe9341"/>
    <g id="Grupo_1211072" data-name="Grupo 1211072" transform="translate(363.181 6922.429)">
      <g id="Grupo_1211070" data-name="Grupo 1211070">
        <line id="Línea_3478-13" data-name="Línea 3478" x2="16.783" transform="translate(0 1.299)" fill="none" stroke="#fe9341" stroke-linecap="round" stroke-width="1"/>
        <path id="Polígono_12-14" data-name="Polígono 12" d="M1.3,0,2.6,5.845H0Z" transform="translate(19.705) rotate(90)" fill="#fe9341"/>
      </g>
    </g>
    <line id="Línea_3478-14" data-name="Línea 3478" x2="16.783" transform="translate(321.428 7021.024)" fill="none" stroke="#fe9341" stroke-linecap="round" stroke-width="1"/>
    <path id="Polígono_12-15" data-name="Polígono 12" d="M1.3,0,2.6,5.845H0Z" transform="translate(341.134 7019.725) rotate(90)" fill="#fe9341"/>
    <line id="Línea_3478-15" data-name="Línea 3478" x2="16.783" transform="translate(461.66 6973.292)" fill="none" stroke="#17c1c1" stroke-linecap="round" stroke-width="1"/>
    <g id="Grupo_1212879" data-name="Grupo 1212879">
      <path id="Trazado_1383720" data-name="Trazado 1383720" d="M-1.782-7.695-3.036-3.03A17.758,17.758,0,0,1-.711-7.23a1.347,1.347,0,0,1,.963-.465.706.706,0,0,1,.564.253,1.075,1.075,0,0,1,.216.718,2.273,2.273,0,0,1-.39,1.353.7.7,0,0,1-.556.349.535.535,0,0,1-.5-.307A1.572,1.572,0,0,0-.645-5.69a.22.22,0,0,0-.141-.054.365.365,0,0,0-.174.05,1.852,1.852,0,0,0-.477.486,7.89,7.89,0,0,0-.726,1.291q-.432.9-.672,1.531A23.584,23.584,0,0,0-3.509,0H-5.518l1.37-5.5A4.433,4.433,0,0,0-4-6.317a.651.651,0,0,0-.079-.349.464.464,0,0,0-.216-.183,1.756,1.756,0,0,0-.569-.058l.075-.241,2.507-.548ZM4.375,6H.889V5.821q1.361-1.259,2.3-2.314a5.927,5.927,0,0,0,.985-1.339,2.32,2.32,0,0,0,.2-.932A.965.965,0,0,0,4.092.519.947.947,0,0,0,3.4.243,1.372,1.372,0,0,0,2.245.984L2.065.9A2.66,2.66,0,0,1,2.719-.188,1.867,1.867,0,0,1,4.026-.7,1.618,1.618,0,0,1,5.181-.27a1.332,1.332,0,0,1,.458,1,2.347,2.347,0,0,1-.223.985A5.008,5.008,0,0,1,4.5,2.935Q3.963,3.5,2.337,4.886H3.6a1.879,1.879,0,0,0,.855-.138,1.285,1.285,0,0,0,.458-.554H5.14Z" transform="translate(280.345 6982.499)" fill="#12263f"/>
      <path id="Trazado_1383713" data-name="Trazado 1383713" d="M-1.782-7.695-3.036-3.03A17.758,17.758,0,0,1-.711-7.23a1.347,1.347,0,0,1,.963-.465.706.706,0,0,1,.564.253,1.075,1.075,0,0,1,.216.718,2.273,2.273,0,0,1-.39,1.353.7.7,0,0,1-.556.349.535.535,0,0,1-.5-.307A1.572,1.572,0,0,0-.645-5.69a.22.22,0,0,0-.141-.054.365.365,0,0,0-.174.05,1.852,1.852,0,0,0-.477.486,7.89,7.89,0,0,0-.726,1.291q-.432.9-.672,1.531A23.584,23.584,0,0,0-3.509,0H-5.518l1.37-5.5A4.433,4.433,0,0,0-4-6.317a.651.651,0,0,0-.079-.349.464.464,0,0,0-.216-.183,1.756,1.756,0,0,0-.569-.058l.075-.241,2.507-.548ZM4.375,6H.889V5.821q1.361-1.259,2.3-2.314a5.927,5.927,0,0,0,.985-1.339,2.32,2.32,0,0,0,.2-.932A.965.965,0,0,0,4.092.519.947.947,0,0,0,3.4.243,1.372,1.372,0,0,0,2.245.984L2.065.9A2.66,2.66,0,0,1,2.719-.188,1.867,1.867,0,0,1,4.026-.7,1.618,1.618,0,0,1,5.181-.27a1.332,1.332,0,0,1,.458,1,2.347,2.347,0,0,1-.223.985A5.008,5.008,0,0,1,4.5,2.935Q3.963,3.5,2.337,4.886H3.6a1.879,1.879,0,0,0,.855-.138,1.285,1.285,0,0,0,.458-.554H5.14Z" transform="translate(236.987 6931.252)" fill="#12263f"/>
      <path id="Trazado_1383715" data-name="Trazado 1383715" d="M-1.782-7.695-3.036-3.03A17.758,17.758,0,0,1-.711-7.23a1.347,1.347,0,0,1,.963-.465.706.706,0,0,1,.564.253,1.075,1.075,0,0,1,.216.718,2.273,2.273,0,0,1-.39,1.353.7.7,0,0,1-.556.349.535.535,0,0,1-.5-.307A1.572,1.572,0,0,0-.645-5.69a.22.22,0,0,0-.141-.054.365.365,0,0,0-.174.05,1.852,1.852,0,0,0-.477.486,7.89,7.89,0,0,0-.726,1.291q-.432.9-.672,1.531A23.584,23.584,0,0,0-3.509,0H-5.518l1.37-5.5A4.433,4.433,0,0,0-4-6.317a.651.651,0,0,0-.079-.349.464.464,0,0,0-.216-.183,1.756,1.756,0,0,0-.569-.058l.075-.241,2.507-.548Zm3.9,10.126.063-.208a4.021,4.021,0,0,0,1.085-.286,2.023,2.023,0,0,0,.8-.566,1.116,1.116,0,0,0,.252-.7A.746.746,0,0,0,4.089.127.769.769,0,0,0,3.523-.1a.923.923,0,0,0-.494.14,1.985,1.985,0,0,0-.494.489l-.194-.1A2.966,2.966,0,0,1,3.157-.44,1.668,1.668,0,0,1,4.075-.7,1.481,1.481,0,0,1,5.111-.34a1.128,1.128,0,0,1,.4.864,1.234,1.234,0,0,1-.194.692,1.651,1.651,0,0,1-.571.513,3.958,3.958,0,0,1-.867.324,1.838,1.838,0,0,1,.755.523,1.681,1.681,0,0,1,.324,1.041,2.275,2.275,0,0,1-.988,1.888,3.081,3.081,0,0,1-1.917.629,1.468,1.468,0,0,1-.876-.218.47.47,0,0,1-.2-.4.483.483,0,0,1,.155-.368.538.538,0,0,1,.383-.145.532.532,0,0,1,.223.048,3.666,3.666,0,0,1,.552.327,1.179,1.179,0,0,0,.61.249.653.653,0,0,0,.528-.305A1.841,1.841,0,0,0,3.755,4.2a1.927,1.927,0,0,0-.213-.925A1.437,1.437,0,0,0,3,2.686,2.31,2.31,0,0,0,2.114,2.432Z" transform="translate(294.514 6904.949)" fill="#12263f"/>
      <path id="Trazado_1383721" data-name="Trazado 1383721" d="M1.467-7.462-.981.93q-.249.863-.3,1.087a3.159,3.159,0,0,0-.075.614.519.519,0,0,0,.208.423,1.573,1.573,0,0,0,.863.274l-.091.307H-4.766l.083-.307A1.9,1.9,0,0,0-3.957,3.1a1.285,1.285,0,0,0,.419-.515,7.077,7.077,0,0,0,.415-1.224l1.1-3.76A7.351,7.351,0,0,1-3.745-.216a2.067,2.067,0,0,1-1.22.448,1.19,1.19,0,0,1-.971-.448,2.478,2.478,0,0,1-.49-1.619A5.79,5.79,0,0,1-5.933-4.08a7.324,7.324,0,0,1,1.3-2.075A5.851,5.851,0,0,1-3-7.479a2,2,0,0,1,.938-.216,1.172,1.172,0,0,1,.834.3,1.741,1.741,0,0,1,.444.979l.315-1.046Zm-3.32.3a.922.922,0,0,0-.606.274A5.266,5.266,0,0,0-3.571-4.956a8.44,8.44,0,0,0-.681,2.8,1.091,1.091,0,0,0,.183.672.41.41,0,0,0,.34.174.869.869,0,0,0,.581-.266A6.364,6.364,0,0,0-1.782-3.652,6.02,6.02,0,0,0-1.114-6.01a1.379,1.379,0,0,0-.228-.863A.649.649,0,0,0-1.853-7.164ZM5.317,6H1.831V5.821q1.361-1.259,2.3-2.314a5.927,5.927,0,0,0,.985-1.339,2.32,2.32,0,0,0,.2-.932A.965.965,0,0,0,5.034.519.947.947,0,0,0,4.339.243,1.372,1.372,0,0,0,3.187.984L3.008.9A2.66,2.66,0,0,1,3.661-.188,1.867,1.867,0,0,1,4.968-.7,1.618,1.618,0,0,1,6.123-.27a1.332,1.332,0,0,1,.458,1,2.347,2.347,0,0,1-.223.985,5.008,5.008,0,0,1-.92,1.223Q4.906,3.5,3.279,4.886H4.542A1.879,1.879,0,0,0,5.4,4.748a1.285,1.285,0,0,0,.458-.554h.228Z" transform="translate(221.656 6988.063)" fill="#12263f"/>
      <path id="Trazado_1383714" data-name="Trazado 1383714" d="M1.467-7.462-.981.93q-.249.863-.3,1.087a3.159,3.159,0,0,0-.075.614.519.519,0,0,0,.208.423,1.573,1.573,0,0,0,.863.274l-.091.307H-4.766l.083-.307A1.9,1.9,0,0,0-3.957,3.1a1.285,1.285,0,0,0,.419-.515,7.077,7.077,0,0,0,.415-1.224l1.1-3.76A7.351,7.351,0,0,1-3.745-.216a2.067,2.067,0,0,1-1.22.448,1.19,1.19,0,0,1-.971-.448,2.478,2.478,0,0,1-.49-1.619A5.79,5.79,0,0,1-5.933-4.08a7.324,7.324,0,0,1,1.3-2.075A5.851,5.851,0,0,1-3-7.479a2,2,0,0,1,.938-.216,1.172,1.172,0,0,1,.834.3,1.741,1.741,0,0,1,.444.979l.315-1.046Zm-3.32.3a.922.922,0,0,0-.606.274A5.266,5.266,0,0,0-3.571-4.956a8.44,8.44,0,0,0-.681,2.8,1.091,1.091,0,0,0,.183.672.41.41,0,0,0,.34.174.869.869,0,0,0,.581-.266A6.364,6.364,0,0,0-1.782-3.652,6.02,6.02,0,0,0-1.114-6.01a1.379,1.379,0,0,0-.228-.863A.649.649,0,0,0-1.853-7.164Zm4.909,9.6.063-.208A4.021,4.021,0,0,0,4.2,1.938a2.023,2.023,0,0,0,.8-.566,1.116,1.116,0,0,0,.252-.7A.746.746,0,0,0,5.031.127.769.769,0,0,0,4.465-.1a.923.923,0,0,0-.494.14,1.985,1.985,0,0,0-.494.489l-.194-.1A2.966,2.966,0,0,1,4.1-.44,1.668,1.668,0,0,1,5.017-.7,1.481,1.481,0,0,1,6.053-.34a1.128,1.128,0,0,1,.4.864,1.234,1.234,0,0,1-.194.692,1.651,1.651,0,0,1-.571.513,3.958,3.958,0,0,1-.867.324,1.838,1.838,0,0,1,.755.523A1.681,1.681,0,0,1,5.9,3.618,2.275,2.275,0,0,1,4.91,5.506a3.081,3.081,0,0,1-1.917.629,1.468,1.468,0,0,1-.876-.218.47.47,0,0,1-.2-.4.483.483,0,0,1,.155-.368.538.538,0,0,1,.383-.145.532.532,0,0,1,.223.048,3.666,3.666,0,0,1,.552.327,1.179,1.179,0,0,0,.61.249.653.653,0,0,0,.528-.305A1.841,1.841,0,0,0,4.7,4.2a1.927,1.927,0,0,0-.213-.925,1.437,1.437,0,0,0-.547-.588A2.31,2.31,0,0,0,3.056,2.432Z" transform="translate(247.207 6878.804)" fill="#12263f"/>
      <path id="Trazado_1383712" data-name="Trazado 1383712" d="M1.467-7.462-.981.93q-.249.863-.3,1.087a3.159,3.159,0,0,0-.075.614.519.519,0,0,0,.208.423,1.573,1.573,0,0,0,.863.274l-.091.307H-4.766l.083-.307A1.9,1.9,0,0,0-3.957,3.1a1.285,1.285,0,0,0,.419-.515,7.077,7.077,0,0,0,.415-1.224l1.1-3.76A7.351,7.351,0,0,1-3.745-.216a2.067,2.067,0,0,1-1.22.448,1.19,1.19,0,0,1-.971-.448,2.478,2.478,0,0,1-.49-1.619A5.79,5.79,0,0,1-5.933-4.08a7.324,7.324,0,0,1,1.3-2.075A5.851,5.851,0,0,1-3-7.479a2,2,0,0,1,.938-.216,1.172,1.172,0,0,1,.834.3,1.741,1.741,0,0,1,.444.979l.315-1.046Zm-3.32.3a.922.922,0,0,0-.606.274A5.266,5.266,0,0,0-3.571-4.956a8.44,8.44,0,0,0-.681,2.8,1.091,1.091,0,0,0,.183.672.41.41,0,0,0,.34.174.869.869,0,0,0,.581-.266A6.364,6.364,0,0,0-1.782-3.652,6.02,6.02,0,0,0-1.114-6.01a1.379,1.379,0,0,0-.228-.863A.649.649,0,0,0-1.853-7.164ZM6.2-.7,4.6,4.809a2.763,2.763,0,0,0-.126.547.41.41,0,0,0,.09.24.419.419,0,0,0,.194.16,3.5,3.5,0,0,0,.627.065L5.332,6H2.025l.053-.179a2.348,2.348,0,0,0,.688-.082A.692.692,0,0,0,3.083,5.5a2.492,2.492,0,0,0,.278-.692L4.31,1.536Q4.528.79,4.538.747A1.057,1.057,0,0,0,4.567.509.458.458,0,0,0,4.433.163a.526.526,0,0,0-.38-.128q-.121,0-.479.039L3.535-.106,6-.7Z" transform="translate(196.365 6930.975)" fill="#12263f"/>
      <path id="Trazado_1383716" data-name="Trazado 1383716" d="M-1.745-10.633-3-6.267h.382a4.611,4.611,0,0,0,2.2-.4A3.078,3.078,0,0,0,.762-8.077h.307L-.193-3.694H-.483a4.459,4.459,0,0,0,.075-.714,1.054,1.054,0,0,0-.27-.747,1.5,1.5,0,0,0-.7-.415,5.139,5.139,0,0,0-1.17-.083H-3.2L-4.277-1.876a3.036,3.036,0,0,0-.141.739.351.351,0,0,0,.183.307,2.083,2.083,0,0,0,1,.166,6.1,6.1,0,0,0,2.673-.6,6.6,6.6,0,0,0,2.25-1.822h.34L.862,0H-8.767l.1-.307a1.942,1.942,0,0,0,1.237-.32,2.94,2.94,0,0,0,.706-1.407L-4.609-9.28a3.694,3.694,0,0,0,.174-.955.573.573,0,0,0-.224-.486,2.216,2.216,0,0,0-1.021-.228l.091-.307H3.385L2.663-8.442h-.3a2.419,2.419,0,0,0-.257-1.17,2.038,2.038,0,0,0-.926-.776,5.177,5.177,0,0,0-1.872-.245ZM6.737,6H3.25V5.821q1.361-1.259,2.3-2.314a5.927,5.927,0,0,0,.985-1.339,2.32,2.32,0,0,0,.2-.932A.965.965,0,0,0,6.453.519.947.947,0,0,0,5.758.243,1.372,1.372,0,0,0,4.606.984L4.427.9A2.66,2.66,0,0,1,5.081-.188,1.867,1.867,0,0,1,6.388-.7,1.618,1.618,0,0,1,7.543-.27,1.332,1.332,0,0,1,8,.727a2.347,2.347,0,0,1-.223.985,5.008,5.008,0,0,1-.92,1.223Q6.325,3.5,4.7,4.886H5.962a1.879,1.879,0,0,0,.855-.138,1.285,1.285,0,0,0,.458-.554H7.5Z" transform="translate(355.768 6875.71)" fill="#12263f"/>
      <path id="Trazado_1383717" data-name="Trazado 1383717" d="M-1.745-10.633-3-6.267h.382a4.611,4.611,0,0,0,2.2-.4A3.078,3.078,0,0,0,.762-8.077h.307L-.193-3.694H-.483a4.459,4.459,0,0,0,.075-.714,1.054,1.054,0,0,0-.27-.747,1.5,1.5,0,0,0-.7-.415,5.139,5.139,0,0,0-1.17-.083H-3.2L-4.277-1.876a3.036,3.036,0,0,0-.141.739.351.351,0,0,0,.183.307,2.083,2.083,0,0,0,1,.166,6.1,6.1,0,0,0,2.673-.6,6.6,6.6,0,0,0,2.25-1.822h.34L.862,0H-8.767l.1-.307a1.942,1.942,0,0,0,1.237-.32,2.94,2.94,0,0,0,.706-1.407L-4.609-9.28a3.694,3.694,0,0,0,.174-.955.573.573,0,0,0-.224-.486,2.216,2.216,0,0,0-1.021-.228l.091-.307H3.385L2.663-8.442h-.3a2.419,2.419,0,0,0-.257-1.17,2.038,2.038,0,0,0-.926-.776,5.177,5.177,0,0,0-1.872-.245ZM7.623-.7l-1.6,5.51a2.763,2.763,0,0,0-.126.547.41.41,0,0,0,.09.24.419.419,0,0,0,.194.16,3.5,3.5,0,0,0,.627.065L6.751,6H3.444L3.5,5.821a2.348,2.348,0,0,0,.688-.082A.692.692,0,0,0,4.5,5.5a2.492,2.492,0,0,0,.278-.692l.949-3.273Q5.947.79,5.957.747A1.057,1.057,0,0,0,5.986.509.458.458,0,0,0,5.853.163a.526.526,0,0,0-.38-.128q-.121,0-.479.039L4.955-.106,7.419-.7Z" transform="translate(372.551 6939.449)" fill="#12263f"/>
      <path id="Trazado_1383719" data-name="Trazado 1383719" d="M-1.745-10.633-3-6.267h.382a4.611,4.611,0,0,0,2.2-.4A3.078,3.078,0,0,0,.762-8.077h.307L-.193-3.694H-.483a4.459,4.459,0,0,0,.075-.714,1.054,1.054,0,0,0-.27-.747,1.5,1.5,0,0,0-.7-.415,5.139,5.139,0,0,0-1.17-.083H-3.2L-4.277-1.876a3.036,3.036,0,0,0-.141.739.351.351,0,0,0,.183.307,2.083,2.083,0,0,0,1,.166,6.1,6.1,0,0,0,2.673-.6,6.6,6.6,0,0,0,2.25-1.822h.34L.862,0H-8.767l.1-.307a1.942,1.942,0,0,0,1.237-.32,2.94,2.94,0,0,0,.706-1.407L-4.609-9.28a3.694,3.694,0,0,0,.174-.955.573.573,0,0,0-.224-.486,2.216,2.216,0,0,0-1.021-.228l.091-.307H3.385L2.663-8.442h-.3a2.419,2.419,0,0,0-.257-1.17,2.038,2.038,0,0,0-.926-.776,5.177,5.177,0,0,0-1.872-.245ZM4.475,2.432l.063-.208a4.021,4.021,0,0,0,1.085-.286,2.023,2.023,0,0,0,.8-.566,1.116,1.116,0,0,0,.252-.7A.746.746,0,0,0,6.451.127.769.769,0,0,0,5.884-.1.923.923,0,0,0,5.39.04,1.985,1.985,0,0,0,4.9.529L4.7.432A2.966,2.966,0,0,1,5.519-.44,1.668,1.668,0,0,1,6.436-.7,1.481,1.481,0,0,1,7.472-.34a1.128,1.128,0,0,1,.4.864,1.234,1.234,0,0,1-.194.692,1.651,1.651,0,0,1-.571.513,3.958,3.958,0,0,1-.867.324,1.838,1.838,0,0,1,.755.523,1.681,1.681,0,0,1,.324,1.041A2.275,2.275,0,0,1,6.33,5.506a3.081,3.081,0,0,1-1.917.629,1.468,1.468,0,0,1-.876-.218.47.47,0,0,1-.2-.4.483.483,0,0,1,.155-.368.538.538,0,0,1,.383-.145.532.532,0,0,1,.223.048,3.666,3.666,0,0,1,.552.327,1.179,1.179,0,0,0,.61.249.653.653,0,0,0,.528-.305A1.841,1.841,0,0,0,6.117,4.2,1.927,1.927,0,0,0,5.9,3.274a1.437,1.437,0,0,0-.547-.588A2.31,2.31,0,0,0,4.475,2.432Z" transform="translate(330.798 7036.746)" fill="#12263f"/>
      <path id="Trazado_1383718" data-name="Trazado 1383718" d="M.755-10.633-.5-6.267h.382a4.611,4.611,0,0,0,2.2-.4A3.078,3.078,0,0,0,3.262-8.077h.307L2.308-3.694H2.017a4.459,4.459,0,0,0,.075-.714,1.054,1.054,0,0,0-.27-.747,1.5,1.5,0,0,0-.7-.415A5.139,5.139,0,0,0-.05-5.653H-.7L-1.776-1.876a3.036,3.036,0,0,0-.141.739.351.351,0,0,0,.183.307,2.083,2.083,0,0,0,1,.166,6.1,6.1,0,0,0,2.673-.6,6.6,6.6,0,0,0,2.25-1.822h.34L3.362,0H-6.267l.1-.307a1.942,1.942,0,0,0,1.237-.32,2.94,2.94,0,0,0,.706-1.407L-2.108-9.28a3.694,3.694,0,0,0,.174-.955.573.573,0,0,0-.224-.486,2.216,2.216,0,0,0-1.021-.228l.091-.307H5.885L5.163-8.442h-.3a2.419,2.419,0,0,0-.257-1.17,2.038,2.038,0,0,0-.926-.776,5.177,5.177,0,0,0-1.872-.245Z" transform="translate(471.064 6989.014)" fill="#17c1c1"/>
    </g>
    <circle id="Elipse_13816" data-name="Elipse 13816" cx="7" cy="7" r="7" transform="translate(294.076 6929.147)" fill="#0460d9"/>
    <line id="Línea_3482" data-name="Línea 3482" y1="58.676" x2="112.294" transform="translate(347.028 6963.71)" fill="none" stroke="#dee9f0" stroke-width="1"/>
  </g>
</svg>
