<svg xmlns="http://www.w3.org/2000/svg" xmlns:xlink="http://www.w3.org/1999/xlink" width="58.897" height="51.638" viewBox="0 0 58.897 51.638">
  <defs>
    <clipPath id="clip-path">
      <rect id="Rectángulo_739161" data-name="Rectángulo 739161" width="58.897" height="51.638" fill="#17c1c1"/>
    </clipPath>
  </defs>
  <g id="Grupo_1211245" data-name="Grupo 1211245" transform="translate(0 -0.001)">
    <g id="Grupo_1211244" data-name="Grupo 1211244" transform="translate(0 0.001)" clip-path="url(#clip-path)">
      <path id="Trazado_1370739" data-name="Trazado 1370739" d="M54.029,46.5H4.672A1.262,1.262,0,0,1,3.428,45.26V14.049a1.261,1.261,0,0,1,1.244-1.244h49.46a1.26,1.26,0,0,1,1.244,1.244V45.26A1.352,1.352,0,0,1,54.029,46.5M5.813,44.12H52.889V15.294H5.813Z" transform="translate(0.098 0.364)" fill="#17c1c1"/>
      <path id="Trazado_1370740" data-name="Trazado 1370740" d="M56.479,50.411H2.352a1.262,1.262,0,0,1-1.244-1.244V44.4a1.262,1.262,0,0,1,1.244-1.244H56.376A1.261,1.261,0,0,1,57.621,44.4v4.77a1.177,1.177,0,0,1-1.142,1.244M3.6,48.026H55.236V45.642H3.6Z" transform="translate(0.032 1.228)" fill="#17c1c1"/>
      <path id="Trazado_1370741" data-name="Trazado 1370741" d="M57.652,15.46H1.244A1.261,1.261,0,0,1,0,14.216V8.2A1.261,1.261,0,0,1,1.244,6.957H57.652A1.261,1.261,0,0,1,58.9,8.2v6.014a1.261,1.261,0,0,1-1.244,1.244M2.384,12.971H56.407V9.342H2.384Z" transform="translate(0 0.197)" fill="#17c1c1"/>
      <path id="Trazado_1370742" data-name="Trazado 1370742" d="M15.456,9.644H8.3A1.26,1.26,0,0,1,7.058,8.4V1.245A1.261,1.261,0,0,1,8.3,0h7.154A1.261,1.261,0,0,1,16.7,1.245V8.4a1.43,1.43,0,0,1-1.244,1.244M9.442,7.155h4.77V2.385H9.442Z" transform="translate(0.201 -0.001)" fill="#17c1c1"/>
      <path id="Trazado_1370743" data-name="Trazado 1370743" d="M49.333,9.644H42.178A1.26,1.26,0,0,1,40.934,8.4V1.245A1.26,1.26,0,0,1,42.178,0h7.155a1.261,1.261,0,0,1,1.243,1.245V8.4a1.43,1.43,0,0,1-1.243,1.244M43.319,7.155h4.77V2.385h-4.77Z" transform="translate(1.165 -0.001)" fill="#17c1c1"/>
      <path id="Trazado_1370744" data-name="Trazado 1370744" d="M23.541,38.731a1.11,1.11,0,0,1-.622-.208,1.147,1.147,0,0,1-.414-1.451l3.007-6.533H23.023a1.439,1.439,0,0,1-1.037-.518,1.113,1.113,0,0,1-.1-1.141l4.356-11.717a1.214,1.214,0,0,1,1.141-.83h7.052a1.14,1.14,0,0,1,1.036.622,1.32,1.32,0,0,1,0,1.244L31.94,23.9l3.214.415a1.266,1.266,0,0,1,.933.829,1.363,1.363,0,0,1-.311,1.244L24.37,38.419a1.174,1.174,0,0,1-.829.312m1.141-10.577h2.7a1.28,1.28,0,0,1,1.038.518,1.471,1.471,0,0,1,.1,1.141l-.726,1.556,4.77-5.081-2.8-.415a1.323,1.323,0,0,1-.934-.726,1.113,1.113,0,0,1,.1-1.141l3.317-5.5H28.207Z" transform="translate(0.62 0.464)" fill="#17c1c1"/>
      <path id="Trazado_1370745" data-name="Trazado 1370745" d="M14.18,22.25H9.41a1.244,1.244,0,0,1,0-2.489h4.77a1.261,1.261,0,0,1,1.244,1.244A1.2,1.2,0,0,1,14.18,22.25" transform="translate(0.232 0.562)" fill="#17c1c1"/>
      <path id="Trazado_1370746" data-name="Trazado 1370746" d="M48.057,22.25h-4.77a1.244,1.244,0,1,1,0-2.489h4.77A1.262,1.262,0,0,1,49.3,21.005a1.2,1.2,0,0,1-1.244,1.244" transform="translate(1.197 0.562)" fill="#17c1c1"/>
      <path id="Trazado_1370747" data-name="Trazado 1370747" d="M11.729,24.7a1.261,1.261,0,0,1-1.244-1.244v-4.77a1.244,1.244,0,1,1,2.489,0v4.77A1.262,1.262,0,0,1,11.729,24.7" transform="translate(0.298 0.496)" fill="#17c1c1"/>
      <path id="Trazado_1370748" data-name="Trazado 1370748" d="M53.194,40.9H30.381a1.261,1.261,0,0,1-1.244-1.244,1.2,1.2,0,0,1,1.244-1.243H53.194a1.261,1.261,0,0,1,1.244,1.243A1.2,1.2,0,0,1,53.194,40.9" transform="translate(0.829 1.093)" fill="#17c1c1"/>
      <path id="Trazado_1370749" data-name="Trazado 1370749" d="M15.557,40.9H4.773a1.261,1.261,0,0,1-1.244-1.244,1.2,1.2,0,0,1,1.244-1.243H15.557a1.244,1.244,0,1,1,0,2.488" transform="translate(0.1 1.093)" fill="#17c1c1"/>
      <path id="Trazado_1370750" data-name="Trazado 1370750" d="M18.785,40.9a1.068,1.068,0,1,1,.83-.311,1.174,1.174,0,0,1-.83.311" transform="translate(0.502 1.099)" fill="#17c1c1"/>
    </g>
  </g>
</svg>
