<svg xmlns="http://www.w3.org/2000/svg" xmlns:xlink="http://www.w3.org/1999/xlink" width="292" height="187.438" viewBox="0 0 292 187.438">
  <defs>
    <clipPath id="clip-path">
      <rect id="Rectángulo_739102" data-name="Rectángulo 739102" width="34.694" height="3.503" fill="none"/>
    </clipPath>
    <clipPath id="clip-path-2">
      <rect id="Rectángulo_739104" data-name="Rectángulo 739104" width="34.694" height="3.502" fill="none"/>
    </clipPath>
    <clipPath id="clip-path-3">
      <rect id="Rectángulo_739106" data-name="Rectángulo 739106" width="34.694" height="3.499" fill="none"/>
    </clipPath>
  </defs>
  <g id="Grupo_1212879" data-name="Grupo 1212879" transform="translate(-186 -12540.998)">
    <g id="Grupo_1211136" data-name="Grupo 1211136" transform="translate(0 96)">
      <line id="Línea_3508" data-name="Línea 3508" x2="71.987" transform="translate(282.224 12459.146)" fill="none" stroke="#12263f" stroke-linecap="round" stroke-width="1"/>
      <path id="Polígono_14" data-name="Polígono 14" d="M2.436,0,4.871,10.96H0Z" transform="translate(359.909 12456.642) rotate(90)" fill="#12263f"/>
      <g id="Grupo_1212878" data-name="Grupo 1212878">
        <path id="Trazado_1383715" data-name="Trazado 1383715" d="M-1.015-11.593l.1-.325H4.9l-.114.325a1.83,1.83,0,0,0-1.208.352,3.054,3.054,0,0,0-.734,1.468L.664-2.145A4.906,4.906,0,0,0,.426-1.063a.57.57,0,0,0,.246.492,2.269,2.269,0,0,0,1.2.246L1.78,0H-4.135l.1-.325a2.04,2.04,0,0,0,1.3-.338,3.1,3.1,0,0,0,.747-1.481l2.2-7.629a4.241,4.241,0,0,0,.2-1.063.6.6,0,0,0-.246-.51A2.614,2.614,0,0,0-1.015-11.593Z" transform="translate(319.212 12479.208)" fill="#12263f"/>
        <path id="Trazado_1383714" data-name="Trazado 1383714" d="M-3.19.272-2.8-9.694q.026-.87.026-.914a.96.96,0,0,0-.233-.712,1.37,1.37,0,0,0-.857-.272l.105-.325h5.01l-.1.325a1.205,1.205,0,0,0-.971.387A2.847,2.847,0,0,0-.2-9.606L-.483-3.393l4.649-5.4a9.878,9.878,0,0,0,1.116-1.45,1.572,1.572,0,0,0,.211-.7.512.512,0,0,0-.193-.391,1.535,1.535,0,0,0-.738-.259l.123-.325H7.972v.325a1.856,1.856,0,0,0-.686.308,9.312,9.312,0,0,0-1.2,1.23L-2.8.272Z" transform="translate(233 12540.911)" fill="#12263f"/>
        <path id="Trazado_1383716" data-name="Trazado 1383716" d="M-.835-5.818-1.89-2.206a4.442,4.442,0,0,0-.229,1.125.635.635,0,0,0,.272.536,2.189,2.189,0,0,0,1.134.22L-.835,0H-6.574l.105-.325A1.95,1.95,0,0,0-5.208-.659a3.18,3.18,0,0,0,.734-1.494L-2.259-9.8a3.912,3.912,0,0,0,.185-1.011.649.649,0,0,0-.229-.536,2.2,2.2,0,0,0-1.063-.246l.088-.325H1.661a4.625,4.625,0,0,1,2.979.738,2.386,2.386,0,0,1,.861,1.9,3.027,3.027,0,0,1-1,2.206A5.338,5.338,0,0,1,2.259-6.012L3.331-2.4A4.748,4.748,0,0,0,4.083-.65,1.634,1.634,0,0,0,5.15-.325V0H1.441L-.246-5.818l-.29.018Q-.633-5.8-.835-5.818Zm.123-.527q.308.018.519.018a2.768,2.768,0,0,0,2.109-.879,3.226,3.226,0,0,0,.826-2.3A1.739,1.739,0,0,0,2.3-10.793a1.568,1.568,0,0,0-1.16-.439q-.176,0-.413.009Z" transform="translate(393 12540.911)" fill="#12263f"/>
      </g>
      <path id="Trazado_1370526" data-name="Trazado 1370526" d="M-10292.244,79.148V27.733l240.993.51V58.577" transform="translate(10494.711 12418.267)" fill="none" stroke="#fe9341" stroke-linecap="round" stroke-width="2"/>
      <path id="Trazado_1370527" data-name="Trazado 1370527" d="M-10292.244,79.148V27.733l240.993.51v50.9" transform="translate(-9849.031 12659.167) rotate(180)" fill="none" stroke="#fe9341" stroke-linecap="round" stroke-width="2"/>
      <path id="Trazado_1370529" data-name="Trazado 1370529" d="M.5,11.912,6.812,5.6l6.312,6.312" transform="translate(450.272 12483.62) rotate(180)" fill="none" stroke="#fe9341" stroke-linecap="round" stroke-linejoin="round" stroke-width="2"/>
      <path id="Trazado_1370528" data-name="Trazado 1370528" d="M.5,11.912,6.812,5.6l6.312,6.312" transform="translate(195.408 12574.419)" fill="none" stroke="#fe9341" stroke-linecap="round" stroke-linejoin="round" stroke-width="2"/>
      <g id="Grupo_1211121" data-name="Grupo 1211121" transform="translate(186 12497.415)">
        <rect id="Rectángulo_739107" data-name="Rectángulo 739107" width="32.934" height="68.279" transform="translate(0 6.762)" fill="#4a3c48"/>
        <rect id="Rectángulo_739108" data-name="Rectángulo 739108" width="19.947" height="14.97" transform="translate(6.494 52.921)" fill="#e84a4a"/>
        <rect id="Rectángulo_739110" data-name="Rectángulo 739110" width="19.947" height="14.968" transform="translate(6.494 13.005)" fill="#80c41c"/>
        <rect id="Rectángulo_739111" data-name="Rectángulo 739111" width="17.717" height="6.763" transform="translate(7.608 0)" fill="#bafbfb"/>
      </g>
      <text id="_-" data-name="-" transform="translate(202.467 12565.411)" fill="#fff" font-size="24" font-family="SegoeUI-Bold, Segoe UI" font-weight="700" letter-spacing="0.003em"><tspan x="-4.852" y="0">-</tspan></text>
      <text id="_" data-name="+" transform="translate(202 12523.68)" fill="#fff" font-size="18" font-family="SegoeUI-Bold, Segoe UI" font-weight="700" letter-spacing="0.003em"><tspan x="-6.363" y="0">+</tspan></text>
      <g id="Grupo_1211122" data-name="Grupo 1211122" transform="translate(408.426 12485.344)">
        <path id="Trazado_1370519" data-name="Trazado 1370519" d="M69.574,34.8a34.611,34.611,0,0,1-8.155,22.365h-.014a.155.155,0,0,1-.059.076.563.563,0,0,1-.162.174,2.248,2.248,0,0,0-.178.224c-3.771,4.809-3.568,19.683-10.141,19.683H18.71c-6.593,0-6.369-14.875-10.149-19.683a1.846,1.846,0,0,0-.173-.224,1.82,1.82,0,0,1-.162-.174.132.132,0,0,1-.059-.076H8.152A34.787,34.787,0,1,1,69.574,34.8" transform="translate(0 0)" fill="#ffb822"/>
        <rect id="Rectángulo_739098" data-name="Rectángulo 739098" width="4.172" height="38.475" transform="translate(22.227 40.179) rotate(-7.03)" fill="#f2f2f2"/>
        <rect id="Rectángulo_739099" data-name="Rectángulo 739099" width="38.475" height="4.172" transform="translate(38.086 77.855) rotate(-82.972)" fill="#f2f2f2"/>
        <path id="Trazado_1370520" data-name="Trazado 1370520" d="M17.621,29.032c-1.281-1.91-2.3-4.035-1.415-6.342q4.2-3.44,6.058-.477A7.363,7.363,0,0,1,23.3,25.726c.382-.39.766-.783,1.145-1.174-1.94.569-.056-4.084.152-4.463,1.689-3.024,4.241.552,4.964,1.557.01.014,1.687,3.411.955,3.683.547-.014,1.09-.029,1.635-.041-1.117-.682,2.645-6.981,4.575-2.113a6.321,6.321,0,0,1-.833,5.743c-1.032,1.327,1.573,1.477,2.233.626,2.388-3.072,2.059-12.255-3.916-10.152a8.1,8.1,0,0,0-5.023,5c-.722,2.189,1.6,3.037,3.145,1.992,2.276-1.548.268-5.129-.864-6.709a5.7,5.7,0,0,0-7.24-1.9c-3.71,1.741-5.273,10.137.647,8.4.523-.152,1.235-.523,1.145-1.172-.62-4.518-4.111-7.625-8.75-5.478-4.847,2.247-4.948,6.5-2.157,10.648.6.891,3.221-.071,2.506-1.134" transform="translate(7.773 10.07)" fill="#fff"/>
        <path id="Trazado_1370521" data-name="Trazado 1370521" d="M35.575,61.3l-2.442,4.173H18.107L15.645,61.3Z" transform="translate(9.168 35.92)" fill="#4a3c48"/>
        <rect id="Rectángulo_739100" data-name="Rectángulo 739100" width="34.694" height="19.902" transform="translate(17.439 77.319)" fill="#fff"/>
        <g id="Grupo_1211112" data-name="Grupo 1211112" transform="translate(17.439 80.206)" opacity="0.65" style="mix-blend-mode: multiply;isolation: isolate">
          <g id="Grupo_1211111" data-name="Grupo 1211111" transform="translate(0 0)">
            <g id="Grupo_1211110" data-name="Grupo 1211110" clip-path="url(#clip-path)">
              <rect id="Rectángulo_739101" data-name="Rectángulo 739101" width="34.694" height="3.503" transform="translate(0.001 0)" fill="#98abbd"/>
            </g>
          </g>
        </g>
        <g id="Grupo_1211115" data-name="Grupo 1211115" transform="translate(17.439 85.519)" opacity="0.65" style="mix-blend-mode: multiply;isolation: isolate">
          <g id="Grupo_1211114" data-name="Grupo 1211114" transform="translate(0 0)">
            <g id="Grupo_1211113" data-name="Grupo 1211113" clip-path="url(#clip-path-2)">
              <rect id="Rectángulo_739103" data-name="Rectángulo 739103" width="34.694" height="3.502" transform="translate(0.001 0)" fill="#98abbd"/>
            </g>
          </g>
        </g>
        <g id="Grupo_1211118" data-name="Grupo 1211118" transform="translate(17.439 90.832)" opacity="0.65" style="mix-blend-mode: multiply;isolation: isolate">
          <g id="Grupo_1211117" data-name="Grupo 1211117" transform="translate(0 0)">
            <g id="Grupo_1211116" data-name="Grupo 1211116" clip-path="url(#clip-path-3)">
              <rect id="Rectángulo_739105" data-name="Rectángulo 739105" width="34.694" height="3.499" transform="translate(0.001 0)" fill="#98abbd"/>
            </g>
          </g>
        </g>
      </g>
    </g>
  </g>
</svg>
