<svg xmlns="http://www.w3.org/2000/svg" width="278.895" height="177.486" viewBox="0 0 278.895 177.486">
  <g id="Grupo_1211137" data-name="Grupo 1211137" transform="translate(-197.253 -11268)">
    <path id="Trazado_1370539" data-name="Trazado 1370539" d="M15.8,0H74" transform="translate(282.836 11397.741)" fill="none" stroke="#12263f" stroke-linecap="round" stroke-width="1"/>
    <path id="Polígono_12" data-name="Polígono 12" d="M2.523,0,5.046,11.353H0Z" transform="translate(362.737 11395.147) rotate(90)" fill="#12263f"/>
    <g id="Grupo_1211105" data-name="Grupo 1211105" transform="translate(229.356 11298.106)">
      <line id="Línea_3505" data-name="Línea 3505" y1="30.702" transform="translate(6.538 10.454)" fill="none" stroke="#fe9341" stroke-linecap="round" stroke-linejoin="round" stroke-width="2"/>
      <line id="Línea_3506" data-name="Línea 3506" x1="0.166" y2="24.859" transform="translate(189.569 102.782)" fill="none" stroke="#fe9341" stroke-linecap="round" stroke-linejoin="round" stroke-width="2"/>
      <path id="Trazado_1370499" data-name="Trazado 1370499" d="M.5,12.138,7.038,5.6l6.538,6.538" transform="translate(-0.5 4.306)" fill="none" stroke="#fe9341" stroke-linecap="round" stroke-linejoin="round" stroke-width="2"/>
      <path id="Trazado_1370500" data-name="Trazado 1370500" d="M140.108,46.919H112.55l-3.937,10.234L100.74,34.325,93.262,57.154,84.6,34.325,77.516,57.154,69.646,34.325,62.558,57.154,53.507,34.325l-3.149,12.6H21.622" transform="translate(20.085 31.377)" fill="none" stroke="#034cad" stroke-linecap="round" stroke-width="2"/>
      <line id="Línea_3507" data-name="Línea 3507" x2="47.629" transform="translate(166.543 127.642)" fill="none" stroke="#fe9341" stroke-linecap="round" stroke-linejoin="round" stroke-width="2"/>
      <path id="Trazado_1370501" data-name="Trazado 1370501" d="M17.591,78.8V.5h26.57" transform="translate(15.885 -0.5)" fill="none" stroke="#034cad" stroke-linecap="round" stroke-width="2"/>
      <path id="Trazado_1370502" data-name="Trazado 1370502" d="M58.411,1.023h62.978V78.3" transform="translate(55.247 -0.007)" fill="none" stroke="#1df2f2" stroke-linecap="round" stroke-width="2"/>
      <path id="Trazado_1370503" data-name="Trazado 1370503" d="M38.355,58.3H3.866V22.253" transform="translate(2.672 20)" fill="none" stroke="#17c1c1" stroke-linecap="round" stroke-width="2"/>
      <path id="Trazado_1370504" data-name="Trazado 1370504" d="M82.622,40.809h28.662v24.72" transform="translate(78.451 37.487)" fill="none" stroke="#17c1c1" stroke-linecap="round" stroke-linejoin="round" stroke-width="2"/>
    </g>
    <circle id="Elipse_13824" data-name="Elipse 13824" cx="29.136" cy="29.136" r="29.136" transform="translate(286.741 11268)" fill="#0460d9"/>
    <g id="Grupo_1212875" data-name="Grupo 1212875">
      <path id="Trazado_1383706" data-name="Trazado 1383706" d="M-.9-10.3l.086-.289H4.355l-.1.289a1.626,1.626,0,0,0-1.074.313,2.715,2.715,0,0,0-.652,1.3L.59-1.906a4.361,4.361,0,0,0-.211.961A.507.507,0,0,0,.6-.508,2.017,2.017,0,0,0,1.66-.289L1.582,0H-3.676l.086-.289a1.813,1.813,0,0,0,1.156-.3A2.758,2.758,0,0,0-1.77-1.906L.184-8.687a3.77,3.77,0,0,0,.18-.945.535.535,0,0,0-.219-.453A2.324,2.324,0,0,0-.9-10.3Z" transform="translate(327.594 11416.859)" fill="#12263f"/>
      <path id="Trazado_1383701" data-name="Trazado 1383701" d="M-6.856.242l.344-8.859q.023-.773.023-.812a.853.853,0,0,0-.207-.633,1.218,1.218,0,0,0-.762-.242l.094-.289h4.453L-3-10.3a1.071,1.071,0,0,0-.863.344A2.531,2.531,0,0,0-4.2-8.539l-.25,5.523,4.133-4.8A8.781,8.781,0,0,0,.675-9.1a1.4,1.4,0,0,0,.188-.625.455.455,0,0,0-.172-.348,1.364,1.364,0,0,0-.656-.23l.109-.289H3.066v.289a1.65,1.65,0,0,0-.609.273A8.278,8.278,0,0,0,1.394-8.937L-6.512.242ZM8.473-10.812,5.887-1.922a4.458,4.458,0,0,0-.2.883.662.662,0,0,0,.145.387.676.676,0,0,0,.313.258,5.655,5.655,0,0,0,1.012.105L7.067,0H1.731l.086-.289A3.788,3.788,0,0,0,2.926-.422,1.117,1.117,0,0,0,3.438-.8a4.021,4.021,0,0,0,.449-1.117L5.418-7.2q.352-1.2.367-1.273a1.706,1.706,0,0,0,.047-.383.74.74,0,0,0-.215-.559A.849.849,0,0,0,5-9.625q-.2,0-.773.063l-.062-.289,3.977-.961Z" transform="translate(204.711 11320.922)" fill="#12263f"/>
      <path id="Trazado_1383708" data-name="Trazado 1383708" d="M-6.856.242l.344-8.859q.023-.773.023-.812a.853.853,0,0,0-.207-.633,1.218,1.218,0,0,0-.762-.242l.094-.289h4.453L-3-10.3a1.071,1.071,0,0,0-.863.344A2.531,2.531,0,0,0-4.2-8.539l-.25,5.523,4.133-4.8A8.781,8.781,0,0,0,.675-9.1a1.4,1.4,0,0,0,.188-.625.455.455,0,0,0-.172-.348,1.364,1.364,0,0,0-.656-.23l.109-.289H3.066v.289a1.65,1.65,0,0,0-.609.273A8.278,8.278,0,0,0,1.394-8.937L-6.512.242ZM7.043,0H1.418V-.289q2.2-2.031,3.7-3.734a9.564,9.564,0,0,0,1.59-2.16,3.744,3.744,0,0,0,.324-1.5,1.557,1.557,0,0,0-.449-1.156,1.528,1.528,0,0,0-1.121-.445,2.213,2.213,0,0,0-1.859,1.2l-.289-.133A4.293,4.293,0,0,1,4.372-9.984a3.012,3.012,0,0,1,2.109-.828,2.61,2.61,0,0,1,1.863.7,2.15,2.15,0,0,1,.738,1.609,3.787,3.787,0,0,1-.359,1.59A8.081,8.081,0,0,1,7.239-4.945Q6.379-4.039,3.754-1.8H5.793A3.031,3.031,0,0,0,7.172-2.02a2.073,2.073,0,0,0,.738-.895h.367Z" transform="translate(467.066 11430.944)" fill="#12263f"/>
      <path id="Trazado_1383705" data-name="Trazado 1383705" d="M-.742-5.172-1.68-1.961a3.949,3.949,0,0,0-.2,1,.565.565,0,0,0,.242.477,1.946,1.946,0,0,0,1.008.2L-.742,0h-5.1l.094-.289a1.734,1.734,0,0,0,1.121-.3,2.827,2.827,0,0,0,.652-1.328l1.969-6.8a3.477,3.477,0,0,0,.164-.9.577.577,0,0,0-.2-.477,1.959,1.959,0,0,0-.945-.219l.078-.289H1.477a4.111,4.111,0,0,1,2.648.656A2.121,2.121,0,0,1,4.891-8.25,2.691,2.691,0,0,1,4-6.289a4.745,4.745,0,0,1-1.992.945l.953,3.211A4.22,4.22,0,0,0,3.629-.578a1.453,1.453,0,0,0,.949.289V0h-3.3l-1.5-5.172-.258.016Q-.563-5.156-.742-5.172Zm.109-.469q.273.016.461.016A2.46,2.46,0,0,0,1.7-6.406a2.867,2.867,0,0,0,.734-2.047,1.545,1.545,0,0,0-.391-1.141,1.394,1.394,0,0,0-1.031-.391q-.156,0-.367.008Z" transform="translate(329.742 11354.295)" fill="#12263f"/>
      <path id="Trazado_1383704" data-name="Trazado 1383704" d="M-4.762-5.172-5.7-1.961a3.949,3.949,0,0,0-.2,1,.565.565,0,0,0,.242.477,1.946,1.946,0,0,0,1.008.2L-4.762,0h-5.1l.094-.289a1.734,1.734,0,0,0,1.121-.3A2.827,2.827,0,0,0-8-1.914l1.969-6.8a3.477,3.477,0,0,0,.164-.9.577.577,0,0,0-.2-.477,1.959,1.959,0,0,0-.945-.219l.078-.289h4.391a4.111,4.111,0,0,1,2.648.656A2.121,2.121,0,0,1,.871-8.25,2.691,2.691,0,0,1-.02-6.289a4.745,4.745,0,0,1-1.992.945l.953,3.211A4.22,4.22,0,0,0-.391-.578a1.453,1.453,0,0,0,.949.289V0h-3.3l-1.5-5.172-.258.016Q-4.582-5.156-4.762-5.172Zm.109-.469q.273.016.461.016a2.46,2.46,0,0,0,1.875-.781,2.867,2.867,0,0,0,.734-2.047,1.545,1.545,0,0,0-.391-1.141A1.394,1.394,0,0,0-3-9.984q-.156,0-.367.008ZM8.473-10.812,5.887-1.922a4.458,4.458,0,0,0-.2.883.662.662,0,0,0,.145.387.676.676,0,0,0,.313.258,5.655,5.655,0,0,0,1.012.105L7.067,0H1.731l.086-.289A3.788,3.788,0,0,0,2.926-.422,1.117,1.117,0,0,0,3.438-.8a4.021,4.021,0,0,0,.449-1.117L5.418-7.2q.352-1.2.367-1.273a1.706,1.706,0,0,0,.047-.383.74.74,0,0,0-.215-.559A.849.849,0,0,0,5-9.625q-.2,0-.773.063l-.062-.289,3.977-.961Z" transform="translate(279.263 11363.1)" fill="#727997"/>
      <path id="Trazado_1383707" data-name="Trazado 1383707" d="M-7.47-.75A8.063,8.063,0,0,1-11.548.2,5.9,5.9,0,0,1-15.81-1.3a5.443,5.443,0,0,1-1.559-4.121,5.753,5.753,0,0,1,1.7-4.3,6.205,6.205,0,0,1,4.531-1.664,9.2,9.2,0,0,1,3.141.492v2.367a6.242,6.242,0,0,0-3.172-.75,3.405,3.405,0,0,0-2.559,1.02,3.745,3.745,0,0,0-.988,2.723,3.756,3.756,0,0,0,.887,2.672,3.125,3.125,0,0,0,2.395.945A3.333,3.333,0,0,0-9.993-2.18V-4.367h-2.242V-6.383H-7.47ZM4.828,0H2.281L-2.336-7.039a10.179,10.179,0,0,1-.562-.93H-2.93q.062.594.063,1.813V0H-5.25V-11.2h2.719l4.445,6.82q.3.461.563.914h.031a11.978,11.978,0,0,1-.062-1.539v-6.2H4.828Zm2.6,0V-11.2H11.4q5.969,0,5.969,5.461a5.522,5.522,0,0,1-1.629,4.18A6.007,6.007,0,0,1,11.4,0ZM9.954-9.148v7.1H11.2a3.378,3.378,0,0,0,2.574-.984,3.735,3.735,0,0,0,.934-2.68,3.388,3.388,0,0,0-.926-2.52,3.529,3.529,0,0,0-2.6-.918Z" transform="translate(420.759 11445.291)" fill="#727997"/>
      <path id="Trazado_1383702" data-name="Trazado 1383702" d="M-4.352-11.2-8.212,0h-2.859l-3.812-11.2h2.719l2.336,7.8A5.584,5.584,0,0,1-9.6-2.289h.047a6.315,6.315,0,0,1,.242-1.148l2.32-7.766ZM4.742-.4A7.388,7.388,0,0,1,1.539.2,5.4,5.4,0,0,1-2.516-1.32,5.54,5.54,0,0,1-3.992-5.359a5.919,5.919,0,0,1,1.66-4.359,5.807,5.807,0,0,1,4.309-1.672,8.058,8.058,0,0,1,2.766.414v2.43A4.9,4.9,0,0,0,2.18-9.219a3.4,3.4,0,0,0-2.547.992,3.682,3.682,0,0,0-.969,2.688,3.611,3.611,0,0,0,.914,2.59,3.229,3.229,0,0,0,2.461.965,5.249,5.249,0,0,0,2.7-.719Zm9.548,0a7.388,7.388,0,0,1-3.2.594A5.4,5.4,0,0,1,7.032-1.32,5.54,5.54,0,0,1,5.556-5.359a5.919,5.919,0,0,1,1.66-4.359,5.807,5.807,0,0,1,4.309-1.672,8.058,8.058,0,0,1,2.766.414v2.43a4.9,4.9,0,0,0-2.562-.672,3.4,3.4,0,0,0-2.547.992,3.682,3.682,0,0,0-.969,2.688,3.611,3.611,0,0,0,.914,2.59,3.229,3.229,0,0,0,2.461.965,5.249,5.249,0,0,0,2.7-.719Z" transform="translate(228.783 11298.617)" fill="#727997"/>
      <path id="Trazado_1383703" data-name="Trazado 1383703" d="M-5.495.469-4.829-16.7q.045-1.5.045-1.574a1.653,1.653,0,0,0-.4-1.226,2.359,2.359,0,0,0-1.476-.469l.182-.56H2.149l-.167.56A2.076,2.076,0,0,0,.31-19.3a4.9,4.9,0,0,0-.658,2.755l-.484,10.7,8.007-9.294a17.013,17.013,0,0,0,1.922-2.5,2.707,2.707,0,0,0,.363-1.211.882.882,0,0,0-.333-.674,2.643,2.643,0,0,0-1.271-.447l.212-.56h5.661v.56a3.2,3.2,0,0,0-1.181.53,16.038,16.038,0,0,0-2.059,2.119L-4.829.469Z" transform="translate(314.244 11307.652)" fill="#fff"/>
    </g>
  </g>
</svg>
