<svg id="Grupo_1212644" data-name="Grupo 1212644" xmlns="http://www.w3.org/2000/svg" xmlns:xlink="http://www.w3.org/1999/xlink" width="62.952" height="67.408" viewBox="0 0 62.952 67.408">
  <defs>
    <clipPath id="clip-path">
      <rect id="Rectángulo_739962" data-name="Rectángulo 739962" width="62.952" height="67.408" fill="#17c1c1"/>
    </clipPath>
  </defs>
  <g id="Grupo_1212643" data-name="Grupo 1212643" transform="translate(0 0)" clip-path="url(#clip-path)">
    <path id="Trazado_1383411" data-name="Trazado 1383411" d="M32.558,42.687a38.177,38.177,0,0,1-9.594-1.641c-.252,0-.378-.125-.5-.125a1.439,1.439,0,1,1,.757-2.777c.126,0,.379.126.5.126a59.777,59.777,0,0,0,6.438,1.389c3.787.5,4.924-.126,5.3-.379.125-.125.378-.253.253-1.136a1.463,1.463,0,1,1,2.9-.379,4.126,4.126,0,0,1-1.136,3.661,8.4,8.4,0,0,1-4.923,1.262" transform="translate(5.389 9.195)" fill="#17c1c1"/>
    <path id="Trazado_1383412" data-name="Trazado 1383412" d="M34.527,54.734h0a21.914,21.914,0,0,1-7.7-1.515,17.735,17.735,0,0,0-5.933-1.262,14.472,14.472,0,0,0-5.3,1.01,1.5,1.5,0,0,1-1.894-.884L8.144,35.926A1.408,1.408,0,0,1,8.9,34.158c1.515-.631,6.943-2.4,8.078-2.652a16.827,16.827,0,0,1,3.914-.252A47.053,47.053,0,0,1,33.265,32.9c4.544,1.262,7.322,3.155,8.2,5.554,3.535-2.524,8.206-4.8,11.74-5.3.378,0,.756-.128,1.136-.128,3.03,0,6.312,1.39,6.564,4.545.125,1.515-.884,3.282-3.156,5.428a49.348,49.348,0,0,1-6.943,5.176c-4.8,3.03-11.235,6.312-14.517,6.564a8.333,8.333,0,0,0-1.767,0m-13.633-5.68a21.75,21.75,0,0,1,6.816,1.389,18.707,18.707,0,0,0,6.817,1.389h1.389c2.4-.252,8.079-2.777,13.254-6.059,6.817-4.292,8.963-7.2,8.837-7.954-.126-1.387-2.272-1.892-3.661-1.892h-.757c-3.787.5-9.468,3.786-12.5,6.437a1.351,1.351,0,0,1-1.768.126,1.56,1.56,0,0,1-.5-1.767,1.076,1.076,0,0,0,0-.884c-.253-1.515-2.525-3.03-6.312-4.167A45.662,45.662,0,0,0,21.02,34.158a20.324,20.324,0,0,0-3.283.253c-.883.125-4.291,1.261-6.312,1.893L16.1,49.811a13.534,13.534,0,0,1,4.8-.757" transform="translate(2.033 7.878)" fill="#17c1c1"/>
    <path id="Trazado_1383413" data-name="Trazado 1383413" d="M8.661,59.343a1.148,1.148,0,0,1-.631-.125,1.339,1.339,0,0,1-.757-.884L.079,37.254a1.5,1.5,0,0,1,.883-1.894l9.72-3.282a1.5,1.5,0,0,1,1.894.884l7.2,21.081a1.5,1.5,0,0,1-.884,1.893l-9.72,3.283a.964.964,0,0,1-.506.125M3.234,37.758l6.312,18.3,6.943-2.4-6.312-18.3Z" transform="translate(0 8.065)" fill="#17c1c1"/>
    <path id="Trazado_1383414" data-name="Trazado 1383414" d="M6.593,40.182a1.433,1.433,0,0,1-1.01-.379,1.537,1.537,0,0,1,0-2.02,1.437,1.437,0,0,1,1.01-.378,1.44,1.44,0,0,1,1.01.378,1.537,1.537,0,0,1,0,2.02,1.435,1.435,0,0,1-1.01.379" transform="translate(1.312 9.428)" fill="#17c1c1"/>
    <path id="Trazado_1383415" data-name="Trazado 1383415" d="M25.761,34.594c-4.67,0-8.458-4.166-8.458-9.215,0-3.03,2.271-6.186,4.417-9.089,1.01-1.389,2.021-2.778,2.778-4.04a1.431,1.431,0,0,1,2.524,0,28.66,28.66,0,0,0,2.777,4.04c2.146,2.9,4.418,5.932,4.418,9.089,0,5.049-3.787,9.215-8.458,9.215m0-18.935c-.5.756-1.136,1.514-1.641,2.271-1.893,2.652-3.913,5.3-3.913,7.448,0,3.535,2.524,6.312,5.554,6.312s5.554-2.777,5.554-6.312c0-2.146-2.02-4.8-3.786-7.322a28.787,28.787,0,0,1-1.768-2.4" transform="translate(4.361 2.897)" fill="#17c1c1"/>
    <path id="Trazado_1383416" data-name="Trazado 1383416" d="M34.026,20.2c-4.166,0-7.447-3.661-7.447-8.079,0-2.652,1.893-5.428,3.786-7.953A17.683,17.683,0,0,0,32.638.756a1.432,1.432,0,0,1,2.525,0c.631,1.138,1.515,2.274,2.4,3.536,1.894,2.524,3.787,5.175,3.787,7.826A7.518,7.518,0,0,1,34.026,20.2m0-16.032c-.378.631-.883,1.136-1.262,1.767-1.641,2.146-3.282,4.418-3.282,6.186,0,2.9,2.02,5.175,4.544,5.175s4.545-2.271,4.545-5.175c0-1.768-1.641-4.04-3.283-6.186a8.939,8.939,0,0,0-1.262-1.767" transform="translate(6.699 0)" fill="#17c1c1"/>
  </g>
</svg>
