<svg xmlns="http://www.w3.org/2000/svg" width="292" height="178.296" viewBox="0 0 292 178.296">
  <g id="Grupo_1211134" data-name="Grupo 1211134" transform="translate(-186 -12076.23)">
    <path id="Trazado_1370531" data-name="Trazado 1370531" d="M181.2,94.818H132.544L112.691,76.743,92.955,94.818H44.185V24.7H93.42l19.272,18.075L132.544,24.7H181.2Z" transform="translate(225.814 12105.526)" fill="#0460d9"/>
    <path id="Trazado_1370532" data-name="Trazado 1370532" d="M193.462,59.373c0,19.362-5.658,35.057-12.639,35.057s-12.639-15.7-12.639-35.057,5.658-35.057,12.639-35.057,12.639,15.7,12.639,35.057" transform="translate(225.815 12105.914)" fill="#68a0e8"/>
    <path id="Trazado_1370533" data-name="Trazado 1370533" d="M60.657,59.373c0,19.362-5.758,35.057-12.861,35.057s-12.861-15.7-12.861-35.057S40.693,24.316,47.8,24.316s12.861,15.7,12.861,35.057" transform="translate(222.204 12105.914)" fill="#0460d9"/>
    <rect id="Rectángulo_739120" data-name="Rectángulo 739120" width="49.043" height="24.56" transform="translate(186 12153.007)" fill="#1df2f2"/>
    <rect id="Rectángulo_739124" data-name="Rectángulo 739124" width="49.043" height="24.56" transform="translate(412.397 12153.007)" fill="#1df2f2"/>
    <path id="Trazado_1370534" data-name="Trazado 1370534" d="M42.781,60.7,19.851,80.766V40.641Z" transform="translate(208.821 12104.584)" fill="#1df2f2"/>
    <path id="Trazado_1370538" data-name="Trazado 1370538" d="M42.781,60.7,19.851,80.766V40.641Z" transform="translate(435.219 12104.584)" fill="#1df2f2"/>
    <rect id="Rectángulo_739122" data-name="Rectángulo 739122" width="10.712" height="31.722" transform="translate(333.149 12095.882)" fill="#fe9341"/>
    <path id="Trazado_1370536" data-name="Trazado 1370536" d="M113.329,34.683,100.352,19.852h25.953Z" transform="translate(225.177 12103.632)" fill="#fe9341"/>
    <rect id="Rectángulo_739123" data-name="Rectángulo 739123" width="10.712" height="31.722" transform="translate(333.149 12203.072)" fill="#fe9341"/>
    <path id="Trazado_1370537" data-name="Trazado 1370537" d="M113.329,69.389l12.977,14.831H100.352Z" transform="translate(225.177 12122.972)" fill="#fe9341"/>
    <g id="Grupo_1212877" data-name="Grupo 1212877">
      <path id="Trazado_1383712" data-name="Trazado 1383712" d="M-.835-5.818-1.89-2.206a4.442,4.442,0,0,0-.229,1.125.635.635,0,0,0,.272.536,2.189,2.189,0,0,0,1.134.22L-.835,0H-6.574l.105-.325A1.95,1.95,0,0,0-5.208-.659a3.18,3.18,0,0,0,.734-1.494L-2.259-9.8a3.912,3.912,0,0,0,.185-1.011.649.649,0,0,0-.229-.536,2.2,2.2,0,0,0-1.063-.246l.088-.325H1.661a4.625,4.625,0,0,1,2.979.738,2.386,2.386,0,0,1,.861,1.9,3.027,3.027,0,0,1-1,2.206A5.338,5.338,0,0,1,2.259-6.012L3.331-2.4A4.748,4.748,0,0,0,4.083-.65,1.634,1.634,0,0,0,5.15-.325V0H1.441L-.246-5.818l-.29.018Q-.633-5.8-.835-5.818Zm.123-.527q.308.018.519.018a2.768,2.768,0,0,0,2.109-.879,3.226,3.226,0,0,0,.826-2.3A1.739,1.739,0,0,0,2.3-10.793a1.568,1.568,0,0,0-1.16-.439q-.176,0-.413.009Z" transform="translate(337 12088.148)" fill="#12263f"/>
      <path id="Trazado_1383711" data-name="Trazado 1383711" d="M-.835-5.818-1.89-2.206a4.442,4.442,0,0,0-.229,1.125.635.635,0,0,0,.272.536,2.189,2.189,0,0,0,1.134.22L-.835,0H-6.574l.105-.325A1.95,1.95,0,0,0-5.208-.659a3.18,3.18,0,0,0,.734-1.494L-2.259-9.8a3.912,3.912,0,0,0,.185-1.011.649.649,0,0,0-.229-.536,2.2,2.2,0,0,0-1.063-.246l.088-.325H1.661a4.625,4.625,0,0,1,2.979.738,2.386,2.386,0,0,1,.861,1.9,3.027,3.027,0,0,1-1,2.206A5.338,5.338,0,0,1,2.259-6.012L3.331-2.4A4.748,4.748,0,0,0,4.083-.65,1.634,1.634,0,0,0,5.15-.325V0H1.441L-.246-5.818l-.29.018Q-.633-5.8-.835-5.818Zm.123-.527q.308.018.519.018a2.768,2.768,0,0,0,2.109-.879,3.226,3.226,0,0,0,.826-2.3A1.739,1.739,0,0,0,2.3-10.793a1.568,1.568,0,0,0-1.16-.439q-.176,0-.413.009Z" transform="translate(337 12254.526)" fill="#12263f"/>
      <path id="Trazado_1383710" data-name="Trazado 1383710" d="M-15.511-11.2-19.37,0h-2.859l-3.812-11.2h2.719l2.336,7.8a5.584,5.584,0,0,1,.227,1.117h.047a6.315,6.315,0,0,1,.242-1.148l2.32-7.766ZM-11.6.2A4.3,4.3,0,0,1-14.74-.926a4.064,4.064,0,0,1-1.145-3.043A4.065,4.065,0,0,1-14.7-7.074,4.487,4.487,0,0,1-11.486-8.2,4.249,4.249,0,0,1-8.361-7.074,3.985,3.985,0,0,1-7.228-4.109,4.23,4.23,0,0,1-8.4-.961,4.348,4.348,0,0,1-11.6.2Zm.063-6.5a1.647,1.647,0,0,0-1.359.6A2.653,2.653,0,0,0-13.377-4q0,2.3,1.859,2.3,1.773,0,1.773-2.367Q-9.744-6.3-11.533-6.3ZM-3.118,0H-5.587V-11.844h2.469ZM3.836-.094A3.649,3.649,0,0,1,2.187.2Q-.422.2-.422-2.516V-6.18h-1.3V-8h1.3V-9.727l2.461-.7V-8h1.8v1.82h-1.8v3.234q0,1.25.992,1.25a1.673,1.673,0,0,0,.8-.227ZM11.923,0H9.587V-1.148H9.556A2.607,2.607,0,0,1,7.173.2a2.492,2.492,0,0,1-1.832-.66,2.366,2.366,0,0,1-.668-1.762q0-2.328,2.758-2.687L9.6-5.2q0-1.312-1.422-1.312a4.853,4.853,0,0,0-2.719.852V-7.523a6.116,6.116,0,0,1,1.41-.469A7.413,7.413,0,0,1,8.5-8.2q3.422,0,3.422,3.414ZM9.6-3.25v-.539L8.149-3.6q-1.2.156-1.2,1.086a.9.9,0,0,0,.293.691,1.126,1.126,0,0,0,.793.27,1.462,1.462,0,0,0,1.133-.48A1.735,1.735,0,0,0,9.6-3.25Zm5.563-6.016a1.442,1.442,0,0,1-1.023-.371,1.2,1.2,0,0,1-.4-.91,1.153,1.153,0,0,1,.4-.906,1.49,1.49,0,0,1,1.023-.352,1.486,1.486,0,0,1,1.027.352,1.158,1.158,0,0,1,.395.906,1.191,1.191,0,0,1-.395.922A1.466,1.466,0,0,1,15.166-9.266ZM16.385-.141A4.349,4.349,0,0,1,15.517,2.7a3.041,3.041,0,0,1-2.5,1.063,3.457,3.457,0,0,1-1.18-.234V1.586a1.923,1.923,0,0,0,.914.289q1.164,0,1.164-1.828V-8h2.469ZM25.69-3.3H20.472q.125,1.742,2.2,1.742a4.286,4.286,0,0,0,2.32-.625V-.4A6.1,6.1,0,0,1,22.1.2,4.058,4.058,0,0,1,19.1-.879a4.058,4.058,0,0,1-1.07-3,4.281,4.281,0,0,1,1.156-3.156A3.852,3.852,0,0,1,22.026-8.2a3.5,3.5,0,0,1,2.707,1.039,4,4,0,0,1,.957,2.82ZM23.4-4.812q0-1.719-1.391-1.719a1.328,1.328,0,0,0-1.027.492,2.234,2.234,0,0,0-.527,1.227Z" transform="translate(215.138 12170.787)" fill="#12263f"/>
      <path id="Trazado_1383713" data-name="Trazado 1383713" d="M-15.511-11.2-19.37,0h-2.859l-3.812-11.2h2.719l2.336,7.8a5.584,5.584,0,0,1,.227,1.117h.047a6.315,6.315,0,0,1,.242-1.148l2.32-7.766ZM-11.6.2A4.3,4.3,0,0,1-14.74-.926a4.064,4.064,0,0,1-1.145-3.043A4.065,4.065,0,0,1-14.7-7.074,4.487,4.487,0,0,1-11.486-8.2,4.249,4.249,0,0,1-8.361-7.074,3.985,3.985,0,0,1-7.228-4.109,4.23,4.23,0,0,1-8.4-.961,4.348,4.348,0,0,1-11.6.2Zm.063-6.5a1.647,1.647,0,0,0-1.359.6A2.653,2.653,0,0,0-13.377-4q0,2.3,1.859,2.3,1.773,0,1.773-2.367Q-9.744-6.3-11.533-6.3ZM-3.118,0H-5.587V-11.844h2.469ZM3.836-.094A3.649,3.649,0,0,1,2.187.2Q-.422.2-.422-2.516V-6.18h-1.3V-8h1.3V-9.727l2.461-.7V-8h1.8v1.82h-1.8v3.234q0,1.25.992,1.25a1.673,1.673,0,0,0,.8-.227ZM11.923,0H9.587V-1.148H9.556A2.607,2.607,0,0,1,7.173.2a2.492,2.492,0,0,1-1.832-.66,2.366,2.366,0,0,1-.668-1.762q0-2.328,2.758-2.687L9.6-5.2q0-1.312-1.422-1.312a4.853,4.853,0,0,0-2.719.852V-7.523a6.116,6.116,0,0,1,1.41-.469A7.413,7.413,0,0,1,8.5-8.2q3.422,0,3.422,3.414ZM9.6-3.25v-.539L8.149-3.6q-1.2.156-1.2,1.086a.9.9,0,0,0,.293.691,1.126,1.126,0,0,0,.793.27,1.462,1.462,0,0,0,1.133-.48A1.735,1.735,0,0,0,9.6-3.25Zm5.563-6.016a1.442,1.442,0,0,1-1.023-.371,1.2,1.2,0,0,1-.4-.91,1.153,1.153,0,0,1,.4-.906,1.49,1.49,0,0,1,1.023-.352,1.486,1.486,0,0,1,1.027.352,1.158,1.158,0,0,1,.395.906,1.191,1.191,0,0,1-.395.922A1.466,1.466,0,0,1,15.166-9.266ZM16.385-.141A4.349,4.349,0,0,1,15.517,2.7a3.041,3.041,0,0,1-2.5,1.063,3.457,3.457,0,0,1-1.18-.234V1.586a1.923,1.923,0,0,0,.914.289q1.164,0,1.164-1.828V-8h2.469ZM25.69-3.3H20.472q.125,1.742,2.2,1.742a4.286,4.286,0,0,0,2.32-.625V-.4A6.1,6.1,0,0,1,22.1.2,4.058,4.058,0,0,1,19.1-.879a4.058,4.058,0,0,1-1.07-3,4.281,4.281,0,0,1,1.156-3.156A3.852,3.852,0,0,1,22.026-8.2a3.5,3.5,0,0,1,2.707,1.039,4,4,0,0,1,.957,2.82ZM23.4-4.812q0-1.719-1.391-1.719a1.328,1.328,0,0,0-1.027.492,2.234,2.234,0,0,0-.527,1.227Z" transform="translate(441.535 12170.787)" fill="#12263f"/>
    </g>
    <g id="Grupo_1211124" data-name="Grupo 1211124" transform="translate(-4.668 0.617)">
      <g id="Grupo_1211123" data-name="Grupo 1211123" transform="translate(280.005 12143.336)">
        <line id="Línea_3516" data-name="Línea 3516" x2="13.528" transform="translate(0 1.67)" fill="none" stroke="#12263f" stroke-linecap="round" stroke-width="1"/>
        <path id="Polígono_15" data-name="Polígono 15" d="M1.625,0,3.249,7.311H0Z" transform="translate(17.329) rotate(90)" fill="#12263f"/>
      </g>
      <circle id="Elipse_13828" data-name="Elipse 13828" cx="6.67" cy="6.67" r="6.67" transform="translate(270 12138)" fill="#e5effb"/>
      <text id="_-" data-name="-" transform="translate(276.669 12146.905)" fill="#12263f" font-size="7" font-family="SegoeUI-Bold, Segoe UI" font-weight="700" letter-spacing="0.003em"><tspan x="-1.415" y="0">-</tspan></text>
    </g>
    <g id="Grupo_1211132" data-name="Grupo 1211132" transform="translate(85.332 0.617)">
      <g id="Grupo_1211123-2" data-name="Grupo 1211123" transform="translate(280.005 12143.336)">
        <line id="Línea_3516-2" data-name="Línea 3516" x2="13.528" transform="translate(0 1.67)" fill="none" stroke="#12263f" stroke-linecap="round" stroke-width="1"/>
        <path id="Polígono_15-2" data-name="Polígono 15" d="M1.625,0,3.249,7.311H0Z" transform="translate(17.329) rotate(90)" fill="#12263f"/>
      </g>
      <circle id="Elipse_13828-2" data-name="Elipse 13828" cx="6.67" cy="6.67" r="6.67" transform="translate(270 12138)" fill="#e5effb"/>
      <text id="_--2" data-name="-" transform="translate(276.669 12146.905)" fill="#12263f" font-size="7" font-family="SegoeUI-Bold, Segoe UI" font-weight="700" letter-spacing="0.003em"><tspan x="-1.415" y="0">-</tspan></text>
    </g>
    <g id="Grupo_1211128" data-name="Grupo 1211128" transform="translate(13.664 20.617)">
      <g id="Grupo_1211123-3" data-name="Grupo 1211123" transform="translate(280.005 12143.336)">
        <line id="Línea_3516-3" data-name="Línea 3516" x2="13.528" transform="translate(0 1.67)" fill="none" stroke="#12263f" stroke-linecap="round" stroke-width="1"/>
        <path id="Polígono_15-3" data-name="Polígono 15" d="M1.625,0,3.249,7.311H0Z" transform="translate(17.329) rotate(90)" fill="#12263f"/>
      </g>
      <circle id="Elipse_13828-3" data-name="Elipse 13828" cx="6.67" cy="6.67" r="6.67" transform="translate(270 12138)" fill="#e5effb"/>
      <text id="_--3" data-name="-" transform="translate(276.669 12146.905)" fill="#12263f" font-size="7" font-family="SegoeUI-Bold, Segoe UI" font-weight="700" letter-spacing="0.003em"><tspan x="-1.415" y="0">-</tspan></text>
    </g>
    <g id="Grupo_1211129" data-name="Grupo 1211129" transform="translate(54.664 20.617)">
      <g id="Grupo_1211123-4" data-name="Grupo 1211123" transform="translate(280.005 12143.336)">
        <line id="Línea_3516-4" data-name="Línea 3516" x2="13.528" transform="translate(0 1.67)" fill="none" stroke="#12263f" stroke-linecap="round" stroke-width="1"/>
        <path id="Polígono_15-4" data-name="Polígono 15" d="M1.625,0,3.249,7.311H0Z" transform="translate(17.329) rotate(90)" fill="#12263f"/>
      </g>
      <circle id="Elipse_13828-4" data-name="Elipse 13828" cx="6.67" cy="6.67" r="6.67" transform="translate(270 12138)" fill="#e5effb"/>
      <text id="_--4" data-name="-" transform="translate(276.669 12146.905)" fill="#12263f" font-size="7" font-family="SegoeUI-Bold, Segoe UI" font-weight="700" letter-spacing="0.003em"><tspan x="-1.415" y="0">-</tspan></text>
    </g>
    <g id="Grupo_1211130" data-name="Grupo 1211130" transform="translate(91.664 20.617)">
      <g id="Grupo_1211123-5" data-name="Grupo 1211123" transform="translate(280.005 12143.336)">
        <line id="Línea_3516-5" data-name="Línea 3516" x2="13.528" transform="translate(0 1.67)" fill="none" stroke="#12263f" stroke-linecap="round" stroke-width="1"/>
        <path id="Polígono_15-5" data-name="Polígono 15" d="M1.625,0,3.249,7.311H0Z" transform="translate(17.329) rotate(90)" fill="#12263f"/>
      </g>
      <circle id="Elipse_13828-5" data-name="Elipse 13828" cx="6.67" cy="6.67" r="6.67" transform="translate(270 12138)" fill="#e5effb"/>
      <text id="_--5" data-name="-" transform="translate(276.669 12146.905)" fill="#12263f" font-size="7" font-family="SegoeUI-Bold, Segoe UI" font-weight="700" letter-spacing="0.003em"><tspan x="-1.415" y="0">-</tspan></text>
    </g>
    <g id="Grupo_1211127" data-name="Grupo 1211127" transform="translate(-4.668 40.617)">
      <g id="Grupo_1211123-6" data-name="Grupo 1211123" transform="translate(280.005 12143.336)">
        <line id="Línea_3516-6" data-name="Línea 3516" x2="13.528" transform="translate(0 1.67)" fill="none" stroke="#12263f" stroke-linecap="round" stroke-width="1"/>
        <path id="Polígono_15-6" data-name="Polígono 15" d="M1.625,0,3.249,7.311H0Z" transform="translate(17.329) rotate(90)" fill="#12263f"/>
      </g>
      <circle id="Elipse_13828-6" data-name="Elipse 13828" cx="6.67" cy="6.67" r="6.67" transform="translate(270 12138)" fill="#e5effb"/>
      <text id="_--6" data-name="-" transform="translate(276.669 12146.905)" fill="#12263f" font-size="7" font-family="SegoeUI-Bold, Segoe UI" font-weight="700" letter-spacing="0.003em"><tspan x="-1.415" y="0">-</tspan></text>
    </g>
    <g id="Grupo_1211133" data-name="Grupo 1211133" transform="translate(85.332 40.617)">
      <g id="Grupo_1211123-7" data-name="Grupo 1211123" transform="translate(280.005 12143.336)">
        <line id="Línea_3516-7" data-name="Línea 3516" x2="13.528" transform="translate(0 1.67)" fill="none" stroke="#12263f" stroke-linecap="round" stroke-width="1"/>
        <path id="Polígono_15-7" data-name="Polígono 15" d="M1.625,0,3.249,7.311H0Z" transform="translate(17.329) rotate(90)" fill="#12263f"/>
      </g>
      <circle id="Elipse_13828-7" data-name="Elipse 13828" cx="6.67" cy="6.67" r="6.67" transform="translate(270 12138)" fill="#e5effb"/>
      <text id="_--7" data-name="-" transform="translate(276.669 12146.905)" fill="#12263f" font-size="7" font-family="SegoeUI-Bold, Segoe UI" font-weight="700" letter-spacing="0.003em"><tspan x="-1.415" y="0">-</tspan></text>
    </g>
    <g id="Grupo_1211125" data-name="Grupo 1211125" transform="translate(27.332 0.617)">
      <g id="Grupo_1211123-8" data-name="Grupo 1211123" transform="translate(280.005 12143.336)">
        <line id="Línea_3516-8" data-name="Línea 3516" x2="13.528" transform="translate(0 1.67)" fill="none" stroke="#12263f" stroke-linecap="round" stroke-width="1"/>
        <path id="Polígono_15-8" data-name="Polígono 15" d="M1.625,0,3.249,7.311H0Z" transform="translate(17.329) rotate(90)" fill="#12263f"/>
      </g>
      <circle id="Elipse_13828-8" data-name="Elipse 13828" cx="6.67" cy="6.67" r="6.67" transform="translate(270 12138)" fill="#e5effb"/>
      <text id="_--8" data-name="-" transform="translate(276.669 12146.905)" fill="#12263f" font-size="7" font-family="SegoeUI-Bold, Segoe UI" font-weight="700" letter-spacing="0.003em"><tspan x="-1.415" y="0">-</tspan></text>
    </g>
    <g id="Grupo_1211126" data-name="Grupo 1211126" transform="translate(27.332 40.617)">
      <g id="Grupo_1211123-9" data-name="Grupo 1211123" transform="translate(280.005 12143.336)">
        <line id="Línea_3516-9" data-name="Línea 3516" x2="13.528" transform="translate(0 1.67)" fill="none" stroke="#12263f" stroke-linecap="round" stroke-width="1"/>
        <path id="Polígono_15-9" data-name="Polígono 15" d="M1.625,0,3.249,7.311H0Z" transform="translate(17.329) rotate(90)" fill="#12263f"/>
      </g>
      <circle id="Elipse_13828-9" data-name="Elipse 13828" cx="6.67" cy="6.67" r="6.67" transform="translate(270 12138)" fill="#e5effb"/>
      <text id="_--9" data-name="-" transform="translate(276.669 12146.905)" fill="#12263f" font-size="7" font-family="SegoeUI-Bold, Segoe UI" font-weight="700" letter-spacing="0.003em"><tspan x="-1.415" y="0">-</tspan></text>
    </g>
  </g>
</svg>
