<svg id="Grupo_1205413" data-name="Grupo 1205413" xmlns="http://www.w3.org/2000/svg" xmlns:xlink="http://www.w3.org/1999/xlink" width="74.164" height="59.389" viewBox="0 0 74.164 59.389">
  <defs>
    <clipPath id="clip-path">
      <rect id="Rectángulo_530184" data-name="Rectángulo 530184" width="74.164" height="59.389" transform="translate(0 0)" fill="none"/>
    </clipPath>
  </defs>
  <g id="Grupo_1205186" data-name="Grupo 1205186" clip-path="url(#clip-path)">
    <path id="Trazado_1263216" data-name="Trazado 1263216" d="M69.91,59.389H4.253A4.246,4.246,0,0,1,.685,52.841l32.829-50.9a4.245,4.245,0,0,1,7.136,0l32.829,50.9a4.246,4.246,0,0,1-3.569,6.548" fill="#ffcb00"/>
    <path id="Trazado_1263217" data-name="Trazado 1263217" d="M61.1,54.945H13.066A4.594,4.594,0,0,1,9.2,47.859L33.221,10.627a4.593,4.593,0,0,1,7.722,0L64.959,47.859A4.595,4.595,0,0,1,61.1,54.945M37.082,11.5a1.591,1.591,0,0,0-1.36.741L11.706,49.473a1.619,1.619,0,0,0,1.36,2.5H61.1a1.619,1.619,0,0,0,1.36-2.5L38.441,12.24a1.587,1.587,0,0,0-1.359-.741" fill="#3c3c3c"/>
    <path id="Trazado_1263218" data-name="Trazado 1263218" d="M32.256,35.822,41.408,22.8H33.326L27.493,40.213,38.73,37.088l-3.457,8.064-1.431-2.021-.307,7.5,5.473-5.141-2.464.241,8.9-13.71Z" fill="#3c3c3c"/>
  </g>
</svg>
