<svg id="Grupo_1205414" data-name="Grupo 1205414" xmlns="http://www.w3.org/2000/svg" xmlns:xlink="http://www.w3.org/1999/xlink" width="52.339" height="59.318" viewBox="0 0 52.339 59.318">
  <defs>
    <clipPath id="clip-path">
      <rect id="Rectángulo_530236" data-name="Rectángulo 530236" width="52.339" height="59.318" transform="translate(0 0)" fill="none"/>
    </clipPath>
  </defs>
  <rect id="Rectángulo_530185" data-name="Rectángulo 530185" width="43.605" height="7.61" transform="translate(4.754 51.708)" fill="#3c3c3c"/>
  <rect id="Rectángulo_530186" data-name="Rectángulo 530186" width="43.604" height="5.193" transform="translate(4.754 51.708)" fill="#1e1e1e"/>
  <g id="Grupo_1205189" data-name="Grupo 1205189">
    <g id="Grupo_1205188" data-name="Grupo 1205188" clip-path="url(#clip-path)">
      <path id="Trazado_1263219" data-name="Trazado 1263219" d="M48.553,54.092H3.787A3.787,3.787,0,0,1,0,50.306V3.787A3.788,3.788,0,0,1,3.787,0H48.553a3.787,3.787,0,0,1,3.786,3.787V50.306a3.786,3.786,0,0,1-3.786,3.786" fill="#717e90"/>
      <rect id="Rectángulo_530187" data-name="Rectángulo 530187" width="41.424" height="31.855" transform="translate(5.458 6.157)" fill="#aeaeae"/>
      <rect id="Rectángulo_530188" data-name="Rectángulo 530188" width="38.798" height="28.727" transform="translate(8.084 9.285)" fill="#e5e5e5"/>
      <rect id="Rectángulo_530189" data-name="Rectángulo 530189" width="0.684" height="2.283" transform="translate(25.828 10.016)" fill="#3c3c3c"/>
      <rect id="Rectángulo_530190" data-name="Rectángulo 530190" width="0.683" height="2.282" transform="matrix(0.997, -0.079, 0.079, 0.997, 24.466, 10.098)" fill="#3c3c3c"/>
      <rect id="Rectángulo_530191" data-name="Rectángulo 530191" width="0.683" height="2.283" transform="matrix(0.988, -0.157, 0.157, 0.988, 23.115, 10.285)" fill="#3c3c3c"/>
      <rect id="Rectángulo_530192" data-name="Rectángulo 530192" width="0.683" height="2.283" transform="matrix(0.972, -0.234, 0.234, 0.972, 21.782, 10.577)" fill="#3c3c3c"/>
      <rect id="Rectángulo_530193" data-name="Rectángulo 530193" width="0.683" height="2.283" transform="translate(20.477 10.973) rotate(-18.01)" fill="#3c3c3c"/>
      <rect id="Rectángulo_530194" data-name="Rectángulo 530194" width="0.683" height="2.283" transform="translate(19.206 11.47) rotate(-22.517)" fill="#3c3c3c"/>
      <rect id="Rectángulo_530195" data-name="Rectángulo 530195" width="0.683" height="2.283" transform="matrix(0.89, -0.455, 0.455, 0.89, 17.978, 12.067)" fill="#3c3c3c"/>
      <rect id="Rectángulo_530196" data-name="Rectángulo 530196" width="0.683" height="2.283" transform="translate(16.802 12.756) rotate(-31.553)" fill="#3c3c3c"/>
      <rect id="Rectángulo_530197" data-name="Rectángulo 530197" width="0.683" height="2.283" transform="matrix(0.81, -0.587, 0.587, 0.81, 15.684, 13.534)" fill="#3c3c3c"/>
      <path id="Trazado_1263220" data-name="Trazado 1263220" d="M16.631,15.693l-.52.443L14.629,14.4l.52-.443Z" fill="#3c3c3c"/>
      <path id="Trazado_1263221" data-name="Trazado 1263221" d="M15.742,16.478l-.482.483-1.615-1.615.483-.482Z" fill="#3c3c3c"/>
      <rect id="Rectángulo_530198" data-name="Rectángulo 530198" width="0.683" height="2.283" transform="matrix(0.649, -0.76, 0.76, 0.649, 12.739, 16.367)" fill="#3c3c3c"/>
      <rect id="Rectángulo_530199" data-name="Rectángulo 530199" width="0.683" height="2.283" transform="translate(11.915 17.455) rotate(-54.053)" fill="#3c3c3c"/>
      <rect id="Rectángulo_530200" data-name="Rectángulo 530200" width="0.683" height="2.283" transform="translate(11.18 18.605) rotate(-58.59)" fill="#3c3c3c"/>
      <rect id="Rectángulo_530201" data-name="Rectángulo 530201" width="0.683" height="2.283" transform="matrix(0.455, -0.891, 0.891, 0.455, 10.537, 19.805)" fill="#3c3c3c"/>
      <rect id="Rectángulo_530202" data-name="Rectángulo 530202" width="0.683" height="2.283" transform="translate(9.991 21.055) rotate(-67.451)" fill="#3c3c3c"/>
      <rect id="Rectángulo_530203" data-name="Rectángulo 530203" width="0.683" height="2.283" transform="translate(9.544 22.345) rotate(-72.016)" fill="#3c3c3c"/>
      <rect id="Rectángulo_530204" data-name="Rectángulo 530204" width="0.683" height="2.283" transform="translate(9.199 23.666) rotate(-76.553)" fill="#3c3c3c"/>
      <rect id="Rectángulo_530205" data-name="Rectángulo 530205" width="0.683" height="2.283" transform="translate(8.959 25.008) rotate(-80.993)" fill="#3c3c3c"/>
      <rect id="Rectángulo_530206" data-name="Rectángulo 530206" width="0.684" height="2.283" transform="translate(8.826 26.365) rotate(-85.473)" fill="#3c3c3c"/>
      <rect id="Rectángulo_530207" data-name="Rectángulo 530207" width="2.283" height="0.683" transform="translate(8.799 27.046)" fill="#3c3c3c"/>
      <rect id="Rectángulo_530208" data-name="Rectángulo 530208" width="2.283" height="0.683" transform="translate(41.258 27.047)" fill="#3c3c3c"/>
      <rect id="Rectángulo_530209" data-name="Rectángulo 530209" width="2.283" height="0.683" transform="translate(41.184 25.864) rotate(-4.527)" fill="#3c3c3c"/>
      <rect id="Rectángulo_530210" data-name="Rectángulo 530210" width="2.284" height="0.684" transform="matrix(0.988, -0.157, 0.157, 0.988, 41.018, 24.69)" fill="#3c3c3c"/>
      <rect id="Rectángulo_530211" data-name="Rectángulo 530211" width="2.283" height="0.683" transform="translate(40.761 23.534) rotate(-13.529)" fill="#3c3c3c"/>
      <rect id="Rectángulo_530212" data-name="Rectángulo 530212" width="2.283" height="0.683" transform="matrix(0.951, -0.309, 0.309, 0.951, 40.414, 22.401)" fill="#3c3c3c"/>
      <rect id="Rectángulo_530213" data-name="Rectángulo 530213" width="2.283" height="0.683" transform="matrix(0.924, -0.383, 0.383, 0.924, 39.979, 21.3)" fill="#3c3c3c"/>
      <rect id="Rectángulo_530214" data-name="Rectángulo 530214" width="2.283" height="0.683" transform="translate(39.458 20.233) rotate(-26.978)" fill="#3c3c3c"/>
      <rect id="Rectángulo_530215" data-name="Rectángulo 530215" width="2.283" height="0.683" transform="matrix(0.853, -0.522, 0.522, 0.853, 38.856, 19.213)" fill="#3c3c3c"/>
      <rect id="Rectángulo_530216" data-name="Rectángulo 530216" width="2.283" height="0.683" transform="translate(38.175 18.242) rotate(-35.947)" fill="#3c3c3c"/>
      <path id="Trazado_1263222" data-name="Trazado 1263222" d="M37.864,17.849l-.443-.52,1.736-1.482.443.52Z" fill="#3c3c3c"/>
      <rect id="Rectángulo_530217" data-name="Rectángulo 530217" width="2.283" height="0.683" transform="matrix(0.708, -0.706, 0.706, 0.708, 36.597, 16.477)" fill="#3c3c3c"/>
      <rect id="Rectángulo_530218" data-name="Rectángulo 530218" width="2.283" height="0.683" transform="translate(35.709 15.695) rotate(-49.572)" fill="#3c3c3c"/>
      <rect id="Rectángulo_530219" data-name="Rectángulo 530219" width="2.283" height="0.683" transform="translate(34.762 14.981) rotate(-54.053)" fill="#3c3c3c"/>
      <rect id="Rectángulo_530220" data-name="Rectángulo 530220" width="2.283" height="0.683" transform="translate(33.761 14.344) rotate(-58.448)" fill="#3c3c3c"/>
      <rect id="Rectángulo_530221" data-name="Rectángulo 530221" width="2.283" height="0.683" transform="matrix(0.455, -0.891, 0.891, 0.455, 32.715, 13.788)" fill="#3c3c3c"/>
      <rect id="Rectángulo_530222" data-name="Rectángulo 530222" width="2.282" height="0.684" transform="translate(31.628 13.317) rotate(-67.483)" fill="#3c3c3c"/>
      <rect id="Rectángulo_530223" data-name="Rectángulo 530223" width="2.283" height="0.682" transform="matrix(0.309, -0.951, 0.951, 0.309, 30.508, 12.932)" fill="#3c3c3c"/>
      <rect id="Rectángulo_530224" data-name="Rectángulo 530224" width="2.283" height="0.683" transform="translate(29.359 12.637) rotate(-76.452)" fill="#3c3c3c"/>
      <rect id="Rectángulo_530225" data-name="Rectángulo 530225" width="2.283" height="0.683" transform="matrix(0.157, -0.988, 0.988, 0.157, 28.193, 12.432)" fill="#3c3c3c"/>
      <rect id="Rectángulo_530226" data-name="Rectángulo 530226" width="2.282" height="0.684" transform="matrix(0.079, -0.997, 0.997, 0.079, 27.012, 12.319)" fill="#3c3c3c"/>
      <rect id="Rectángulo_530227" data-name="Rectángulo 530227" width="0.684" height="3.771" transform="translate(25.828 8.528)" fill="#3c3c3c"/>
      <rect id="Rectángulo_530228" data-name="Rectángulo 530228" width="0.684" height="3.772" transform="translate(18.636 10.095) rotate(-22.517)" fill="#3c3c3c"/>
      <rect id="Rectángulo_530229" data-name="Rectángulo 530229" width="0.682" height="3.772" transform="matrix(0.706, -0.708, 0.708, 0.706, 12.592, 14.294)" fill="#3c3c3c"/>
      <rect id="Rectángulo_530230" data-name="Rectángulo 530230" width="0.683" height="3.771" transform="translate(8.616 20.485) rotate(-67.451)" fill="#3c3c3c"/>
      <rect id="Rectángulo_530231" data-name="Rectángulo 530231" width="3.772" height="0.683" transform="translate(7.31 27.046)" fill="#3c3c3c"/>
      <rect id="Rectángulo_530232" data-name="Rectángulo 530232" width="3.771" height="0.683" transform="translate(41.258 27.047)" fill="#3c3c3c"/>
      <rect id="Rectángulo_530233" data-name="Rectángulo 530233" width="3.772" height="0.683" transform="matrix(0.924, -0.383, 0.383, 0.924, 39.979, 21.301)" fill="#3c3c3c"/>
      <rect id="Rectángulo_530234" data-name="Rectángulo 530234" width="3.772" height="0.682" transform="matrix(0.708, -0.706, 0.706, 0.708, 36.597, 16.477)" fill="#3c3c3c"/>
      <rect id="Rectángulo_530235" data-name="Rectángulo 530235" width="3.771" height="0.684" transform="translate(31.628 13.317) rotate(-67.483)" fill="#3c3c3c"/>
      <path id="Trazado_1263223" data-name="Trazado 1263223" d="M26.993,30.49,7.969,26.558a.655.655,0,0,0-.781.543l0,.013a.657.657,0,0,0,.458.724l18.624,5.5a25.042,25.042,0,0,1,.725-2.853" fill="#3c3c3c"/>
      <path id="Trazado_1263224" data-name="Trazado 1263224" d="M29.69,31.356a3.542,3.542,0,1,1-3.542-3.543,3.542,3.542,0,0,1,3.542,3.543" fill="#3c3c3c"/>
      <path id="Trazado_1263225" data-name="Trazado 1263225" d="M11.221,45.731a2.881,2.881,0,1,1-2.882-2.882,2.881,2.881,0,0,1,2.882,2.882" fill="#3c3c3c"/>
      <path id="Trazado_1263226" data-name="Trazado 1263226" d="M21.039,45.731a2.881,2.881,0,1,1-2.881-2.882,2.881,2.881,0,0,1,2.881,2.882" fill="#3c3c3c"/>
      <path id="Trazado_1263227" data-name="Trazado 1263227" d="M46.882,45.731A2.882,2.882,0,1,1,44,42.849a2.881,2.881,0,0,1,2.881,2.882" fill="#3c3c3c"/>
    </g>
  </g>
</svg>
