<svg id="Grupo_1205416" data-name="Grupo 1205416" xmlns="http://www.w3.org/2000/svg" xmlns:xlink="http://www.w3.org/1999/xlink" width="69.737" height="65.967" viewBox="0 0 69.737 65.967">
  <defs>
    <clipPath id="clip-path">
      <rect id="Rectángulo_530251" data-name="Rectángulo 530251" width="69.737" height="65.967" transform="translate(0 0)" fill="none"/>
    </clipPath>
  </defs>
  <g id="Grupo_1205198" data-name="Grupo 1205198" clip-path="url(#clip-path)">
    <path id="Trazado_1263273" data-name="Trazado 1263273" d="M63.517,30.275a2.284,2.284,0,0,1,.989-.213,2.17,2.17,0,0,1,1.273.381V0H5.843V34.038a2.234,2.234,0,0,1,.989-.253,2.13,2.13,0,0,1,1.272.4V2.261H63.517Z" fill="#fff"/>
    <path id="Trazado_1263274" data-name="Trazado 1263274" d="M63.517,45.978V58.239H51.749V60.5h14.03V45.743a2.562,2.562,0,0,1-2.262.235" fill="#fff"/>
    <path id="Trazado_1263275" data-name="Trazado 1263275" d="M46.507,58.239H8.1V44.687a2.439,2.439,0,0,1-1.638.184,2.25,2.25,0,0,1-.624-.287V60.5H46.507Z" fill="#fff"/>
    <path id="Trazado_1263276" data-name="Trazado 1263276" d="M69.737,47.308H59.559V28.837H69.737Zm-7.916-2.262h5.654V31.1H61.821Z" fill="#fff"/>
    <path id="Trazado_1263277" data-name="Trazado 1263277" d="M40.9,47.308H30.721V28.837H40.9Zm-7.916-2.262h5.654V31.1H32.983Z" fill="#fff"/>
    <rect id="Rectángulo_530247" data-name="Rectángulo 530247" width="2.262" height="13.192" transform="translate(45.8 52.775)" fill="#fff"/>
    <rect id="Rectángulo_530248" data-name="Rectángulo 530248" width="2.262" height="13.192" transform="translate(50.3 52.775)" fill="#fff"/>
    <path id="Trazado_1263278" data-name="Trazado 1263278" d="M12.849,17.717H6.974v2.262h5.68a2.523,2.523,0,0,1,.195-2.262" fill="#fff"/>
    <path id="Trazado_1263279" data-name="Trazado 1263279" d="M45.921,17.717H30.766a2.456,2.456,0,0,1-.5,2.262H45.816a2.328,2.328,0,0,1-.171-.448,2.468,2.468,0,0,1,.276-1.814" fill="#fff"/>
    <path id="Trazado_1263280" data-name="Trazado 1263280" d="M55.088,17.717a2.538,2.538,0,0,1,.115,2.262h9.445V17.717Z" fill="#fff"/>
    <path id="Trazado_1263281" data-name="Trazado 1263281" d="M12.99,19.978c.081-1.877.855-3.159,1.556-3.159S16.02,18.1,16.1,19.978h1.513c-.093-2.88-1.405-5.094-3.068-5.094S11.57,17.1,11.478,19.978Z" fill="#fff"/>
    <path id="Trazado_1263282" data-name="Trazado 1263282" d="M17.63,19.978c.081-1.877.855-3.159,1.556-3.159s1.474,1.282,1.555,3.159h1.513c-.093-2.88-1.4-5.094-3.068-5.094S16.21,17.1,16.118,19.978Z" fill="#fff"/>
    <path id="Trazado_1263283" data-name="Trazado 1263283" d="M22.271,19.978c.08-1.877.855-3.159,1.555-3.159S25.3,18.1,25.382,19.978h1.511c-.091-2.88-1.4-5.094-3.067-5.094s-2.975,2.214-3.068,5.094Z" fill="#fff"/>
    <path id="Trazado_1263284" data-name="Trazado 1263284" d="M26.911,19.978c.081-1.877.855-3.159,1.556-3.159s1.474,1.282,1.555,3.159h1.513c-.093-2.88-1.405-5.094-3.068-5.094S25.491,17.1,25.4,19.978Z" fill="#fff"/>
    <path id="Trazado_1263285" data-name="Trazado 1263285" d="M36.941,30.1V18.848H34.679V29.954a2.535,2.535,0,0,1,2.262.145" fill="#fff"/>
    <path id="Trazado_1263286" data-name="Trazado 1263286" d="M34.68,45.866v13.5h2.262V46.108a2.412,2.412,0,0,1-2.262-.242" fill="#fff"/>
    <path id="Trazado_1263287" data-name="Trazado 1263287" d="M6.974,46.083a6.974,6.974,0,1,1,6.974-6.974,6.983,6.983,0,0,1-6.974,6.974m0-11.686a4.712,4.712,0,1,0,4.712,4.712A4.717,4.717,0,0,0,6.974,34.4" fill="#fff"/>
    <path id="Trazado_1263288" data-name="Trazado 1263288" d="M50.512,25.445a6.6,6.6,0,1,1,6.6-6.6,6.6,6.6,0,0,1-6.6,6.6m0-10.932a4.335,4.335,0,1,0,4.335,4.335,4.34,4.34,0,0,0-4.335-4.335" fill="#fff"/>
    <path id="Trazado_1263289" data-name="Trazado 1263289" d="M10.225,18.848A3.252,3.252,0,1,1,6.974,15.6a3.252,3.252,0,0,1,3.251,3.251" fill="#fff"/>
    <path id="Trazado_1263290" data-name="Trazado 1263290" d="M67.9,18.848A3.251,3.251,0,1,1,64.648,15.6,3.252,3.252,0,0,1,67.9,18.848" fill="#fff"/>
    <path id="Trazado_1263291" data-name="Trazado 1263291" d="M39.062,18.848A3.251,3.251,0,1,1,35.811,15.6a3.252,3.252,0,0,1,3.251,3.251" fill="#fff"/>
    <path id="Trazado_1263292" data-name="Trazado 1263292" d="M39.062,59.37a3.251,3.251,0,1,1-3.251-3.251,3.252,3.252,0,0,1,3.251,3.251" fill="#fff"/>
    <rect id="Rectángulo_530249" data-name="Rectángulo 530249" width="1.131" height="2.827" transform="translate(6.408 36.08)" fill="#fff"/>
    <path id="Trazado_1263293" data-name="Trazado 1263293" d="M4.274,38.025h5.4l-2.7,4.814Z" fill="#fff"/>
    <rect id="Rectángulo_530250" data-name="Rectángulo 530250" width="2.827" height="1.131" transform="translate(51.065 18.282)" fill="#fff"/>
    <path id="Trazado_1263294" data-name="Trazado 1263294" d="M51.947,16.148v5.4l-4.815-2.7Z" fill="#fff"/>
  </g>
</svg>
