<svg id="Grupo_1205415" data-name="Grupo 1205415" xmlns="http://www.w3.org/2000/svg" xmlns:xlink="http://www.w3.org/1999/xlink" width="54.491" height="67.664" viewBox="0 0 54.491 67.664">
  <defs>
    <clipPath id="clip-path">
      <rect id="Rectángulo_530246" data-name="Rectángulo 530246" width="54.491" height="67.664" fill="none"/>
    </clipPath>
    <clipPath id="clip-path-2">
      <rect id="Rectángulo_530245" data-name="Rectángulo 530245" width="54.491" height="67.664" transform="translate(0 0)" fill="none"/>
    </clipPath>
    <clipPath id="clip-path-3">
      <rect id="Rectángulo_530239" data-name="Rectángulo 530239" width="10.28" height="15.005" transform="translate(15.79 32.001)" fill="none"/>
    </clipPath>
  </defs>
  <g id="Grupo_1205196" data-name="Grupo 1205196" clip-path="url(#clip-path)">
    <g id="Grupo_1205195" data-name="Grupo 1205195">
      <g id="Grupo_1205194" data-name="Grupo 1205194" clip-path="url(#clip-path-2)">
        <path id="Trazado_1263228" data-name="Trazado 1263228" d="M47.3,12.3h-.015a.745.745,0,0,1-.745-.744V2.281a.746.746,0,0,1,.745-.745H47.3a.745.745,0,0,1,.744.745v9.275a.744.744,0,0,1-.744.744" fill="#dedede"/>
        <path id="Trazado_1263229" data-name="Trazado 1263229" d="M52.521,10.89h-.016a.745.745,0,0,1-.745-.744V.87a.745.745,0,0,1,.745-.744h.016a.744.744,0,0,1,.743.744v9.276a.744.744,0,0,1-.743.744" fill="#dedede"/>
        <path id="Trazado_1263230" data-name="Trazado 1263230" d="M32.959,57.143H3.132A3.232,3.232,0,0,1,0,53.819V3.324A3.232,3.232,0,0,1,3.132,0H32.959a3.233,3.233,0,0,1,3.132,3.324v50.5a3.233,3.233,0,0,1-3.132,3.324" fill="#717e90"/>
        <path id="Trazado_1263231" data-name="Trazado 1263231" d="M31.369,21.369H4.722a1.555,1.555,0,0,1-1.556-1.555V5.512A1.556,1.556,0,0,1,4.722,3.957H31.369a1.556,1.556,0,0,1,1.556,1.555v14.3a1.556,1.556,0,0,1-1.556,1.555" fill="#3c3c3c"/>
        <rect id="Rectángulo_530237" data-name="Rectángulo 530237" width="23.78" height="11.713" transform="translate(6.156 6.807)" fill="#acacac"/>
        <rect id="Rectángulo_530238" data-name="Rectángulo 530238" width="21.941" height="9.735" transform="translate(7.995 8.785)" fill="#e5e5e5"/>
        <path id="Trazado_1263232" data-name="Trazado 1263232" d="M27.784,38.978a9.739,9.739,0,1,1-9.739-9.739,9.739,9.739,0,0,1,9.739,9.739" fill="#3c3c3c"/>
        <path id="Trazado_1263233" data-name="Trazado 1263233" d="M26.073,38.978a8.028,8.028,0,1,1-8.028-8.028,8.028,8.028,0,0,1,8.028,8.028" fill="#535353"/>
        <g id="Grupo_1205193" data-name="Grupo 1205193" opacity="0.47" style="mix-blend-mode: multiply;isolation: isolate">
          <g id="Grupo_1205192" data-name="Grupo 1205192">
            <g id="Grupo_1205191" data-name="Grupo 1205191" clip-path="url(#clip-path-3)">
              <path id="Trazado_1263234" data-name="Trazado 1263234" d="M18.883,32,15.79,45.556l1.4,1.4a8.263,8.263,0,0,0,.852.045,8.026,8.026,0,0,0,8.025-7.9Z" fill="#383838"/>
            </g>
          </g>
        </g>
        <path id="Trazado_1263235" data-name="Trazado 1263235" d="M15.528,44.653l.928-11.563a1.325,1.325,0,0,1,1.321-1.219h.536a1.325,1.325,0,0,1,1.321,1.219l.928,11.563a1.326,1.326,0,0,1-1.321,1.432H16.849a1.326,1.326,0,0,1-1.321-1.432" fill="#7c7c7c"/>
        <path id="Trazado_1263236" data-name="Trazado 1263236" d="M20.092,38.78H16l-.47,5.873a1.324,1.324,0,0,0,1.321,1.431h2.391a1.326,1.326,0,0,0,1.322-1.431Z" fill="#666"/>
        <rect id="Rectángulo_530240" data-name="Rectángulo 530240" width="5.979" height="3.667" transform="translate(3.166 23.586)" fill="#ffcb00"/>
        <rect id="Rectángulo_530241" data-name="Rectángulo 530241" width="5.978" height="3.667" transform="translate(11.093 23.586)" fill="#b0b0b0"/>
        <rect id="Rectángulo_530242" data-name="Rectángulo 530242" width="5.979" height="3.667" transform="translate(19.019 23.586)" fill="#b0b0b0"/>
        <rect id="Rectángulo_530243" data-name="Rectángulo 530243" width="5.979" height="3.667" transform="translate(26.946 23.586)" fill="#96c6d8"/>
        <path id="Trazado_1263237" data-name="Trazado 1263237" d="M11.862,11.511,10.221,11.5a.223.223,0,0,1-.207-.154l-.172-.536a.223.223,0,0,1,.209-.292l1.992.011a.222.222,0,0,1,.2.3l-.177.534a.219.219,0,0,1-.209.151" fill="#3d4144"/>
        <path id="Trazado_1263238" data-name="Trazado 1263238" d="M10.158,11.756l-.014,1.8a.239.239,0,0,1-.15.227l-.527.189a.223.223,0,0,1-.286-.231L9.2,11.556a.222.222,0,0,1,.29-.225l.524.2a.239.239,0,0,1,.147.229" fill="#3d4144"/>
        <path id="Trazado_1263239" data-name="Trazado 1263239" d="M11.9,11.766l-.007,1.8a.241.241,0,0,0,.149.229l.524.194a.223.223,0,0,0,.288-.228l.009-2.188a.224.224,0,0,0-.288-.23l-.525.191a.24.24,0,0,0-.15.228" fill="#3d4144"/>
        <path id="Trazado_1263240" data-name="Trazado 1263240" d="M10.134,14.891l-.014,1.792a.238.238,0,0,1-.151.226l-.526.186a.223.223,0,0,1-.287-.229l.017-2.173a.223.223,0,0,1,.29-.225l.524.195a.241.241,0,0,1,.147.228" fill="#3d4144"/>
        <path id="Trazado_1263241" data-name="Trazado 1263241" d="M11.871,14.9l-.006,1.792a.24.24,0,0,0,.149.228l.524.192a.222.222,0,0,0,.288-.226l.008-2.174a.223.223,0,0,0-.287-.228l-.526.189a.243.243,0,0,0-.15.227" fill="#3d4144"/>
        <path id="Trazado_1263242" data-name="Trazado 1263242" d="M10.191,17.057l1.641.009a.222.222,0,0,1,.207.154l.172.535a.224.224,0,0,1-.211.293l-1.989-.012a.222.222,0,0,1-.206-.294l.177-.534a.219.219,0,0,1,.209-.151" fill="#3d4144"/>
        <path id="Trazado_1263243" data-name="Trazado 1263243" d="M17.578,11.511,15.937,11.5a.223.223,0,0,1-.207-.154l-.172-.536a.223.223,0,0,1,.209-.292l1.992.011a.223.223,0,0,1,.206.3l-.178.534a.219.219,0,0,1-.209.151" fill="#3d4144"/>
        <path id="Trazado_1263244" data-name="Trazado 1263244" d="M15.874,11.756l-.014,1.8a.239.239,0,0,1-.15.227l-.526.189a.224.224,0,0,1-.287-.231l.016-2.189a.223.223,0,0,1,.29-.225l.524.2a.239.239,0,0,1,.147.229" fill="#3d4144"/>
        <path id="Trazado_1263245" data-name="Trazado 1263245" d="M17.612,11.766l-.007,1.8a.24.24,0,0,0,.15.229l.523.194a.223.223,0,0,0,.288-.228l.009-2.188a.224.224,0,0,0-.288-.23l-.525.191a.24.24,0,0,0-.15.228" fill="#3d4144"/>
        <path id="Trazado_1263246" data-name="Trazado 1263246" d="M15.85,14.891l-.014,1.792a.238.238,0,0,1-.151.226l-.525.186a.223.223,0,0,1-.288-.229l.017-2.173a.223.223,0,0,1,.29-.225l.524.195a.24.24,0,0,1,.147.228" fill="#3d4144"/>
        <path id="Trazado_1263247" data-name="Trazado 1263247" d="M17.588,14.9l-.007,1.792a.24.24,0,0,0,.149.228l.524.192a.222.222,0,0,0,.288-.226l.008-2.174a.223.223,0,0,0-.287-.228l-.525.189a.24.24,0,0,0-.15.227" fill="#3d4144"/>
        <path id="Trazado_1263248" data-name="Trazado 1263248" d="M15.907,17.057l1.641.009a.222.222,0,0,1,.207.154l.172.535a.224.224,0,0,1-.209.293l-1.991-.012a.222.222,0,0,1-.206-.294l.177-.534a.219.219,0,0,1,.209-.151" fill="#3d4144"/>
        <path id="Trazado_1263249" data-name="Trazado 1263249" d="M22.017,11.511,20.376,11.5a.223.223,0,0,1-.207-.154L20,10.812a.223.223,0,0,1,.209-.292l1.992.011a.223.223,0,0,1,.2.3l-.177.534a.219.219,0,0,1-.209.151" fill="#3d4144"/>
        <path id="Trazado_1263250" data-name="Trazado 1263250" d="M20.313,11.756l-.014,1.8a.239.239,0,0,1-.151.227l-.526.189a.223.223,0,0,1-.286-.231l.016-2.189a.223.223,0,0,1,.29-.225l.524.2a.239.239,0,0,1,.147.229" fill="#3d4144"/>
        <path id="Trazado_1263251" data-name="Trazado 1263251" d="M22.051,11.766l-.006,1.8a.241.241,0,0,0,.149.229l.524.194a.223.223,0,0,0,.288-.228l.009-2.188a.224.224,0,0,0-.288-.23l-.525.191a.242.242,0,0,0-.151.228" fill="#3d4144"/>
        <path id="Trazado_1263252" data-name="Trazado 1263252" d="M20.289,14.891l-.014,1.792a.238.238,0,0,1-.151.226l-.526.186a.223.223,0,0,1-.287-.229l.017-2.173a.223.223,0,0,1,.29-.225l.524.195a.241.241,0,0,1,.147.228" fill="#3d4144"/>
        <path id="Trazado_1263253" data-name="Trazado 1263253" d="M22.026,14.9l-.007,1.792a.241.241,0,0,0,.15.228l.524.192a.222.222,0,0,0,.288-.226l.008-2.174a.223.223,0,0,0-.287-.228l-.526.189a.241.241,0,0,0-.15.227" fill="#3d4144"/>
        <path id="Trazado_1263254" data-name="Trazado 1263254" d="M20.347,17.057l1.641.009a.222.222,0,0,1,.207.154l.172.535a.224.224,0,0,1-.21.293l-1.991-.012a.221.221,0,0,1-.2-.294l.177-.534a.218.218,0,0,1,.209-.151" fill="#3d4144"/>
        <path id="Trazado_1263255" data-name="Trazado 1263255" d="M26.457,11.511,24.816,11.5a.222.222,0,0,1-.207-.154l-.172-.536a.223.223,0,0,1,.209-.292l1.991.011a.223.223,0,0,1,.206.3l-.177.534a.22.22,0,0,1-.209.151" fill="#3d4144"/>
        <path id="Trazado_1263256" data-name="Trazado 1263256" d="M24.753,11.756l-.014,1.8a.239.239,0,0,1-.151.227l-.526.189a.224.224,0,0,1-.287-.231l.017-2.189a.222.222,0,0,1,.29-.225l.524.2a.239.239,0,0,1,.147.229" fill="#3d4144"/>
        <path id="Trazado_1263257" data-name="Trazado 1263257" d="M26.49,11.766l-.006,1.8a.239.239,0,0,0,.149.229l.523.194a.223.223,0,0,0,.289-.228l.008-2.188a.223.223,0,0,0-.287-.23l-.525.191a.242.242,0,0,0-.151.228" fill="#3d4144"/>
        <path id="Trazado_1263258" data-name="Trazado 1263258" d="M24.729,14.891l-.015,1.792a.238.238,0,0,1-.151.226l-.525.186a.224.224,0,0,1-.288-.229l.017-2.173a.223.223,0,0,1,.29-.225l.523.195a.24.24,0,0,1,.149.228" fill="#3d4144"/>
        <path id="Trazado_1263259" data-name="Trazado 1263259" d="M26.466,14.9l-.007,1.792a.241.241,0,0,0,.15.228l.523.192a.223.223,0,0,0,.289-.226l.008-2.174a.223.223,0,0,0-.287-.228l-.526.189a.241.241,0,0,0-.15.227" fill="#3d4144"/>
        <path id="Trazado_1263260" data-name="Trazado 1263260" d="M24.786,17.057l1.641.009a.223.223,0,0,1,.207.154l.172.535a.224.224,0,0,1-.21.293L24.6,18.036a.222.222,0,0,1-.206-.294l.178-.534a.218.218,0,0,1,.209-.151" fill="#3d4144"/>
        <rect id="Rectángulo_530244" data-name="Rectángulo 530244" width="0.744" height="0.758" transform="translate(13.19 17.268)" fill="#3d4144"/>
        <path id="Trazado_1263261" data-name="Trazado 1263261" d="M8.785,51.92a2.63,2.63,0,1,1-2.63-2.63,2.63,2.63,0,0,1,2.63,2.63" fill="#b0b0b0"/>
        <path id="Trazado_1263262" data-name="Trazado 1263262" d="M33.339,51.92a2.631,2.631,0,1,1-2.63-2.63,2.63,2.63,0,0,1,2.63,2.63" fill="#535353"/>
        <path id="Trazado_1263263" data-name="Trazado 1263263" d="M7.813,51.92a1.658,1.658,0,1,1-1.658-1.658A1.659,1.659,0,0,1,7.813,51.92" fill="#2b2b2b"/>
        <path id="Trazado_1263264" data-name="Trazado 1263264" d="M32.366,51.92a1.658,1.658,0,1,1-1.657-1.658,1.658,1.658,0,0,1,1.657,1.658" fill="#2b2b2b"/>
        <path id="Trazado_1263265" data-name="Trazado 1263265" d="M26.381,51.92a2.63,2.63,0,1,1-2.63-2.63,2.63,2.63,0,0,1,2.63,2.63" fill="#535353"/>
        <path id="Trazado_1263266" data-name="Trazado 1263266" d="M25.408,51.92a1.657,1.657,0,1,1-1.657-1.658,1.658,1.658,0,0,1,1.657,1.658" fill="#2b2b2b"/>
        <path id="Trazado_1263267" data-name="Trazado 1263267" d="M41.243,61.033h-.087a7.224,7.224,0,0,1-5.143-2.13l-6.144-6.144,1.679-1.679,6.144,6.144a4.867,4.867,0,0,0,3.464,1.435h.087a4.9,4.9,0,0,0,4.9-4.9V13.653h2.375V53.76a7.282,7.282,0,0,1-7.273,7.273" fill="#d12f35"/>
        <path id="Trazado_1263268" data-name="Trazado 1263268" d="M43.038,67.664a12.3,12.3,0,0,1-8.212-3.311l-.034-.031L22.923,52.771l1.656-1.7L36.432,62.6A9.509,9.509,0,0,0,43.7,65.254l.086-.013h.094c4.307,0,7.432-3.4,7.432-8.1V11.9h2.374V57.143c0,5.941-4.175,10.428-9.726,10.471a7.585,7.585,0,0,1-.923.05" fill="#3c3c3c"/>
        <path id="Trazado_1263269" data-name="Trazado 1263269" d="M33.777,54.012l-.977.977a1.285,1.285,0,0,1-1.668.127l-3.475-2.55a1.287,1.287,0,0,1-.149-1.946l1.9-1.9a1.283,1.283,0,0,1,1.944.148L33.9,52.343a1.285,1.285,0,0,1-.128,1.669" fill="#d12f35"/>
        <path id="Trazado_1263270" data-name="Trazado 1263270" d="M27.054,54.28l-.976.977a1.286,1.286,0,0,1-1.67.127l-3.474-2.55a1.286,1.286,0,0,1-.149-1.945l1.9-1.9a1.284,1.284,0,0,1,1.944.148l2.551,3.475a1.285,1.285,0,0,1-.128,1.669" fill="#3c3c3c"/>
        <path id="Trazado_1263271" data-name="Trazado 1263271" d="M47.31,15.4h-.04a1.959,1.959,0,0,1-1.959-1.959V7.624h3.956v5.815A1.958,1.958,0,0,1,47.31,15.4" fill="#d12f35"/>
        <path id="Trazado_1263272" data-name="Trazado 1263272" d="M52.533,13.987h-.04a1.959,1.959,0,0,1-1.959-1.959V6.213h3.957v5.815a1.959,1.959,0,0,1-1.958,1.959" fill="#3c3c3c"/>
      </g>
    </g>
  </g>
</svg>
