<svg xmlns="http://www.w3.org/2000/svg" width="63.939" height="81.842" viewBox="0 0 63.939 81.842">
  <g id="Grupo_1229331" data-name="Grupo 1229331" transform="translate(-14 0)">
    <path id="Trazado_1401573" data-name="Trazado 1401573" d="M67.248,82H35.279a1.279,1.279,0,0,0,0,2.558h31.97a1.279,1.279,0,0,0,0-2.558Z" transform="translate(-7.212 -29.57)" fill="#636363"/>
    <path id="Trazado_1401574" data-name="Trazado 1401574" d="M35.279,92.558h10.23a1.279,1.279,0,1,0,0-2.558H35.279a1.279,1.279,0,0,0,0,2.558Z" transform="translate(-7.212 -32.455)" fill="#636363"/>
    <path id="Trazado_1401575" data-name="Trazado 1401575" d="M75.9,90H59.279a1.279,1.279,0,0,0,0,2.558H75.9A1.279,1.279,0,0,0,75.9,90Z" transform="translate(-15.867 -32.455)" fill="#636363"/>
    <path id="Trazado_1401576" data-name="Trazado 1401576" d="M68.527,99.279A1.279,1.279,0,0,0,67.248,98H35.279a1.279,1.279,0,1,0,0,2.558h31.97a1.279,1.279,0,0,0,1.279-1.279Z" transform="translate(-7.212 -35.34)" fill="#636363"/>
    <path id="Trazado_1401577" data-name="Trazado 1401577" d="M56.307,106.288l-2.333,1.9a1.279,1.279,0,0,0-1.5,2.064l.7.572a1.279,1.279,0,0,0,1.617,0l3.135-2.558a1.279,1.279,0,0,0-1.617-1.982Z" transform="translate(-13.703 -38.225)" fill="#636363"/>
    <path id="Trazado_1401578" data-name="Trazado 1401578" d="M76.307,106.288l-2.333,1.9a1.279,1.279,0,0,0-1.5,2.064l.7.572a1.279,1.279,0,0,0,1.617,0l3.135-2.558a1.279,1.279,0,0,0-1.617-1.982Z" transform="translate(-20.915 -38.225)" fill="#636363"/>
    <path id="Trazado_1401579" data-name="Trazado 1401579" d="M36.307,106.288l-2.333,1.9a1.279,1.279,0,0,0-1.5,2.064l.7.572a1.279,1.279,0,0,0,1.617,0l3.135-2.558a1.279,1.279,0,0,0-1.617-1.982Z" transform="translate(-6.491 -38.225)" fill="#636363"/>
    <path id="Trazado_1401580" data-name="Trazado 1401580" d="M14,10.23v66.5a5.121,5.121,0,0,0,5.115,5.115H63.872a5.121,5.121,0,0,0,5.115-5.115V67.775a3.813,3.813,0,0,1-2.558-.987v9.938a2.56,2.56,0,0,1-2.558,2.558H26.038L16.558,69.8V10.23a2.56,2.56,0,0,1,2.558-2.558h42.2V5.115H54.792A6.4,6.4,0,0,0,48.527,0H34.46A6.4,6.4,0,0,0,28.2,5.115h-9.08A5.121,5.121,0,0,0,14,10.23ZM34.46,2.558H48.527a3.843,3.843,0,0,1,3.617,2.558h-21.3A3.843,3.843,0,0,1,34.46,2.558ZM16.558,73.42l5.864,5.864H19.115a2.56,2.56,0,0,1-2.558-2.558Z" transform="translate(0 0)" fill="#636363"/>
    <path id="Trazado_1401581" data-name="Trazado 1401581" d="M104.788,21.1a1.279,1.279,0,0,0,1.279-1.279V8.312a3.841,3.841,0,0,0-3.836-3.836h-.044A5.113,5.113,0,0,0,92,5.115V33.248a1.273,1.273,0,0,0,.639,1.1V52.342a10.217,10.217,0,0,0,.466,3.054l2.789,8.924a1.279,1.279,0,0,0,2.441,0l2.789-8.926a10.212,10.212,0,0,0,.466-3.051V34.35a1.273,1.273,0,0,0,.639-1.1V7.033a1.28,1.28,0,0,1,1.279,1.279V19.821a1.279,1.279,0,0,0,1.279,1.279ZM97.115,59.651l-1.457-4.664h2.914Zm1.918-7.309c0,.029,0,.058,0,.087H95.2c0-.029,0-.058,0-.087V34.527h3.836Zm.639-20.373H94.558V29.412h5.115Zm0-5.115H94.558V5.115a2.558,2.558,0,0,1,5.115,0Z" transform="translate(-28.128 0)" fill="#636363"/>
    <circle id="Elipse_17411" data-name="Elipse 17411" cx="1.26" cy="1.26" r="1.26" transform="translate(21.691 52.448)" fill="#636363"/>
    <circle id="Elipse_17412" data-name="Elipse 17412" cx="1.26" cy="1.26" r="1.26" transform="translate(21.691 57.564)" fill="#636363"/>
    <circle id="Elipse_17413" data-name="Elipse 17413" cx="1.26" cy="1.26" r="1.26" transform="translate(21.691 62.679)" fill="#636363"/>
    <path id="Trazado_1401582" data-name="Trazado 1401582" d="M35.258,41.671a14.783,14.783,0,0,1,.536,1.687,8.464,8.464,0,0,0,1.887,3.93,8.466,8.466,0,0,0,3.93,1.887,14.892,14.892,0,0,1,1.687.537,13.664,13.664,0,0,1,1.5.785,8.433,8.433,0,0,0,4.189,1.474A8.428,8.428,0,0,0,53.172,50.5a13.636,13.636,0,0,1,1.5-.786,14.745,14.745,0,0,1,1.686-.536,8.469,8.469,0,0,0,3.931-1.887,8.457,8.457,0,0,0,1.886-3.93,14.907,14.907,0,0,1,.537-1.687,13.776,13.776,0,0,1,.785-1.5,8.433,8.433,0,0,0,1.474-4.188A8.433,8.433,0,0,0,63.5,31.8a13.775,13.775,0,0,1-.785-1.5,14.784,14.784,0,0,1-.536-1.687,8.464,8.464,0,0,0-1.887-3.93,8.467,8.467,0,0,0-3.93-1.887,14.781,14.781,0,0,1-1.687-.536,13.669,13.669,0,0,1-1.5-.785A8.435,8.435,0,0,0,48.985,20,8.431,8.431,0,0,0,44.8,21.473a13.626,13.626,0,0,1-1.5.785,14.746,14.746,0,0,1-1.686.536,8.469,8.469,0,0,0-3.931,1.887,8.457,8.457,0,0,0-1.886,3.93,14.907,14.907,0,0,1-.537,1.687,13.775,13.775,0,0,1-.785,1.5A8.433,8.433,0,0,0,33,35.985a8.433,8.433,0,0,0,1.474,4.188,13.774,13.774,0,0,1,.785,1.5Zm1.432-8.6a15.666,15.666,0,0,0,.931-1.793,16.952,16.952,0,0,0,.639-1.985,6.446,6.446,0,0,1,1.23-2.8,6.444,6.444,0,0,1,2.8-1.23,16.922,16.922,0,0,0,1.984-.639,15.753,15.753,0,0,0,1.794-.931,6.357,6.357,0,0,1,2.913-1.133A6.363,6.363,0,0,1,51.9,23.691a15.775,15.775,0,0,0,1.792.93,16.985,16.985,0,0,0,1.984.639,6.444,6.444,0,0,1,2.8,1.231,6.444,6.444,0,0,1,1.23,2.8,16.933,16.933,0,0,0,.639,1.985,15.666,15.666,0,0,0,.931,1.793,6.362,6.362,0,0,1,1.133,2.913A6.361,6.361,0,0,1,61.279,38.9a15.666,15.666,0,0,0-.931,1.793,16.953,16.953,0,0,0-.639,1.985,6.446,6.446,0,0,1-1.23,2.8,6.444,6.444,0,0,1-2.8,1.23,16.921,16.921,0,0,0-1.984.639,15.765,15.765,0,0,0-1.795.931,6.359,6.359,0,0,1-2.912,1.133,6.36,6.36,0,0,1-2.913-1.133,15.838,15.838,0,0,0-1.793-.931,16.986,16.986,0,0,0-1.984-.639,6.444,6.444,0,0,1-2.8-1.231,6.444,6.444,0,0,1-1.23-2.8,16.933,16.933,0,0,0-.639-1.985A15.666,15.666,0,0,0,36.69,38.9a6.361,6.361,0,0,1-1.133-2.913,6.361,6.361,0,0,1,1.133-2.913Z" transform="translate(-6.852 -7.212)" fill="#636363"/>
    <path id="Trazado_1401583" data-name="Trazado 1401583" d="M52.951,48.9A8.951,8.951,0,1,0,44,39.951,8.951,8.951,0,0,0,52.951,48.9Zm0-15.345a6.394,6.394,0,1,1-6.394,6.394A6.394,6.394,0,0,1,52.951,33.558Z" transform="translate(-10.818 -11.179)" fill="#636363"/>
    <path id="Trazado_1401584" data-name="Trazado 1401584" d="M54.344,45.8a1.279,1.279,0,0,0,1.682,0l2.931-2.558a1.279,1.279,0,1,0-1.682-1.927l-2.09,1.824-.065-.057a1.279,1.279,0,1,0-1.681,1.928Z" transform="translate(-14.064 -14.785)" fill="#636363"/>
  </g>
</svg>
