<svg xmlns="http://www.w3.org/2000/svg" width="188" height="212" viewBox="0 0 188 212">
  <g id="Grupo_1213315" data-name="Grupo 1213315" transform="translate(-1225.711 -3453)">
    <rect id="Rectángulo_745048" data-name="Rectángulo 745048" width="188" height="212" transform="translate(1225.711 3453)" fill="none"/>
    <g id="_x31_29" transform="translate(1254.711 3462.981)">
      <g id="Grupo_1213245" data-name="Grupo 1213245" transform="translate(15 4.019)">
        <g id="Grupo_1213244" data-name="Grupo 1213244">
          <g id="Grupo_1213243" data-name="Grupo 1213243">
            <path id="Trazado_1384067" data-name="Trazado 1384067" d="M115.143,106.786c0,5.007-3.467,11.17-7.7,13.481L93.189,128.74v28.887c0,1.156-.77,1.926-1.926,2.7-.385,0-.77.385-1.155.385v11.94c0,.385-.385.77-.77,1.155a4.173,4.173,0,0,1-4.237,0c-.77-.385-.77-.77-.77-1.155V161.094a5.474,5.474,0,0,1-2.311-.77.377.377,0,0,1-.385-.385v3.852c0,1.156-.77,1.926-1.926,2.7-.385,0-.77.385-1.156.385V179.2c0,.385-.385.77-.77,1.156a4.173,4.173,0,0,1-4.237,0c-.77-.385-.77-.77-.77-1.156v-11.94c-.77-.385-1.541-.385-2.311-.77a.377.377,0,0,1-.385-.385v3.852c0,1.155-.77,1.926-1.926,2.7a2.942,2.942,0,0,1-1.926.77v12.71c0,.385-.385.77-.77,1.156a4.173,4.173,0,0,1-4.237,0c-.77-.385-.77-.77-.77-1.156v-13.1c-.385,0-.77-.385-1.541-.77a3.986,3.986,0,0,1-1.926-2.7v-20.8l-10.014,5.777c-2.311,1.541-4.622,1.541-6.163.385l.385.385-23.11-13.481c-1.541-.77-2.311-2.7-2.311-5.007L15,54.018c0-5.007,3.466-11.17,7.7-13.481L83.945,5.1c2.311-1.155,4.237-1.541,5.777-.385l22.725,13.1h.385c1.541.77,2.311,2.7,2.311,5.007Z" transform="translate(-15 -4.019)" fill="#e3e7f0"/>
          </g>
        </g>
      </g>
      <g id="Grupo_1213314" data-name="Grupo 1213314" transform="translate(15 4.019)">
        <g id="Grupo_1213248" data-name="Grupo 1213248" transform="translate(0 0.161)">
          <g id="Grupo_1213247" data-name="Grupo 1213247">
            <g id="Grupo_1213246" data-name="Grupo 1213246">
              <path id="Trazado_1384068" data-name="Trazado 1384068" d="M115.143,22.7a5.668,5.668,0,0,0-2.311-5.007h-.385L89.722,4.6c-1.541-.77-3.467-.77-5.777.385L22.7,40.033c-4.237,2.7-7.7,8.474-7.7,13.481l.385,84.351c0,2.311.77,4.237,2.311,5.007l23.11,13.481a.377.377,0,0,1-.385-.385,5.048,5.048,0,0,0,4.237.77c.385,0,.385-.385.77-.385a56.342,56.342,0,0,0,5.007-3.467c5.007-8.474,13.1-13.866,19.258-21.184s17.718-8.088,25.806-3.852l11.94-6.933c4.237-2.311,7.7-8.474,7.7-13.481Z" transform="translate(-15 -4.061)" fill="#c9cee2"/>
            </g>
          </g>
        </g>
        <g id="Grupo_1213313" data-name="Grupo 1213313">
          <g id="Grupo_1213274" data-name="Grupo 1213274" transform="translate(41.213 118.944)">
            <g id="Grupo_1213253" data-name="Grupo 1213253" transform="translate(27.636 15.407)">
              <g id="Grupo_1213250" data-name="Grupo 1213250" transform="translate(0.096)">
                <g id="Grupo_1213249" data-name="Grupo 1213249">
                  <path id="Trazado_1384069" data-name="Trazado 1384069" d="M32.9,38.9V73.565c0,.385.385.77.77,1.156a4.173,4.173,0,0,0,4.237,0c.77-.385.77-.77.77-1.156V38.9c0,.385-.385.77-.77,1.156a4.173,4.173,0,0,1-4.237,0C33.285,39.67,32.9,39.285,32.9,38.9Z" transform="translate(-32.9 -38.9)" fill="#ffd06c"/>
                </g>
              </g>
              <g id="Grupo_1213252" data-name="Grupo 1213252" transform="translate(0 1.733)">
                <g id="Grupo_1213251" data-name="Grupo 1213251">
                  <path id="Trazado_1384070" data-name="Trazado 1384070" d="M33.742,39.928c-1.155.77-1.155,1.926,0,2.311a4.173,4.173,0,0,0,4.237,0c1.156-.77,1.156-1.926,0-2.311A4.173,4.173,0,0,0,33.742,39.928Z" transform="translate(-32.875 -39.35)" fill="#ecf0f1"/>
                </g>
              </g>
            </g>
            <g id="Grupo_1213258" data-name="Grupo 1213258" transform="translate(15.696 22.34)">
              <g id="Grupo_1213255" data-name="Grupo 1213255" transform="translate(0.096)">
                <g id="Grupo_1213254" data-name="Grupo 1213254">
                  <path id="Trazado_1384071" data-name="Trazado 1384071" d="M29.8,40.7V75.365c0,.385.385.77.77,1.155a4.173,4.173,0,0,0,4.237,0c.77-.385.77-.77.77-1.155V40.7c0,.385-.385.77-.77,1.156a4.173,4.173,0,0,1-4.237,0C30.185,41.47,29.8,41.085,29.8,40.7Z" transform="translate(-29.8 -40.7)" fill="#ffd06c"/>
                </g>
              </g>
              <g id="Grupo_1213257" data-name="Grupo 1213257" transform="translate(0 2.022)">
                <g id="Grupo_1213256" data-name="Grupo 1213256">
                  <path id="Trazado_1384072" data-name="Trazado 1384072" d="M30.642,41.514c-1.155.77-1.155,1.926,0,2.311a4.173,4.173,0,0,0,4.237,0c1.156-.77,1.155-1.926,0-2.311A7.912,7.912,0,0,0,30.642,41.514Z" transform="translate(-29.775 -41.225)" fill="#ecf0f1"/>
                </g>
              </g>
            </g>
            <g id="Grupo_1213263" data-name="Grupo 1213263" transform="translate(3.081 29.658)">
              <g id="Grupo_1213260" data-name="Grupo 1213260">
                <g id="Grupo_1213259" data-name="Grupo 1213259">
                  <path id="Trazado_1384073" data-name="Trazado 1384073" d="M26.5,42.6V77.265c0,.385.385.77.77,1.155a4.173,4.173,0,0,0,4.237,0c.77-.385.77-.77.77-1.155V42.6c0,.385-.385.77-.77,1.156a4.173,4.173,0,0,1-4.237,0C26.885,43.37,26.5,42.985,26.5,42.6Z" transform="translate(-26.5 -42.6)" fill="#ffd06c"/>
                </g>
              </g>
              <g id="Grupo_1213262" data-name="Grupo 1213262" transform="translate(0.289 1.733)">
                <g id="Grupo_1213261" data-name="Grupo 1213261">
                  <path id="Trazado_1384074" data-name="Trazado 1384074" d="M27.442,43.628c-1.155.77-1.155,1.926,0,2.311a4.173,4.173,0,0,0,4.237,0c1.156-.77,1.156-1.926,0-2.311A4.173,4.173,0,0,0,27.442,43.628Z" transform="translate(-26.575 -43.05)" fill="#ecf0f1"/>
                </g>
              </g>
            </g>
            <g id="Grupo_1213273" data-name="Grupo 1213273">
              <g id="Grupo_1213266" data-name="Grupo 1213266" transform="translate(23.495)">
                <g id="Grupo_1213265" data-name="Grupo 1213265">
                  <g id="Grupo_1213264" data-name="Grupo 1213264">
                    <path id="Trazado_1384075" data-name="Trazado 1384075" d="M31.8,34.9V69.95c0,1.156.77,1.926,1.926,2.7a10.608,10.608,0,0,0,9.629,0,3.986,3.986,0,0,0,1.926-2.7V34.9Z" transform="translate(-31.8 -34.9)" fill="#72d561"/>
                  </g>
                </g>
              </g>
              <g id="Grupo_1213269" data-name="Grupo 1213269" transform="translate(11.555)">
                <g id="Grupo_1213268" data-name="Grupo 1213268">
                  <g id="Grupo_1213267" data-name="Grupo 1213267">
                    <path id="Trazado_1384076" data-name="Trazado 1384076" d="M28.7,34.9V76.5c0,1.155.77,1.926,1.926,2.7a10.608,10.608,0,0,0,9.629,0,3.986,3.986,0,0,0,1.926-2.7V34.9Z" transform="translate(-28.7 -34.9)" fill="#f45170"/>
                  </g>
                </g>
              </g>
              <g id="Grupo_1213272" data-name="Grupo 1213272">
                <g id="Grupo_1213271" data-name="Grupo 1213271">
                  <g id="Grupo_1213270" data-name="Grupo 1213270">
                    <path id="Trazado_1384077" data-name="Trazado 1384077" d="M25.7,34.9V83.046c0,1.156.77,1.926,1.926,2.7,2.7,1.541,6.933,1.541,9.244,0a3.986,3.986,0,0,0,1.926-2.7V35.285H25.7Z" transform="translate(-25.7 -34.9)" fill="#57b3fe"/>
                  </g>
                </g>
              </g>
            </g>
          </g>
          <g id="Grupo_1213312" data-name="Grupo 1213312">
            <g id="Grupo_1213307" data-name="Grupo 1213307">
              <g id="Grupo_1213306" data-name="Grupo 1213306">
                <g id="Grupo_1213305" data-name="Grupo 1213305">
                  <g id="Grupo_1213304" data-name="Grupo 1213304">
                    <g id="Grupo_1213303" data-name="Grupo 1213303">
                      <g id="Grupo_1213302" data-name="Grupo 1213302">
                        <g id="Grupo_1213301" data-name="Grupo 1213301">
                          <g id="Grupo_1213276" data-name="Grupo 1213276" transform="translate(68.56 92.752)">
                            <g id="Grupo_1213275" data-name="Grupo 1213275">
                              <path id="Trazado_1384078" data-name="Trazado 1384078" d="M55.91,43.507,32.8,30.026A2.118,2.118,0,0,0,33.955,28.1l23.11,13.481A8.419,8.419,0,0,1,55.91,43.507Z" transform="translate(-32.8 -28.1)" fill="#b0b8cf"/>
                            </g>
                          </g>
                          <g id="Grupo_1213278" data-name="Grupo 1213278" transform="translate(8.859 95.063)">
                            <g id="Grupo_1213277" data-name="Grupo 1213277">
                              <path id="Trazado_1384079" data-name="Trazado 1384079" d="M40.41,76.461,17.3,62.98,77,28.7l23.11,13.1Z" transform="translate(-17.3 -28.7)" fill="#9ea9c9"/>
                            </g>
                          </g>
                          <g id="Grupo_1213280" data-name="Grupo 1213280" transform="translate(8.088 129.343)">
                            <g id="Grupo_1213279" data-name="Grupo 1213279">
                              <path id="Trazado_1384080" data-name="Trazado 1384080" d="M40.21,51.081,17.1,37.6h.77L40.98,51.081Z" transform="translate(-17.1 -37.6)" fill="#9ea9c9"/>
                            </g>
                          </g>
                          <g id="Grupo_1213282" data-name="Grupo 1213282" transform="translate(8.859 124.721)">
                            <g id="Grupo_1213281" data-name="Grupo 1213281">
                              <path id="Trazado_1384081" data-name="Trazado 1384081" d="M41.18,51.421,18.07,37.941A2,2,0,0,1,17.3,36.4L40.41,49.881C40.8,50.651,40.8,51.036,41.18,51.421Z" transform="translate(-17.3 -36.4)" fill="#e3e7f0"/>
                            </g>
                          </g>
                          <g id="Grupo_1213284" data-name="Grupo 1213284" transform="translate(69.33 10.712)">
                            <g id="Grupo_1213283" data-name="Grupo 1213283">
                              <path id="Trazado_1384082" data-name="Trazado 1384082" d="M56.11,102.706,33.385,89.226,33,6.8,56.11,20.281Z" transform="translate(-33 -6.8)" fill="#9ea9c9"/>
                            </g>
                          </g>
                          <g id="Grupo_1213286" data-name="Grupo 1213286" transform="translate(68.945 9.942)">
                            <g id="Grupo_1213285" data-name="Grupo 1213285">
                              <path id="Trazado_1384083" data-name="Trazado 1384083" d="M32.9,6.6,56.01,20.081a1.345,1.345,0,0,1,.385.77L33.285,7.37c0-.385,0-.385-.385-.77Z" transform="translate(-32.9 -6.6)" fill="#9ea9c9"/>
                            </g>
                          </g>
                          <g id="Grupo_1213288" data-name="Grupo 1213288" transform="translate(65.863 13.023)">
                            <g id="Grupo_1213287" data-name="Grupo 1213287">
                              <path id="Trazado_1384084" data-name="Trazado 1384084" d="M33.641,7.4l23.11,13.481c-.385-.385-.77-.385-1.541,0L32.1,7.4Z" transform="translate(-32.1 -7.4)" fill="#e3e7f0"/>
                            </g>
                          </g>
                          <g id="Grupo_1213290" data-name="Grupo 1213290" transform="translate(9.244 48.458)">
                            <g id="Grupo_1213289" data-name="Grupo 1213289" transform="translate(0 0)">
                              <path id="Trazado_1384085" data-name="Trazado 1384085" d="M40.51,106.344,17.4,93.248V16.6L40.125,30.081Z" transform="translate(-17.4 -16.6)" fill="#e3e7f0"/>
                            </g>
                          </g>
                          <g id="Grupo_1213292" data-name="Grupo 1213292" transform="translate(11.17 13.408)">
                            <g id="Grupo_1213291" data-name="Grupo 1213291">
                              <path id="Trazado_1384086" data-name="Trazado 1384086" d="M41.01,52.179,17.9,39.084,72.594,7.5,95.318,20.6Z" transform="translate(-17.9 -7.5)" fill="#e3e7f0"/>
                            </g>
                          </g>
                          <g id="Grupo_1213294" data-name="Grupo 1213294" transform="translate(8.859 44.607)">
                            <g id="Grupo_1213293" data-name="Grupo 1213293">
                              <path id="Trazado_1384087" data-name="Trazado 1384087" d="M40.41,32.932,17.3,19.452A4.688,4.688,0,0,1,19.611,15.6l23.11,13.481A5.108,5.108,0,0,0,40.41,32.932Z" transform="translate(-17.3 -15.6)" fill="#e3e7f0"/>
                            </g>
                          </g>
                          <g id="Grupo_1213296" data-name="Grupo 1213296">
                            <g id="Grupo_1213295" data-name="Grupo 1213295">
                              <path id="Trazado_1384088" data-name="Trazado 1384088" d="M112.447,17.812c-1.156-.77-2.7.77-5.007,1.926L46.2,54.4c-4.237,2.7-6.548,8.088-6.548,13.1L38.11,151.465c0,2.311.77,4.237,2.311,5.007l-23.11-13.481c-1.541-.77-2.311-2.7-2.311-5.007V54.018c0-5.007,3.466-11.17,7.7-13.481L83.945,5.1c2.311-1.155,4.237-1.541,5.777-.385Z" transform="translate(-15 -4.019)" fill="#e3e7f0"/>
                            </g>
                          </g>
                          <g id="Grupo_1213298" data-name="Grupo 1213298" transform="translate(22.725 13.04)">
                            <g id="Grupo_1213297" data-name="Grupo 1213297">
                              <path id="Trazado_1384089" data-name="Trazado 1384089" d="M90.23,8.543c4.237-2.7,8.088-.385,8.088,4.622V97.516c0,5.007-3.467,11.17-7.7,13.481L29.374,146.433c-4.237,2.7-8.088.385-8.088-4.622L20.9,57.844c0-5.007,3.466-11.17,7.7-13.481Zm.385,92.44V18.557c0-.77-.385-.77-1.156-.77l-59.7,34.28A2.118,2.118,0,0,0,28.6,53.993l.385,82.426c0,.77.385.77,1.155.77l59.7-34.28a6.508,6.508,0,0,0,.77-1.926" transform="translate(-20.9 -7.404)" fill="#c9cee2"/>
                            </g>
                          </g>
                          <g id="Grupo_1213300" data-name="Grupo 1213300" transform="translate(31.584 26.194)">
                            <g id="Grupo_1213299" data-name="Grupo 1213299">
                              <path id="Trazado_1384090" data-name="Trazado 1384090" d="M80.2,11.13a1.413,1.413,0,0,1,2.311,1.155L82.9,88.933a4.688,4.688,0,0,1-2.311,3.852L25.9,124.368a1.413,1.413,0,0,1-2.311-1.156L23.2,46.565a4.688,4.688,0,0,1,2.311-3.852Z" transform="translate(-23.2 -10.819)" fill="#c9cee2"/>
                            </g>
                          </g>
                        </g>
                      </g>
                    </g>
                  </g>
                </g>
              </g>
            </g>
            <g id="Grupo_1213310" data-name="Grupo 1213310" transform="translate(39.094 55.006)">
              <g id="Grupo_1213308" data-name="Grupo 1213308">
                <path id="Trazado_1384091" data-name="Trazado 1384091" d="M28.424,74.149a2.908,2.908,0,0,1-2.7-1.541,4.895,4.895,0,0,1,0-4.622L43.445,22.922a10.487,10.487,0,0,1,3.081-3.852,6.507,6.507,0,0,1,1.926-.77,3.5,3.5,0,0,1,2.7,1.155l18.1,24.265c.77.77.77,2.311.77,3.466a9.164,9.164,0,0,1-3.466,5.007l-35.82,20.8a2.307,2.307,0,0,1-2.311,1.156Z" transform="translate(-25.15 -18.3)" fill="#1d2943"/>
              </g>
              <g id="Grupo_1213309" data-name="Grupo 1213309" transform="translate(1.72 2.022)">
                <path id="Trazado_1384092" data-name="Trazado 1384092" d="M46.023,19.114a2.424,2.424,0,0,1,2.311,0l18.1,24.265c1.156,1.541-.385,5.007-2.311,6.163l-35.82,20.8c-1.926,1.156-3.466-.77-2.311-3.466L43.712,21.81a16.752,16.752,0,0,1,2.311-2.7Z" transform="translate(-25.597 -18.825)" fill="#febc1f"/>
              </g>
            </g>
            <g id="Grupo_1213311" data-name="Grupo 1213311" transform="translate(57.39 71.953)">
              <path id="Trazado_1384093" data-name="Trazado 1384093" d="M38.374,22.7,32.981,33.485l4.622-2.7L30.285,45.04l3.466-10.014L29.9,37.336l2.7-11.555Z" transform="translate(-29.9 -22.7)" fill="#1d2943"/>
            </g>
          </g>
        </g>
      </g>
    </g>
  </g>
</svg>
