<svg xmlns="http://www.w3.org/2000/svg" width="1030" height="443" viewBox="0 0 1030 443">
  <g id="Grupo_1229934" data-name="Grupo 1229934" transform="translate(-285.954 -2474)">
    <g id="Grupo_1144410" data-name="Grupo 1144410" transform="translate(-1484.979 8250.085)">
      <g id="Grupo_1144369" data-name="Grupo 1144369" transform="translate(2170.551 -5668.7)">
        <g id="Grupo_1144365" data-name="Grupo 1144365" transform="translate(0 0)">
          <path id="Trazado_1011497" data-name="Trazado 1011497" d="M1842.483,1071.681h-30.955a84.427,84.427,0,1,0-168.853,0H1611.72a115.381,115.381,0,0,1,230.763,0Z" transform="translate(-1611.72 -956.3)" fill="#b5cbd7"/>
        </g>
        <g id="Grupo_1144368" data-name="Grupo 1144368" transform="translate(49.562 49.56)">
          <g id="Grupo_1144366" data-name="Grupo 1144366">
            <path id="Trazado_1011498" data-name="Trazado 1011498" d="M1844.326,1254.719a65.819,65.819,0,1,1,65.819-65.819A65.894,65.894,0,0,1,1844.326,1254.719Zm0-125.447a59.629,59.629,0,1,0,59.628,59.629A59.7,59.7,0,0,0,1844.326,1129.272Z" transform="translate(-1778.506 -1123.08)" fill="#b5cbd7"/>
          </g>
        </g>
      </g>
      <g id="Grupo_1144379" data-name="Grupo 1144379" transform="translate(1770.933 -5668.7)">
        <g id="Grupo_1144375" data-name="Grupo 1144375" transform="translate(0 0)">
          <path id="Trazado_1011593" data-name="Trazado 1011593" d="M497.7,1071.681H466.742a84.427,84.427,0,1,0-168.854,0H266.933a115.381,115.381,0,1,1,230.762,0Z" transform="translate(-266.933 -956.3)" fill="#ccdff8"/>
        </g>
        <g id="Grupo_1144378" data-name="Grupo 1144378" transform="translate(50.703 49.56)">
          <g id="Grupo_1144376" data-name="Grupo 1144376">
            <path id="Trazado_1011594" data-name="Trazado 1011594" d="M503.377,1254.719A65.819,65.819,0,1,1,569.2,1188.9,65.894,65.894,0,0,1,503.377,1254.719Zm0-125.447A59.629,59.629,0,1,0,563,1188.9,59.7,59.7,0,0,0,503.377,1129.272Z" transform="translate(-437.557 -1123.08)" fill="#ccdff8"/>
          </g>
        </g>
      </g>
      <g id="Grupo_1144389" data-name="Grupo 1144389" transform="translate(2570.168 -5668.7)">
        <g id="Grupo_1144385" data-name="Grupo 1144385" transform="translate(0 0)">
          <path id="Trazado_1011688" data-name="Trazado 1011688" d="M3187.27,1071.681h-30.956a84.427,84.427,0,0,0-168.855,0H2956.5a115.383,115.383,0,0,1,230.765,0Z" transform="translate(-2956.505 -956.3)" fill="#ccdff8"/>
        </g>
        <g id="Grupo_1144388" data-name="Grupo 1144388" transform="translate(48.422 49.56)">
          <g id="Grupo_1144386" data-name="Grupo 1144386">
            <path id="Trazado_1011689" data-name="Trazado 1011689" d="M3185.274,1254.719a65.819,65.819,0,1,1,65.82-65.819A65.892,65.892,0,0,1,3185.274,1254.719Zm0-125.447A59.629,59.629,0,1,0,3244.9,1188.9,59.7,59.7,0,0,0,3185.274,1129.272Z" transform="translate(-3119.456 -1123.08)" fill="#ccdff8"/>
          </g>
        </g>
      </g>
      <g id="Grupo_1144399" data-name="Grupo 1144399" transform="translate(1970.743 -5619.139)">
        <g id="Grupo_1144395" data-name="Grupo 1144395" transform="translate(0 65.821)">
          <path id="Trazado_1011792" data-name="Trazado 1011792" d="M1054.712,1459.963A115.513,115.513,0,0,1,939.33,1344.581h30.954a84.428,84.428,0,0,0,168.855,0h30.954A115.515,115.515,0,0,1,1054.712,1459.963Z" transform="translate(-939.33 -1344.581)" fill="#17c1c1"/>
        </g>
        <g id="Grupo_1144398" data-name="Grupo 1144398" transform="translate(49.562 0)">
          <g id="Grupo_1144396" data-name="Grupo 1144396">
            <path id="Trazado_1011793" data-name="Trazado 1011793" d="M1171.936,1254.719a65.819,65.819,0,1,1,65.819-65.819A65.894,65.894,0,0,1,1171.936,1254.719Zm0-125.447a59.629,59.629,0,1,0,59.629,59.629A59.7,59.7,0,0,0,1171.936,1129.272Z" transform="translate(-1106.116 -1123.08)" fill="#17c1c1"/>
          </g>
        </g>
      </g>
      <g id="Grupo_1144409" data-name="Grupo 1144409" transform="translate(2370.358 -5619.139)">
        <g id="Grupo_1144405" data-name="Grupo 1144405" transform="translate(0 65.821)">
          <path id="Trazado_1011886" data-name="Trazado 1011886" d="M2399.493,1459.963a115.514,115.514,0,0,1-115.384-115.382h30.956a84.427,84.427,0,1,0,168.855,0h30.954A115.512,115.512,0,0,1,2399.493,1459.963Z" transform="translate(-2284.108 -1344.581)" fill="#ffe9d9"/>
        </g>
        <g id="Grupo_1144408" data-name="Grupo 1144408" transform="translate(49.563 0)">
          <g id="Grupo_1144406" data-name="Grupo 1144406">
            <path id="Trazado_1011887" data-name="Trazado 1011887" d="M2516.717,1254.719a65.819,65.819,0,1,1,65.817-65.819A65.9,65.9,0,0,1,2516.717,1254.719Zm0-125.447a59.629,59.629,0,1,0,59.629,59.629A59.7,59.7,0,0,0,2516.717,1129.272Z" transform="translate(-2450.896 -1123.08)" fill="#ffe9d9"/>
          </g>
        </g>
      </g>
    </g>
    <path id="Trazado_1401798" data-name="Trazado 1401798" d="M0,0V66" transform="translate(402.211 2760.129)" fill="none" stroke="#ccdff8" stroke-linecap="round" stroke-width="5"/>
    <path id="Trazado_1401791" data-name="Trazado 1401791" d="M0,0V66" transform="translate(601.211 2632.629) rotate(180)" fill="none" stroke="#17c1c1" stroke-linecap="round" stroke-width="5"/>
    <path id="Trazado_1401792" data-name="Trazado 1401792" d="M0,0V66" transform="translate(1001.211 2632.629) rotate(180)" fill="none" stroke="#ffe9d9" stroke-linecap="round" stroke-width="5"/>
    <path id="Trazado_1401799" data-name="Trazado 1401799" d="M0,0V66" transform="translate(1203.454 2759.129)" fill="none" stroke="#ccdff8" stroke-linecap="round" stroke-width="5"/>
    <path id="Trazado_1401800" data-name="Trazado 1401800" d="M0,0V66" transform="translate(800.954 2759.129)" fill="none" stroke="#b5cbd7" stroke-linecap="round" stroke-width="5"/>
    <path id="Trazado_1401801" data-name="Trazado 1401801" d="M5.5,0A5.5,5.5,0,1,1,0,5.5,5.5,5.5,0,0,1,5.5,0Z" transform="translate(396.711 2820.629)" fill="#ccdff8"/>
    <path id="Trazado_1401793" data-name="Trazado 1401793" d="M5.5,0A5.5,5.5,0,1,1,0,5.5,5.5,5.5,0,0,1,5.5,0Z" transform="translate(606.711 2572.129) rotate(180)" fill="#17c1c1"/>
    <path id="Trazado_1401794" data-name="Trazado 1401794" d="M5.5,0A5.5,5.5,0,1,1,0,5.5,5.5,5.5,0,0,1,5.5,0Z" transform="translate(1006.711 2572.129) rotate(180)" fill="#ffe9d9"/>
    <path id="Trazado_1401802" data-name="Trazado 1401802" d="M5.5,0A5.5,5.5,0,1,1,0,5.5,5.5,5.5,0,0,1,5.5,0Z" transform="translate(1197.954 2819.629)" fill="#ccdff8"/>
    <path id="Trazado_1401803" data-name="Trazado 1401803" d="M5.5,0A5.5,5.5,0,1,1,0,5.5,5.5,5.5,0,0,1,5.5,0Z" transform="translate(795.454 2819.629)" fill="#b5cbd7"/>
    <path id="Trazado_1401805" data-name="Trazado 1401805" d="M16,0H207a16,16,0,0,1,16,16V59a16,16,0,0,1-16,16H16A16,16,0,0,1,0,59V16A16,16,0,0,1,16,0Z" transform="translate(290.711 2842)" fill="#ccdff8"/>
    <path id="Trazado_1401804" data-name="Trazado 1401804" d="M16,0H207a16,16,0,0,1,16,16V59a16,16,0,0,1-16,16H16A16,16,0,0,1,0,59V16A16,16,0,0,1,16,0Z" transform="translate(689.711 2839)" fill="#ccdff8"/>
    <path id="Trazado_1401806" data-name="Trazado 1401806" d="M14.9,17H8.184V5.8h6.461V7.852H10.707v2.492h3.664v2.047H10.707v2.563h4.2Zm4.023,0H16.457V5.156h2.469Zm9.266-3.3H22.973q.125,1.742,2.2,1.742a4.286,4.286,0,0,0,2.32-.625V16.6a6.1,6.1,0,0,1-2.883.594A4.058,4.058,0,0,1,21.6,16.121a4.058,4.058,0,0,1-1.07-3,4.281,4.281,0,0,1,1.156-3.156A3.852,3.852,0,0,1,24.527,8.8a3.5,3.5,0,0,1,2.707,1.039,4,4,0,0,1,.957,2.82ZM25.9,12.188q0-1.719-1.391-1.719a1.328,1.328,0,0,0-1.027.492,2.234,2.234,0,0,0-.527,1.227ZM42.363,17H39.9V12.438q0-1.742-1.281-1.742a1.177,1.177,0,0,0-.992.523,2.151,2.151,0,0,0-.383,1.3V17H34.777V12.391q0-1.7-1.258-1.7a1.206,1.206,0,0,0-1.012.5,2.2,2.2,0,0,0-.379,1.359V17H29.66V9h2.469v1.25h.031A3.031,3.031,0,0,1,34.746,8.8a2.3,2.3,0,0,1,2.32,1.492A2.959,2.959,0,0,1,39.754,8.8q2.609,0,2.609,3.219ZM51.5,13.7H46.285q.125,1.742,2.2,1.742a4.286,4.286,0,0,0,2.32-.625V16.6a6.1,6.1,0,0,1-2.883.594,4.058,4.058,0,0,1-3.008-1.074,4.058,4.058,0,0,1-1.07-3A4.281,4.281,0,0,1,45,9.969,3.852,3.852,0,0,1,47.84,8.8a3.5,3.5,0,0,1,2.707,1.039,4,4,0,0,1,.957,2.82Zm-2.289-1.516q0-1.719-1.391-1.719a1.328,1.328,0,0,0-1.027.492,2.234,2.234,0,0,0-.527,1.227ZM60.7,17H58.238V12.555q0-1.859-1.328-1.859a1.318,1.318,0,0,0-1.055.492,1.875,1.875,0,0,0-.414,1.25V17H52.973V9h2.469v1.266h.031A2.829,2.829,0,0,1,58.043,8.8q2.656,0,2.656,3.3Zm6.789-.094a3.649,3.649,0,0,1-1.648.289q-2.609,0-2.609-2.711V10.82h-1.3V9h1.3V7.273l2.461-.7V9h1.8v1.82h-1.8v3.234q0,1.25.992,1.25a1.673,1.673,0,0,0,.8-.227Zm5.141.289a4.3,4.3,0,0,1-3.145-1.121,4.064,4.064,0,0,1-1.145-3.043,4.065,4.065,0,0,1,1.188-3.105A4.487,4.487,0,0,1,72.738,8.8a4.249,4.249,0,0,1,3.125,1.121A3.985,3.985,0,0,1,77,12.891a4.23,4.23,0,0,1-1.168,3.148A4.348,4.348,0,0,1,72.629,17.2Zm.063-6.5a1.647,1.647,0,0,0-1.359.6,2.653,2.653,0,0,0-.484,1.7q0,2.3,1.859,2.3,1.773,0,1.773-2.367Q74.48,10.7,72.691,10.7Zm5.383,6.094v-2a5.256,5.256,0,0,0,1.215.547,4.028,4.028,0,0,0,1.145.18,2.455,2.455,0,0,0,1.035-.18.581.581,0,0,0,.379-.547.506.506,0,0,0-.172-.391,1.6,1.6,0,0,0-.441-.273,5.009,5.009,0,0,0-.59-.211q-.32-.094-.617-.211a5.913,5.913,0,0,1-.84-.387,2.427,2.427,0,0,1-.609-.48A1.889,1.889,0,0,1,78.2,12.2a2.525,2.525,0,0,1-.129-.852,2.192,2.192,0,0,1,.293-1.156,2.393,2.393,0,0,1,.781-.793,3.57,3.57,0,0,1,1.117-.453A5.825,5.825,0,0,1,81.574,8.8a7.261,7.261,0,0,1,1.078.082,8.047,8.047,0,0,1,1.078.238v1.906a3.9,3.9,0,0,0-1-.41,4.235,4.235,0,0,0-1.051-.137,2.328,2.328,0,0,0-.457.043,1.505,1.505,0,0,0-.379.125.7.7,0,0,0-.258.211.486.486,0,0,0-.094.293.541.541,0,0,0,.141.375A1.221,1.221,0,0,0,81,11.8a3.625,3.625,0,0,0,.5.2q.277.09.551.184a7.161,7.161,0,0,1,.891.375,2.848,2.848,0,0,1,.684.477,1.872,1.872,0,0,1,.438.641,2.563,2.563,0,0,1-.156,2.09,2.471,2.471,0,0,1-.82.82,3.72,3.72,0,0,1-1.18.461,6.54,6.54,0,0,1-1.387.145A7.149,7.149,0,0,1,78.074,16.789ZM97.238,13.7H92.02q.125,1.742,2.2,1.742a4.286,4.286,0,0,0,2.32-.625V16.6a6.1,6.1,0,0,1-2.883.594,4.058,4.058,0,0,1-3.008-1.074,4.058,4.058,0,0,1-1.07-3A4.281,4.281,0,0,1,90.73,9.969,3.852,3.852,0,0,1,93.574,8.8a3.5,3.5,0,0,1,2.707,1.039,4,4,0,0,1,.957,2.82Zm-2.289-1.516q0-1.719-1.391-1.719a1.328,1.328,0,0,0-1.027.492A2.234,2.234,0,0,0,92,12.188Zm3.234,4.6v-2a5.256,5.256,0,0,0,1.215.547,4.028,4.028,0,0,0,1.145.18,2.455,2.455,0,0,0,1.035-.18.581.581,0,0,0,.379-.547.506.506,0,0,0-.172-.391,1.6,1.6,0,0,0-.441-.273,5.009,5.009,0,0,0-.59-.211q-.32-.094-.617-.211a5.913,5.913,0,0,1-.84-.387,2.427,2.427,0,0,1-.609-.48,1.889,1.889,0,0,1-.375-.633,2.525,2.525,0,0,1-.129-.852,2.192,2.192,0,0,1,.293-1.156,2.393,2.393,0,0,1,.781-.793,3.57,3.57,0,0,1,1.117-.453,5.825,5.825,0,0,1,1.309-.145,7.261,7.261,0,0,1,1.078.082,8.047,8.047,0,0,1,1.078.238v1.906a3.9,3.9,0,0,0-1-.41,4.235,4.235,0,0,0-1.051-.137,2.328,2.328,0,0,0-.457.043,1.505,1.505,0,0,0-.379.125.7.7,0,0,0-.258.211.486.486,0,0,0-.094.293.541.541,0,0,0,.141.375,1.221,1.221,0,0,0,.367.27,3.625,3.625,0,0,0,.5.2q.277.09.551.184a7.161,7.161,0,0,1,.891.375,2.848,2.848,0,0,1,.684.477,1.872,1.872,0,0,1,.438.641,2.563,2.563,0,0,1-.156,2.09,2.471,2.471,0,0,1-.82.82,3.72,3.72,0,0,1-1.18.461,6.54,6.54,0,0,1-1.387.145A7.149,7.149,0,0,1,98.184,16.789Zm14.75-3.086h-5.219q.125,1.742,2.2,1.742a4.286,4.286,0,0,0,2.32-.625V16.6a6.1,6.1,0,0,1-2.883.594,4.058,4.058,0,0,1-3.008-1.074,4.058,4.058,0,0,1-1.07-3,4.281,4.281,0,0,1,1.156-3.156A3.852,3.852,0,0,1,109.27,8.8a3.5,3.5,0,0,1,2.707,1.039,4,4,0,0,1,.957,2.82Zm-2.289-1.516q0-1.719-1.391-1.719a1.328,1.328,0,0,0-1.027.492,2.234,2.234,0,0,0-.527,1.227ZM122.129,17h-2.461V12.555q0-1.859-1.328-1.859a1.318,1.318,0,0,0-1.055.492,1.875,1.875,0,0,0-.414,1.25V17H114.4V9h2.469v1.266h.031a2.829,2.829,0,0,1,2.57-1.461q2.656,0,2.656,3.3Zm8.016-.289a4.881,4.881,0,0,1-2.414.484,4.083,4.083,0,0,1-2.984-1.117,3.859,3.859,0,0,1-1.141-2.883,4.251,4.251,0,0,1,1.223-3.215A4.518,4.518,0,0,1,128.1,8.8a4.2,4.2,0,0,1,2.047.375v2.094a2.814,2.814,0,0,0-1.727-.578,2.275,2.275,0,0,0-1.684.621,2.317,2.317,0,0,0-.621,1.715,2.28,2.28,0,0,0,.594,1.668,2.182,2.182,0,0,0,1.633.605,3.258,3.258,0,0,0,1.8-.578Zm2.867-8.977a1.442,1.442,0,0,1-1.023-.371,1.2,1.2,0,0,1-.4-.91,1.153,1.153,0,0,1,.4-.906,1.671,1.671,0,0,1,2.051,0,1.158,1.158,0,0,1,.395.906,1.191,1.191,0,0,1-.395.922A1.466,1.466,0,0,1,133.012,7.734ZM134.23,17h-2.469V9h2.469Zm8.734,0h-2.336V15.852H140.6a2.607,2.607,0,0,1-2.383,1.344,2.492,2.492,0,0,1-1.832-.66,2.366,2.366,0,0,1-.668-1.762q0-2.328,2.758-2.687l2.172-.289q0-1.312-1.422-1.312a4.853,4.853,0,0,0-2.719.852V9.477a6.116,6.116,0,0,1,1.41-.469,7.413,7.413,0,0,1,1.629-.2q3.422,0,3.422,3.414Zm-2.32-3.25v-.539l-1.453.188q-1.2.156-1.2,1.086a.9.9,0,0,0,.293.691,1.126,1.126,0,0,0,.793.27,1.462,1.462,0,0,0,1.133-.48A1.735,1.735,0,0,0,140.645,13.75ZM147.387,17h-2.469V5.156h2.469Zm9.266-3.3h-5.219q.125,1.742,2.2,1.742a4.286,4.286,0,0,0,2.32-.625V16.6a6.1,6.1,0,0,1-2.883.594,4.058,4.058,0,0,1-3.008-1.074,4.058,4.058,0,0,1-1.07-3,4.281,4.281,0,0,1,1.156-3.156A3.852,3.852,0,0,1,152.988,8.8,3.5,3.5,0,0,1,155.7,9.844a4,4,0,0,1,.957,2.82Zm-2.289-1.516q0-1.719-1.391-1.719a1.328,1.328,0,0,0-1.027.492,2.234,2.234,0,0,0-.527,1.227Zm3.234,4.6v-2a5.256,5.256,0,0,0,1.215.547,4.028,4.028,0,0,0,1.145.18,2.455,2.455,0,0,0,1.035-.18.581.581,0,0,0,.379-.547.506.506,0,0,0-.172-.391,1.6,1.6,0,0,0-.441-.273,5.009,5.009,0,0,0-.59-.211q-.32-.094-.617-.211a5.914,5.914,0,0,1-.84-.387,2.427,2.427,0,0,1-.609-.48,1.889,1.889,0,0,1-.375-.633,2.525,2.525,0,0,1-.129-.852,2.192,2.192,0,0,1,.293-1.156,2.393,2.393,0,0,1,.781-.793,3.57,3.57,0,0,1,1.117-.453A5.825,5.825,0,0,1,161.1,8.8a7.261,7.261,0,0,1,1.078.082,8.047,8.047,0,0,1,1.078.238v1.906a3.9,3.9,0,0,0-1-.41,4.235,4.235,0,0,0-1.051-.137,2.328,2.328,0,0,0-.457.043,1.505,1.505,0,0,0-.379.125.7.7,0,0,0-.258.211.486.486,0,0,0-.094.293.541.541,0,0,0,.141.375,1.221,1.221,0,0,0,.367.27,3.625,3.625,0,0,0,.5.2q.277.09.551.184a7.161,7.161,0,0,1,.891.375,2.848,2.848,0,0,1,.684.477,1.871,1.871,0,0,1,.438.641,2.563,2.563,0,0,1-.156,2.09,2.471,2.471,0,0,1-.82.82,3.72,3.72,0,0,1-1.18.461,6.54,6.54,0,0,1-1.387.145A7.149,7.149,0,0,1,157.6,16.789ZM177.4,17h-2.469V15.9H174.9a2.768,2.768,0,0,1-2.477,1.3,3.033,3.033,0,0,1-2.414-1.059,4.382,4.382,0,0,1-.914-2.957A4.77,4.77,0,0,1,170.105,10a3.287,3.287,0,0,1,2.641-1.2A2.246,2.246,0,0,1,174.9,9.914h.031V5.156H177.4Zm-2.422-3.891v-.6a1.893,1.893,0,0,0-.453-1.3,1.6,1.6,0,0,0-2.461.129,2.993,2.993,0,0,0-.461,1.77,2.59,2.59,0,0,0,.445,1.625,1.581,1.581,0,0,0,2.457-.031A2.507,2.507,0,0,0,174.98,13.109Zm11.688.594h-5.219q.125,1.742,2.2,1.742a4.286,4.286,0,0,0,2.32-.625V16.6a6.1,6.1,0,0,1-2.883.594,4.058,4.058,0,0,1-3.008-1.074,4.058,4.058,0,0,1-1.07-3,4.281,4.281,0,0,1,1.156-3.156A3.852,3.852,0,0,1,183,8.8a3.5,3.5,0,0,1,2.707,1.039,4,4,0,0,1,.957,2.82Zm-2.289-1.516q0-1.719-1.391-1.719a1.328,1.328,0,0,0-1.027.492,2.234,2.234,0,0,0-.527,1.227ZM14.586,40.789v-2a5.256,5.256,0,0,0,1.215.547,4.028,4.028,0,0,0,1.145.18,2.455,2.455,0,0,0,1.035-.18.581.581,0,0,0,.379-.547.506.506,0,0,0-.172-.391,1.6,1.6,0,0,0-.441-.273,5.009,5.009,0,0,0-.59-.211q-.32-.094-.617-.211a5.914,5.914,0,0,1-.84-.387,2.427,2.427,0,0,1-.609-.48,1.889,1.889,0,0,1-.375-.633,2.525,2.525,0,0,1-.129-.852,2.192,2.192,0,0,1,.293-1.156,2.393,2.393,0,0,1,.781-.793,3.57,3.57,0,0,1,1.117-.453,5.825,5.825,0,0,1,1.309-.145,7.261,7.261,0,0,1,1.078.082,8.047,8.047,0,0,1,1.078.238v1.906a3.9,3.9,0,0,0-1-.41,4.235,4.235,0,0,0-1.051-.137,2.328,2.328,0,0,0-.457.043,1.505,1.505,0,0,0-.379.125.7.7,0,0,0-.258.211.486.486,0,0,0-.094.293.541.541,0,0,0,.141.375,1.221,1.221,0,0,0,.367.27,3.625,3.625,0,0,0,.5.2q.277.09.551.184a7.161,7.161,0,0,1,.891.375,2.848,2.848,0,0,1,.684.477,1.871,1.871,0,0,1,.438.641,2.563,2.563,0,0,1-.156,2.09,2.471,2.471,0,0,1-.82.82,3.72,3.72,0,0,1-1.18.461,6.54,6.54,0,0,1-1.387.145A7.149,7.149,0,0,1,14.586,40.789ZM29.336,37.7H24.117q.125,1.742,2.2,1.742a4.286,4.286,0,0,0,2.32-.625V40.6a6.1,6.1,0,0,1-2.883.594,3.724,3.724,0,0,1-4.078-4.07,4.281,4.281,0,0,1,1.156-3.156A3.852,3.852,0,0,1,25.672,32.8a3.5,3.5,0,0,1,2.707,1.039,4,4,0,0,1,.957,2.82Zm-2.289-1.516q0-1.719-1.391-1.719a1.328,1.328,0,0,0-1.027.492,2.234,2.234,0,0,0-.527,1.227Zm11.6,3.9a4.526,4.526,0,0,1-1.289,3.449,5.224,5.224,0,0,1-3.734,1.223,5.919,5.919,0,0,1-2.562-.461V42.219a4.907,4.907,0,0,0,2.492.719,2.684,2.684,0,0,0,1.938-.66,2.369,2.369,0,0,0,.688-1.793v-.633h-.031A2.757,2.757,0,0,1,33.656,41.2a3,3,0,0,1-2.43-1.078,4.372,4.372,0,0,1-.9-2.891,4.87,4.87,0,0,1,1-3.227,3.265,3.265,0,0,1,2.633-1.2,2.429,2.429,0,0,1,2.188,1.125h.031V33h2.469Zm-2.437-2.93v-.633a1.945,1.945,0,0,0-.449-1.293,1.453,1.453,0,0,0-1.168-.535,1.51,1.51,0,0,0-1.289.641,3.012,3.012,0,0,0-.469,1.8,2.543,2.543,0,0,0,.445,1.582A1.451,1.451,0,0,0,34.5,39.3a1.511,1.511,0,0,0,1.238-.59A2.418,2.418,0,0,0,36.211,37.156ZM48.313,41H45.852V39.781h-.039A2.792,2.792,0,0,1,43.367,41.2q-2.781,0-2.781-3.367V33h2.461v4.609q0,1.7,1.344,1.7a1.329,1.329,0,0,0,1.063-.465,1.874,1.874,0,0,0,.4-1.262V33h2.461Zm7.3-5.773a2.142,2.142,0,0,0-1.039-.242,1.5,1.5,0,0,0-1.258.59,2.573,2.573,0,0,0-.453,1.605V41H50.391V33h2.469v1.484h.031A2.136,2.136,0,0,1,55,32.859a1.59,1.59,0,0,1,.609.094Zm2.461-3.492a1.442,1.442,0,0,1-1.023-.371,1.2,1.2,0,0,1-.4-.91,1.153,1.153,0,0,1,.4-.906,1.671,1.671,0,0,1,2.051,0,1.158,1.158,0,0,1,.395.906,1.191,1.191,0,0,1-.395.922A1.466,1.466,0,0,1,58.07,31.734ZM59.289,41H56.82V33h2.469ZM69.2,41H66.727V39.9H66.7a2.768,2.768,0,0,1-2.477,1.3A3.033,3.033,0,0,1,61.8,40.137a4.382,4.382,0,0,1-.914-2.957A4.77,4.77,0,0,1,61.9,34a3.287,3.287,0,0,1,2.641-1.2A2.246,2.246,0,0,1,66.7,33.914h.031V29.156H69.2Zm-2.422-3.891v-.6a1.893,1.893,0,0,0-.453-1.3,1.6,1.6,0,0,0-2.461.129,2.993,2.993,0,0,0-.461,1.77,2.59,2.59,0,0,0,.445,1.625A1.581,1.581,0,0,0,66.3,38.7,2.507,2.507,0,0,0,66.773,37.109ZM77.93,41H75.594V39.852h-.031A2.607,2.607,0,0,1,73.18,41.2a2.492,2.492,0,0,1-1.832-.66,2.366,2.366,0,0,1-.668-1.762q0-2.328,2.758-2.687l2.172-.289q0-1.312-1.422-1.312a4.853,4.853,0,0,0-2.719.852V33.477a6.117,6.117,0,0,1,1.41-.469,7.413,7.413,0,0,1,1.629-.2q3.422,0,3.422,3.414Zm-2.32-3.25v-.539l-1.453.188q-1.2.156-1.2,1.086a.9.9,0,0,0,.293.691,1.126,1.126,0,0,0,.793.27,1.462,1.462,0,0,0,1.133-.48A1.735,1.735,0,0,0,75.609,37.75ZM87.711,41H85.242V39.9h-.031a2.768,2.768,0,0,1-2.477,1.3,3.033,3.033,0,0,1-2.414-1.059,4.382,4.382,0,0,1-.914-2.957A4.77,4.77,0,0,1,80.414,34a3.287,3.287,0,0,1,2.641-1.2,2.246,2.246,0,0,1,2.156,1.109h.031V29.156h2.469Zm-2.422-3.891v-.6a1.893,1.893,0,0,0-.453-1.3,1.6,1.6,0,0,0-2.461.129,2.993,2.993,0,0,0-.461,1.77,2.59,2.59,0,0,0,.445,1.625,1.581,1.581,0,0,0,2.457-.031A2.507,2.507,0,0,0,85.289,37.109Zm16.1.594H96.172q.125,1.742,2.2,1.742a4.286,4.286,0,0,0,2.32-.625V40.6A6.1,6.1,0,0,1,97.8,41.2a3.724,3.724,0,0,1-4.078-4.07,4.281,4.281,0,0,1,1.156-3.156A3.852,3.852,0,0,1,97.727,32.8a3.5,3.5,0,0,1,2.707,1.039,4,4,0,0,1,.957,2.82ZM99.1,36.188q0-1.719-1.391-1.719a1.328,1.328,0,0,0-1.027.492,2.234,2.234,0,0,0-.527,1.227ZM110.586,41h-2.461V36.555q0-1.859-1.328-1.859a1.318,1.318,0,0,0-1.055.492,1.875,1.875,0,0,0-.414,1.25V41h-2.469V33h2.469v1.266h.031a2.829,2.829,0,0,1,2.57-1.461q2.656,0,2.656,3.3Zm13.555-3.3h-5.219q.125,1.742,2.2,1.742a4.286,4.286,0,0,0,2.32-.625V40.6a6.1,6.1,0,0,1-2.883.594,3.724,3.724,0,0,1-4.078-4.07,4.281,4.281,0,0,1,1.156-3.156,3.852,3.852,0,0,1,2.844-1.164,3.5,3.5,0,0,1,2.707,1.039,4,4,0,0,1,.957,2.82Zm-2.289-1.516q0-1.719-1.391-1.719a1.328,1.328,0,0,0-1.027.492,2.234,2.234,0,0,0-.527,1.227ZM128.078,41h-2.469V29.156h2.469Zm16.133,0h-2.9l-1.742-2.883q-.2-.328-.375-.586a3.256,3.256,0,0,0-.363-.441,1.445,1.445,0,0,0-.383-.281.972.972,0,0,0-.434-.1h-.68V41h-2.523V29.8h4q4.078,0,4.078,3.047a3.155,3.155,0,0,1-.18,1.082,3.006,3.006,0,0,1-.508.895,3.219,3.219,0,0,1-.793.688,4.09,4.09,0,0,1-1.035.453v.031a1.606,1.606,0,0,1,.484.254,3.468,3.468,0,0,1,.453.41,5.723,5.723,0,0,1,.418.5q.2.27.363.527Zm-6.875-9.312V34.8h1.094a1.813,1.813,0,0,0,1.3-.469,1.564,1.564,0,0,0,.5-1.18q0-1.469-1.758-1.469ZM151.977,41h-6.719V29.8h6.461v2.055h-3.937v2.492h3.664v2.047h-3.664v2.563h4.2Zm9.8-9.148h-3.2V41h-2.531V31.852h-3.18V29.8h8.906ZM165.813,41h-2.523V29.8h2.523Zm9.266,0h-6.719V29.8h6.461v2.055h-3.937v2.492h3.664v2.047h-3.664v2.563h4.2Zm2.656.2a1.44,1.44,0,0,1-1.016-.375,1.206,1.206,0,0,1-.406-.922,1.161,1.161,0,0,1,.418-.922,1.543,1.543,0,0,1,1.043-.359,1.486,1.486,0,0,1,1.035.363,1.258,1.258,0,0,1-.008,1.852A1.549,1.549,0,0,1,177.734,41.2Z" transform="translate(305 2858)" fill="#12263f"/>
    <path id="Trazado_1401808" data-name="Trazado 1401808" d="M22.41,13.141V17H19.887V5.8H23.84q4.234,0,4.234,3.57a3.426,3.426,0,0,1-1.215,2.73,4.813,4.813,0,0,1-3.246,1.043Zm0-5.406v3.492H23.4q2.016,0,2.016-1.766,0-1.727-2.016-1.727Zm12.281,3.492a2.142,2.142,0,0,0-1.039-.242,1.5,1.5,0,0,0-1.258.59,2.573,2.573,0,0,0-.453,1.605V17H29.473V9h2.469v1.484h.031a2.136,2.136,0,0,1,2.109-1.625,1.59,1.59,0,0,1,.609.094Zm4.9,5.969a4.3,4.3,0,0,1-3.145-1.121A4.064,4.064,0,0,1,35.3,13.031a4.065,4.065,0,0,1,1.188-3.105A4.487,4.487,0,0,1,39.7,8.8a4.249,4.249,0,0,1,3.125,1.121,3.985,3.985,0,0,1,1.133,2.965,4.23,4.23,0,0,1-1.168,3.148A4.348,4.348,0,0,1,39.59,17.2Zm.063-6.5a1.647,1.647,0,0,0-1.359.6,2.653,2.653,0,0,0-.484,1.7q0,2.3,1.859,2.3,1.773,0,1.773-2.367Q41.441,10.7,39.652,10.7Zm10.742,6.211a3.649,3.649,0,0,1-1.648.289q-2.609,0-2.609-2.711V10.82h-1.3V9h1.3V7.273l2.461-.7V9h1.8v1.82H48.6v3.234q0,1.25.992,1.25a1.673,1.673,0,0,0,.8-.227Zm8.516-3.2H53.691q.125,1.742,2.2,1.742a4.286,4.286,0,0,0,2.32-.625V16.6a6.1,6.1,0,0,1-2.883.594,4.058,4.058,0,0,1-3.008-1.074,4.058,4.058,0,0,1-1.07-3A4.281,4.281,0,0,1,52.4,9.969,3.852,3.852,0,0,1,55.246,8.8a3.5,3.5,0,0,1,2.707,1.039,4,4,0,0,1,.957,2.82Zm-2.289-1.516q0-1.719-1.391-1.719a1.328,1.328,0,0,0-1.027.492,2.234,2.234,0,0,0-.527,1.227Zm9.82,4.523a4.881,4.881,0,0,1-2.414.484,4.083,4.083,0,0,1-2.984-1.117A3.859,3.859,0,0,1,59.9,13.2,4.251,4.251,0,0,1,61.125,9.98,4.518,4.518,0,0,1,64.395,8.8a4.2,4.2,0,0,1,2.047.375v2.094a2.814,2.814,0,0,0-1.727-.578,2.275,2.275,0,0,0-1.684.621,2.317,2.317,0,0,0-.621,1.715A2.28,2.28,0,0,0,63,14.7a2.182,2.182,0,0,0,1.633.605,3.258,3.258,0,0,0,1.8-.578Zm7.68,0a4.881,4.881,0,0,1-2.414.484,4.083,4.083,0,0,1-2.984-1.117A3.859,3.859,0,0,1,67.582,13.2,4.251,4.251,0,0,1,68.8,9.98,4.518,4.518,0,0,1,72.074,8.8a4.2,4.2,0,0,1,2.047.375v2.094a2.814,2.814,0,0,0-1.727-.578,2.275,2.275,0,0,0-1.684.621,2.317,2.317,0,0,0-.621,1.715,2.28,2.28,0,0,0,.594,1.668,2.182,2.182,0,0,0,1.633.605,3.258,3.258,0,0,0,1.8-.578Zm2.867-8.977a1.442,1.442,0,0,1-1.023-.371,1.2,1.2,0,0,1-.4-.91,1.153,1.153,0,0,1,.4-.906,1.671,1.671,0,0,1,2.051,0,1.158,1.158,0,0,1,.395.906,1.191,1.191,0,0,1-.395.922A1.466,1.466,0,0,1,76.988,7.734ZM78.207,17H75.738V9h2.469Zm5.891.2a4.3,4.3,0,0,1-3.145-1.121,4.064,4.064,0,0,1-1.145-3.043A4.065,4.065,0,0,1,81,9.926,4.487,4.487,0,0,1,84.207,8.8a4.249,4.249,0,0,1,3.125,1.121,3.985,3.985,0,0,1,1.133,2.965A4.23,4.23,0,0,1,87.3,16.039,4.348,4.348,0,0,1,84.1,17.2Zm.063-6.5a1.647,1.647,0,0,0-1.359.6,2.653,2.653,0,0,0-.484,1.7q0,2.3,1.859,2.3,1.773,0,1.773-2.367Q85.949,10.7,84.16,10.7Zm2.648-5.484L84.363,7.734H82.582l2.031-2.523ZM97.785,17H95.324V12.555Q95.324,10.7,94,10.7a1.318,1.318,0,0,0-1.055.492,1.875,1.875,0,0,0-.414,1.25V17H90.059V9h2.469v1.266h.031A2.829,2.829,0,0,1,95.129,8.8q2.656,0,2.656,3.3Zm14.2,0h-2.469V15.9h-.031A2.768,2.768,0,0,1,107,17.2a3.033,3.033,0,0,1-2.414-1.059,4.382,4.382,0,0,1-.914-2.957A4.77,4.77,0,0,1,104.684,10a3.287,3.287,0,0,1,2.641-1.2,2.246,2.246,0,0,1,2.156,1.109h.031V5.156h2.469Zm-2.422-3.891v-.6a1.893,1.893,0,0,0-.453-1.3,1.6,1.6,0,0,0-2.461.129,2.993,2.993,0,0,0-.461,1.77,2.59,2.59,0,0,0,.445,1.625,1.581,1.581,0,0,0,2.457-.031A2.507,2.507,0,0,0,109.559,13.109Zm11.688.594h-5.219q.125,1.742,2.2,1.742a4.286,4.286,0,0,0,2.32-.625V16.6a6.1,6.1,0,0,1-2.883.594,4.058,4.058,0,0,1-3.008-1.074,4.058,4.058,0,0,1-1.07-3,4.281,4.281,0,0,1,1.156-3.156A3.852,3.852,0,0,1,117.582,8.8a3.5,3.5,0,0,1,2.707,1.039,4,4,0,0,1,.957,2.82Zm-2.289-1.516q0-1.719-1.391-1.719a1.328,1.328,0,0,0-1.027.492,2.234,2.234,0,0,0-.527,1.227ZM129.6,17h-2.469V5.156H129.6Zm8.734,0H136V15.852h-.031a2.607,2.607,0,0,1-2.383,1.344,2.492,2.492,0,0,1-1.832-.66,2.366,2.366,0,0,1-.668-1.762q0-2.328,2.758-2.687l2.172-.289q0-1.312-1.422-1.312a4.853,4.853,0,0,0-2.719.852V9.477a6.116,6.116,0,0,1,1.41-.469,7.413,7.413,0,0,1,1.629-.2q3.422,0,3.422,3.414Zm-2.32-3.25v-.539l-1.453.188q-1.2.156-1.2,1.086a.9.9,0,0,0,.293.691,1.126,1.126,0,0,0,.793.27,1.462,1.462,0,0,0,1.133-.48A1.735,1.735,0,0,0,136.012,13.75ZM152.316,9l-2.977,8h-2.812l-2.836-8h2.641l1.391,4.93A7.2,7.2,0,0,1,148,15.352h.031a8.069,8.069,0,0,1,.289-1.375L149.738,9Zm2.3-1.266a1.442,1.442,0,0,1-1.023-.371,1.2,1.2,0,0,1-.4-.91,1.153,1.153,0,0,1,.4-.906,1.671,1.671,0,0,1,2.051,0,1.158,1.158,0,0,1,.395.906,1.191,1.191,0,0,1-.395.922A1.466,1.466,0,0,1,154.621,7.734ZM155.84,17h-2.469V9h2.469Zm9.906,0h-2.469V15.9h-.031a2.768,2.768,0,0,1-2.477,1.3,3.033,3.033,0,0,1-2.414-1.059,4.382,4.382,0,0,1-.914-2.957A4.77,4.77,0,0,1,158.449,10a3.287,3.287,0,0,1,2.641-1.2,2.246,2.246,0,0,1,2.156,1.109h.031V5.156h2.469Zm-2.422-3.891v-.6a1.893,1.893,0,0,0-.453-1.3,1.6,1.6,0,0,0-2.461.129,2.993,2.993,0,0,0-.461,1.77,2.59,2.59,0,0,0,.445,1.625,1.581,1.581,0,0,0,2.457-.031A2.507,2.507,0,0,0,163.324,13.109ZM174.48,17h-2.336V15.852h-.031A2.607,2.607,0,0,1,169.73,17.2a2.492,2.492,0,0,1-1.832-.66,2.366,2.366,0,0,1-.668-1.762q0-2.328,2.758-2.687l2.172-.289q0-1.312-1.422-1.312a4.853,4.853,0,0,0-2.719.852V9.477a6.116,6.116,0,0,1,1.41-.469,7.413,7.413,0,0,1,1.629-.2q3.422,0,3.422,3.414Zm-2.32-3.25v-.539l-1.453.188q-1.2.156-1.2,1.086a.9.9,0,0,0,.293.691,1.126,1.126,0,0,0,.793.27,1.462,1.462,0,0,0,1.133-.48A1.735,1.735,0,0,0,172.16,13.75ZM73.117,41H70.656V36.453q0-1.758-1.281-1.758a1.312,1.312,0,0,0-1.062.492,1.9,1.9,0,0,0-.406,1.25V41H65.438V29.156h2.469v5.031h.031A2.805,2.805,0,0,1,70.4,32.8q2.719,0,2.719,3.281Zm9.555,0H80.211V39.781h-.039A2.792,2.792,0,0,1,77.727,41.2q-2.781,0-2.781-3.367V33h2.461v4.609q0,1.7,1.344,1.7a1.329,1.329,0,0,0,1.063-.465,1.874,1.874,0,0,0,.4-1.262V33h2.461Zm14.781,0H94.992V36.438q0-1.742-1.281-1.742a1.177,1.177,0,0,0-.992.523,2.151,2.151,0,0,0-.383,1.3V41H89.867V36.391q0-1.7-1.258-1.7a1.206,1.206,0,0,0-1.012.5,2.2,2.2,0,0,0-.379,1.359V41H84.75V33h2.469v1.25h.031A3.031,3.031,0,0,1,89.836,32.8a2.3,2.3,0,0,1,2.32,1.492A2.959,2.959,0,0,1,94.844,32.8q2.609,0,2.609,3.219Zm8.609,0h-2.336V39.852H103.7a2.607,2.607,0,0,1-2.383,1.344,2.492,2.492,0,0,1-1.832-.66,2.366,2.366,0,0,1-.668-1.762q0-2.328,2.758-2.687l2.172-.289q0-1.312-1.422-1.312a4.853,4.853,0,0,0-2.719.852V33.477a6.117,6.117,0,0,1,1.41-.469,7.413,7.413,0,0,1,1.629-.2q3.422,0,3.422,3.414Zm-2.32-3.25v-.539l-1.453.188q-1.2.156-1.2,1.086a.9.9,0,0,0,.293.691,1.126,1.126,0,0,0,.793.27,1.462,1.462,0,0,0,1.133-.48A1.735,1.735,0,0,0,103.742,37.75Zm12,3.25h-2.461V36.555q0-1.859-1.328-1.859a1.318,1.318,0,0,0-1.055.492,1.875,1.875,0,0,0-.414,1.25V41h-2.469V33h2.469v1.266h.031a2.829,2.829,0,0,1,2.57-1.461q2.656,0,2.656,3.3Zm8.609,0h-2.336V39.852h-.031A2.607,2.607,0,0,1,119.6,41.2a2.492,2.492,0,0,1-1.832-.66,2.366,2.366,0,0,1-.668-1.762q0-2.328,2.758-2.687l2.172-.289q0-1.312-1.422-1.312a4.853,4.853,0,0,0-2.719.852V33.477a6.117,6.117,0,0,1,1.41-.469,7.413,7.413,0,0,1,1.629-.2q3.422,0,3.422,3.414Zm-2.32-3.25v-.539l-1.453.188q-1.2.156-1.2,1.086a.9.9,0,0,0,.293.691,1.126,1.126,0,0,0,.793.27,1.462,1.462,0,0,0,1.133-.48A1.735,1.735,0,0,0,122.031,37.75Zm5.375,3.445a1.44,1.44,0,0,1-1.016-.375,1.206,1.206,0,0,1-.406-.922,1.161,1.161,0,0,1,.418-.922,1.543,1.543,0,0,1,1.043-.359,1.486,1.486,0,0,1,1.035.363,1.258,1.258,0,0,1-.008,1.852A1.549,1.549,0,0,1,127.406,41.2Z" transform="translate(1111 2858)" fill="#12263f"/>
    <path id="Trazado_1401795" data-name="Trazado 1401795" d="M16,0H207a16,16,0,0,1,16,16V50a16,16,0,0,1-16,16H16A16,16,0,0,1,0,50V16A16,16,0,0,1,16,0Z" transform="translate(889.711 2474)" fill="#ccdff8"/>
    <path id="Trazado_1401790" data-name="Trazado 1401790" d="M16,0H207a16,16,0,0,1,16,16V50a16,16,0,0,1-16,16H16A16,16,0,0,1,0,50V16A16,16,0,0,1,16,0Z" transform="translate(482.711 2474)" fill="#ccdff8"/>
    <path id="Trazado_1401796" data-name="Trazado 1401796" d="M36.965,13.141V17H34.441V5.8h3.953q4.234,0,4.234,3.57a3.426,3.426,0,0,1-1.215,2.73,4.813,4.813,0,0,1-3.246,1.043Zm0-5.406v3.492h.992q2.016,0,2.016-1.766,0-1.727-2.016-1.727Zm12.281,3.492a2.142,2.142,0,0,0-1.039-.242,1.5,1.5,0,0,0-1.258.59A2.573,2.573,0,0,0,46.5,13.18V17H44.027V9H46.5v1.484h.031a2.136,2.136,0,0,1,2.109-1.625,1.59,1.59,0,0,1,.609.094Zm4.9,5.969A4.3,4.3,0,0,1,51,16.074a4.064,4.064,0,0,1-1.145-3.043,4.065,4.065,0,0,1,1.188-3.105A4.487,4.487,0,0,1,54.254,8.8a4.249,4.249,0,0,1,3.125,1.121,3.985,3.985,0,0,1,1.133,2.965,4.23,4.23,0,0,1-1.168,3.148A4.348,4.348,0,0,1,54.145,17.2Zm.063-6.5a1.647,1.647,0,0,0-1.359.6,2.653,2.653,0,0,0-.484,1.7q0,2.3,1.859,2.3Q56,15.3,56,12.938,56,10.7,54.207,10.7Zm10.742,6.211A3.649,3.649,0,0,1,63.3,17.2q-2.609,0-2.609-2.711V10.82h-1.3V9h1.3V7.273l2.461-.7V9h1.8v1.82h-1.8v3.234q0,1.25.992,1.25a1.673,1.673,0,0,0,.8-.227Zm8.516-3.2H68.246q.125,1.742,2.2,1.742a4.286,4.286,0,0,0,2.32-.625V16.6a6.1,6.1,0,0,1-2.883.594,4.058,4.058,0,0,1-3.008-1.074,4.058,4.058,0,0,1-1.07-3,4.281,4.281,0,0,1,1.156-3.156A3.852,3.852,0,0,1,69.8,8.8a3.5,3.5,0,0,1,2.707,1.039,4,4,0,0,1,.957,2.82Zm-2.289-1.516q0-1.719-1.391-1.719a1.328,1.328,0,0,0-1.027.492,2.234,2.234,0,0,0-.527,1.227ZM81,16.711a4.881,4.881,0,0,1-2.414.484A4.083,4.083,0,0,1,75.6,16.078,3.859,3.859,0,0,1,74.457,13.2,4.251,4.251,0,0,1,75.68,9.98,4.518,4.518,0,0,1,78.949,8.8,4.2,4.2,0,0,1,81,9.18v2.094A2.814,2.814,0,0,0,79.27,10.7a2.275,2.275,0,0,0-1.684.621,2.317,2.317,0,0,0-.621,1.715,2.28,2.28,0,0,0,.594,1.668,2.182,2.182,0,0,0,1.633.605,3.258,3.258,0,0,0,1.8-.578Zm7.68,0a4.881,4.881,0,0,1-2.414.484,4.083,4.083,0,0,1-2.984-1.117A3.859,3.859,0,0,1,82.137,13.2,4.251,4.251,0,0,1,83.359,9.98,4.518,4.518,0,0,1,86.629,8.8a4.2,4.2,0,0,1,2.047.375v2.094a2.814,2.814,0,0,0-1.727-.578,2.275,2.275,0,0,0-1.684.621,2.317,2.317,0,0,0-.621,1.715,2.28,2.28,0,0,0,.594,1.668,2.182,2.182,0,0,0,1.633.605,3.258,3.258,0,0,0,1.8-.578Zm2.867-8.977a1.442,1.442,0,0,1-1.023-.371,1.2,1.2,0,0,1-.4-.91,1.153,1.153,0,0,1,.4-.906,1.671,1.671,0,0,1,2.051,0,1.158,1.158,0,0,1,.395.906,1.191,1.191,0,0,1-.395.922A1.466,1.466,0,0,1,91.543,7.734ZM92.762,17H90.293V9h2.469Zm5.891.2a4.3,4.3,0,0,1-3.145-1.121,4.064,4.064,0,0,1-1.145-3.043,4.065,4.065,0,0,1,1.188-3.105A4.487,4.487,0,0,1,98.762,8.8a4.249,4.249,0,0,1,3.125,1.121,3.985,3.985,0,0,1,1.133,2.965,4.23,4.23,0,0,1-1.168,3.148A4.348,4.348,0,0,1,98.652,17.2Zm.063-6.5a1.647,1.647,0,0,0-1.359.6,2.653,2.653,0,0,0-.484,1.7q0,2.3,1.859,2.3,1.773,0,1.773-2.367Q100.5,10.7,98.715,10.7Zm2.648-5.484L98.918,7.734H97.137l2.031-2.523ZM112.34,17h-2.461V12.555q0-1.859-1.328-1.859a1.318,1.318,0,0,0-1.055.492,1.875,1.875,0,0,0-.414,1.25V17h-2.469V9h2.469v1.266h.031a2.829,2.829,0,0,1,2.57-1.461q2.656,0,2.656,3.3Zm14.2,0h-2.469V15.9h-.031a2.768,2.768,0,0,1-2.477,1.3,3.033,3.033,0,0,1-2.414-1.059,4.382,4.382,0,0,1-.914-2.957A4.77,4.77,0,0,1,119.238,10a3.287,3.287,0,0,1,2.641-1.2,2.246,2.246,0,0,1,2.156,1.109h.031V5.156h2.469Zm-2.422-3.891v-.6a1.893,1.893,0,0,0-.453-1.3,1.6,1.6,0,0,0-2.461.129,2.993,2.993,0,0,0-.461,1.77,2.59,2.59,0,0,0,.445,1.625,1.581,1.581,0,0,0,2.457-.031A2.507,2.507,0,0,0,124.113,13.109ZM135.8,13.7h-5.219q.125,1.742,2.2,1.742a4.286,4.286,0,0,0,2.32-.625V16.6a6.1,6.1,0,0,1-2.883.594,4.058,4.058,0,0,1-3.008-1.074,4.058,4.058,0,0,1-1.07-3,4.281,4.281,0,0,1,1.156-3.156A3.852,3.852,0,0,1,132.137,8.8a3.5,3.5,0,0,1,2.707,1.039,4,4,0,0,1,.957,2.82Zm-2.289-1.516q0-1.719-1.391-1.719a1.328,1.328,0,0,0-1.027.492,2.234,2.234,0,0,0-.527,1.227ZM144.152,17h-2.469V5.156h2.469Zm8.734,0h-2.336V15.852h-.031a2.607,2.607,0,0,1-2.383,1.344,2.492,2.492,0,0,1-1.832-.66,2.366,2.366,0,0,1-.668-1.762q0-2.328,2.758-2.687l2.172-.289q0-1.312-1.422-1.312a4.853,4.853,0,0,0-2.719.852V9.477a6.116,6.116,0,0,1,1.41-.469,7.413,7.413,0,0,1,1.629-.2q3.422,0,3.422,3.414Zm-2.32-3.25v-.539l-1.453.188q-1.2.156-1.2,1.086a.9.9,0,0,0,.293.691,1.126,1.126,0,0,0,.793.27,1.462,1.462,0,0,0,1.133-.48A1.735,1.735,0,0,0,150.566,13.75Zm3.75,3.039v-2a5.256,5.256,0,0,0,1.215.547,4.028,4.028,0,0,0,1.145.18,2.455,2.455,0,0,0,1.035-.18.581.581,0,0,0,.379-.547.506.506,0,0,0-.172-.391,1.6,1.6,0,0,0-.441-.273,5.009,5.009,0,0,0-.59-.211q-.32-.094-.617-.211a5.914,5.914,0,0,1-.84-.387,2.427,2.427,0,0,1-.609-.48,1.889,1.889,0,0,1-.375-.633,2.525,2.525,0,0,1-.129-.852,2.192,2.192,0,0,1,.293-1.156,2.393,2.393,0,0,1,.781-.793,3.57,3.57,0,0,1,1.117-.453,5.825,5.825,0,0,1,1.309-.145,7.261,7.261,0,0,1,1.078.082,8.047,8.047,0,0,1,1.078.238v1.906a3.9,3.9,0,0,0-1-.41,4.235,4.235,0,0,0-1.051-.137,2.328,2.328,0,0,0-.457.043,1.505,1.505,0,0,0-.379.125.7.7,0,0,0-.258.211.486.486,0,0,0-.094.293.541.541,0,0,0,.141.375,1.221,1.221,0,0,0,.367.27,3.625,3.625,0,0,0,.5.2q.277.09.551.184a7.161,7.161,0,0,1,.891.375,2.848,2.848,0,0,1,.684.477,1.871,1.871,0,0,1,.438.641,2.563,2.563,0,0,1-.156,2.09,2.471,2.471,0,0,1-.82.82,3.72,3.72,0,0,1-1.18.461,6.54,6.54,0,0,1-1.387.145A7.149,7.149,0,0,1,154.316,16.789ZM48.8,31.734a1.442,1.442,0,0,1-1.023-.371,1.2,1.2,0,0,1-.4-.91,1.153,1.153,0,0,1,.4-.906,1.671,1.671,0,0,1,2.051,0,1.158,1.158,0,0,1,.395.906,1.191,1.191,0,0,1-.395.922A1.466,1.466,0,0,1,48.8,31.734ZM50.02,41H47.551V33H50.02Zm9.8,0H57.363V36.555q0-1.859-1.328-1.859a1.318,1.318,0,0,0-1.055.492,1.875,1.875,0,0,0-.414,1.25V41H52.1V33h2.469v1.266H54.6a2.829,2.829,0,0,1,2.57-1.461q2.656,0,2.656,3.3Zm1.43-.211v-2a5.256,5.256,0,0,0,1.215.547,4.028,4.028,0,0,0,1.145.18,2.455,2.455,0,0,0,1.035-.18.581.581,0,0,0,.379-.547.506.506,0,0,0-.172-.391,1.6,1.6,0,0,0-.441-.273,5.009,5.009,0,0,0-.59-.211q-.32-.094-.617-.211a5.914,5.914,0,0,1-.84-.387,2.427,2.427,0,0,1-.609-.48,1.889,1.889,0,0,1-.375-.633,2.525,2.525,0,0,1-.129-.852,2.192,2.192,0,0,1,.293-1.156,2.393,2.393,0,0,1,.781-.793,3.57,3.57,0,0,1,1.117-.453,5.825,5.825,0,0,1,1.309-.145,7.261,7.261,0,0,1,1.078.082,8.046,8.046,0,0,1,1.078.238v1.906a3.9,3.9,0,0,0-1-.41,4.235,4.235,0,0,0-1.051-.137,2.328,2.328,0,0,0-.457.043,1.505,1.505,0,0,0-.379.125.7.7,0,0,0-.258.211.486.486,0,0,0-.094.293.541.541,0,0,0,.141.375,1.221,1.221,0,0,0,.367.27,3.625,3.625,0,0,0,.5.2q.277.09.551.184a7.161,7.161,0,0,1,.891.375,2.848,2.848,0,0,1,.684.477,1.872,1.872,0,0,1,.438.641,2.563,2.563,0,0,1-.156,2.09,2.471,2.471,0,0,1-.82.82,3.72,3.72,0,0,1-1.18.461A6.54,6.54,0,0,1,63.7,41.2,7.149,7.149,0,0,1,61.254,40.789Zm12.4.117A3.649,3.649,0,0,1,72,41.2q-2.609,0-2.609-2.711V34.82H68.1V33h1.3V31.273l2.461-.7V33h1.8v1.82h-1.8v3.234q0,1.25.992,1.25a1.673,1.673,0,0,0,.8-.227ZM81.7,41H79.363V39.852h-.031A2.607,2.607,0,0,1,76.949,41.2a2.492,2.492,0,0,1-1.832-.66,2.366,2.366,0,0,1-.668-1.762q0-2.328,2.758-2.687l2.172-.289q0-1.312-1.422-1.312a4.853,4.853,0,0,0-2.719.852V33.477a6.117,6.117,0,0,1,1.41-.469,7.413,7.413,0,0,1,1.629-.2q3.422,0,3.422,3.414Zm-2.32-3.25v-.539l-1.453.188q-1.2.156-1.2,1.086a.9.9,0,0,0,.293.691,1.126,1.126,0,0,0,.793.27,1.462,1.462,0,0,0,1.133-.48A1.735,1.735,0,0,0,79.379,37.75ZM86.121,41H83.652V29.156h2.469Zm8.734,0H92.52V39.852h-.031A2.607,2.607,0,0,1,90.105,41.2a2.492,2.492,0,0,1-1.832-.66,2.366,2.366,0,0,1-.668-1.762q0-2.328,2.758-2.687l2.172-.289q0-1.312-1.422-1.312a4.853,4.853,0,0,0-2.719.852V33.477a6.117,6.117,0,0,1,1.41-.469,7.413,7.413,0,0,1,1.629-.2q3.422,0,3.422,3.414Zm-2.32-3.25v-.539l-1.453.188q-1.2.156-1.2,1.086a.9.9,0,0,0,.293.691,1.126,1.126,0,0,0,.793.27,1.462,1.462,0,0,0,1.133-.48A1.735,1.735,0,0,0,92.535,37.75Zm10.336,2.961a4.881,4.881,0,0,1-2.414.484,4.083,4.083,0,0,1-2.984-1.117A3.859,3.859,0,0,1,96.332,37.2a4.251,4.251,0,0,1,1.223-3.215,4.518,4.518,0,0,1,3.27-1.176,4.2,4.2,0,0,1,2.047.375v2.094a2.814,2.814,0,0,0-1.727-.578,2.275,2.275,0,0,0-1.684.621,2.317,2.317,0,0,0-.621,1.715,2.28,2.28,0,0,0,.594,1.668,2.182,2.182,0,0,0,1.633.605,3.258,3.258,0,0,0,1.8-.578Zm2.867-8.977a1.442,1.442,0,0,1-1.023-.371,1.2,1.2,0,0,1-.4-.91,1.153,1.153,0,0,1,.4-.906,1.671,1.671,0,0,1,2.051,0,1.158,1.158,0,0,1,.395.906,1.191,1.191,0,0,1-.395.922A1.466,1.466,0,0,1,105.738,31.734ZM106.957,41h-2.469V33h2.469Zm5.891.2a4.3,4.3,0,0,1-3.145-1.121,4.064,4.064,0,0,1-1.145-3.043,4.065,4.065,0,0,1,1.188-3.105,4.487,4.487,0,0,1,3.211-1.121,4.249,4.249,0,0,1,3.125,1.121,3.985,3.985,0,0,1,1.133,2.965,4.23,4.23,0,0,1-1.168,3.148A4.348,4.348,0,0,1,112.848,41.2Zm.063-6.5a1.647,1.647,0,0,0-1.359.6,2.653,2.653,0,0,0-.484,1.7q0,2.3,1.859,2.3,1.773,0,1.773-2.367Q114.7,34.7,112.91,34.7ZM126.543,41h-2.461V36.555q0-1.859-1.328-1.859a1.318,1.318,0,0,0-1.055.492,1.875,1.875,0,0,0-.414,1.25V41h-2.469V33h2.469v1.266h.031a2.829,2.829,0,0,1,2.57-1.461q2.656,0,2.656,3.3Zm9.141-3.3h-5.219q.125,1.742,2.2,1.742a4.286,4.286,0,0,0,2.32-.625V40.6a6.1,6.1,0,0,1-2.883.594,3.724,3.724,0,0,1-4.078-4.07,4.281,4.281,0,0,1,1.156-3.156A3.852,3.852,0,0,1,132.02,32.8a3.5,3.5,0,0,1,2.707,1.039,4,4,0,0,1,.957,2.82Zm-2.289-1.516q0-1.719-1.391-1.719a1.328,1.328,0,0,0-1.027.492,2.234,2.234,0,0,0-.527,1.227Zm3.234,4.6v-2a5.256,5.256,0,0,0,1.215.547,4.028,4.028,0,0,0,1.145.18,2.455,2.455,0,0,0,1.035-.18.581.581,0,0,0,.379-.547.506.506,0,0,0-.172-.391,1.6,1.6,0,0,0-.441-.273,5.009,5.009,0,0,0-.59-.211q-.32-.094-.617-.211a5.914,5.914,0,0,1-.84-.387,2.427,2.427,0,0,1-.609-.48,1.889,1.889,0,0,1-.375-.633,2.525,2.525,0,0,1-.129-.852,2.192,2.192,0,0,1,.293-1.156,2.393,2.393,0,0,1,.781-.793,3.57,3.57,0,0,1,1.117-.453,5.825,5.825,0,0,1,1.309-.145,7.261,7.261,0,0,1,1.078.082,8.047,8.047,0,0,1,1.078.238v1.906a3.9,3.9,0,0,0-1-.41,4.235,4.235,0,0,0-1.051-.137,2.328,2.328,0,0,0-.457.043,1.505,1.505,0,0,0-.379.125.7.7,0,0,0-.258.211.486.486,0,0,0-.094.293.541.541,0,0,0,.141.375,1.221,1.221,0,0,0,.367.27,3.625,3.625,0,0,0,.5.2q.277.09.551.184a7.161,7.161,0,0,1,.891.375,2.848,2.848,0,0,1,.684.477,1.871,1.871,0,0,1,.438.641,2.563,2.563,0,0,1-.156,2.09,2.471,2.471,0,0,1-.82.82,3.72,3.72,0,0,1-1.18.461,6.54,6.54,0,0,1-1.387.145A7.149,7.149,0,0,1,136.629,40.789Zm8.664.406a1.44,1.44,0,0,1-1.016-.375,1.206,1.206,0,0,1-.406-.922,1.161,1.161,0,0,1,.418-.922,1.543,1.543,0,0,1,1.043-.359,1.486,1.486,0,0,1,1.035.363,1.258,1.258,0,0,1-.008,1.852A1.549,1.549,0,0,1,145.293,41.2Z" transform="translate(904 2486.5)" fill="#12263f"/>
    <path id="Trazado_1401807" data-name="Trazado 1401807" d="M18.656,13.141V17H16.133V5.8h3.953q4.234,0,4.234,3.57a3.426,3.426,0,0,1-1.215,2.73,4.813,4.813,0,0,1-3.246,1.043Zm0-5.406v3.492h.992q2.016,0,2.016-1.766,0-1.727-2.016-1.727Zm12.281,3.492a2.142,2.142,0,0,0-1.039-.242,1.5,1.5,0,0,0-1.258.59,2.573,2.573,0,0,0-.453,1.605V17H25.719V9h2.469v1.484h.031a2.136,2.136,0,0,1,2.109-1.625,1.59,1.59,0,0,1,.609.094Zm4.9,5.969a4.3,4.3,0,0,1-3.145-1.121,4.064,4.064,0,0,1-1.145-3.043,4.065,4.065,0,0,1,1.188-3.105A4.487,4.487,0,0,1,35.945,8.8,4.249,4.249,0,0,1,39.07,9.926,3.985,3.985,0,0,1,40.2,12.891a4.23,4.23,0,0,1-1.168,3.148A4.348,4.348,0,0,1,35.836,17.2Zm.063-6.5a1.647,1.647,0,0,0-1.359.6,2.653,2.653,0,0,0-.484,1.7q0,2.3,1.859,2.3,1.773,0,1.773-2.367Q37.688,10.7,35.9,10.7Zm10.742,6.211a3.649,3.649,0,0,1-1.648.289q-2.609,0-2.609-2.711V10.82h-1.3V9h1.3V7.273l2.461-.7V9h1.8v1.82h-1.8v3.234q0,1.25.992,1.25a1.673,1.673,0,0,0,.8-.227Zm8.516-3.2H49.938q.125,1.742,2.2,1.742a4.286,4.286,0,0,0,2.32-.625V16.6a6.1,6.1,0,0,1-2.883.594,4.058,4.058,0,0,1-3.008-1.074,4.058,4.058,0,0,1-1.07-3,4.281,4.281,0,0,1,1.156-3.156A3.852,3.852,0,0,1,51.492,8.8,3.5,3.5,0,0,1,54.2,9.844a4,4,0,0,1,.957,2.82Zm-2.289-1.516q0-1.719-1.391-1.719a1.328,1.328,0,0,0-1.027.492,2.234,2.234,0,0,0-.527,1.227Zm9.82,4.523a4.881,4.881,0,0,1-2.414.484,4.083,4.083,0,0,1-2.984-1.117A3.859,3.859,0,0,1,56.148,13.2,4.251,4.251,0,0,1,57.371,9.98,4.518,4.518,0,0,1,60.641,8.8a4.2,4.2,0,0,1,2.047.375v2.094a2.814,2.814,0,0,0-1.727-.578,2.275,2.275,0,0,0-1.684.621,2.317,2.317,0,0,0-.621,1.715A2.28,2.28,0,0,0,59.25,14.7a2.182,2.182,0,0,0,1.633.605,3.258,3.258,0,0,0,1.8-.578Zm7.68,0a4.881,4.881,0,0,1-2.414.484,4.083,4.083,0,0,1-2.984-1.117A3.859,3.859,0,0,1,63.828,13.2,4.251,4.251,0,0,1,65.051,9.98,4.518,4.518,0,0,1,68.32,8.8a4.2,4.2,0,0,1,2.047.375v2.094a2.814,2.814,0,0,0-1.727-.578,2.275,2.275,0,0,0-1.684.621,2.317,2.317,0,0,0-.621,1.715A2.28,2.28,0,0,0,66.93,14.7a2.182,2.182,0,0,0,1.633.605,3.258,3.258,0,0,0,1.8-.578Zm2.867-8.977a1.442,1.442,0,0,1-1.023-.371,1.2,1.2,0,0,1-.4-.91,1.153,1.153,0,0,1,.4-.906,1.671,1.671,0,0,1,2.051,0,1.158,1.158,0,0,1,.395.906,1.191,1.191,0,0,1-.395.922A1.466,1.466,0,0,1,73.234,7.734ZM74.453,17H71.984V9h2.469Zm5.891.2A4.3,4.3,0,0,1,77.2,16.074a4.064,4.064,0,0,1-1.145-3.043,4.065,4.065,0,0,1,1.188-3.105A4.487,4.487,0,0,1,80.453,8.8a4.249,4.249,0,0,1,3.125,1.121,3.985,3.985,0,0,1,1.133,2.965,4.23,4.23,0,0,1-1.168,3.148A4.348,4.348,0,0,1,80.344,17.2Zm.063-6.5a1.647,1.647,0,0,0-1.359.6,2.653,2.653,0,0,0-.484,1.7q0,2.3,1.859,2.3,1.773,0,1.773-2.367Q82.2,10.7,80.406,10.7Zm2.648-5.484L80.609,7.734H78.828l2.031-2.523ZM94.031,17H91.57V12.555q0-1.859-1.328-1.859a1.318,1.318,0,0,0-1.055.492,1.875,1.875,0,0,0-.414,1.25V17H86.3V9h2.469v1.266H88.8A2.829,2.829,0,0,1,91.375,8.8q2.656,0,2.656,3.3Zm13.023,0h-2.336V15.852h-.031A2.607,2.607,0,0,1,102.3,17.2a2.492,2.492,0,0,1-1.832-.66,2.366,2.366,0,0,1-.668-1.762q0-2.328,2.758-2.687l2.172-.289q0-1.312-1.422-1.312a4.853,4.853,0,0,0-2.719.852V9.477A6.116,6.116,0,0,1,102,9.008a7.413,7.413,0,0,1,1.629-.2q3.422,0,3.422,3.414Zm-2.32-3.25v-.539l-1.453.188q-1.2.156-1.2,1.086a.9.9,0,0,0,.293.691,1.126,1.126,0,0,0,.793.27,1.462,1.462,0,0,0,1.133-.48A1.735,1.735,0,0,0,104.734,13.75ZM121.711,17H119.25V12.438q0-1.742-1.281-1.742a1.177,1.177,0,0,0-.992.523,2.151,2.151,0,0,0-.383,1.3V17h-2.469V12.391q0-1.7-1.258-1.7a1.206,1.206,0,0,0-1.012.5,2.2,2.2,0,0,0-.379,1.359V17h-2.469V9h2.469v1.25h.031A3.031,3.031,0,0,1,114.094,8.8a2.3,2.3,0,0,1,2.32,1.492A2.959,2.959,0,0,1,119.1,8.8q2.609,0,2.609,3.219Zm4.453-.93h-.031V17h-2.469V5.156h2.469V10.2h.031a2.929,2.929,0,0,1,2.6-1.4,2.855,2.855,0,0,1,2.383,1.063,4.582,4.582,0,0,1,.836,2.906,4.962,4.962,0,0,1-.977,3.211A3.181,3.181,0,0,1,128.4,17.2,2.521,2.521,0,0,1,126.164,16.07Zm-.07-3.375v.82a1.872,1.872,0,0,0,.445,1.281,1.449,1.449,0,0,0,1.141.508,1.514,1.514,0,0,0,1.309-.652,3.15,3.15,0,0,0,.465-1.848,2.506,2.506,0,0,0-.426-1.551,1.437,1.437,0,0,0-1.215-.559,1.569,1.569,0,0,0-1.23.555A2.107,2.107,0,0,0,126.094,12.7Zm8.742-4.961a1.442,1.442,0,0,1-1.023-.371,1.2,1.2,0,0,1-.4-.91,1.153,1.153,0,0,1,.4-.906,1.671,1.671,0,0,1,2.051,0,1.158,1.158,0,0,1,.395.906,1.191,1.191,0,0,1-.395.922A1.466,1.466,0,0,1,134.836,7.734ZM136.055,17h-2.469V9h2.469Zm9.266-3.3H140.1q.125,1.742,2.2,1.742a4.286,4.286,0,0,0,2.32-.625V16.6a6.1,6.1,0,0,1-2.883.594,4.058,4.058,0,0,1-3.008-1.074,4.058,4.058,0,0,1-1.07-3,4.281,4.281,0,0,1,1.156-3.156A3.852,3.852,0,0,1,141.656,8.8a3.5,3.5,0,0,1,2.707,1.039,4,4,0,0,1,.957,2.82Zm-2.289-1.516q0-1.719-1.391-1.719a1.328,1.328,0,0,0-1.027.492,2.234,2.234,0,0,0-.527,1.227ZM154.516,17h-2.461V12.555q0-1.859-1.328-1.859a1.318,1.318,0,0,0-1.055.492,1.875,1.875,0,0,0-.414,1.25V17h-2.469V9h2.469v1.266h.031a2.829,2.829,0,0,1,2.57-1.461q2.656,0,2.656,3.3Zm6.789-.094a3.649,3.649,0,0,1-1.648.289q-2.609,0-2.609-2.711V10.82h-1.3V9h1.3V7.273l2.461-.7V9h1.8v1.82h-1.8v3.234q0,1.25.992,1.25a1.673,1.673,0,0,0,.8-.227Zm8.047.094h-2.336V15.852h-.031A2.607,2.607,0,0,1,164.6,17.2a2.492,2.492,0,0,1-1.832-.66,2.366,2.366,0,0,1-.668-1.762q0-2.328,2.758-2.687l2.172-.289q0-1.312-1.422-1.312a4.853,4.853,0,0,0-2.719.852V9.477a6.116,6.116,0,0,1,1.41-.469,7.413,7.413,0,0,1,1.629-.2q3.422,0,3.422,3.414Zm-2.32-3.25v-.539l-1.453.188q-1.2.156-1.2,1.086a.9.9,0,0,0,.293.691,1.126,1.126,0,0,0,.793.27,1.462,1.462,0,0,0,1.133-.48A1.735,1.735,0,0,0,167.031,13.75ZM173.773,17H171.3V5.156h2.469Zm3.18.2a1.44,1.44,0,0,1-1.016-.375,1.206,1.206,0,0,1-.406-.922,1.161,1.161,0,0,1,.418-.922,1.543,1.543,0,0,1,1.043-.359,1.486,1.486,0,0,1,1.035.363,1.258,1.258,0,0,1-.008,1.852A1.549,1.549,0,0,1,176.953,17.2Z" transform="translate(704.711 2867)" fill="#12263f"/>
    <g id="Grupo_1212866" data-name="Grupo 1212866" transform="translate(360.322 2658.101)">
      <path id="Trazado_1383668" data-name="Trazado 1383668" d="M229.986,11c-5.7,3.558-12.6,5.585-16.307,6.531V33.523A10.422,10.422,0,0,0,215.164,39c2.769,4.663,9.669,8.334,14.821,11.449,5.153-3.115,12.052-6.786,14.821-11.449a10.42,10.42,0,0,0,1.485-5.472V17.531c-3.709-.946-10.608-2.974-16.307-6.531Z" transform="translate(-180.21 -6.067)" fill="#b6dbff" fill-rule="evenodd"/>
      <path id="Trazado_1383669" data-name="Trazado 1383669" d="M247.313,34.279a61.163,61.163,0,0,1-13.635,5.472V53.692a7.767,7.767,0,0,0,1.111,4.107c2.209,3.719,8.3,7.213,12.524,9.7,4.227-2.491,10.315-5.985,12.524-9.7a7.768,7.768,0,0,0,1.111-4.107V39.751a61.17,61.17,0,0,1-13.635-5.472Z" transform="translate(-197.537 -26.236)" fill="#f3f3ff" fill-rule="evenodd"/>
      <path id="Trazado_1383670" data-name="Trazado 1383670" d="M335.728,50.445C340.881,47.33,347.78,43.659,350.55,39a10.421,10.421,0,0,0,1.485-5.472V17.531c-3.709-.946-10.608-2.974-16.307-6.531V50.445Z" transform="translate(-285.953 -6.067)" fill="#9cf" fill-rule="evenodd"/>
      <path id="Trazado_1383671" data-name="Trazado 1383671" d="M335.729,34.279V67.5c4.227-2.491,10.315-5.985,12.524-9.7a7.768,7.768,0,0,0,1.111-4.107V39.751a61.169,61.169,0,0,1-13.635-5.472Z" transform="translate(-285.954 -26.236)" fill="#cfe8ff" fill-rule="evenodd"/>
      <path id="Trazado_1383672" data-name="Trazado 1383672" d="M299.317,66.469l-9.443,11.825a.651.651,0,0,0,.34,1.035L294,80.344a.653.653,0,0,1,.461.8l-2.544,9.495a.3.3,0,0,0,.517.261l9.443-11.825a.651.651,0,0,0-.34-1.035l-3.787-1.015a.653.653,0,0,1-.461-.8l2.544-9.495a.3.3,0,0,0-.517-.261Z" transform="translate(-246.1 -54.028)" fill="#f9ac00" fill-rule="evenodd"/>
      <path id="Trazado_1383673" data-name="Trazado 1383673" d="M297.146,87.538l-7.272,9.107a.651.651,0,0,0,.34,1.035l1.893.507,1.893.507a.653.653,0,0,1,.461.8l-1.75,6.531,7.272-9.107a.651.651,0,0,0-.34-1.035l-1.893-.507-1.893-.507a.653.653,0,0,1-.461-.8l1.75-6.531Z" transform="translate(-246.1 -72.379)" fill="#fcdb35" fill-rule="evenodd"/>
      <path id="Trazado_1383674" data-name="Trazado 1383674" d="M89.78,305.927a2.933,2.933,0,0,0-2.629-4.424c-19.013,0-19.047-15.46-36.831,7.412l9.411,9.867c4.192-4.227,9.175-4.423,14.671-4.094,3,.179,6.576.612,9.858.54,4.586-.1,7.4-1.346,11.425-3.48,4.585-2.429,12.555-7.267,13.945-9.094,1.99-2.616-.579-5.079-3.614-3.327-3.569,2.061-13.02,6.568-17.888,7.926a3.432,3.432,0,0,0,1.652-1.325Z" transform="translate(-38.677 -253.331)" fill="#fdb0a0" fill-rule="evenodd"/>
      <path id="Trazado_1383675" data-name="Trazado 1383675" d="M89.78,305.927a2.933,2.933,0,0,0-2.629-4.424c-19.013,0-19.047-15.46-36.831,7.412l7.265,7.616c4.392-4.332,9.6-4.531,15.337-4.188,3.16.189,6.932.645,10.393.569,4.835-.107,7.8-1.419,12.044-3.668,4.786-2.535,13.068-7.56,14.654-9.529-.658-1.009-2.25-1.4-4-.389-3.569,2.061-13.02,6.568-17.888,7.926a3.432,3.432,0,0,0,1.652-1.325Z" transform="translate(-38.677 -253.331)" fill="#ffcec0" fill-rule="evenodd"/>
      <path id="Trazado_1383676" data-name="Trazado 1383676" d="M236.667,340.916a2.939,2.939,0,0,0-1.241-4.137c1.053,1.153.347,2.79-1.3,3.391a11.5,11.5,0,0,1-3.484.522,23.074,23.074,0,0,1-9.107-1.562,1.144,1.144,0,1,0-1.055,2.03c1.838.956,6.362,1.907,10.217,1.813a13.183,13.183,0,0,0,4.324-.732,3.432,3.432,0,0,0,1.652-1.325Z" transform="translate(-185.564 -288.32)" fill="#fdb0a0" fill-rule="evenodd"/>
      <path id="Trazado_1383677" data-name="Trazado 1383677" d="M12.491,367.85l4.357-4.357a2.206,2.206,0,0,1,3.11,0l10.359,10.359a2.206,2.206,0,0,1,0,3.11L25.96,381.32Z" transform="translate(-5.903 -310.909)" fill="#2a93fc" fill-rule="evenodd"/>
      <path id="Trazado_1383678" data-name="Trazado 1383678" d="M12.491,367.85l4.357-4.357a2.206,2.206,0,0,1,3.109,0h0l8.158,8.158a2.206,2.206,0,0,1,0,3.11l-4.357,4.357Z" transform="translate(-5.903 -310.908)" fill="#4eb1fc" fill-rule="evenodd"/>
      <path id="Trazado_1383679" data-name="Trazado 1383679" d="M34.405,12.188A61.122,61.122,0,0,0,49.777,6.03a61.126,61.126,0,0,0,15.372,6.158V27.456a9.517,9.517,0,0,1-1.355,4.995c-2.308,3.887-7.741,7.109-12.535,9.952-.512.3-1,.594-1.483.882-.48-.287-.971-.578-1.482-.882C43.5,39.56,38.068,36.338,35.759,32.451a9.52,9.52,0,0,1-1.354-4.995V12.188ZM47.34,44.012c.682.4,1.326.787,1.953,1.166a.941.941,0,0,0,.968,0c.627-.379,1.271-.762,1.953-1.166C57.2,41.055,62.85,37.7,65.4,33.406a11.34,11.34,0,0,0,1.617-5.95V11.464a.935.935,0,0,0-.7-.906A59.217,59.217,0,0,1,50.272,4.139a.935.935,0,0,0-.991,0,59.226,59.226,0,0,1-16.043,6.419.935.935,0,0,0-.7.906V27.456a11.344,11.344,0,0,0,1.617,5.95c2.552,4.3,8.2,7.649,13.189,10.606Zm4.678-28.531L44.81,24.508l3.344.9a1.584,1.584,0,0,1,1.119,1.938l-1.738,6.485L54.744,24.8l-3.344-.9a1.586,1.586,0,0,1-1.12-1.94l1.738-6.486ZM43.9,26.2l3.491.936-2.457,9.17a1.236,1.236,0,0,0,1.192,1.55,1.219,1.219,0,0,0,.956-.465l9.4-11.766a1.582,1.582,0,0,0-.827-2.517l-3.491-.936L54.618,13a1.234,1.234,0,0,0-.633-1.416,1.22,1.22,0,0,0-1.515.33h0l-9.4,11.766A1.583,1.583,0,0,0,43.9,26.2ZM70.187,48.762c.579-.76.674-1.5.254-1.976s-1.433-.676-2.653.028c-3.489,2.013-12.955,6.562-18.03,7.992a13.345,13.345,0,0,1-5,.8c-.377,0-.747-.01-1.105-.026a23.877,23.877,0,0,1-8.472-1.774.935.935,0,1,1,.864-1.658,22.493,22.493,0,0,0,7.69,1.564c3.423.148,5.872-.446,6.553-1.593A2,2,0,0,0,48.5,49.113h-.035a34.922,34.922,0,0,1-14.541-3.291c-6.1-2.531-9.5-3.939-18.582,6.711L24.616,61.8c3.63-1.669,7.652-1.6,11.169-1.384.91.053,1.854.129,2.853.211,2.3.184,4.674.375,6.921.326,4.5-.1,7.28-1.4,11-3.368,5.244-2.778,12.493-7.335,13.628-8.828ZM23.765,65.385l-3.693,3.693L7.936,56.941l3.693-3.693a1.266,1.266,0,0,1,1.786,0L23.765,63.6a1.268,1.268,0,0,1,0,1.784Zm48.08-19.836c-.941-1.068-2.85-1.593-4.992-.356a125.686,125.686,0,0,1-14.5,6.766,3.874,3.874,0,0,0-3.9-4.717,32.864,32.864,0,0,1-13.808-3.148c-3.222-1.336-6-2.49-9.288-1.7-3.326.806-6.869,3.569-11.447,8.936a3.139,3.139,0,0,0-3.6.591L5.952,56.28a.935.935,0,0,0,0,1.323l13.459,13.46a.936.936,0,0,0,1.323,0l4.354-4.355a3.145,3.145,0,0,0,.694-3.375c2.8-1.181,5.909-1.284,9.891-1.047.891.053,1.825.128,2.815.209a70.713,70.713,0,0,0,7.113.332c4.917-.108,7.878-1.491,11.834-3.586C61.469,57.105,70.071,52,71.676,49.9a3.346,3.346,0,0,0,.169-4.346Z" transform="translate(0 0)" fill-rule="evenodd"/>
    </g>
    <g id="Grupo_1212870" data-name="Grupo 1212870" transform="translate(519.796 2655.598)">
      <path id="Trazado_1383680" data-name="Trazado 1383680" d="M100.339,84.288H62.069a3.679,3.679,0,0,1-3.679-3.679V33.122a3.679,3.679,0,0,1,3.679-3.679h38.27a3.679,3.679,0,0,1,3.679,3.679V80.609A3.679,3.679,0,0,1,100.339,84.288Z" transform="translate(0 -19.41)" fill="#5f99d7"/>
      <path id="Trazado_1383681" data-name="Trazado 1383681" d="M67.521,29.44H62.069a3.68,3.68,0,0,0-3.679,3.679V80.606a3.68,3.68,0,0,0,3.679,3.679H89.1" transform="translate(0 -19.407)" fill="none" stroke="#000" stroke-linecap="round" stroke-linejoin="round" stroke-miterlimit="10" stroke-width="1"/>
      <path id="Trazado_1383682" data-name="Trazado 1383682" d="M361.119,29.44h5.452a3.68,3.68,0,0,1,3.679,3.679V80.606a3.68,3.68,0,0,1-3.679,3.679h-7.2" transform="translate(-266.232 -19.407)" fill="none" stroke="#000" stroke-linecap="round" stroke-linejoin="round" stroke-miterlimit="10" stroke-width="1"/>
      <path id="Trazado_1383683" data-name="Trazado 1383683" d="M91.39,107.145V64.967a2.524,2.524,0,0,1,2.524-2.524h32.961a2.524,2.524,0,0,1,2.524,2.524v42.178a2.524,2.524,0,0,1-2.524,2.524H93.914A2.524,2.524,0,0,1,91.39,107.145Z" transform="translate(-29.19 -48.6)" fill="#e8edf2"/>
      <path id="Trazado_1383684" data-name="Trazado 1383684" d="M91.39,75.592V64.964a2.524,2.524,0,0,1,2.524-2.524H96.69" transform="translate(-29.19 -48.597)" fill="none" stroke="#000" stroke-linecap="round" stroke-linejoin="round" stroke-miterlimit="10" stroke-width="1"/>
      <path id="Trazado_1383685" data-name="Trazado 1383685" d="M124.1,62.44h2.777a2.524,2.524,0,0,1,2.524,2.524v42.179a2.524,2.524,0,0,1-2.524,2.524H93.914a2.524,2.524,0,0,1-2.524-2.524V79.633" transform="translate(-29.19 -48.597)" fill="none" stroke="#000" stroke-linecap="round" stroke-linejoin="round" stroke-miterlimit="10" stroke-width="1"/>
      <path id="Trazado_1383686" data-name="Trazado 1383686" d="M161.677,16.568h-21.5a2.962,2.962,0,0,1-2.962-2.962V10.464A2.962,2.962,0,0,1,140.172,7.5h21.5a2.962,2.962,0,0,1,2.962,2.962v3.141A2.962,2.962,0,0,1,161.677,16.568Z" transform="translate(-69.72 -0.002)" fill="#ffe177"/>
      <path id="Trazado_1383687" data-name="Trazado 1383687" d="M145.849,16.565h-5.677A2.962,2.962,0,0,1,137.21,13.6V10.462A2.963,2.963,0,0,1,140.172,7.5h5.677a2.963,2.963,0,0,0-2.962,2.962V13.6A2.962,2.962,0,0,0,145.849,16.565Z" transform="translate(-69.72)" fill="#ffd15b"/>
      <path id="Trazado_1383688" data-name="Trazado 1383688" d="M161.37,7.5h.306a2.963,2.963,0,0,1,2.962,2.962V13.6a2.963,2.963,0,0,1-2.962,2.962h-21.5A2.963,2.963,0,0,1,137.21,13.6V10.462A2.963,2.963,0,0,1,140.172,7.5H157.33" transform="translate(-69.72)" fill="none" stroke="#000" stroke-linecap="round" stroke-linejoin="round" stroke-miterlimit="10" stroke-width="1"/>
      <g id="Grupo_1212867" data-name="Grupo 1212867" transform="translate(65.806 20.623)">
        <path id="Trazado_1383689" data-name="Trazado 1383689" d="M130.715,130.927H124.3a1.668,1.668,0,0,1-1.668-1.668V122.84a1.668,1.668,0,0,1,1.668-1.668h6.419a1.668,1.668,0,0,1,1.668,1.668v6.419A1.668,1.668,0,0,1,130.715,130.927Z" transform="translate(-122.628 -121.172)" fill="#9be69d"/>
        <path id="Trazado_1383690" data-name="Trazado 1383690" d="M130.715,130.927H124.3a1.668,1.668,0,0,1-1.668-1.668V122.84a1.668,1.668,0,0,1,1.668-1.668h6.419a1.668,1.668,0,0,1,1.668,1.668v6.419A1.668,1.668,0,0,1,130.715,130.927Z" transform="translate(-122.628 -121.172)" fill="none" stroke="#000" stroke-linecap="round" stroke-linejoin="round" stroke-miterlimit="10" stroke-width="1"/>
        <path id="Trazado_1383691" data-name="Trazado 1383691" d="M147.354,147.3l1.676,2.1,2.257-4.038" transform="translate(-144.499 -142.574)" fill="none" stroke="#000" stroke-linecap="round" stroke-linejoin="round" stroke-miterlimit="10" stroke-width="1"/>
        <line id="Línea_4647" data-name="Línea 4647" x2="11.605" transform="translate(13.707 2.793)" fill="none" stroke="#000" stroke-linecap="round" stroke-linejoin="round" stroke-miterlimit="10" stroke-width="1"/>
        <line id="Línea_4648" data-name="Línea 4648" x2="15.405" transform="translate(13.707 6.658)" fill="none" stroke="#000" stroke-linecap="round" stroke-linejoin="round" stroke-miterlimit="10" stroke-width="1"/>
      </g>
      <g id="Grupo_1212868" data-name="Grupo 1212868" transform="translate(65.806 34.125)">
        <path id="Trazado_1383692" data-name="Trazado 1383692" d="M130.715,247.875H124.3a1.668,1.668,0,0,1-1.668-1.668v-6.419a1.668,1.668,0,0,1,1.668-1.668h6.419a1.668,1.668,0,0,1,1.668,1.668v6.419A1.668,1.668,0,0,1,130.715,247.875Z" transform="translate(-122.628 -238.12)" fill="#9be69d"/>
        <path id="Trazado_1383693" data-name="Trazado 1383693" d="M130.715,247.875H124.3a1.668,1.668,0,0,1-1.668-1.668v-6.419a1.668,1.668,0,0,1,1.668-1.668h6.419a1.668,1.668,0,0,1,1.668,1.668v6.419A1.668,1.668,0,0,1,130.715,247.875Z" transform="translate(-122.628 -238.12)" fill="none" stroke="#000" stroke-linecap="round" stroke-linejoin="round" stroke-miterlimit="10" stroke-width="1"/>
        <path id="Trazado_1383694" data-name="Trazado 1383694" d="M147.354,264.248l1.676,2.1,2.257-4.038" transform="translate(-144.499 -259.521)" fill="none" stroke="#000" stroke-linecap="round" stroke-linejoin="round" stroke-miterlimit="10" stroke-width="1"/>
        <line id="Línea_4649" data-name="Línea 4649" x2="11.605" transform="translate(13.707 2.793)" fill="none" stroke="#000" stroke-linecap="round" stroke-linejoin="round" stroke-miterlimit="10" stroke-width="1"/>
        <line id="Línea_4650" data-name="Línea 4650" x2="15.405" transform="translate(13.707 6.658)" fill="none" stroke="#000" stroke-linecap="round" stroke-linejoin="round" stroke-miterlimit="10" stroke-width="1"/>
      </g>
      <g id="Grupo_1212869" data-name="Grupo 1212869" transform="translate(65.806 47.627)">
        <path id="Trazado_1383695" data-name="Trazado 1383695" d="M130.715,364.822H124.3a1.668,1.668,0,0,1-1.668-1.668v-6.419a1.668,1.668,0,0,1,1.668-1.668h6.419a1.668,1.668,0,0,1,1.668,1.668v6.419A1.668,1.668,0,0,1,130.715,364.822Z" transform="translate(-122.628 -355.067)" fill="#9be69d"/>
        <path id="Trazado_1383696" data-name="Trazado 1383696" d="M130.715,364.822H124.3a1.668,1.668,0,0,1-1.668-1.668v-6.419a1.668,1.668,0,0,1,1.668-1.668h6.419a1.668,1.668,0,0,1,1.668,1.668v6.419A1.668,1.668,0,0,1,130.715,364.822Z" transform="translate(-122.628 -355.067)" fill="none" stroke="#000" stroke-linecap="round" stroke-linejoin="round" stroke-miterlimit="10" stroke-width="1"/>
        <path id="Trazado_1383697" data-name="Trazado 1383697" d="M147.354,381.2l1.676,2.1,2.257-4.038" transform="translate(-144.499 -376.469)" fill="none" stroke="#000" stroke-linecap="round" stroke-linejoin="round" stroke-miterlimit="10" stroke-width="1"/>
        <line id="Línea_4651" data-name="Línea 4651" x2="11.605" transform="translate(13.707 2.793)" fill="none" stroke="#000" stroke-linecap="round" stroke-linejoin="round" stroke-miterlimit="10" stroke-width="1"/>
        <line id="Línea_4652" data-name="Línea 4652" x2="15.405" transform="translate(13.707 6.659)" fill="none" stroke="#000" stroke-linecap="round" stroke-linejoin="round" stroke-miterlimit="10" stroke-width="1"/>
      </g>
    </g>
    <g id="Grupo_1212871" data-name="Grupo 1212871" transform="translate(726.067 2655.562)">
      <path id="Trazado_1383698" data-name="Trazado 1383698" d="M79.009,11.014c-8.931,5.576-19.744,8.753-25.557,10.237V46.315a16.333,16.333,0,0,0,2.328,8.576C60.12,62.2,70.934,67.953,79.009,72.835,87.085,67.953,97.9,62.2,102.239,54.891a16.333,16.333,0,0,0,2.328-8.576V21.251C98.754,19.767,87.94,16.59,79.009,11.014Z" transform="translate(-6.137 -6.128)" fill="#85caff" fill-rule="evenodd"/>
      <path id="Trazado_1383699" data-name="Trazado 1383699" d="M115.722,59.819a96.859,96.859,0,0,1-20.257,8.139V88.968a11.062,11.062,0,0,0,1.585,5.869c3.214,5.411,12.246,10.708,18.672,14.488,6.425-3.78,15.458-9.076,18.672-14.488a11.062,11.062,0,0,0,1.585-5.869V67.958a96.843,96.843,0,0,1-20.257-8.139Z" transform="translate(-42.849 -48.775)" fill="#fff" fill-rule="evenodd"/>
      <path id="Trazado_1383700" data-name="Trazado 1383700" d="M147.514,237.911A25.989,25.989,0,0,0,152,232.14v7.4a17.383,17.383,0,0,1-.33,3.426,32.408,32.408,0,0,1-43.9.376c-.357-2.524,2.029-3.453,4.48-2.787L124.916,244a2.273,2.273,0,0,1-.631-1.528c-.049-1.194.809-2.11,2.907-2.373a47.783,47.783,0,0,0,8.288-1.572c3.1-.984,4.847-2.2,12.034-.615Z" transform="translate(-53.57 -199.355)" fill="#ffcec0" fill-rule="evenodd"/>
      <path id="Trazado_1383701" data-name="Trazado 1383701" d="M188.2,152.08c5.742-4.614,8.1-11.544,1.723-16.191C189.082,143.592,181.982,142.962,188.2,152.08Z" transform="translate(-121.675 -115.248)" fill="#99d100" fill-rule="evenodd"/>
      <path id="Trazado_1383702" data-name="Trazado 1383702" d="M205.434,147.524q17.523.166,14.629-16.82C216.06,136.231,208.365,131.611,205.434,147.524Z" transform="translate(-138.944 -110.717)" fill="#c9f550" fill-rule="evenodd"/>
      <path id="Trazado_1383703" data-name="Trazado 1383703" d="M97.544,35.762a26.927,26.927,0,0,1-2.987,3.426.884.884,0,0,1-.805.228c-6.005-1.326-7.942-.654-10.393.2-.377.132-.767.266-1.184.4a48.5,48.5,0,0,1-8.446,1.606c-1.448.18-2.166.672-2.134,1.46a1.385,1.385,0,0,0,.389.955.037.037,0,0,0,.006.007c0,.006.013.013.017.019,1.113,1.267,4.906,1.414,10.15.4a.883.883,0,0,1,.335,1.734,33.93,33.93,0,0,1-6.3.714c-2.513,0-4.29-.493-5.312-1.474L58.445,42.052a3.34,3.34,0,0,0-2.945.331,1.446,1.446,0,0,0-.456,1.178,31.525,31.525,0,0,0,42.24-.4,16.814,16.814,0,0,0,.259-2.975V35.762Zm1.766-2.979v7.4a18.406,18.406,0,0,1-.345,3.6.893.893,0,0,1-.262.471,33.292,33.292,0,0,1-45.1.386.889.889,0,0,1-.282-.531,3.307,3.307,0,0,1,1.009-3.052,4.949,4.949,0,0,1,4.577-.71l10.931,2.97c-.005-.055-.009-.113-.01-.169-.036-.844.253-2.856,3.679-3.284a46.912,46.912,0,0,0,8.131-1.538c.394-.125.772-.256,1.138-.382,2.545-.883,4.75-1.649,10.883-.355a25.113,25.113,0,0,0,4-5.246.883.883,0,0,1,1.649.439ZM80.5,21.943a13.584,13.584,0,0,1-3.98,2.127c-3.176,1.255-6.451,2.554-8.328,10.414a32.008,32.008,0,0,0,6.7-6.023.883.883,0,0,1,1.385,1.095,32.411,32.411,0,0,1-6.362,5.863c3.871-.386,6.708-1.619,8.456-3.679,1.88-2.218,2.592-5.508,2.125-9.8ZM66.471,34.1c1.085-4.55,2.646-7.154,4.376-8.8a7.085,7.085,0,0,0-1.753-2.583,13.358,13.358,0,0,1-2.29,4.644c-1.368,1.974-2.264,3.276-.333,6.735ZM81.987,19.835c.99,5.719.229,10.108-2.261,13.046s-6.736,4.436-12.606,4.436h-.24c-.033,0-.066,0-.1-.006l-.036-.006-.064-.013a.209.209,0,0,1-.043-.013l-.054-.017a.483.483,0,0,1-.045-.019.4.4,0,0,1-.048-.022.485.485,0,0,1-.046-.025l-.043-.025-.043-.03-.04-.032-.039-.034-.042-.044A.31.31,0,0,1,66.21,37l0,0a.653.653,0,0,1-.059-.079s0,0,0,0c-.014-.021-.025-.043-.036-.063-1.778-2.609-2.577-4.635-2.512-6.369a7.531,7.531,0,0,1,1.755-4.12,10.655,10.655,0,0,0,2.257-5.387.882.882,0,0,1,1.4-.621,9.863,9.863,0,0,1,3.278,3.811,18.6,18.6,0,0,1,3.59-1.739c1.8-.712,3.35-1.326,4.526-2.959a.884.884,0,0,1,1.587.366Zm11.14,15.19a.883.883,0,0,1-.883-.883v-14.3A97.444,97.444,0,0,1,72.87,12.046,97.426,97.426,0,0,1,53.5,19.839V40.185a.883.883,0,0,1-1.767,0V19.175a.882.882,0,0,1,.64-.848,95.66,95.66,0,0,0,20.07-8.062.885.885,0,0,1,.861,0,95.7,95.7,0,0,0,20.07,8.062.883.883,0,0,1,.64.848V34.142a.883.883,0,0,1-.884.883ZM82.239,53.656A.883.883,0,1,1,83.25,55.1c-3.28,2.288-6.765,4.336-9.838,6.144l-.094.054a.881.881,0,0,1-.9,0l-.091-.053C67.38,58.338,60.6,54.35,56.365,50.134a.883.883,0,1,1,1.246-1.251c3.978,3.959,10.425,7.789,15.258,10.634,2.959-1.741,6.269-3.7,9.369-5.862ZM99.31,15.121V28.866a.883.883,0,1,1-1.766,0V15.805C90.586,13.99,80.933,10.847,72.87,5.922c-8.061,4.924-17.716,8.067-24.674,9.883v24.38a15.489,15.489,0,0,0,2.2,8.125c3.694,6.22,12.276,11.311,19.848,15.8.91.54,1.775,1.053,2.621,1.563.847-.51,1.713-1.023,2.624-1.563,7.571-4.49,16.152-9.581,19.847-15.8a.884.884,0,1,1,1.519.9c-3.924,6.607-12.713,11.819-20.466,16.42-1.07.635-2.08,1.234-3.067,1.83a.884.884,0,0,1-.913,0c-.986-.6-2-1.195-3.066-1.83-7.754-4.6-16.542-9.812-20.465-16.42a17.2,17.2,0,0,1-2.453-9.027V15.121a.885.885,0,0,1,.665-.857c7.008-1.787,17.088-5,25.309-10.129a.886.886,0,0,1,.935,0c8.22,5.132,18.3,8.342,25.307,10.129a.885.885,0,0,1,.665.857Z" transform="translate(0 0)" fill-rule="evenodd"/>
    </g>
    <g id="Grupo_1212877" data-name="Grupo 1212877" transform="translate(962.711 2623.129)">
      <g id="Grupo_1212875" data-name="Grupo 1212875" transform="translate(9.001 41.048)">
        <g id="Grupo_1212873" data-name="Grupo 1212873" transform="translate(0 0)">
          <path id="Trazado_1383704" data-name="Trazado 1383704" d="M15.758,432.125H77.693v4.129H15.758Z" transform="translate(-15.758 -382.576)" fill="#85caff"/>
          <path id="Trazado_1383705" data-name="Trazado 1383705" d="M77.7,61.539V66.7L70.47,63.81l-.839-.335-22.9-9.161-22.9,9.161-.839.335L15.76,66.7V61.539L46.728,48.12Z" transform="translate(-15.76 -48.12)" fill="#85caff"/>
          <path id="Trazado_1383706" data-name="Trazado 1383706" d="M119.244,105.617v33.858H71.76V105.617l.839-.335L95.5,96.12l22.9,9.161Z" transform="translate(-64.534 -89.926)" fill="#e6edf1"/>
          <g id="Grupo_1212872" data-name="Grupo 1212872" transform="translate(7.226 15.355)">
            <path id="Trazado_1383707" data-name="Trazado 1383707" d="M71.76,167.12H72.6l-.839.335Z" transform="translate(-71.76 -167.12)" fill="#e0e0e2"/>
            <path id="Trazado_1383708" data-name="Trazado 1383708" d="M434.1,167.12v.335l-.839-.335Z" transform="translate(-386.615 -167.12)" fill="#e0e0e2"/>
          </g>
        </g>
        <g id="Grupo_1212874" data-name="Grupo 1212874" transform="translate(17.306 13.547)">
          <path id="Trazado_1383709" data-name="Trazado 1383709" d="M151.326,175.106l-1.446-16.443,13.662-5.556,13.662,5.556-1.446,16.443-12.216,8.842Z" transform="translate(-149.88 -153.107)" fill="#ccdff8"/>
          <path id="Trazado_1383710" data-name="Trazado 1383710" d="M201.306,200l-8.258,6.581L184.79,200l-1.032-11.742,9.29-4.129,9.29,4.129Z" transform="translate(-179.387 -180.123)" fill="#ccdff8"/>
        </g>
      </g>
      <g id="Grupo_1212876" data-name="Grupo 1212876" transform="translate(8 40)">
        <path id="Trazado_1383711" data-name="Trazado 1383711" d="M70.584,60.572A1.032,1.032,0,0,0,72,59.613V54.452a1.031,1.031,0,0,0-.622-.947L40.41,40.085a1.031,1.031,0,0,0-.821,0L8.622,53.5A1.031,1.031,0,0,0,8,54.452v5.161a1.032,1.032,0,0,0,1.415.959l5.81-2.324v31.3H9.032A1.032,1.032,0,0,0,8,90.581V94.71a1.032,1.032,0,0,0,1.032,1.032H70.968A1.032,1.032,0,0,0,72,94.71V90.581a1.032,1.032,0,0,0-1.032-1.032H64.774v-31.3Zm-.649,31.041v2.065H10.065V91.613ZM17.283,57.425,40,48.338l22.717,9.086c0,.041-.008.081-.008.124v32H17.29v-32c0-.043,0-.083-.008-.124Zm23.1-11.157a1.035,1.035,0,0,0-.766,0L10.065,58.088V55.129L40,42.157,69.935,55.129v2.959Z" transform="translate(-8 -40)"/>
        <path id="Trazado_1383712" data-name="Trazado 1383712" d="M156.426,145.058l-13.662,5.556a1.032,1.032,0,0,0-.639,1.047L143.57,168.1a1.033,1.033,0,0,0,.423.746l12.217,8.842a1.032,1.032,0,0,0,1.21,0l12.216-8.842a1.033,1.033,0,0,0,.423-.746L171.5,151.66a1.032,1.032,0,0,0-.639-1.047L157.2,145.058A1.032,1.032,0,0,0,156.426,145.058Zm12.956,7.181-1.338,15.214-11.229,8.128-11.229-8.128-1.338-15.214,12.567-5.11Z" transform="translate(-124.815 -131.436)"/>
        <path id="Trazado_1383713" data-name="Trazado 1383713" d="M185.9,176.089l-9.29,4.129a1.032,1.032,0,0,0-.609,1.034l1.032,11.742a1.032,1.032,0,0,0,.385.717l8.258,6.581a1.032,1.032,0,0,0,1.286,0l8.258-6.581a1.032,1.032,0,0,0,.385-.717l1.032-11.742a1.032,1.032,0,0,0-.609-1.034l-9.29-4.129A1.034,1.034,0,0,0,185.9,176.089Zm8.617,5.716-.929,10.567-7.268,5.792-7.269-5.792-.929-10.567,8.2-3.643Z" transform="translate(-154.322 -158.452)"/>
        <path id="Trazado_1383714" data-name="Trazado 1383714" d="M225.6,242.3a1.032,1.032,0,1,0-1.145,1.718l3.1,2.065a1.032,1.032,0,0,0,1.431-.286l4.129-6.194a1.032,1.032,0,1,0-1.718-1.145l-3.557,5.335Z" transform="translate(-196.128 -212.451)"/>
      </g>
    </g>
    <g id="Grupo_1212878" data-name="Grupo 1212878" transform="translate(1136.462 2623.383)">
      <path id="Trazado_1383715" data-name="Trazado 1383715" d="M130.63,300.653a4.449,4.449,0,0,1,4.3-.544c1.261.745.651,2.447.15,3.469l-.058.119-16.412,13.8-21.516-1.922-.016,0a.242.242,0,0,0-.11.01c-1.021.328-2.044.647-3.062.98-.638.209-1.276.426-1.9.688a39.461,39.461,0,0,0-4.418,2.39l-.539.315L80.78,309.238l13.609-8.588,9.925.553,3.318,1.746.016.009a.252.252,0,0,0,.11.034l9.632.792,2.347,3.024.01.014a.249.249,0,0,0,.329.072Z" transform="translate(-37.108 -225.183)" fill="#f0c6a4" fill-rule="evenodd"/>
      <path id="Trazado_1383716" data-name="Trazado 1383716" d="M159.56,49.674l13.615-4.394,13.615,4.394V66.032c0,7.489-13.615,13.615-13.615,13.615S159.56,73.52,159.56,66.032Z" transform="translate(-104.765 -6.628)" fill="#bafbfb" fill-rule="evenodd"/>
      <path id="Trazado_1383717" data-name="Trazado 1383717" d="M186.09,76.345v13.63c0,3.338,6.139,7.453,9.869,9.437,3.73-1.985,9.869-6.1,9.869-9.437V76.345l-9.869-3.185Z" transform="translate(-127.549 -30.572)" fill="#ccdff8" fill-rule="evenodd"/>
      <path id="Trazado_1383718" data-name="Trazado 1383718" d="M0,0H8.237V16.981H0Z" transform="matrix(0.866, -0.5, 0.5, 0.866, 38.876, 83.447)" fill="#edf3f4" fill-rule="evenodd"/>
      <path id="Trazado_1383719" data-name="Trazado 1383719" d="M220.392,129.9l-5.612,5.612-5.612-5.612a3.968,3.968,0,0,1,5.612-5.612,3.968,3.968,0,0,1,5.612,5.612Z" transform="translate(-146.37 -73.482)" fill="#b0c0d2" fill-rule="evenodd"/>
      <path id="Trazado_1383720" data-name="Trazado 1383720" d="M44.781,84.652l4.469,7.738a.875.875,0,0,1-.32,1.194.858.858,0,0,1-.436.117.874.874,0,0,1-.758-.438l-4.467-7.738a.874.874,0,1,1,1.514-.874Zm52.2-6.317c.393-.8.856-2.067.21-2.575-.788-.623-2.863-.294-3.672.4a.85.85,0,0,1-.123.089L82.859,82.47a.874.874,0,0,1-.736.071A6.517,6.517,0,0,1,80.1,84.393l-.256.174a.878.878,0,0,1-.5.154.592.592,0,0,1-.071,0l-9.842-.808a.874.874,0,1,1,.144-1.742l9.534.784,0,0c1.569-1.066,1.814-1.415,1.457-2.179l-1.045-1.347-9.359-.769a.854.854,0,0,1-.336-.1l-3.223-1.7-9.588-.535-8.933,5.82,5.581,9.667,5.57-1.79a.821.821,0,0,1,.346-.038l21.283,1.9ZM47.256,97.177l5.619-3.244L45.259,80.741,39.64,83.986ZM98.271,74.388c-1.594-1.258-4.545-.645-5.828.388l-9.811,5.8-.62-.8s0,0,0,0l-1.336-1.722a.87.87,0,0,0-.618-.335l-9.564-.786-3.236-1.7a.857.857,0,0,0-.359-.1l-10.064-.562a.916.916,0,0,0-.525.14l-9.094,5.926-.875-1.516a.876.876,0,0,0-1.194-.32l-7.133,4.118a.867.867,0,0,0-.408.531.878.878,0,0,0,.088.664l8.49,14.7a.874.874,0,0,0,1.194.32l7.133-4.117a.877.877,0,0,0,.319-1.2l-.264-.457L59.6,91.737l21.468,1.917a.861.861,0,0,0,.64-.2l16.53-13.9a.877.877,0,0,0,.216-.271c1.506-2.944.529-4.332-.186-4.9Zm-38.852-28.2,9-2.9,9,2.9V59.185c0,2.44-4.587,6.032-9,8.444-4.409-2.413-9-6-9-8.444ZM68,69.394a.878.878,0,0,0,.411.1.89.89,0,0,0,.411-.1c1.725-.918,10.332-5.724,10.332-10.209V45.556a.874.874,0,0,0-.606-.832l-9.869-3.184a.871.871,0,0,0-.537,0l-9.869,3.184a.873.873,0,0,0-.606.832V59.185c0,4.486,8.607,9.293,10.332,10.209ZM55.673,43.465V59.186c0,4.963,7.48,10.2,12.735,12.652,2.094-1.011,12.746-6.456,12.746-12.652V43.465l-12.741-4.11ZM68.055,73.6c-5.248-2.362-14.13-8.055-14.13-14.412V42.83A.874.874,0,0,1,54.531,42l13.615-4.392a.851.851,0,0,1,.537,0L82.3,42a.873.873,0,0,1,.606.832V59.186c0,7.962-13.554,14.153-14.13,14.412a.854.854,0,0,1-.359.078A.9.9,0,0,1,68.055,73.6ZM63.42,51.205a3.1,3.1,0,0,0,0,4.377l4.994,4.994,4.994-4.994a3.094,3.094,0,1,0-4.375-4.375.876.876,0,0,1-1.237,0,3.1,3.1,0,0,0-4.375,0ZM67.8,62.431a.876.876,0,0,0,1.237,0l5.612-5.612a4.843,4.843,0,0,0-6.231-7.373,4.843,4.843,0,0,0-6.231,7.373Z" transform="translate(0 0)" fill-rule="evenodd"/>
    </g>
    <path id="Trazado_1401797" data-name="Trazado 1401797" d="M25.73,16.6a7.388,7.388,0,0,1-3.2.594,5.4,5.4,0,0,1-4.055-1.516A5.54,5.54,0,0,1,17,11.641a5.919,5.919,0,0,1,1.66-4.359,5.807,5.807,0,0,1,4.309-1.672,8.058,8.058,0,0,1,2.766.414v2.43a4.9,4.9,0,0,0-2.562-.672,3.4,3.4,0,0,0-2.547.992,3.682,3.682,0,0,0-.969,2.688,3.611,3.611,0,0,0,.914,2.59,3.229,3.229,0,0,0,2.461.965,5.249,5.249,0,0,0,2.7-.719Zm5.523.594a4.3,4.3,0,0,1-3.145-1.121,4.064,4.064,0,0,1-1.145-3.043,4.065,4.065,0,0,1,1.188-3.105A4.487,4.487,0,0,1,31.363,8.8a4.249,4.249,0,0,1,3.125,1.121,3.985,3.985,0,0,1,1.133,2.965,4.23,4.23,0,0,1-1.168,3.148A4.348,4.348,0,0,1,31.254,17.2Zm.063-6.5a1.647,1.647,0,0,0-1.359.6,2.653,2.653,0,0,0-.484,1.7q0,2.3,1.859,2.3,1.773,0,1.773-2.367Q33.105,10.7,31.316,10.7ZM44.949,17H42.488V12.555q0-1.859-1.328-1.859a1.318,1.318,0,0,0-1.055.492,1.875,1.875,0,0,0-.414,1.25V17H37.223V9h2.469v1.266h.031A2.829,2.829,0,0,1,42.293,8.8q2.656,0,2.656,3.3Zm7.172-9.953a2.494,2.494,0,0,0-.914-.187q-1.188,0-1.187,1.289V9h1.828v1.82H50.02V17H47.559V10.82H46.215V9h1.344V8.008a2.88,2.88,0,0,1,.891-2.2,3.4,3.4,0,0,1,2.422-.836,4.253,4.253,0,0,1,1.25.156ZM56.848,17.2A4.3,4.3,0,0,1,53.7,16.074a4.064,4.064,0,0,1-1.145-3.043,4.065,4.065,0,0,1,1.188-3.105A4.487,4.487,0,0,1,56.957,8.8a4.249,4.249,0,0,1,3.125,1.121,3.985,3.985,0,0,1,1.133,2.965,4.23,4.23,0,0,1-1.168,3.148A4.348,4.348,0,0,1,56.848,17.2Zm.063-6.5a1.647,1.647,0,0,0-1.359.6,2.653,2.653,0,0,0-.484,1.7q0,2.3,1.859,2.3,1.773,0,1.773-2.367Q58.7,10.7,56.91,10.7Zm11.125.531A2.141,2.141,0,0,0,67,10.984a1.5,1.5,0,0,0-1.258.59,2.573,2.573,0,0,0-.453,1.605V17H62.816V9h2.469v1.484h.031a2.136,2.136,0,0,1,2.109-1.625,1.59,1.59,0,0,1,.609.094ZM81.934,17H79.473V12.438q0-1.742-1.281-1.742a1.177,1.177,0,0,0-.992.523,2.151,2.151,0,0,0-.383,1.3V17H74.348V12.391q0-1.7-1.258-1.7a1.206,1.206,0,0,0-1.012.5,2.2,2.2,0,0,0-.379,1.359V17H69.23V9H71.7v1.25h.031A3.031,3.031,0,0,1,74.316,8.8a2.3,2.3,0,0,1,2.32,1.492A2.959,2.959,0,0,1,79.324,8.8q2.609,0,2.609,3.219Zm3.2-9.266a1.442,1.442,0,0,1-1.023-.371,1.2,1.2,0,0,1-.4-.91,1.153,1.153,0,0,1,.4-.906,1.671,1.671,0,0,1,2.051,0,1.158,1.158,0,0,1,.395.906,1.191,1.191,0,0,1-.395.922A1.466,1.466,0,0,1,85.137,7.734ZM86.355,17H83.887V9h2.469Zm9.906,0H93.793V15.9h-.031a2.768,2.768,0,0,1-2.477,1.3,3.033,3.033,0,0,1-2.414-1.059,4.382,4.382,0,0,1-.914-2.957A4.77,4.77,0,0,1,88.965,10a3.287,3.287,0,0,1,2.641-1.2,2.246,2.246,0,0,1,2.156,1.109h.031V5.156h2.469ZM93.84,13.109v-.6a1.893,1.893,0,0,0-.453-1.3,1.6,1.6,0,0,0-2.461.129,2.993,2.993,0,0,0-.461,1.77,2.59,2.59,0,0,0,.445,1.625,1.581,1.581,0,0,0,2.457-.031A2.507,2.507,0,0,0,93.84,13.109ZM105,17H102.66V15.852h-.031a2.607,2.607,0,0,1-2.383,1.344,2.492,2.492,0,0,1-1.832-.66,2.366,2.366,0,0,1-.668-1.762q0-2.328,2.758-2.687l2.172-.289q0-1.312-1.422-1.312a4.853,4.853,0,0,0-2.719.852V9.477a6.116,6.116,0,0,1,1.41-.469,7.413,7.413,0,0,1,1.629-.2Q105,8.8,105,12.219Zm-2.32-3.25v-.539l-1.453.188q-1.2.156-1.2,1.086a.9.9,0,0,0,.293.691,1.126,1.126,0,0,0,.793.27,1.462,1.462,0,0,0,1.133-.48A1.735,1.735,0,0,0,102.676,13.75Zm12.1,3.25h-2.469V15.9h-.031a2.768,2.768,0,0,1-2.477,1.3,3.033,3.033,0,0,1-2.414-1.059,4.382,4.382,0,0,1-.914-2.957A4.77,4.77,0,0,1,107.48,10a3.287,3.287,0,0,1,2.641-1.2,2.246,2.246,0,0,1,2.156,1.109h.031V5.156h2.469Zm-2.422-3.891v-.6a1.893,1.893,0,0,0-.453-1.3,1.6,1.6,0,0,0-2.461.129,2.993,2.993,0,0,0-.461,1.77,2.59,2.59,0,0,0,.445,1.625,1.581,1.581,0,0,0,2.457-.031A2.507,2.507,0,0,0,112.355,13.109Zm13.75,3.8a3.649,3.649,0,0,1-1.648.289q-2.609,0-2.609-2.711V10.82h-1.3V9h1.3V7.273l2.461-.7V9h1.8v1.82h-1.8v3.234q0,1.25.992,1.25a1.673,1.673,0,0,0,.8-.227Zm8.516-3.2H129.4q.125,1.742,2.2,1.742a4.286,4.286,0,0,0,2.32-.625V16.6a6.1,6.1,0,0,1-2.883.594,4.058,4.058,0,0,1-3.008-1.074,4.058,4.058,0,0,1-1.07-3,4.281,4.281,0,0,1,1.156-3.156A3.852,3.852,0,0,1,130.957,8.8a3.5,3.5,0,0,1,2.707,1.039,4,4,0,0,1,.957,2.82Zm-2.289-1.516q0-1.719-1.391-1.719a1.328,1.328,0,0,0-1.027.492,2.234,2.234,0,0,0-.527,1.227Zm1.258-6.977-2.445,2.523h-1.781l2.031-2.523Zm8.563,11.5a4.881,4.881,0,0,1-2.414.484,4.083,4.083,0,0,1-2.984-1.117,3.859,3.859,0,0,1-1.141-2.883,4.251,4.251,0,0,1,1.223-3.215,4.518,4.518,0,0,1,3.27-1.176,4.2,4.2,0,0,1,2.047.375v2.094a2.814,2.814,0,0,0-1.727-.578,2.275,2.275,0,0,0-1.684.621,2.317,2.317,0,0,0-.621,1.715,2.28,2.28,0,0,0,.594,1.668,2.182,2.182,0,0,0,1.633.605,3.258,3.258,0,0,0,1.8-.578ZM151.5,17h-2.461V12.555q0-1.859-1.328-1.859a1.318,1.318,0,0,0-1.055.492,1.875,1.875,0,0,0-.414,1.25V17H143.77V9h2.469v1.266h.031A2.829,2.829,0,0,1,148.84,8.8q2.656,0,2.656,3.3Zm3.2-9.266a1.442,1.442,0,0,1-1.023-.371,1.2,1.2,0,0,1-.4-.91,1.153,1.153,0,0,1,.4-.906,1.671,1.671,0,0,1,2.051,0,1.158,1.158,0,0,1,.395.906,1.191,1.191,0,0,1-.395.922A1.466,1.466,0,0,1,154.7,7.734ZM155.918,17h-2.469V9h2.469Zm8.141-.289a4.881,4.881,0,0,1-2.414.484,4.083,4.083,0,0,1-2.984-1.117A3.859,3.859,0,0,1,157.52,13.2a4.251,4.251,0,0,1,1.223-3.215,4.518,4.518,0,0,1,3.27-1.176,4.2,4.2,0,0,1,2.047.375v2.094a2.814,2.814,0,0,0-1.727-.578,2.275,2.275,0,0,0-1.684.621,2.317,2.317,0,0,0-.621,1.715,2.28,2.28,0,0,0,.594,1.668,2.182,2.182,0,0,0,1.633.605,3.258,3.258,0,0,0,1.8-.578Zm8.273.289H170V15.852h-.031a2.607,2.607,0,0,1-2.383,1.344,2.492,2.492,0,0,1-1.832-.66,2.366,2.366,0,0,1-.668-1.762q0-2.328,2.758-2.687l2.172-.289q0-1.312-1.422-1.312a4.853,4.853,0,0,0-2.719.852V9.477a6.116,6.116,0,0,1,1.41-.469,7.413,7.413,0,0,1,1.629-.2q3.422,0,3.422,3.414Zm-2.32-3.25v-.539l-1.453.188q-1.2.156-1.2,1.086a.9.9,0,0,0,.293.691,1.126,1.126,0,0,0,.793.27,1.462,1.462,0,0,0,1.133-.48A1.735,1.735,0,0,0,170.012,13.75Zm5.375,3.445a1.44,1.44,0,0,1-1.016-.375,1.206,1.206,0,0,1-.406-.922,1.161,1.161,0,0,1,.418-.922,1.543,1.543,0,0,1,1.043-.359,1.486,1.486,0,0,1,1.035.363,1.258,1.258,0,0,1-.008,1.852A1.549,1.549,0,0,1,175.387,17.2Z" transform="translate(504 2497.5)" fill="#12263f"/>
  </g>
</svg>
