<svg xmlns="http://www.w3.org/2000/svg" width="42.775" height="48.018" viewBox="0 0 42.775 48.018">
  <path id="Trazado_1383754" data-name="Trazado 1383754" d="M52.666,45.658c0,.022,0,.044,0,.066A9.295,9.295,0,1,1,40.4,36.915V8.525A1.526,1.526,0,0,1,41.929,7H64.863a1.475,1.475,0,0,1,1.076.446l4.2,4.2a1.474,1.474,0,0,1,.446,1.076V22.67H75.03a1.821,1.821,0,0,1,1.821,1.821V35.242a1.622,1.622,0,0,1-1.621,1.617H70.585v7.277a1.526,1.526,0,0,1-1.522,1.522ZM41.953,36.536a9.3,9.3,0,0,1,10.572,7.573H69.037v-7.25H64.223A1.622,1.622,0,0,1,62.6,35.242V24.492a1.821,1.821,0,0,1,1.821-1.821h4.613V13.189h-3.49a1.156,1.156,0,0,1-1.15-1.15V8.549H41.953Zm25.988-24.9-2-2v2Zm3.647,12.579H67.866V27.2l1.447-.915a.775.775,0,0,1,.828,0l1.448.915Zm-5.272,0H64.424a.272.272,0,0,0-.272.272V35.242a.07.07,0,0,0,.072.068H75.23a.07.07,0,0,0,.072-.068V24.492a.272.272,0,0,0-.272-.272H73.137V28.6a.774.774,0,0,1-1.188.655l-2.222-1.4-2.222,1.4a.774.774,0,0,1-1.188-.655ZM43.372,53.469a7.746,7.746,0,1,0-7.747-7.745A7.759,7.759,0,0,0,43.372,53.469Zm-1.121-8.093,3.594-3.631h0a2.036,2.036,0,0,1,2.889,2.871h0c-1.681,1.7-3.35,3.4-5.039,5.092a2.039,2.039,0,0,1-2.883,0l-2.8-2.8a2.038,2.038,0,0,1,0-2.881h0a2.039,2.039,0,0,1,2.883,0Zm-.545,1.646-1.9-1.9a.489.489,0,1,0-.692.692l2.8,2.8a.489.489,0,0,0,.692,0c1.687-1.687,3.354-3.392,5.033-5.087a.488.488,0,1,0-.69-.689L42.8,47.019a.774.774,0,0,1-1.1,0ZM51.891,35a.774.774,0,0,1,0-1.549h6.827a.774.774,0,1,1,0,1.549Zm1.775-3.947a.774.774,0,1,1,0-1.549h3.5a.774.774,0,0,1,0,1.549Zm-8.36,0a.774.774,0,0,1,0-1.549h5.856a.774.774,0,1,1,0,1.549ZM50.114,27.1a.774.774,0,1,1,0-1.549h5.381a.774.774,0,1,1,0,1.549Zm-4.808,0a.774.774,0,0,1,0-1.549h2.652a.774.774,0,1,1,0,1.549Zm3.5-15.527a2.145,2.145,0,0,1,3.715,0l4.32,7.482a2.145,2.145,0,0,1-1.857,3.217H46.344a2.145,2.145,0,0,1-1.857-3.217ZM46.484,18.7l-.656,1.136a.6.6,0,0,0,.516.893h8.639a.6.6,0,0,0,.516-.893L54.844,18.7Zm7.465-1.549-1.1-1.9H48.475l-1.1,1.9ZM51.958,13.7l-.778-1.348a.6.6,0,0,0-1.032,0L49.37,13.7Zm8.871,5.941a.774.774,0,1,1,0-1.549h6.078a.774.774,0,0,1,0,1.549Zm-2.353-3.378a.774.774,0,0,1,0-1.549h6.078a.774.774,0,1,1,0,1.549ZM45.307,35a.774.774,0,1,1,0-1.549h4.352a.774.774,0,0,1,0,1.549Z" transform="translate(-34.076 -7)" fill="#727997" fill-rule="evenodd"/>
</svg>
