<svg xmlns="http://www.w3.org/2000/svg" width="40.274" height="55.551" viewBox="0 0 40.274 55.551">
  <g id="Grupo_1212934" data-name="Grupo 1212934" transform="translate(-86.877 -25)">
    <path id="Trazado_1383761" data-name="Trazado 1383761" d="M130.906,211.126a16.772,16.772,0,1,1,16.772-16.772A16.791,16.791,0,0,1,130.906,211.126Zm0-31.745a14.973,14.973,0,1,0,14.974,14.973A14.99,14.99,0,0,0,130.906,179.381Z" transform="translate(-23.892 -133.746)" fill="#727997"/>
    <path id="Trazado_1383762" data-name="Trazado 1383762" d="M281.517,202.8a.9.9,0,0,1-.6-.225L278.8,200.7h-2.261a.9.9,0,0,1-.784-.458l-.734-1.306-2.079-.2a.9.9,0,0,1-.814-.9v-1.734l-1.777-1.027a.9.9,0,0,1-.44-.9l.222-1.576-1.654-1.289a.9.9,0,0,1-.224-1.163l1.149-1.968L268.56,187a.9.9,0,0,1-.084-.891l1.172-2.574a.9.9,0,0,1,1.637.745l-.958,2.1.875,1.241a.9.9,0,0,1,.042.972l-1.043,1.788,1.444,1.125a.9.9,0,0,1,.337.835l-.21,1.49,1.7.984a.9.9,0,0,1,.449.778v1.434l1.733.164a.9.9,0,0,1,.7.454l.707,1.258h2.075a.9.9,0,0,1,.6.225l2.381,2.1a.9.9,0,0,1-.6,1.574Z" transform="translate(-158.877 -138.501)" fill="#727997"/>
    <path id="Trazado_1383763" data-name="Trazado 1383763" d="M177.553,340.419a.9.9,0,0,1-.6-1.567l.948-.857.365-1.55a.9.9,0,0,1,.544-.63l3.11-1.234a.884.884,0,0,1,.388-.061l2.789.174,1.574-.677-.351-1.253a.9.9,0,0,1,.457-1.043l2.133-1.089.424-2.113a.9.9,0,0,1,.841-.722l3.137-.143a.9.9,0,0,1,.84.486l.66,1.282,3.295.327a.9.9,0,0,1,.45.176l2.219,1.662a.9.9,0,0,1-1.078,1.439l-2.019-1.512-3.531-.351a.9.9,0,0,1-.71-.483l-.62-1.2-1.858.084-.371,1.849a.9.9,0,0,1-.473.624l-1.865.953.365,1.3a.9.9,0,0,1-.511,1.069l-2.493,1.073a.866.866,0,0,1-.412.071l-2.8-.176-2.487.986-.321,1.367a.9.9,0,0,1-.273.462l-1.157,1.045a.9.9,0,0,1-.6.232Z" transform="translate(-78.694 -265.292)" fill="#727997"/>
    <path id="Trazado_1383764" data-name="Trazado 1383764" d="M117.691,207.261a.924.924,0,0,1-.164-.015l-2.318-.429a.9.9,0,1,1,.327-1.769l2.1.388,1.788-.562.665-1.482a.9.9,0,0,1,.464-.457l2.583-1.117.493-1.765-.884-1.954a.9.9,0,0,1,.215-1.037l1.257-1.142-.507-1.119a.9.9,0,0,1,.034-.809l.594-1.066-.672-2.3a.9.9,0,0,1,1.727-.5l.778,2.66a.9.9,0,0,1-.078.69l-.557,1,.591,1.3a.9.9,0,0,1-.215,1.037l-1.258,1.142.749,1.655a.9.9,0,0,1,.047.613l-.7,2.493a.9.9,0,0,1-.509.583l-2.656,1.149-.688,1.532a.9.9,0,0,1-.551.489l-2.386.751a.9.9,0,0,1-.27.041Z" transform="translate(-24.19 -144.172)" fill="#727997"/>
    <path id="Trazado_1383765" data-name="Trazado 1383765" d="M182.646,160.9a.9.9,0,0,1-.353-1.727c.458-.195.932-.376,1.409-.538a.9.9,0,0,1,.579,1.7c-.434.148-.866.313-1.284.49A.9.9,0,0,1,182.646,160.9Z" transform="translate(-83.157 -117.096)" fill="#727997"/>
    <path id="Trazado_1383766" data-name="Trazado 1383766" d="M109.751,221.7a.9.9,0,0,1-.126-1.79,18.326,18.326,0,0,0,2.579-.561.9.9,0,1,1,.509,1.726,20.2,20.2,0,0,1-2.833.616A.867.867,0,0,1,109.751,221.7Zm-5.523-.007a.893.893,0,0,1-.131-.009,20.118,20.118,0,0,1-2.832-.623.9.9,0,1,1,.513-1.724,18.264,18.264,0,0,0,2.578.567.9.9,0,0,1-.128,1.79Zm13.252-2.892a.9.9,0,0,1-.49-1.654,18.311,18.311,0,0,0,2.106-1.594.9.9,0,1,1,1.186,1.353,20.331,20.331,0,0,1-2.313,1.75.9.9,0,0,1-.489.145Zm-20.972-.028a.9.9,0,0,1-.491-.146,20.256,20.256,0,0,1-2.306-1.756.9.9,0,1,1,1.189-1.349,18.423,18.423,0,0,0,2.1,1.6.9.9,0,0,1-.493,1.652Zm26.773-5.844a.9.9,0,0,1-.759-1.381,18.362,18.362,0,0,0,1.247-2.325.9.9,0,1,1,1.643.734,20.271,20.271,0,0,1-1.369,2.554.9.9,0,0,1-.761.418Zm-32.559-.042a.9.9,0,0,1-.762-.421,20.271,20.271,0,0,1-1.363-2.56.9.9,0,0,1,1.644-.729,18.409,18.409,0,0,0,1.242,2.332.9.9,0,0,1-.761,1.378Zm35.369-7.716a.835.835,0,0,1-.118-.008.9.9,0,0,1-.775-1.008,18.571,18.571,0,0,0,.155-2.4v-.241a.9.9,0,1,1,1.8-.015v.256a20.416,20.416,0,0,1-.171,2.633A.9.9,0,0,1,126.09,205.172Zm-38.159-.053a.9.9,0,0,1-.891-.786,20.493,20.493,0,0,1-.163-2.577l0-.314a.925.925,0,0,1,.912-.887.9.9,0,0,1,.887.912l0,.289a18.632,18.632,0,0,0,.149,2.351.9.9,0,0,1-.779,1.005A.943.943,0,0,1,87.931,205.119Zm37.459-8.173a.9.9,0,0,1-.859-.633,18.31,18.31,0,0,0-.965-2.458.9.9,0,0,1,1.623-.776,20,20,0,0,1,1.059,2.7.9.9,0,0,1-.592,1.125A.878.878,0,0,1,125.39,196.946ZM88.654,196.9a.9.9,0,0,1-.858-1.168,20.03,20.03,0,0,1,1.066-2.7.9.9,0,0,1,1.62.78,18.434,18.434,0,0,0-.97,2.456A.9.9,0,0,1,88.654,196.9Zm32.646-7.122a.9.9,0,0,1-.668-.3,18.741,18.741,0,0,0-1.906-1.83.9.9,0,0,1,1.15-1.383,20.353,20.353,0,0,1,2.092,2.007.9.9,0,0,1-.667,1.5Zm-28.538-.036a.9.9,0,0,1-.666-1.5,20.386,20.386,0,0,1,2.1-2,.9.9,0,1,1,1.147,1.387,18.451,18.451,0,0,0-1.911,1.824.9.9,0,0,1-.666.295Z" transform="translate(0 -141.149)" fill="#727997"/>
    <path id="Trazado_1383767" data-name="Trazado 1383767" d="M295.022,160.9a.9.9,0,0,1-.351-.072c-.417-.178-.849-.343-1.284-.49a.9.9,0,1,1,.579-1.7c.477.162.951.344,1.409.538a.9.9,0,0,1-.353,1.727Z" transform="translate(-180.482 -117.1)" fill="#727997"/>
    <path id="Trazado_1383768" data-name="Trazado 1383768" d="M225.608,115.679a.884.884,0,0,1-.167-.016,14.911,14.911,0,0,0-5.57,0,.9.9,0,0,1-1.059-1l1.173-9.288a.9.9,0,0,1,1.381-.642,2.388,2.388,0,0,0,2.58,0,.9.9,0,0,1,1.381.642l1.173,9.288a.9.9,0,0,1-.892,1.012Zm-2.952-2.078a16.665,16.665,0,0,1,1.91.111l-.874-6.923a4.176,4.176,0,0,1-2.073,0l-.874,6.923A16.669,16.669,0,0,1,222.657,113.6Z" transform="translate(-115.643 -69.766)" fill="#727997"/>
    <path id="Trazado_1383769" data-name="Trazado 1383769" d="M220.342,64.139a4.177,4.177,0,1,1,4.177-4.177A4.182,4.182,0,0,1,220.342,64.139Zm0-6.556a2.379,2.379,0,1,0,2.378,2.379A2.381,2.381,0,0,0,220.342,57.584Z" transform="translate(-113.328 -26.985)" fill="#727997"/>
    <path id="Trazado_1383770" data-name="Trazado 1383770" d="M200.43,33.877a.9.9,0,0,1-.9-.9,6.179,6.179,0,0,0-12.359,0,.9.9,0,0,1-1.8,0,7.978,7.978,0,0,1,15.956,0A.9.9,0,0,1,200.43,33.877Z" transform="translate(-86.338)" fill="#727997"/>
    <path id="Trazado_1383771" data-name="Trazado 1383771" d="M226.823,135.728H225.5a.9.9,0,1,1,0-1.8h1.324a.9.9,0,0,1,0,1.8Z" transform="translate(-120.721 -95.482)" fill="#727997"/>
    <path id="Trazado_1383772" data-name="Trazado 1383772" d="M253.835,159.552H252.3a.9.9,0,0,1,0-1.8h1.535a.9.9,0,0,1,0,1.8Z" transform="translate(-144.214 -116.365)" fill="#727997"/>
  </g>
</svg>
