<svg xmlns="http://www.w3.org/2000/svg" width="71.857" height="82.151" viewBox="0 0 71.857 82.151">
  <g id="Protection" transform="translate(-3 0.019)">
    <path id="Trazado_1383751" data-name="Trazado 1383751" d="M71.829,14.659C36.773-1.116,39.22-.295,38.227.167L6.028,14.659A5.133,5.133,0,0,0,3,19.329v8.178A59.881,59.881,0,0,0,38.227,81.982a1.711,1.711,0,0,0,1.4,0A59.881,59.881,0,0,0,74.857,27.507V19.329a5.133,5.133,0,0,0-3.028-4.671Zm-.394,12.849A56.459,56.459,0,0,1,38.929,78.543,56.459,56.459,0,0,1,6.422,27.507c0-8.554-.325-9.136,1.009-9.735l31.5-14.166,31.5,14.166c1.352.616,1.009,1.181,1.009,9.735Z" transform="translate(0 0)" fill="#636363"/>
    <path id="Trazado_1383752" data-name="Trazado 1383752" d="M64.232,17.884C34.6,3.068,36.413,3.65,35.318,4.2,5.873,18.911,7,17.9,7,19.407v7.767A47.426,47.426,0,0,0,35.4,70.6a1.711,1.711,0,0,0,1.369,0,47.426,47.426,0,0,0,28.4-43.422c0-8.127.308-8.657-.941-9.29Zm-2.481,9.29A43.939,43.939,0,0,1,36.078,67.145,43.936,43.936,0,0,1,10.424,27.174V20.468L36.088,7.636,61.751,20.468Z" transform="translate(2.841 2.848)" fill="#636363"/>
    <path id="Trazado_1383753" data-name="Trazado 1383753" d="M24,25.276a5.355,5.355,0,0,0-9.119,3.781c0,2.943,1.437,3.644,8.554,10.762a5.133,5.133,0,0,0,7.254,0c14.851-14.833,15.4-14.645,15.4-17.605a5.355,5.355,0,0,0-9.119-3.781l-9.906,9.923Zm15.4-4.414a1.916,1.916,0,0,1,3.268,1.352c0,1.112.667.137-14.389,15.193a1.711,1.711,0,0,1-2.429,0l-6.98-7a1.916,1.916,0,0,1,2.7-2.7l4.277,4.277a1.711,1.711,0,0,0,2.429,0Z" transform="translate(8.445 12.018)" fill="#636363"/>
  </g>
</svg>
