<svg xmlns="http://www.w3.org/2000/svg" width="43.786" height="45.997" viewBox="0 0 43.786 45.997">
  <g id="Grupo_1212933" data-name="Grupo 1212933" transform="translate(-3 -1)">
    <path id="Trazado_1383755" data-name="Trazado 1383755" d="M46.748,35.037a.742.742,0,0,0-.683.111l-2.716,2.078-2.724-2.078a.742.742,0,0,0-1.158.378L38.5,38.769l-3.451-.059a.742.742,0,0,0-.742.987l1.135,3.184L32.626,44.8a.742.742,0,0,0,0,1.232l2.813,1.915L34.355,51.1a.711.711,0,0,0,.69.965l3.421-.082L39.5,55.251a.742.742,0,0,0,.482.49.787.787,0,0,0,.23,0,.742.742,0,0,0,.445-.148l2.694-2.041,2.716,2.063a.742.742,0,0,0,1.158-.378l.972-3.243,3.429.082a.737.737,0,0,0,.712-.987L51.2,47.9l2.813-1.915a.742.742,0,0,0,0-1.232L51.2,42.844l1.135-3.169a.737.737,0,0,0-.712-.987l-3.429.082-.972-3.243a.742.742,0,0,0-.475-.49Zm3.829,5.195-.965,2.709a.742.742,0,0,0,.275.824l2.4,1.625-2.4,1.625a.742.742,0,0,0-.282.861l.972,2.709-2.916-.074a.742.742,0,0,0-.742.527L46.088,53.8l-2.293-1.729a.742.742,0,0,0-.9,0l-2.315,1.759-.824-2.761a.742.742,0,0,0-.742-.527l-2.909.074.965-2.709a.742.742,0,0,0-.282-.861l-2.375-1.655L36.8,43.764a.742.742,0,0,0,.282-.861l-.965-2.709,2.909.074a.742.742,0,0,0,.742-.527l.824-2.761L42.9,38.71a.742.742,0,0,0,.9,0l2.315-1.759.809,2.79a.742.742,0,0,0,.742.527Z" transform="translate(-7.556 -8.768)" fill="#727997"/>
    <path id="Trazado_1383756" data-name="Trazado 1383756" d="M4.484,44.042H23.779V42.558H4.484V11.389H29.716V24.747H31.2V11.389a1.484,1.484,0,0,0-1.484-1.484H8.937V6.937H34.168V24.005h1.484V6.937a1.484,1.484,0,0,0-1.484-1.484H13.389V2.484H38.621V23.263h1.484V2.484A1.484,1.484,0,0,0,38.621,1H13.389a1.484,1.484,0,0,0-1.484,1.484V5.453H8.937A1.484,1.484,0,0,0,7.453,6.937V9.905H4.484A1.484,1.484,0,0,0,3,11.389V42.558A1.484,1.484,0,0,0,4.484,44.042Z" fill="#727997"/>
    <path id="Trazado_1383757" data-name="Trazado 1383757" d="M43.967,49.273,42.394,47.7,41.34,48.746l2.1,2.085a.735.735,0,0,0,1.054,0l5.247-5.195L48.687,44.59Z" transform="translate(-9.888 -11.242)" fill="#727997"/>
    <path id="Trazado_1383758" data-name="Trazado 1383758" d="M26.584,29.905a.742.742,0,0,0,.742-.742V21.742A.742.742,0,0,0,26.584,21H11.742a.742.742,0,0,0-.742.742v7.421a.742.742,0,0,0,.742.742Zm-14.1-7.421H25.842v5.937H12.484Z" transform="translate(-2.063 -5.158)" fill="#727997"/>
    <path id="Trazado_1383759" data-name="Trazado 1383759" d="M11,39H25.842v1.484H11Z" transform="translate(-2.063 -9.8)" fill="#727997"/>
    <path id="Trazado_1383760" data-name="Trazado 1383760" d="M11,47H24.358v1.484H11Z" transform="translate(-2.063 -11.863)" fill="#727997"/>
  </g>
</svg>
