<svg xmlns="http://www.w3.org/2000/svg" width="50.203" height="42.999" viewBox="0 0 50.203 42.999">
  <g id="Grupo_1212914" data-name="Grupo 1212914" transform="translate(0 -0.352)">
    <path id="Trazado_1383735" data-name="Trazado 1383735" d="M4.591,43.35H34.573A5.448,5.448,0,0,0,40,37.868v-.926h6.481a3.721,3.721,0,0,0,0-7.442H40V1.186a.794.794,0,0,0-.78-.834H8.309a.868.868,0,0,0-.867.834v25.73H.872A.827.827,0,0,0,0,27.695V38.8A4.6,4.6,0,0,0,4.591,43.35Zm20.526-8.558L21.8,33.21l3.316-1.582Zm1.654-3.638H44.239v4.134H26.771Zm21.764,2.067a2.067,2.067,0,0,1-2.053,2.067h-.589V31.154h.588A2.067,2.067,0,0,1,48.535,33.221ZM9.1,38.8V2.006H38.347V29.5H25.872a.823.823,0,0,0-.356.082l-4.834,2.305a1.466,1.466,0,0,0,0,2.645l4.835,2.317a.84.84,0,0,0,.356.092H38.347v.926A3.792,3.792,0,0,1,34.573,41.7H8.1a4.6,4.6,0,0,0,1-2.9ZM1.654,28.569H7.442V38.8a2.894,2.894,0,0,1-5.788,0Zm0,0" fill="#727997"/>
    <path id="Trazado_1383736" data-name="Trazado 1383736" d="M146.559,89.192l7.982,2.576a.81.81,0,0,0,.5,0l7.971-2.576a.811.811,0,0,0,.556-.787V77.5a.811.811,0,0,0-.556-.787l-7.98-2.576a.813.813,0,0,0-.5,0l-7.973,2.576A.813.813,0,0,0,146,77.5v10.9a.815.815,0,0,0,.56.787Zm1.094-10.555,6.2,2.008v9.166l-6.2-2.008Zm7.855,11.244V80.714l6.408-2.078V87.8Zm-.719-14.087,5.294,1.707-5.294,1.707L149.494,77.5Zm0,0" transform="translate(-130.908 -66.124)" fill="#727997"/>
  </g>
</svg>
