<svg xmlns="http://www.w3.org/2000/svg" width="57.513" height="65.825" viewBox="0 0 57.513 65.825">
  <path id="Trazado_1383729" data-name="Trazado 1383729" d="M50.8,19.857l3.6.813q.156.42.343.825l-1.971,3.125a.978.978,0,0,0,.136,1.213L56.473,29.4a.978.978,0,0,0,1.213.136l3.127-1.972q.406.185.821.34l.816,3.6a.978.978,0,0,0,.954.762h5.04A.978.978,0,0,0,69.4,31.5l.813-3.6q.417-.155.823-.34l3.124,1.972A.978.978,0,0,0,75.37,29.4l3.565-3.562a.978.978,0,0,0,.136-1.214L77.1,21.493q.185-.406.34-.823l3.6-.813a.978.978,0,0,0,.763-.954V13.863a.978.978,0,0,0-.763-.954l-3.6-.813q-.155-.417-.34-.823l1.972-3.127a.978.978,0,0,0-.136-1.214L75.37,3.37a.978.978,0,0,0-1.213-.135L71.033,5.207q-.406-.185-.823-.34l-.813-3.6A.978.978,0,0,0,68.443.5H63.4a.978.978,0,0,0-.954.762l-.816,3.6q-.414.154-.823.341L57.686,3.235a.978.978,0,0,0-1.214.136L52.911,6.932a.978.978,0,0,0-.136,1.213l1.971,3.125q-.186.4-.343.825l-3.6.813a.978.978,0,0,0-.763.954V18.9a.978.978,0,0,0,.763.954ZM52,14.645l3.368-.761a.978.978,0,0,0,.716-.656,10.075,10.075,0,0,1,.651-1.568.978.978,0,0,0-.041-.972L54.846,7.763,57.3,5.306,60.225,7.15a.978.978,0,0,0,.966.044,10.585,10.585,0,0,1,1.574-.651.978.978,0,0,0,.656-.716l.764-3.372h3.476l.761,3.371a.978.978,0,0,0,.656.716,10.4,10.4,0,0,1,1.572.65.977.977,0,0,0,.968-.043L74.54,5.306,77,7.763l-1.844,2.925a.978.978,0,0,0-.043.968,10.414,10.414,0,0,1,.65,1.572.978.978,0,0,0,.716.656l3.371.761v3.476l-3.371.761a.978.978,0,0,0-.716.656,10.427,10.427,0,0,1-.65,1.572.978.978,0,0,0,.043.968L77,25,74.54,27.46l-2.922-1.844a.978.978,0,0,0-.968-.043,10.409,10.409,0,0,1-1.572.65.978.978,0,0,0-.656.716l-.761,3.371H64.185l-.764-3.372a.978.978,0,0,0-.656-.715,10.4,10.4,0,0,1-1.569-.65.978.978,0,0,0-.968.043L57.3,27.46,54.846,25l1.845-2.925a.978.978,0,0,0,.041-.972,10.1,10.1,0,0,1-.651-1.568.978.978,0,0,0-.716-.656L52,18.12V14.645Zm13.925,10.6a8.86,8.86,0,1,0-8.858-8.862A8.87,8.87,0,0,0,65.921,25.243Zm0-15.763a6.9,6.9,0,1,1-6.9,6.9A6.91,6.91,0,0,1,65.921,9.48Zm0,11.865a4.961,4.961,0,1,0-4.96-4.96A4.965,4.965,0,0,0,65.921,21.345Zm0-7.967a3.005,3.005,0,1,1-3,3.007,3.009,3.009,0,0,1,3-3.007Zm3.338,36.246.212-.212a2.824,2.824,0,0,0,0-3.985l-.309-.309a2.8,2.8,0,0,0-.883-.6,2.824,2.824,0,0,0-.577-3.144l-.307-.307a2.787,2.787,0,0,0-1.311-.744,2.813,2.813,0,0,0-.8-2.351l-.307-.307a2.794,2.794,0,0,0-1.994-.826,2.879,2.879,0,0,0-.362.023,2.784,2.784,0,0,0-.736-1.3l-.313-.316a2.821,2.821,0,0,0-3.984,0L56.234,36.6l-4.764-4.764A9.5,9.5,0,0,0,39.407,20.471a.978.978,0,0,0-.4,1.625l4.21,4.21-.886,3.3-3.3.883-4.206-4.21a.978.978,0,0,0-1.625.4A9.5,9.5,0,0,0,44.569,38.736L47.02,41.19a44.306,44.306,0,0,0-1.582,8.671l-1.326,1.324-.223-.223a.978.978,0,0,0-1.383,0l-4.259,4.259A.978.978,0,0,0,39.63,56.6L43.2,53.037l8.051,8.048L47.68,64.656a.978.978,0,1,0,1.384,1.383l4.259-4.263a.978.978,0,0,0,.121-1.235,34.347,34.347,0,0,0,8.647-4.1l.113-.067L65.98,60.15a4.881,4.881,0,0,0,6.9-6.906ZM45.547,36.947a.979.979,0,0,0-.989-.241,7.543,7.543,0,0,1-9.816-7.752l3.31,3.312a.979.979,0,0,0,.945.253l4.387-1.176a.978.978,0,0,0,.691-.691l1.179-4.387A.978.978,0,0,0,45,25.321l-3.313-3.314a7.543,7.543,0,0,1,7.753,9.816.978.978,0,0,0,.24.989l5.17,5.17-4.135,4.135-1.882-1.882c-.009-.009-.019-.016-.028-.025l-.03-.03Zm16.2,17.418-.665.4c-2.916,1.746-5.679,3.4-9.239,4.155l-6.352-6.35L47.065,51a.98.98,0,0,0,.282-.59,50.125,50.125,0,0,1,1.246-7.649l1.432,1.431.015.014c.019.018.037.035.057.051s.038.029.058.043l.019.014c.024.016.048.03.072.043l.01.006c.026.014.052.026.078.037l.008,0c.025.01.051.019.077.027l.014,0c.024.007.048.013.073.018l.02,0c.023,0,.047.008.07.011l.024,0c.032,0,.064,0,.1,0s.064,0,.1,0l.024,0c.024,0,.047-.006.071-.011l.02,0c.025-.005.049-.011.074-.019l.012,0c.027-.008.053-.018.079-.028l.006,0c.027-.011.054-.024.081-.038l.006,0c.026-.014.051-.029.076-.046l.016-.012c.02-.014.041-.029.061-.045s.049-.042.072-.065l7.564-7.564a.872.872,0,0,1,1.214,0l.313.316a.865.865,0,0,1,0,1.217l-3.715,3.712a.978.978,0,1,0,1.383,1.384l3.711-3.708,0,0,.494-.494a.862.862,0,0,1,1.216,0l.309.309a.865.865,0,0,1,0,1.218l-4.207,4.2a.978.978,0,1,0,1.383,1.384l3.712-3.709,0,0,0,0a.862.862,0,0,1,1.213,0l.309.309a.864.864,0,0,1,0,1.218L62.6,47.688a.978.978,0,1,0,1.382,1.384l2.563-2.561.011-.01a.869.869,0,0,1,1.218,0l.309.309a.868.868,0,0,1,0,1.218l-.869.869c-.012.011-.024.021-.036.033s-.022.024-.033.036Zm9.747,4.4a2.93,2.93,0,0,1-4.135,0l-3.623-3.623,4.137-4.137L71.5,54.628A2.93,2.93,0,0,1,71.5,58.766Zm-.958-3.316a1.662,1.662,0,1,1-1.18-.492A1.645,1.645,0,0,1,70.539,55.45ZM89.514,37.41l-2.11-.479q-.038-.094-.077-.187l1.153-1.826a.978.978,0,0,0-.135-1.214l-2.268-2.268a.978.978,0,0,0-1.213-.136l-1.828,1.153-.188-.078-.475-2.107a.978.978,0,0,0-.954-.763H78.21a.978.978,0,0,0-.954.763l-.475,2.106q-.1.038-.191.079L74.765,31.3a.978.978,0,0,0-1.214.135L71.282,33.7a.978.978,0,0,0-.135,1.214L72.3,36.743q-.04.094-.078.188l-2.108.478a.978.978,0,0,0-.762.954v3.2a.978.978,0,0,0,.762.954L72.221,43q.038.1.079.189l-1.153,1.828a.978.978,0,0,0,.136,1.214L73.551,48.5a.978.978,0,0,0,1.213.135l1.825-1.153.191.079.475,2.106a.978.978,0,0,0,.954.763h3.208a.978.978,0,0,0,.954-.763l.475-2.106q.1-.038.191-.079l1.825,1.153a.978.978,0,0,0,1.213-.135l2.268-2.265a.978.978,0,0,0,.136-1.214l-1.154-1.829q.04-.093.078-.188l2.109-.479a.978.978,0,0,0,.762-.954v-3.2a.979.979,0,0,0-.762-.954ZM88.32,40.787l-1.867.424a.978.978,0,0,0-.712.647,6.436,6.436,0,0,1-.393.948.978.978,0,0,0,.04.973L86.409,45.4l-1.162,1.16-1.618-1.022a.977.977,0,0,0-.97-.043,6.25,6.25,0,0,1-.947.393.978.978,0,0,0-.655.716l-.421,1.866H78.992L78.57,46.6a.978.978,0,0,0-.658-.717,6.134,6.134,0,0,1-.945-.392.978.978,0,0,0-.97.043L74.38,46.56,73.218,45.4l1.022-1.621a.978.978,0,0,0,.04-.973,6.065,6.065,0,0,1-.391-.94.978.978,0,0,0-.715-.655l-1.867-.424V39.145l1.867-.424a.978.978,0,0,0,.715-.655,6.224,6.224,0,0,1,.393-.944.978.978,0,0,0-.043-.97l-1.022-1.618,1.163-1.163L76,34.394a.978.978,0,0,0,.97.043,6.14,6.14,0,0,1,.945-.392.978.978,0,0,0,.657-.717l.421-1.866h1.644l.421,1.866a.978.978,0,0,0,.655.716,6.071,6.071,0,0,1,.94.391.979.979,0,0,0,.973-.04l1.621-1.023,1.163,1.163-1.022,1.618a.978.978,0,0,0-.043.97,6.528,6.528,0,0,1,.4.951.978.978,0,0,0,.712.647l1.867.424v1.643Zm-8.508-5.823a5,5,0,1,0,5,5A5.007,5.007,0,0,0,79.812,34.964Zm0,8.047a3.045,3.045,0,1,1,3.045-3.045A3.048,3.048,0,0,1,79.812,43.011Z" transform="translate(-32.763 -0.5)" fill="#727997"/>
</svg>
