<svg xmlns="http://www.w3.org/2000/svg" width="47" height="47" viewBox="0 0 47 47">
  <g id="Grupo_1212881" data-name="Grupo 1212881" transform="translate(-186.711 -5040.188)">
    <circle id="Elipse_13714" data-name="Elipse 13714" cx="23.5" cy="23.5" r="23.5" transform="translate(186.711 5040.188)" fill="#0460d9"/>
    <path id="bolt-svgrepo-com" d="M20.528,10.374a2.156,2.156,0,0,0-1.7-.944,20.874,20.874,0,0,0-2.587-.091h-.06a10.875,10.875,0,0,1-1.342-.048.735.735,0,0,1-.395-.126c-.027-.028-.075-.094-.108-.331a10.652,10.652,0,0,1-.04-1.277V7.183a32.23,32.23,0,0,0-.122-3.766,2.241,2.241,0,0,0-1.332-2.1,2.335,2.335,0,0,0-2.31.954,33.736,33.736,0,0,0-2.368,3L5.029,9.52A19.213,19.213,0,0,0,3.607,11.6a2.043,2.043,0,0,0-.188,1.924v0l0,.007,0,.008,0,.008,0,.008,0,.008,0,.008,0,.008,0,.007v0a2.2,2.2,0,0,0,1.7.959,19.518,19.518,0,0,0,2.665.11,12.076,12.076,0,0,1,1.341.039.683.683,0,0,1,.376.115.619.619,0,0,1,.119.35A9.59,9.59,0,0,1,9.7,16.444v.374a32.251,32.251,0,0,0,.122,3.766,2.241,2.241,0,0,0,1.331,2.1,2.335,2.335,0,0,0,2.31-.954,33.757,33.757,0,0,0,2.368-3l3.1-4.193a18,18,0,0,0,1.455-2.16,2.083,2.083,0,0,0,.174-1.932v0l0-.007,0-.008,0-.008,0-.008,0-.008,0-.007,0-.008,0-.007ZM11.615,3.314a33.471,33.471,0,0,0-2.28,2.9L6.273,10.36a18.8,18.8,0,0,0-1.342,1.948,1.505,1.505,0,0,0-.176.45.169.169,0,0,0,0,.092c.024.036.129.145.622.22a18.429,18.429,0,0,0,2.439.092h.046a12.67,12.67,0,0,1,1.484.052,2.085,2.085,0,0,1,1.22.516l.006.006.006.006a2.033,2.033,0,0,1,.557,1.2,10.779,10.779,0,0,1,.066,1.5v.309a32.006,32.006,0,0,0,.109,3.63,2.386,2.386,0,0,0,.194.757c.051.1.081.1.089.105h0c.01,0,.047.016.161-.041a2.585,2.585,0,0,0,.628-.519,33.485,33.485,0,0,0,2.28-2.9l3.062-4.143a16.922,16.922,0,0,0,1.329-1.956c.2-.4.182-.532.169-.567s-.123-.134-.6-.2a20.466,20.466,0,0,0-2.439-.077,12.044,12.044,0,0,1-1.549-.062,2.138,2.138,0,0,1-1.221-.524l-.006-.005-.006-.006a1.984,1.984,0,0,1-.549-1.2A11.3,11.3,0,0,1,12.8,7.605V7.247a32.005,32.005,0,0,0-.109-3.63A2.389,2.389,0,0,0,12.5,2.86c-.052-.1-.081-.1-.089-.105h0c-.01,0-.047-.016-.161.041A2.585,2.585,0,0,0,11.615,3.314Z" transform="translate(198.461 5051.939)" fill="#fff" fill-rule="evenodd"/>
  </g>
</svg>
